<?xml version="1.0" standalone="no"?>
<!DOCTYPE svg PUBLIC "-//W3C//DTD SVG 1.1//EN" "http://www.w3.org/Graphics/SVG/1.1/DTD/svg11.dtd" >
<svg xmlns="http://www.w3.org/2000/svg">
<metadata></metadata>
<defs>
<font id="nissan_proextra_bold" horiz-adv-x="521" >
<font-face units-per-em="1000" ascent="750" descent="-250" />
<missing-glyph horiz-adv-x="271" />
<glyph horiz-adv-x="1000" />
<glyph horiz-adv-x="1000" />
<glyph unicode="&#xd;" horiz-adv-x="1000" />
<glyph unicode=" "  horiz-adv-x="271" />
<glyph unicode="&#x09;" horiz-adv-x="271" />
<glyph unicode="&#xa0;" horiz-adv-x="271" />
<glyph unicode="!" horiz-adv-x="292" d="M77 0v153h176v-153h-176zM77 532v174h176v-174l-27 -305h-123z" />
<glyph unicode="&#x22;" horiz-adv-x="323" d="M7 741h138l-49 -288h-40zM177 741h138l-49 -288h-40z" />
<glyph unicode="#" horiz-adv-x="583" d="M7 186v124h107l8 96h-103v124h113l16 176h124l-15 -176h99l15 176h124l-14 -176h95v-124h-105l-8 -96h102v-124h-113l-16 -186h-126l17 186h-99l-17 -186h-123l15 186h-96zM238 310h99l8 96h-98z" />
<glyph unicode="$" d="M12 198v30h198v-46q0 -59 46 -59q22 0 33.5 11t13 20.5t1.5 26.5q0 26 -11.5 41t-48.5 41l-118 84q-59 42 -77.5 78.5t-18.5 96.5q0 98 46 138.5t131 53.5v122h109v-122q80 -9 129.5 -52t49.5 -124v-55h-186v46q0 52 -46 52q-44 0 -44 -44q0 -9 3 -17.5t6.5 -14 t11.5 -12.5t13 -11t17.5 -12.5t18.5 -12.5l104 -75q61 -43 86 -80.5t25 -105.5q0 -47 -9.5 -81t-24.5 -54.5t-41.5 -34.5t-50.5 -20.5t-62 -13.5v-145h-109v145q-110 12 -152.5 56t-42.5 150z" />
<glyph unicode="%" horiz-adv-x="833" d="M26 409v187q0 19 1 30.5t9 31t23 31t46 20.5t75 9q52 0 85.5 -12t46.5 -35t16 -39t3 -40v-198q0 -21 -1 -33t-9 -33.5t-23 -33.5t-46.5 -22t-75.5 -10q-36 0 -63 5t-43 17t-25.5 23t-13 31.5t-4.5 33t-1 37.5zM146 377q0 -13 1 -19.5t8.5 -14t22.5 -7.5q16 0 24 7.5 t9 14.5t1 19v232q0 35 -34 35q-32 0 -32 -35v-232zM265 0l214 706h87l-214 -706h-87zM500 140v187q0 19 1 30.5t9 31t23 31t46 20.5t75 9q43 0 73.5 -9.5t45 -21.5t23 -32t9.5 -32t1 -31v-199q0 -20 -1 -32t-9 -33.5t-23.5 -33.5t-47 -22t-75.5 -10q-36 0 -63 5t-43 17.5 t-25.5 23t-13 31.5t-4.5 33.5t-1 36.5zM620 107q0 -12 1 -18.5t9 -14t23 -7.5q16 0 24 7.5t9 14t1 18.5v232q0 36 -34 36q-33 0 -33 -36v-232z" />
<glyph unicode="&#x26;" horiz-adv-x="604" d="M12 174q0 39 14 73t40 61t51 45.5t58 37.5q-7 14 -27 47.5t-29 58t-9 52.5q0 63 47.5 108.5t139.5 45.5q34 0 66.5 -7.5t64 -24t51 -49t19.5 -76.5q0 -51 -36 -100t-91 -83l51 -87q9 40 12 79h139q0 -57 -17 -121.5t-48 -110.5q19 -23 43 -23h48v-100h-133q-48 0 -81 16 q-60 -26 -128 -26q-120 0 -182.5 47t-62.5 137zM189 190q0 -27 21.5 -52t51.5 -25q22 0 58 21l-74 131q-57 -35 -57 -75zM272 552q0 -36 36 -74q58 38 58 73q0 21 -13.5 33t-34.5 12q-22 0 -34 -12t-12 -32z" />
<glyph unicode="'" horiz-adv-x="153" d="M7 741h138l-49 -288h-40z" />
<glyph unicode="(" horiz-adv-x="333" d="M47 -2v513q0 58 18 97.5t53 60.5t76.5 29.5t97.5 8.5h36v-66q-62 0 -84 -22.5t-22 -90.5v-543q0 -75 19.5 -97.5t86.5 -22.5v-66h-71q-100 0 -155 43t-55 156z" />
<glyph unicode=")" horiz-adv-x="333" d="M5 -135q62 0 84 22.5t22 90.5v543q0 75 -19.5 97.5t-86.5 22.5v66h71q100 0 155 -43t55 -156v-513q0 -58 -18 -97.5t-53 -60.5t-76.5 -29.5t-97.5 -8.5h-36v66z" />
<glyph unicode="*" horiz-adv-x="437" d="M13 509l35 119l105 -30v107h124v-107l106 36l40 -118l-100 -34l61 -78l-97 -77l-68 86l-64 -87l-101 74l59 80z" />
<glyph unicode="+" horiz-adv-x="558" d="M80 227v147h108v137h184v-137h106v-147h-106v-136h-184v136h-108z" />
<glyph unicode="," horiz-adv-x="250" d="M38 0v164h172v-164l-90 -152h-65l53 152h-70z" />
<glyph unicode="-" horiz-adv-x="360" d="M29 232v137h302v-137h-302z" />
<glyph unicode="." horiz-adv-x="250" d="M37 0v164h174v-164h-174z" />
<glyph unicode="/" horiz-adv-x="333" d="M1 0l180 706h150l-178 -706h-152z" />
<glyph unicode="0" d="M27 175v358q0 93 52 139t173 46q107 0 172 -39.5t65 -128.5v-365q0 -22 -0.5 -35.5t-5 -36.5t-13 -37.5t-25 -32.5t-40 -28.5t-60 -18t-83.5 -7.5q-49 0 -86.5 7.5t-73.5 26.5t-55.5 57.5t-19.5 94.5zM208 150q0 -51 50 -51q51 0 51 51v400q0 56 -51 56q-50 0 -50 -57 v-399z" />
<glyph unicode="1" d="M85 475v127q62 6 104 104h179v-706h-179v521q-55 -37 -104 -46z" />
<glyph unicode="2" d="M31 0v66q0 82 30 132q29 48 102 114l71 65q52 47 62.5 63.5t10.5 51.5v57q0 29 -11 41t-38 12q-28 0 -39 -12.5t-11 -39.5v-113h-177v107q0 85 58.5 130t166.5 45q233 0 233 -184v-34q0 -51 -13 -86.5t-60 -79.5l-99 -92q-2 -1 -13 -11.5t-15 -14.5t-13.5 -14t-14 -16.5 t-10.5 -15.5t-8.5 -17.5t-2.5 -16.5h253v-137h-462z" />
<glyph unicode="3" d="M27 153v80h180v-73q0 -15 2 -24t13.5 -18.5t33.5 -9.5q30 0 40 15t10 40v87q0 28 -11 37.5t-39 9.5h-73v136h77q26 0 36 9t10 35v70q0 24 -10.5 36.5t-39.5 12.5q-22 0 -33.5 -9t-13.5 -17.5t-2 -21.5v-54h-173v52q0 171 221 171q63 0 113 -14.5t84.5 -52.5t34.5 -96v-40 q0 -32 -5 -54.5t-18 -39.5t-24 -26t-34 -25q48 -15 64.5 -42.5t16.5 -73.5v-99q0 -76 -60 -120.5t-171 -44.5q-229 0 -229 164z" />
<glyph unicode="4" d="M20 150v134l204 422h204v-422h72v-134h-72v-150h-182v150h-226zM142 284h113v263z" />
<glyph unicode="5" d="M30 173v51h178v-74q0 -51 47 -51q24 0 36.5 9t14.5 18t2 24v156q0 10 -1 17t-5 17t-15 15t-29 5q-50 0 -50 -45h-169l8 391h417v-135h-257l-5 -159q18 20 31 31t39.5 21.5t58.5 10.5q69 0 113 -40t44 -116v-152q0 -177 -230 -177q-120 0 -174 42t-54 141z" />
<glyph unicode="6" d="M30 184v350q0 184 233 184q48 0 86.5 -9t70.5 -28t50 -54.5t18 -83.5v-50h-178v49q0 52 -50 52q-47 0 -47 -49v-162q36 56 125 56q155 0 155 -152v-110q0 -95 -61 -140.5t-170 -45.5q-108 0 -170 49.5t-62 143.5zM213 156q0 -16 1.5 -25t13 -19t34.5 -10q22 0 33.5 10.5 t13 20t1.5 25.5v122q0 11 -1 18t-5 16t-14 13.5t-26 4.5q-18 0 -29.5 -5t-15.5 -15t-5 -16.5t-1 -16.5v-123z" />
<glyph unicode="7" d="M29 482v224h469v-138q-187 -280 -197 -568h-189q3 131 61 278t158 291h-155v-87h-147z" />
<glyph unicode="8" d="M25 175v74q0 52 21.5 82.5t73.5 48.5q-51 23 -68 51.5t-17 99.5v23q0 164 221 164q39 0 74.5 -7t73.5 -23.5t60.5 -51t22.5 -83.5v-22q0 -66 -20.5 -98t-75.5 -53q62 -18 82 -49.5t20 -84.5v-102q0 -154 -230 -154q-49 0 -87 7t-63 16.5t-42.5 26.5t-26 31t-13.5 35.5 t-5.5 34.5t-0.5 34zM210 149q0 -27 11.5 -37.5t41.5 -10.5q16 0 26.5 4t14.5 12.5t5 15t1 18.5v116q0 10 -1 16.5t-5 16.5t-15.5 15t-29.5 5q-17 0 -28 -4.5t-15 -14t-5 -16t-1 -17.5v-119zM210 483q0 -15 1.5 -23.5t13 -17.5t34.5 -9t34.5 8t14 17t2.5 26v77 q0 12 -1.5 19.5t-13.5 16.5t-35 9t-35 -8.5t-13.5 -16t-1.5 -20.5v-78z" />
<glyph unicode="9" d="M23 167v48h185v-64q0 -48 47 -48q18 0 29 4.5t15.5 13t5.5 14.5t1 17v156q-51 -43 -113 -43q-68 0 -113.5 37.5t-45.5 110.5v118q0 92 51.5 138.5t166.5 46.5q47 0 86.5 -8.5t74 -27.5t54 -55t19.5 -85v-375q0 -79 -61 -127t-169 -48q-66 0 -114 16.5t-72.5 44t-35.5 56 t-11 60.5zM208 422q0 -16 1.5 -24.5t13 -18t34.5 -9.5t34.5 9.5t13 18t1.5 23.5v120q0 28 -10 40.5t-42 12.5q-28 0 -37 -13t-9 -38v-121z" />
<glyph unicode=":" horiz-adv-x="292" d="M79 0v162h174v-162h-174zM79 384v164h174v-164h-174z" />
<glyph unicode=";" horiz-adv-x="292" d="M78 0v161h175v-161l-97 -153h-61l55 153h-72zM78 383v166h175v-166h-175z" />
<glyph unicode="&#x3c;" horiz-adv-x="559" d="M86 269v155l358 195v-165l-200 -103l200 -95v-181z" />
<glyph unicode="=" horiz-adv-x="559" d="M85 130v142h389v-142h-389zM85 359v142h389v-142h-389z" />
<glyph unicode="&#x3e;" horiz-adv-x="559" d="M115 76v164l200 103l-200 95v181l358 -193v-155z" />
<glyph unicode="?" horiz-adv-x="479" d="M78 525v40q0 73 49.5 110t141.5 37q98 0 150 -38.5t52 -111.5q0 -39 -9.5 -67.5t-39.5 -56.5l-88 -82q-16 -14 -21.5 -20.5t-10.5 -19t-5 -29.5v-61h-174v38q0 33 4.5 57t17.5 43.5t21.5 29t30.5 30.5l84 81q30 28 30 58q0 22 -13 31.5t-26 9.5q-20 0 -29.5 -12.5 t-9.5 -30.5v-36h-155zM123 0v150h174v-150h-174z" />
<glyph unicode="@" horiz-adv-x="786" d="M29 246q0 195 126.5 331t307.5 136q131 0 209 -80.5t78 -215.5q0 -142 -68.5 -246.5t-160.5 -104.5q-32 0 -54.5 18.5t-28.5 49.5q-52 -67 -115 -67q-61 0 -98.5 47t-37.5 123q0 114 62 200t145 86q61 0 98 -60l10 40h96l-39 -196q-14 -76 -16 -110q0 -25 16 -25 q28 0 59.5 80.5t31.5 155.5q0 107 -53 160.5t-147 53.5q-130 0 -223.5 -109.5t-93.5 -261.5q0 -127 74 -204t196 -77q151 0 293 140l56 -74q-73 -75 -165.5 -116.5t-190.5 -41.5q-115 0 -208 57q-159 99 -159 311zM298 244q0 -38 14.5 -60t40.5 -22q41 0 74 57.5t33 125.5 q0 39 -16 61.5t-43 22.5q-40 0 -71.5 -56.5t-31.5 -128.5z" />
<glyph unicode="A" horiz-adv-x="562" d="M-2 0l164 706h238l160 -706h-197l-22 159h-121l-24 -159h-198zM238 285h85l-42 283z" />
<glyph unicode="B" horiz-adv-x="542" d="M34 0v706h271q100 0 156 -38.5t56 -136.5q0 -75 -30 -109.5t-91 -52.5q78 -12 106 -50.5t28 -120.5q0 -53 -11 -90t-29 -58t-50.5 -32.5t-64.5 -14.5t-82 -3h-259zM229 135h44q33 0 45 11t12 43v48q0 31 -12 42.5t-43 11.5h-46v-156zM229 424h44q29 0 40.5 11.5 t11.5 41.5v45q0 28 -11.5 38t-40.5 10h-44v-146z" />
<glyph unicode="C" horiz-adv-x="542" d="M29 182v330q0 102 55 154.5t193 52.5q247 0 247 -189v-84h-195v84q0 49 -49 49q-53 0 -53 -49v-359q0 -26 12.5 -36t38.5 -10q51 0 51 51v85h197v-65q0 -113 -58.5 -161t-186.5 -48q-55 0 -96.5 8t-78.5 28.5t-57 60.5t-20 98z" />
<glyph unicode="D" horiz-adv-x="562" d="M34 0v706h243q142 0 199 -48t57 -154v-268q0 -137 -51 -186.5t-175 -49.5h-273zM234 132h46q33 0 43.5 13.5t10.5 46.5v316q0 36 -10.5 49t-43.5 13h-46v-438z" />
<glyph unicode="E" horiz-adv-x="437" d="M35 0v706h386v-137h-187v-143h173v-135h-173v-155h187v-136h-386z" />
<glyph unicode="F" horiz-adv-x="417" d="M35 0v706h380v-136h-182v-143h168v-135h-168v-292h-198z" />
<glyph unicode="G" horiz-adv-x="562" d="M27 181v335q0 113 67 157.5t188 44.5q116 0 183 -41t67 -144v-71h-191v64q0 25 -11 38t-48 13q-34 0 -44 -13t-10 -36v-361q0 -57 54 -57q31 0 45 12.5t14 41.5v80h-61v125h252v-369h-191v77q-25 -47 -57.5 -67.5t-85.5 -20.5q-85 0 -128 44.5t-43 147.5z" />
<glyph unicode="H" horiz-adv-x="562" d="M35 0v706h200v-278h93v278h198v-706h-198v282h-93v-282h-200z" />
<glyph unicode="I" horiz-adv-x="271" d="M35 0v706h200v-706h-200z" />
<glyph unicode="J" horiz-adv-x="354" d="M12 0v135h54q31 0 43 12t12 48v511h198v-534q0 -94 -38 -133t-136 -39h-133z" />
<glyph unicode="K" horiz-adv-x="562" d="M36 0v706h196v-324l120 324h200l-142 -338l160 -368h-212l-126 327v-327h-196z" />
<glyph unicode="L" horiz-adv-x="417" d="M36 0v706h197v-572h183v-134h-380z" />
<glyph unicode="M" horiz-adv-x="750" d="M35 0v706h251l90 -466l88 466h249v-706h-166v484l-109 -484h-127l-110 475v-475h-166z" />
<glyph unicode="N" horiz-adv-x="562" d="M36 0v706h183l140 -427v427h166v-706h-187l-136 412v-412h-166z" />
<glyph unicode="O" horiz-adv-x="562" d="M27 188v329q0 59 20.5 100t58 61.5t79 29t93.5 8.5q19 0 35.5 -1t43.5 -5t49 -11t46 -21.5t40.5 -33.5t27.5 -49t11 -67v-339q0 -199 -245 -199q-259 0 -259 198zM227 179q0 -11 1 -17.5t5.5 -16.5t16 -15t29.5 -5q23 0 35.5 9t14.5 19t2 26v352q0 15 -1.5 23.5t-14 18 t-36.5 9.5q-22 0 -34.5 -8.5t-15 -18.5t-2.5 -26v-350z" />
<glyph unicode="P" horiz-adv-x="542" d="M35 0v706h305q102 0 143.5 -44t41.5 -150v-63q0 -113 -48 -153.5t-156 -40.5h-88v-255h-198zM233 390h50q31 0 40.5 12.5t9.5 44.5v73q0 28 -11 39.5t-39 11.5h-50v-181z" />
<glyph unicode="Q" horiz-adv-x="562" d="M27 192v325q0 59 20 99.5t56.5 61.5t79.5 30t99 9q118 0 183.5 -48t65.5 -146v-318q0 -92 -36.5 -141t-133.5 -67v-26q0 -27 10.5 -35.5t37.5 -8.5h53v-111h-156q-67 0 -90.5 26.5t-23.5 88.5v68q-89 17 -127 63.5t-38 129.5zM227 179q0 -11 1 -17.5t5.5 -16.5t16 -15 t29.5 -5q23 0 35.5 9t14.5 19t2 26v352q0 15 -1.5 23.5t-14 18t-36.5 9.5q-22 0 -34.5 -8.5t-15 -18.5t-2.5 -26v-350z" />
<glyph unicode="R" horiz-adv-x="562" d="M34 0v706h270q107 0 165 -35t58 -126v-23q0 -70 -29 -106t-90 -48q58 -7 90 -32.5t32 -91.5v-167q0 -31 6 -45.5t20 -31.5h-200q-14 25 -19 44.5t-5 58.5v142q0 27 -9.5 37.5t-36.5 10.5h-51v-293h-201zM235 427h51q29 0 38 10.5t9 44.5v40q0 24 -10 34t-35 10h-53v-139z " />
<glyph unicode="S" d="M15 181v46h194v-47q0 -57 49 -57q46 0 46 59q0 25 -11 38.5t-50 41.5l-123 89q-59 43 -75 77.5t-16 92.5q0 109 61.5 153t174.5 44q42 0 78.5 -7.5t72.5 -26t57 -56t21 -90.5v-55h-185v47q0 52 -46 52q-18 0 -29 -9.5t-13.5 -18.5t-2.5 -18q0 -5 1 -10t3.5 -10t5 -8.5 t8 -8.5t8.5 -8t10.5 -9t11 -8.5t13 -9t13.5 -9.5l98 -71q61 -43 86.5 -83.5t25.5 -114.5q0 -100 -57 -148.5t-182 -48.5q-57 0 -96 6.5t-76.5 25.5t-56.5 59t-19 101z" />
<glyph unicode="T" horiz-adv-x="500" d="M-1 571v135h499v-135h-150v-571h-199v571h-150z" />
<glyph unicode="U" horiz-adv-x="562" d="M31 165v541h198v-519q0 -57 51 -57q50 0 50 57v519h199v-536q0 -54 -19.5 -91t-56 -55.5t-77.5 -26t-96 -7.5q-42 0 -75.5 4t-67 15.5t-56 30.5t-36.5 51t-14 74z" />
<glyph unicode="V" horiz-adv-x="542" d="M-1 706h195l73 -541l76 541h197l-137 -706h-271z" />
<glyph unicode="W" horiz-adv-x="833" d="M1 706h175l54 -501l70 501h228l72 -501l53 501h174l-88 -706h-245l-80 526l-81 -526h-242z" />
<glyph unicode="X" d="M0 0l122 369l-122 337h201l59 -242l60 242h197l-117 -337l117 -369h-197l-60 244l-63 -244h-197z" />
<glyph unicode="Y" horiz-adv-x="562" d="M0 706h197l85 -306l83 306h193l-176 -479v-227h-197v227z" />
<glyph unicode="Z" horiz-adv-x="479" d="M16 0v137l229 435h-203v134h418v-139l-231 -430h231v-137h-444z" />
<glyph unicode="[" horiz-adv-x="333" d="M46 -201v907h281v-65h-107v-778h107v-64h-281z" />
<glyph unicode="\" horiz-adv-x="333" d="M1 706h152l178 -706h-150z" />
<glyph unicode="]" horiz-adv-x="333" d="M4 -136h108v778h-108v64h282v-908h-282v66z" />
<glyph unicode="^" horiz-adv-x="559" d="M32 359l169 347h159l167 -347h-178l-66 193l-72 -193h-179z" />
<glyph unicode="_" horiz-adv-x="500" d="M-10 -112h520v-127h-520v127z" />
<glyph unicode="`" horiz-adv-x="271" d="M-5 696h203l78 -124h-151z" />
<glyph unicode="a" d="M21 113v25q0 63 19.5 97t74.5 54q27 10 91 25t94 29v35q0 10 -1 15.5t-4.5 13.5t-12.5 12t-24 4q-40 0 -40 -47v-28h-175v48q0 149 226 149q113 0 166.5 -38t53.5 -120v-319q0 -29 5 -41.5t19 -26.5h-213v47q-69 -60 -145 -60q-134 0 -134 126zM210 179q0 -57 7.5 -73 t34.5 -16q17 0 27.5 5t14.5 14t5 15t1 16v116q-61 -24 -75.5 -35.5t-14.5 -41.5z" />
<glyph unicode="b" d="M31 0v706h188v-236q9 16 17 26t23.5 23.5t38.5 20.5t53 7q79 0 112.5 -43t33.5 -123v-245q0 -73 -37.5 -110t-103.5 -37q-47 0 -83 20.5t-54 53.5v-63h-188zM219 143q0 -14 1.5 -23t12 -18.5t29.5 -9.5q21 0 31.5 9.5t12 18.5t1.5 26v248q0 49 -44 49q-20 0 -30.5 -9.5 t-12 -18t-1.5 -22.5v-250z" />
<glyph unicode="c" horiz-adv-x="500" d="M23 151v223q0 94 57.5 132.5t163.5 38.5q228 0 228 -157v-60h-180v53q0 9 -1 14t-4 13t-12.5 12t-23.5 4q-21 0 -30.5 -10t-9.5 -33v-223q0 -48 40 -48q19 0 28.5 8t11 17t1.5 25v32h187v-48q0 -81 -58 -118.5t-154 -37.5q-36 0 -64.5 2.5t-64 12t-59 26.5t-40 48 t-16.5 74z" />
<glyph unicode="d" d="M24 133v250q0 26 1.5 44.5t9.5 42t22.5 38.5t41.5 25.5t65 10.5q98 0 136 -68v230h189v-706h-189v61q-21 -38 -50 -55t-75 -17q-81 0 -116 37t-35 107zM214 140q0 -12 1.5 -19.5t12 -15.5t30.5 -8q41 0 41 45v243q0 43 -43 43q-42 0 -42 -43v-245z" />
<glyph unicode="e" horiz-adv-x="500" d="M23 150v222q0 98 52 136t170 38q43 0 76.5 -4t64 -14.5t50.5 -28t32 -46t12 -66.5v-149h-267v-79q0 -25 8.5 -38.5t35.5 -13.5q25 0 33.5 12t8.5 41v25h181v-30q0 -94 -54.5 -130.5t-172.5 -36.5q-48 0 -83.5 5.5t-71.5 21t-55.5 49.5t-19.5 86zM213 323h89v65 q0 46 -44 46q-45 0 -45 -47v-64z" />
<glyph unicode="f" horiz-adv-x="354" d="M0 430v103h81v42q0 72 32 102q31 29 105 29h142v-101h-38q-31 0 -42 -9.5t-11 -39.5v-23h85v-102h-85v-431h-188v430h-81z" />
<glyph unicode="g" d="M24 162v229q0 153 146 153q42 0 78 -18.5t54 -54.5v62h187v-599q0 -96 -58 -135.5t-168 -39.5q-231 0 -231 164v20h179v-17q0 -24 10.5 -35.5t35.5 -11.5q45 0 45 48v130q-37 -68 -131 -68q-80 0 -113.5 44.5t-33.5 128.5zM211 154q0 -13 1.5 -21t12.5 -17t33 -9 q20 0 30.5 8.5t12 16.5t1.5 23v227q0 22 -9.5 34.5t-37.5 12.5q-21 0 -32.5 -10t-11.5 -38v-227z" />
<glyph unicode="h" d="M30 0v706h188v-225q41 63 128 63q57 0 99.5 -36t42.5 -113v-395h-188v398q0 43 -40 43q-42 0 -42 -45v-396h-188z" />
<glyph unicode="i" horiz-adv-x="250" d="M30 0v533h189v-533h-189zM30 580v126h189v-126h-189z" />
<glyph unicode="j" horiz-adv-x="250" d="M-28 -92h22q36 0 36 45v580h189v-590q0 -75 -28 -103.5t-105 -28.5h-114v97zM30 580v126h188v-126h-188z" />
<glyph unicode="k" d="M30 0v706h182v-393l102 220h184l-127 -242l151 -291h-198l-112 254v-254h-182z" />
<glyph unicode="l" horiz-adv-x="250" d="M31 0v706h188v-706h-188z" />
<glyph unicode="m" horiz-adv-x="792" d="M30 0v533h188v-63q47 74 131 74q31 0 54 -6.5t38 -20t23.5 -24.5t18.5 -29q14 21 24 33.5t39.5 28.5t66.5 16q69 0 107 -35.5t38 -92.5v-414h-188v380q0 43 -38 43q-44 0 -44 -45v-378h-188v381q0 46 -41 46t-41 -46v-381h-188z" />
<glyph unicode="n" d="M30 0v533h189v-53q24 30 52.5 47t73.5 17q78 0 111 -45.5t33 -107.5v-391h-190v381q0 27 -9.5 38.5t-30.5 11.5q-40 0 -40 -50v-381h-189z" />
<glyph unicode="o" d="M25 145v248q0 40 15.5 70t37.5 45.5t55 24.5t59.5 11.5t60.5 2.5q48 0 85 -5t76 -20t60 -47t21 -80v-245q0 -50 -17 -83.5t-50.5 -50t-69.5 -22.5t-85 -6q-42 0 -72 2.5t-66 11.5t-58 25t-37 46t-15 72zM212 165q0 -11 1 -18t5 -17t15 -15.5t28 -5.5t27 5t14 15.5t5 17.5 t1 20v204q0 52 -48 52t-48 -49v-209z" />
<glyph unicode="p" d="M30 -169v702h188v-66q35 77 130 77q148 0 148 -138v-267q0 -151 -144 -151q-96 0 -134 70v-227h-188zM218 151q0 -49 44 -49q21 0 31.5 9.5t12 18t1.5 22.5v226q0 13 -1.5 21.5t-12 18t-30.5 9.5q-21 0 -31.5 -10t-12 -18.5t-1.5 -22.5v-225z" />
<glyph unicode="q" d="M24 148v228q0 89 36 128.5t110 39.5q101 0 132 -74v63h188v-701h-188v232q-41 -75 -132 -75q-146 0 -146 159zM213 150q0 -47 42 -47q47 0 47 50v226q0 10 -1 16t-4.5 15t-13 13.5t-25.5 4.5q-25 0 -35 -11t-10 -37v-230z" />
<glyph unicode="r" horiz-adv-x="333" d="M30 0v533h189v-83q38 74 114 90v-173h-26q-55 0 -71.5 -17t-16.5 -62v-288h-189z" />
<glyph unicode="s" horiz-adv-x="479" d="M9 139v20h189v-27q0 -47 42 -47q40 0 40 42q0 11 -5.5 19t-12.5 12.5t-23 11.5l-74 34q-42 19 -64.5 32.5t-44.5 34t-30.5 47t-8.5 64.5q0 91 57 126t172 35q214 0 214 -141v-31h-180v24q0 14 -2 23.5t-12 17.5t-29 8q-39 0 -39 -38q0 -6 1.5 -11.5t3 -9.5t5.5 -8t7 -6.5 t10.5 -6.5t12 -6t15 -7t16.5 -8l95 -45q56 -26 81.5 -59t25.5 -89q0 -164 -228 -164q-40 0 -71 3t-63 12.5t-52.5 26t-34 44.5t-13.5 67z" />
<glyph unicode="t" horiz-adv-x="354" d="M0 430v103h80v173h184v-173h84v-103h-84v-275q0 -24 10 -35t37 -11h42v-109h-146q-68 0 -97.5 31t-29.5 94v305h-80z" />
<glyph unicode="u" d="M31 153v380h188v-388q0 -27 9 -39.5t31 -12.5q41 0 41 53v387h189v-533h-189v54q-50 -66 -134 -66q-135 0 -135 165z" />
<glyph unicode="v" horiz-adv-x="479" d="M-1 533h187l54 -381l54 381h185l-124 -533h-226z" />
<glyph unicode="w" horiz-adv-x="750" d="M-1 533h188l36 -372l61 372h183l54 -372l44 372h185l-106 -533h-210l-62 345l-64 -345h-210z" />
<glyph unicode="x" horiz-adv-x="500" d="M2 0l123 272l-112 261h185l50 -173l61 173h186l-123 -261l123 -272h-186l-61 185l-57 -185h-189z" />
<glyph unicode="y" horiz-adv-x="500" d="M0 533h187l65 -324l62 324h185l-148 -527q-18 -65 -34 -101.5t-42.5 -63t-62.5 -36t-93 -9.5h-85l5 117h41q20 0 32.5 2.5t27 16t21.5 37.5z" />
<glyph unicode="z" horiz-adv-x="458" d="M15 0v108l193 318h-157v107h375v-107l-200 -318h208v-108h-419z" />
<glyph unicode="{" horiz-adv-x="354" d="M28 210v74q46 10 62 41t16 109v108q0 94 45.5 130.5t144.5 36.5h43v-70q-41 -5 -54.5 -24.5t-13.5 -67.5v-135q0 -77 -23.5 -113.5t-86.5 -48.5v-6q67 -15 89 -54t22 -131v-107q0 -49 13 -72.5t54 -24.5v-70h-23q-58 0 -91.5 5.5t-63.5 23t-42.5 54t-12.5 96.5v99 q0 32 -2 51.5t-9 42.5t-23.5 36t-43.5 17z" />
<glyph unicode="|" horiz-adv-x="247" d="M44 -214v923h159v-923h-159z" />
<glyph unicode="}" horiz-adv-x="354" d="M15 -145q41 5 54.5 24.5t13.5 67.5v135q0 77 23.5 113.5t86.5 48.5v6q-67 15 -89 54t-22 131v107q0 49 -13 72.5t-54 24.5v70h23q58 0 91.5 -5.5t63.5 -23t42.5 -54t12.5 -96.5v-99q0 -32 2 -51.5t9 -42.5t23.5 -36t43.5 -17v-74q-46 -10 -62 -41t-16 -109v-108 q0 -94 -45.5 -130.5t-144.5 -36.5h-43v70z" />
<glyph unicode="~" horiz-adv-x="559" d="M48 332q36 45 66.5 63t69.5 18q32 0 78 -18l36 -14q40 -15 59 -15q21 0 36.5 11t42.5 43l75 -135q-67 -80 -139 -80q-32 0 -80 20l-25 11q-33 15 -59 15q-44 0 -85 -57z" />
<glyph unicode="&#xa1;" horiz-adv-x="292" d="M37 0v174l27 306h123l26 -300v-180h-176zM37 555v151h176v-151h-176z" />
<glyph unicode="&#xa2;" horiz-adv-x="500" d="M23 158v214q0 49 14.5 82.5t42 51t52 25t59.5 12.5v118h111v-119q75 -5 122.5 -44.5t47.5 -105.5v-64h-180v53q0 43 -39 43q-27 0 -34.5 -12t-7.5 -31v-223q0 -24 8.5 -36t31.5 -12q41 0 41 44v38h186v-46q0 -144 -176 -157v-141h-111v144q-92 13 -130 52.5t-38 113.5z " />
<glyph unicode="&#xa3;" horiz-adv-x="625" d="M19 99q0 51 31 82t82 31q28 0 70 -15q-9 45 -39 101h-131v108h74l-6 14q-7 15 -10.5 24t-8.5 25.5t-7.5 35.5t-2.5 39q0 174 230 174q229 0 229 -164v-85h-177v73q0 54 -51 54q-56 0 -56 -54q0 -56 46 -136h194v-108h-142q28 -72 28 -120q0 -21 -6 -53q17 -4 32 -4 q44 0 44 67v48h168v-81q0 -167 -131 -167q-58 0 -162 53q-66 -56 -152 -56q-69 0 -107.5 30t-38.5 84zM116 98q0 -12 9.5 -19t24.5 -7q30 0 45 35q-26 18 -46 18q-14 0 -23.5 -8t-9.5 -19z" />
<glyph unicode="&#xa5;" horiz-adv-x="562" d="M0 706h197l86 -309l82 309h193l-106 -285h82v-100h-118l-22 -59h140v-100h-152v-162h-197v162h-156v100h142l-21 59h-121v100h83z" />
<glyph unicode="&#xa8;" horiz-adv-x="271" d="M-50 574v132h152v-132h-152zM169 574v132h152v-132h-152z" />
<glyph unicode="&#xa9;" horiz-adv-x="833" d="M61 353q0 149 103.5 252.5t252.5 103.5t252.5 -103t103.5 -251q0 -151 -103 -254.5t-254 -103.5q-148 0 -251.5 104t-103.5 252zM117 352q0 -128 87 -217.5t212 -89.5t213 89.5t88 216.5q0 131 -87 220.5t-214 89.5q-124 0 -211.5 -90.5t-87.5 -218.5zM257 265v174 q0 83 42.5 115.5t120.5 32.5q85 0 120.5 -32.5t35.5 -110.5v-35h-123v34q0 28 -7.5 38.5t-27.5 10.5q-21 0 -29 -11.5t-8 -51.5v-156q0 -38 7.5 -49t28.5 -11q22 0 29 11.5t7 46.5v35h123v-36q0 -79 -36 -111.5t-124 -32.5q-79 0 -119 30.5t-40 108.5z" />
<glyph unicode="&#xab;" horiz-adv-x="375" d="M13 225v147l158 129v-155l-61 -48l61 -50v-152zM194 226v145l160 132v-155l-62 -50l62 -50v-154z" />
<glyph unicode="&#xae;" horiz-adv-x="833" d="M61 353q0 151 104.5 253.5t250.5 102.5q150 0 253.5 -103t103.5 -254q0 -145 -102.5 -250t-255.5 -105q-143 0 -248.5 101t-105.5 255zM93 353q0 -136 94.5 -230t228.5 -94q139 0 232 95.5t93 227.5q0 136 -93.5 230.5t-231.5 94.5q-133 0 -228 -94t-95 -230zM265 130 v449h187q66 0 95 -21.5t29 -70.5v-64q0 -34 -14 -57q-13 -20 -53 -30q38 -8 53 -29t15 -66v-54q0 -37 21 -57h-128q-14 20 -14 53v66q0 32 -9.5 42.5t-38.5 10.5h-21v-172h-122zM387 395h22q26 0 36 9t10 32v15q0 35 -42 35h-26v-91z" />
<glyph unicode="&#xb4;" horiz-adv-x="271" d="M-5 572l77 124h204l-131 -124h-150z" />
<glyph unicode="&#xb8;" horiz-adv-x="271" d="M23 -63l102 105h96l-66 -76h13q79 0 79 -69q0 -48 -44.5 -77.5t-111.5 -29.5q-19 0 -38 3l-17 52q21 -6 34 -6q48 0 48 36q0 13 -6.5 21t-13 10t-12.5 2q-17 0 -41 -15z" />
<glyph unicode="&#xbb;" horiz-adv-x="375" d="M19 92v153l61 50l-61 51v154l160 -132v-145zM202 92v154l60 49l-60 51v152l158 -129v-147z" />
<glyph unicode="&#xbf;" horiz-adv-x="479" d="M7 141q0 39 9.5 67.5t39.5 56.5l88 82q16 14 21.5 20.5t10.5 19t5 29.5v60h174v-37q0 -33 -4.5 -57t-17.5 -43.5t-21.5 -29t-30.5 -30.5l-84 -81q-30 -28 -30 -58q0 -22 13 -31.5t26 -9.5q20 0 29.5 12.5t9.5 30.5v36h155v-40q0 -73 -49.5 -110t-141.5 -37 q-98 0 -150 38.5t-52 111.5zM181 552v154h174v-154h-174z" />
<glyph unicode="&#xc0;" horiz-adv-x="562" d="M-2 0l164 706h238l160 -706h-197l-22 159h-121l-24 -159h-198zM120 876h190l62 -111h-150zM238 285h85l-42 283z" />
<glyph unicode="&#xc1;" horiz-adv-x="562" d="M-2 0l164 706h238l160 -706h-197l-22 159h-121l-24 -159h-198zM192 764l61 112h191l-103 -112h-149zM238 285h85l-42 283z" />
<glyph unicode="&#xc2;" horiz-adv-x="562" d="M-2 0l164 706h238l160 -706h-197l-22 159h-121l-24 -159h-198zM105 758l77 109h203l75 -109h-149l-29 45l-28 -45h-149zM238 285h85l-42 283z" />
<glyph unicode="&#xc3;" horiz-adv-x="562" d="M-2 0l164 706h238l160 -706h-197l-22 159h-121l-24 -159h-198zM122 759q0 57 29.5 90.5t72.5 33.5q27 0 73 -15.5t57 -15.5q28 0 28 29h61q0 -58 -26.5 -92.5t-75.5 -34.5q-27 0 -71 17.5t-57 17.5q-28 0 -30 -30h-61zM238 285h85l-42 283z" />
<glyph unicode="&#xc4;" horiz-adv-x="562" d="M-2 0l164 706h238l160 -706h-197l-22 159h-121l-24 -159h-198zM100 756v121h146v-121h-146zM238 285h85l-42 283zM316 756v121h145v-121h-145z" />
<glyph unicode="&#xc5;" horiz-adv-x="562" d="M-2 0l164 706h238l160 -706h-197l-22 159h-121l-24 -159h-198zM182 826q0 42 30 72.5t73 30.5t72.5 -30.5t29.5 -72.5t-30 -72t-72 -30t-72.5 30t-30.5 72zM238 285h85l-42 283zM252 826q0 -13 10 -22.5t23 -9.5t22.5 9.5t9.5 22.5t-9.5 23t-22.5 10t-23 -9.5t-10 -23.5z " />
<glyph unicode="&#xc6;" horiz-adv-x="792" d="M-1 0l257 706h521v-135h-187v-147h175v-134h-175v-157h187v-133h-379v189h-138l-61 -189h-200zM303 315h95v285z" />
<glyph unicode="&#xc7;" horiz-adv-x="542" d="M29 182v330q0 102 55 154.5t193 52.5q247 0 247 -189v-84h-195v84q0 49 -49 49q-53 0 -53 -49v-359q0 -26 12.5 -36t38.5 -10q51 0 51 51v85h197v-65q0 -107 -52.5 -155t-165.5 -53l-19 -22h13q79 0 79 -69q0 -48 -44.5 -77.5t-111.5 -29.5q-19 0 -38 3l-17 52 q21 -6 34 -6q48 0 48 36q0 13 -6.5 21t-13 10t-12.5 2q-17 0 -41 -15l-22 44l52 54q-180 21 -180 191z" />
<glyph unicode="&#xc8;" horiz-adv-x="437" d="M35 0v706h386v-137h-187v-143h173v-135h-173v-155h187v-136h-386zM54 876h190l62 -111h-150z" />
<glyph unicode="&#xc9;" horiz-adv-x="437" d="M35 0v706h386v-137h-187v-143h173v-135h-173v-155h187v-136h-386zM141 764l61 112h191l-103 -112h-149z" />
<glyph unicode="&#xca;" horiz-adv-x="437" d="M35 0v706h386v-137h-187v-143h173v-135h-173v-155h187v-136h-386zM49 758l77 109h203l75 -109h-149l-29 45l-28 -45h-149z" />
<glyph unicode="&#xcb;" horiz-adv-x="437" d="M35 0v706h386v-137h-187v-143h173v-135h-173v-155h187v-136h-386zM43 756v121h146v-121h-146zM259 756v121h145v-121h-145z" />
<glyph unicode="&#xcc;" horiz-adv-x="271" d="M-26 876h190l62 -111h-150zM35 0v706h200v-706h-200z" />
<glyph unicode="&#xcd;" horiz-adv-x="271" d="M35 0v706h200v-706h-200zM41 764l61 112h191l-103 -112h-149z" />
<glyph unicode="&#xce;" horiz-adv-x="271" d="M-41 758l77 109h203l75 -109h-149l-29 45l-28 -45h-149zM35 0v706h200v-706h-200z" />
<glyph unicode="&#xcf;" horiz-adv-x="271" d="M-46 756v121h146v-121h-146zM35 0v706h200v-706h-200zM170 756v121h145v-121h-145z" />
<glyph unicode="&#xd0;" horiz-adv-x="562" d="M0 334v101h34v271h242q126 0 191.5 -42.5t65.5 -153.5v-287q0 -120 -50 -171.5t-169 -51.5h-280v334h-34zM234 132h44q33 0 44.5 13t11.5 45v317q0 34 -10 48.5t-44 14.5h-46v-135h61v-101h-61v-202z" />
<glyph unicode="&#xd1;" horiz-adv-x="562" d="M36 0v706h183l140 -427v427h166v-706h-187l-136 412v-412h-166zM127 759q0 57 29.5 90.5t72.5 33.5q27 0 73 -15.5t57 -15.5q28 0 28 29h61q0 -58 -26.5 -92.5t-75.5 -34.5q-27 0 -71 17.5t-57 17.5q-28 0 -30 -30h-61z" />
<glyph unicode="&#xd2;" horiz-adv-x="562" d="M27 188v329q0 59 20.5 100t58 61.5t79 29t93.5 8.5q19 0 35.5 -1t43.5 -5t49 -11t46 -21.5t40.5 -33.5t27.5 -49t11 -67v-339q0 -199 -245 -199q-259 0 -259 198zM120 876h190l62 -111h-150zM227 179q0 -11 1 -17.5t5.5 -16.5t16 -15t29.5 -5q23 0 35.5 9t14.5 19t2 26 v352q0 15 -1.5 23.5t-14 18t-36.5 9.5q-22 0 -34.5 -8.5t-15 -18.5t-2.5 -26v-350z" />
<glyph unicode="&#xd3;" horiz-adv-x="562" d="M27 188v329q0 59 20.5 100t58 61.5t79 29t93.5 8.5q19 0 35.5 -1t43.5 -5t49 -11t46 -21.5t40.5 -33.5t27.5 -49t11 -67v-339q0 -199 -245 -199q-259 0 -259 198zM187 764l61 112h191l-103 -112h-149zM227 179q0 -11 1 -17.5t5.5 -16.5t16 -15t29.5 -5q23 0 35.5 9 t14.5 19t2 26v352q0 15 -1.5 23.5t-14 18t-36.5 9.5q-22 0 -34.5 -8.5t-15 -18.5t-2.5 -26v-350z" />
<glyph unicode="&#xd4;" horiz-adv-x="562" d="M27 188v329q0 59 20.5 100t58 61.5t79 29t93.5 8.5q19 0 35.5 -1t43.5 -5t49 -11t46 -21.5t40.5 -33.5t27.5 -49t11 -67v-339q0 -199 -245 -199q-259 0 -259 198zM105 758l77 109h203l75 -109h-149l-29 45l-28 -45h-149zM227 179q0 -11 1 -17.5t5.5 -16.5t16 -15t29.5 -5 q23 0 35.5 9t14.5 19t2 26v352q0 15 -1.5 23.5t-14 18t-36.5 9.5q-22 0 -34.5 -8.5t-15 -18.5t-2.5 -26v-350z" />
<glyph unicode="&#xd5;" horiz-adv-x="562" d="M27 188v329q0 59 20.5 100t58 61.5t79 29t93.5 8.5q19 0 35.5 -1t43.5 -5t49 -11t46 -21.5t40.5 -33.5t27.5 -49t11 -67v-339q0 -199 -245 -199q-259 0 -259 198zM122 759q0 57 29.5 90.5t72.5 33.5q27 0 73 -15.5t57 -15.5q28 0 28 29h61q0 -58 -26.5 -92.5t-75.5 -34.5 q-27 0 -71 17.5t-57 17.5q-28 0 -30 -30h-61zM227 179q0 -11 1 -17.5t5.5 -16.5t16 -15t29.5 -5q23 0 35.5 9t14.5 19t2 26v352q0 15 -1.5 23.5t-14 18t-36.5 9.5q-22 0 -34.5 -8.5t-15 -18.5t-2.5 -26v-350z" />
<glyph unicode="&#xd6;" horiz-adv-x="562" d="M27 188v329q0 59 20.5 100t58 61.5t79 29t93.5 8.5q19 0 35.5 -1t43.5 -5t49 -11t46 -21.5t40.5 -33.5t27.5 -49t11 -67v-339q0 -199 -245 -199q-259 0 -259 198zM99 756v121h146v-121h-146zM227 179q0 -11 1 -17.5t5.5 -16.5t16 -15t29.5 -5q23 0 35.5 9t14.5 19t2 26 v352q0 15 -1.5 23.5t-14 18t-36.5 9.5q-22 0 -34.5 -8.5t-15 -18.5t-2.5 -26v-350zM315 756v121h145v-121h-145z" />
<glyph unicode="&#xd8;" horiz-adv-x="562" d="M13 24l40 59q-15 29 -18 61t-3 107v271q0 96 56.5 145.5t194.5 49.5q64 0 99 -9.5t80 -34.5l32 46l58 -39l-41 -58q18 -43 18 -123v-310q0 -105 -56.5 -152t-192.5 -47q-104 0 -177 42l-33 -47zM229 214q0 -54 2 -63q8 -30 50 -30q19 0 31 5t16.5 15.5t5.5 18t1 21.5v187 zM229 336l106 154q0 48 -1 56q-7 35 -51 35q-32 0 -43 -16.5t-11 -44.5v-184z" />
<glyph unicode="&#xd9;" horiz-adv-x="562" d="M31 165v541h198v-519q0 -57 51 -57q50 0 50 57v519h199v-536q0 -54 -19.5 -91t-56 -55.5t-77.5 -26t-96 -7.5q-42 0 -75.5 4t-67 15.5t-56 30.5t-36.5 51t-14 74zM125 876h190l62 -111h-150z" />
<glyph unicode="&#xda;" horiz-adv-x="562" d="M31 165v541h198v-519q0 -57 51 -57q50 0 50 57v519h199v-536q0 -54 -19.5 -91t-56 -55.5t-77.5 -26t-96 -7.5q-42 0 -75.5 4t-67 15.5t-56 30.5t-36.5 51t-14 74zM187 764l61 112h191l-103 -112h-149z" />
<glyph unicode="&#xdb;" horiz-adv-x="562" d="M31 165v541h198v-519q0 -57 51 -57q50 0 50 57v519h199v-536q0 -54 -19.5 -91t-56 -55.5t-77.5 -26t-96 -7.5q-42 0 -75.5 4t-67 15.5t-56 30.5t-36.5 51t-14 74zM105 758l77 109h203l75 -109h-149l-29 45l-28 -45h-149z" />
<glyph unicode="&#xdc;" horiz-adv-x="562" d="M31 165v541h198v-519q0 -57 51 -57q50 0 50 57v519h199v-536q0 -54 -19.5 -91t-56 -55.5t-77.5 -26t-96 -7.5q-42 0 -75.5 4t-67 15.5t-56 30.5t-36.5 51t-14 74zM98 756v121h146v-121h-146zM314 756v121h145v-121h-145z" />
<glyph unicode="&#xdd;" horiz-adv-x="562" d="M0 706h197l85 -306l83 306h193l-176 -479v-227h-197v227zM193 764l61 112h191l-103 -112h-149z" />
<glyph unicode="&#xdf;" d="M30 0v540q0 93 52 135.5t175 42.5q229 0 229 -147v-77q0 -25 -3 -40.5t-19.5 -34t-47.5 -27.5q49 -16 68 -42t19 -82v-115q0 -78 -31.5 -117.5t-120.5 -39.5q-19 0 -97 5v76h23q20 0 31 10.5t12.5 20t1.5 24.5v157q0 26 -9.5 38.5t-37.5 12.5h-21v108q30 0 40.5 8.5 t10.5 35.5v64q0 51 -43 51q-23 0 -33.5 -10.5t-10.5 -34.5v-562h-188z" />
<glyph unicode="&#xe0;" d="M21 113v25q0 63 19.5 97t74.5 54q27 10 91 25t94 29v35q0 10 -1 15.5t-4.5 13.5t-12.5 12t-24 4q-40 0 -40 -47v-28h-175v48q0 149 226 149q113 0 166.5 -38t53.5 -120v-319q0 -29 5 -41.5t19 -26.5h-213v47q-69 -60 -145 -60q-134 0 -134 126zM78 696h203l78 -124h-151z M210 179q0 -57 7.5 -73t34.5 -16q17 0 27.5 5t14.5 14t5 15t1 16v116q-61 -24 -75.5 -35.5t-14.5 -41.5z" />
<glyph unicode="&#xe1;" d="M21 113v25q0 63 19.5 97t74.5 54q27 10 91 25t94 29v35q0 10 -1 15.5t-4.5 13.5t-12.5 12t-24 4q-40 0 -40 -47v-28h-175v48q0 149 226 149q113 0 166.5 -38t53.5 -120v-319q0 -29 5 -41.5t19 -26.5h-213v47q-69 -60 -145 -60q-134 0 -134 126zM192 572l77 124h204 l-131 -124h-150zM210 179q0 -57 7.5 -73t34.5 -16q17 0 27.5 5t14.5 14t5 15t1 16v116q-61 -24 -75.5 -35.5t-14.5 -41.5z" />
<glyph unicode="&#xe2;" d="M21 113v25q0 63 19.5 97t74.5 54q27 10 91 25t94 29v35q0 10 -1 15.5t-4.5 13.5t-12.5 12t-24 4q-40 0 -40 -47v-28h-175v48q0 149 226 149q113 0 166.5 -38t53.5 -120v-319q0 -29 5 -41.5t19 -26.5h-213v47q-69 -60 -145 -60q-134 0 -134 126zM86 574l89 122h190 l90 -122h-146l-37 53l-39 -53h-147zM210 179q0 -57 7.5 -73t34.5 -16q17 0 27.5 5t14.5 14t5 15t1 16v116q-61 -24 -75.5 -35.5t-14.5 -41.5z" />
<glyph unicode="&#xe3;" d="M21 113v25q0 63 19.5 97t74.5 54q27 10 91 25t94 29v35q0 10 -1 15.5t-4.5 13.5t-12.5 12t-24 4q-40 0 -40 -47v-28h-175v48q0 149 226 149q113 0 166.5 -38t53.5 -120v-319q0 -29 5 -41.5t19 -26.5h-213v47q-69 -60 -145 -60q-134 0 -134 126zM106 579q0 61 28 95t77 34 q31 0 77 -16.5t57 -16.5q27 0 30 31h58q0 -132 -103 -132q-33 0 -78 18t-55 18q-29 0 -31 -31h-60zM210 179q0 -57 7.5 -73t34.5 -16q17 0 27.5 5t14.5 14t5 15t1 16v116q-61 -24 -75.5 -35.5t-14.5 -41.5z" />
<glyph unicode="&#xe4;" d="M21 113v25q0 63 19.5 97t74.5 54q27 10 91 25t94 29v35q0 10 -1 15.5t-4.5 13.5t-12.5 12t-24 4q-40 0 -40 -47v-28h-175v48q0 149 226 149q113 0 166.5 -38t53.5 -120v-319q0 -29 5 -41.5t19 -26.5h-213v47q-69 -60 -145 -60q-134 0 -134 126zM81 574v132h152v-132h-152 zM210 179q0 -57 7.5 -73t34.5 -16q17 0 27.5 5t14.5 14t5 15t1 16v116q-61 -24 -75.5 -35.5t-14.5 -41.5zM300 574v132h152v-132h-152z" />
<glyph unicode="&#xe5;" d="M21 113v25q0 63 19.5 97t74.5 54q27 10 91 25t94 29v35q0 10 -1 15.5t-4.5 13.5t-12.5 12t-24 4q-40 0 -40 -47v-28h-175v48q0 149 226 149q113 0 166.5 -38t53.5 -120v-319q0 -29 5 -41.5t19 -26.5h-213v47q-69 -60 -145 -60q-134 0 -134 126zM165 666q0 42 30 72.5 t73 30.5t72.5 -30.5t29.5 -72.5t-30 -72t-72 -30t-72.5 30t-30.5 72zM210 179q0 -57 7.5 -73t34.5 -16q17 0 27.5 5t14.5 14t5 15t1 16v116q-61 -24 -75.5 -35.5t-14.5 -41.5zM235 666q0 -13 10 -22.5t23 -9.5t22.5 9.5t9.5 22.5t-9.5 23t-22.5 10q-14 0 -23.5 -9.5 t-9.5 -23.5z" />
<glyph unicode="&#xe6;" horiz-adv-x="771" d="M19 116v35q0 59 17.5 90.5t70.5 48.5q25 8 90.5 22.5t99.5 27.5v41q0 46 -43 46q-41 0 -41 -48v-31h-175v49q0 74 53 110.5t147 36.5q101 0 152 -53q32 28 65 40.5t91 12.5q204 0 204 -168v-137h-268v-77q0 -27 10 -40.5t36 -13.5t35 14.5t9 40.5v26h178v-42 q0 -159 -223 -159q-168 0 -213 73q-75 -75 -169 -75q-66 0 -96 32.5t-30 97.5zM205 154q0 -60 42 -60q50 0 50 61v102q-69 -26 -80.5 -39t-11.5 -64zM482 321h90v62q0 50 -43 50q-47 0 -47 -48v-64z" />
<glyph unicode="&#xe7;" horiz-adv-x="500" d="M23 151v223q0 94 57.5 132.5t163.5 38.5q228 0 228 -157v-60h-180v53q0 9 -1 14t-4 13t-12.5 12t-23.5 4q-21 0 -30.5 -10t-9.5 -33v-223q0 -48 40 -48q19 0 28.5 8t11 17t1.5 25v32h186v-48q0 -77 -52 -114.5t-139 -40.5l-19 -23h13q79 0 79 -69q0 -48 -44.5 -77.5 t-111.5 -29.5q-18 0 -38 3l-17 52q21 -6 34 -6q48 0 48 36q0 13 -6.5 21t-13 10t-12.5 2q-17 0 -41 -15l-22 44l53 55q-166 20 -166 159z" />
<glyph unicode="&#xe8;" horiz-adv-x="500" d="M23 150v222q0 98 52 136t170 38q43 0 76.5 -4t64 -14.5t50.5 -28t32 -46t12 -66.5v-149h-267v-79q0 -25 8.5 -38.5t35.5 -13.5q25 0 33.5 12t8.5 41v25h181v-30q0 -94 -54.5 -130.5t-172.5 -36.5q-48 0 -83.5 5.5t-71.5 21t-55.5 49.5t-19.5 86zM70 696h203l78 -124h-151 zM213 323h89v65q0 46 -44 46q-45 0 -45 -47v-64z" />
<glyph unicode="&#xe9;" horiz-adv-x="500" d="M23 150v222q0 98 52 136t170 38q43 0 76.5 -4t64 -14.5t50.5 -28t32 -46t12 -66.5v-149h-267v-79q0 -25 8.5 -38.5t35.5 -13.5q25 0 33.5 12t8.5 41v25h181v-30q0 -94 -54.5 -130.5t-172.5 -36.5q-48 0 -83.5 5.5t-71.5 21t-55.5 49.5t-19.5 86zM161 572l77 124h204 l-131 -124h-150zM213 323h89v65q0 46 -44 46q-45 0 -45 -47v-64z" />
<glyph unicode="&#xea;" horiz-adv-x="500" d="M23 150v222q0 98 52 136t170 38q43 0 76.5 -4t64 -14.5t50.5 -28t32 -46t12 -66.5v-149h-267v-79q0 -25 8.5 -38.5t35.5 -13.5q25 0 33.5 12t8.5 41v25h181v-30q0 -94 -54.5 -130.5t-172.5 -36.5q-48 0 -83.5 5.5t-71.5 21t-55.5 49.5t-19.5 86zM76 574l89 122h190 l90 -122h-146l-37 53l-39 -53h-147zM213 323h89v65q0 46 -44 46q-45 0 -45 -47v-64z" />
<glyph unicode="&#xeb;" horiz-adv-x="500" d="M23 150v222q0 98 52 136t170 38q43 0 76.5 -4t64 -14.5t50.5 -28t32 -46t12 -66.5v-149h-267v-79q0 -25 8.5 -38.5t35.5 -13.5q25 0 33.5 12t8.5 41v25h181v-30q0 -94 -54.5 -130.5t-172.5 -36.5q-48 0 -83.5 5.5t-71.5 21t-55.5 49.5t-19.5 86zM75 574v132h152v-132 h-152zM213 323h89v65q0 46 -44 46q-45 0 -45 -47v-64zM294 574v132h152v-132h-152z" />
<glyph unicode="&#xec;" horiz-adv-x="250" d="M-64 696h203l78 -124h-151zM30 0v533h189v-533h-189z" />
<glyph unicode="&#xed;" horiz-adv-x="250" d="M30 0v533h189v-533h-189zM30 572l77 124h204l-131 -124h-150z" />
<glyph unicode="&#xee;" horiz-adv-x="250" d="M-60 574l89 122h190l90 -122h-146l-37 53l-39 -53h-147zM30 0v533h189v-533h-189z" />
<glyph unicode="&#xef;" horiz-adv-x="250" d="M-61 574v132h152v-132h-152zM30 0v533h189v-533h-189zM158 574v132h152v-132h-152z" />
<glyph unicode="&#xf0;" d="M25 161v235q0 43 17.5 73.5t46.5 46t58.5 22.5t60.5 7q67 0 106 -47q-10 39 -17.5 54.5t-26.5 41.5l-139 -29l-25 62l113 25q-13 12 -38 31l155 49q15 -12 32 -31l14 -15l88 19l26 -65l-68 -14q34 -45 50.5 -99t16.5 -147v-224q0 -86 -49.5 -127t-172.5 -41 q-64 0 -105.5 6.5t-76 24t-50.5 52.5t-16 90zM212 165q0 -16 1.5 -25.5t13 -20t34.5 -10.5q17 0 27 5t14 15t5 17.5t1 20.5v204q0 52 -48 52t-48 -49v-209z" />
<glyph unicode="&#xf1;" d="M30 0v533h189v-53q24 30 52.5 47t73.5 17q78 0 111 -45.5t33 -107.5v-391h-190v381q0 27 -9.5 38.5t-30.5 11.5q-40 0 -40 -50v-381h-189zM95 579q0 61 28 95t77 34q31 0 77 -16.5t57 -16.5q27 0 30 31h58q0 -132 -103 -132q-33 0 -78 18t-55 18q-29 0 -31 -31h-60z" />
<glyph unicode="&#xf2;" d="M25 145v248q0 40 15.5 70t37.5 45.5t55 24.5t59.5 11.5t60.5 2.5q48 0 85 -5t76 -20t60 -47t21 -80v-245q0 -50 -17 -83.5t-50.5 -50t-69.5 -22.5t-85 -6q-42 0 -72 2.5t-66 11.5t-58 25t-37 46t-15 72zM77 696h203l78 -124h-151zM212 165q0 -11 1 -18t5 -17t15 -15.5 t28 -5.5t27 5t14 15.5t5 17.5t1 20v204q0 52 -48 52t-48 -49v-209z" />
<glyph unicode="&#xf3;" d="M25 145v248q0 40 15.5 70t37.5 45.5t55 24.5t59.5 11.5t60.5 2.5q48 0 85 -5t76 -20t60 -47t21 -80v-245q0 -50 -17 -83.5t-50.5 -50t-69.5 -22.5t-85 -6q-42 0 -72 2.5t-66 11.5t-58 25t-37 46t-15 72zM167 572l77 124h204l-131 -124h-150zM212 165q0 -11 1 -18t5 -17 t15 -15.5t28 -5.5t27 5t14 15.5t5 17.5t1 20v204q0 52 -48 52t-48 -49v-209z" />
<glyph unicode="&#xf4;" d="M25 145v248q0 40 15.5 70t37.5 45.5t55 24.5t59.5 11.5t60.5 2.5q48 0 85 -5t76 -20t60 -47t21 -80v-245q0 -50 -17 -83.5t-50.5 -50t-69.5 -22.5t-85 -6q-42 0 -72 2.5t-66 11.5t-58 25t-37 46t-15 72zM76 574l89 122h190l90 -122h-146l-37 53l-39 -53h-147zM212 165 q0 -11 1 -18t5 -17t15 -15.5t28 -5.5t27 5t14 15.5t5 17.5t1 20v204q0 52 -48 52t-48 -49v-209z" />
<glyph unicode="&#xf5;" d="M25 145v248q0 40 15.5 70t37.5 45.5t55 24.5t59.5 11.5t60.5 2.5q48 0 85 -5t76 -20t60 -47t21 -80v-245q0 -50 -17 -83.5t-50.5 -50t-69.5 -22.5t-85 -6q-42 0 -72 2.5t-66 11.5t-58 25t-37 46t-15 72zM95 579q0 61 28 95t77 34q31 0 77 -16.5t57 -16.5q27 0 30 31h58 q0 -132 -103 -132q-33 0 -78 18t-55 18q-29 0 -31 -31h-60zM212 165q0 -11 1 -18t5 -17t15 -15.5t28 -5.5t27 5t14 15.5t5 17.5t1 20v204q0 52 -48 52t-48 -49v-209z" />
<glyph unicode="&#xf6;" d="M25 145v248q0 40 15.5 70t37.5 45.5t55 24.5t59.5 11.5t60.5 2.5q48 0 85 -5t76 -20t60 -47t21 -80v-245q0 -50 -17 -83.5t-50.5 -50t-69.5 -22.5t-85 -6q-42 0 -72 2.5t-66 11.5t-58 25t-37 46t-15 72zM73 574v132h152v-132h-152zM212 165q0 -11 1 -18t5 -17t15 -15.5 t28 -5.5t27 5t14 15.5t5 17.5t1 20v204q0 52 -48 52t-48 -49v-209zM292 574v132h152v-132h-152z" />
<glyph unicode="&#xf8;" d="M8 30l34 42q-16 33 -16 92v213q0 50 18 84.5t52.5 51.5t72 23.5t88.5 6.5q60 0 94.5 -9t71.5 -27l34 40l47 -40l-34 -40q14 -23 18.5 -41t4.5 -60v-200q0 -30 -4 -53t-18.5 -47t-38.5 -40t-66.5 -26t-101.5 -10q-110 0 -176 40l-34 -39zM208 131q3 -22 13.5 -31.5 t36.5 -9.5q19 0 31 5.5t16.5 17t5.5 19t1 19.5v135l-104 -121v-34zM208 261l104 119q0 29 -9.5 46t-41.5 17q-18 0 -30 -5.5t-16.5 -15.5t-5.5 -17.5t-1 -18.5v-125z" />
<glyph unicode="&#xf9;" d="M31 153v380h188v-388q0 -27 9 -39.5t31 -12.5q41 0 41 53v387h189v-533h-189v54q-50 -66 -134 -66q-135 0 -135 165zM80 696h203l78 -124h-151z" />
<glyph unicode="&#xfa;" d="M31 153v380h188v-388q0 -27 9 -39.5t31 -12.5q41 0 41 53v387h189v-533h-189v54q-50 -66 -134 -66q-135 0 -135 165zM161 572l77 124h204l-131 -124h-150z" />
<glyph unicode="&#xfb;" d="M31 153v380h188v-388q0 -27 9 -39.5t31 -12.5q41 0 41 53v387h189v-533h-189v54q-50 -66 -134 -66q-135 0 -135 165zM75 574l89 122h190l90 -122h-146l-37 53l-39 -53h-147z" />
<glyph unicode="&#xfc;" d="M31 153v380h188v-388q0 -27 9 -39.5t31 -12.5q41 0 41 53v387h189v-533h-189v54q-50 -66 -134 -66q-135 0 -135 165zM71 574v132h152v-132h-152zM290 574v132h152v-132h-152z" />
<glyph unicode="&#xfd;" horiz-adv-x="500" d="M0 533h187l65 -324l62 324h185l-148 -527q-18 -65 -34 -101.5t-42.5 -63t-62.5 -36t-93 -9.5h-85l5 117h41q20 0 32.5 2.5t27 16t21.5 37.5zM160 572l77 124h204l-131 -124h-150z" />
<glyph unicode="&#xff;" horiz-adv-x="500" d="M0 533h187l65 -324l62 324h185l-148 -527q-18 -65 -34 -101.5t-42.5 -63t-62.5 -36t-93 -9.5h-85l5 117h41q20 0 32.5 2.5t27 16t21.5 37.5zM64 574v132h152v-132h-152zM283 574v132h152v-132h-152z" />
<glyph unicode="&#x100;" horiz-adv-x="562" d="M-2 0l164 706h238l160 -706h-197l-22 159h-121l-24 -159h-198zM108 760v97h343v-97h-343zM238 285h85l-42 283z" />
<glyph unicode="&#x101;" d="M21 113v25q0 63 19.5 97t74.5 54q27 10 91 25t94 29v35q0 10 -1 15.5t-4.5 13.5t-12.5 12t-24 4q-40 0 -40 -47v-28h-175v48q0 149 226 149q113 0 166.5 -38t53.5 -120v-319q0 -29 5 -41.5t19 -26.5h-213v47q-69 -60 -145 -60q-134 0 -134 126zM107 585v97h333v-97h-333z M210 179q0 -57 7.5 -73t34.5 -16q17 0 27.5 5t14.5 14t5 15t1 16v116q-61 -24 -75.5 -35.5t-14.5 -41.5z" />
<glyph unicode="&#x102;" horiz-adv-x="562" d="M-2 0l164 706h238l160 -706h-197l-22 159h-121l-24 -159h-198zM114 896h78q3 -24 26.5 -39t60.5 -15q42 0 62.5 13.5t30.5 40.5h75q-7 -144 -170 -144q-77 0 -119.5 37t-43.5 107zM238 285h85l-42 283z" />
<glyph unicode="&#x103;" d="M21 113v25q0 63 19.5 97t74.5 54q27 10 91 25t94 29v35q0 10 -1 15.5t-4.5 13.5t-12.5 12t-24 4q-40 0 -40 -47v-28h-175v48q0 149 226 149q113 0 166.5 -38t53.5 -120v-319q0 -29 5 -41.5t19 -26.5h-213v47q-69 -60 -145 -60q-134 0 -134 126zM121 714h73q3 -24 25 -39 t57 -15q70 0 87 54h71q-7 -144 -160 -144q-72 0 -112 37t-41 107zM210 179q0 -57 7.5 -73t34.5 -16q17 0 27.5 5t14.5 14t5 15t1 16v116q-61 -24 -75.5 -35.5t-14.5 -41.5z" />
<glyph unicode="&#x104;" horiz-adv-x="562" d="M-2 0l164 706h238l160 -706h-36q-25 -8 -39.5 -25t-14.5 -32q0 -28 52 -28l15 1v-104q-27 -3 -50 -3q-60 0 -97.5 22t-37.5 70q0 49 47 99h-36l-22 159h-121l-24 -159h-198zM238 285h85l-42 283z" />
<glyph unicode="&#x105;" d="M21 113v25q0 63 19.5 97t74.5 54q27 10 91 25t94 29v35q0 10 -1 15.5t-4.5 13.5t-12.5 12t-24 4q-40 0 -40 -47v-28h-175v48q0 149 226 149q113 0 166.5 -38t53.5 -120v-319q0 -29 5 -41.5t19 -26.5h-56q-21 -3 -37.5 -22.5t-16.5 -34.5q0 -28 52 -28l15 1v-104 q-27 -3 -50 -3q-60 0 -97.5 22t-37.5 70q0 49 47 99h-32v47q-69 -60 -145 -60q-134 0 -134 126zM210 179q0 -57 7.5 -73t34.5 -16q17 0 27.5 5t14.5 14t5 15t1 16v116q-61 -24 -75.5 -35.5t-14.5 -41.5z" />
<glyph unicode="&#x106;" horiz-adv-x="542" d="M29 182v330q0 102 55 154.5t193 52.5q247 0 247 -189v-84h-195v84q0 49 -49 49q-53 0 -53 -49v-359q0 -26 12.5 -36t38.5 -10q51 0 51 51v85h197v-65q0 -113 -58.5 -161t-186.5 -48q-55 0 -96.5 8t-78.5 28.5t-57 60.5t-20 98zM187 764l61 112h191l-103 -112h-149z" />
<glyph unicode="&#x107;" horiz-adv-x="500" d="M23 151v223q0 94 57.5 132.5t163.5 38.5q228 0 228 -157v-60h-180v53q0 9 -1 14t-4 13t-12.5 12t-23.5 4q-21 0 -30.5 -10t-9.5 -33v-223q0 -48 40 -48q19 0 28.5 8t11 17t1.5 25v32h187v-48q0 -81 -58 -118.5t-154 -37.5q-36 0 -64.5 2.5t-64 12t-59 26.5t-40 48 t-16.5 74zM147 572l77 124h204l-131 -124h-150z" />
<glyph unicode="&#x108;" horiz-adv-x="542" d="M29 182v330q0 102 55 154.5t193 52.5q247 0 247 -189v-84h-195v84q0 49 -49 49q-53 0 -53 -49v-359q0 -26 12.5 -36t38.5 -10q51 0 51 51v85h197v-65q0 -113 -58.5 -161t-186.5 -48q-55 0 -96.5 8t-78.5 28.5t-57 60.5t-20 98zM102 758l77 109h203l75 -109h-149l-29 45 l-28 -45h-149z" />
<glyph unicode="&#x109;" horiz-adv-x="500" d="M23 151v223q0 94 57.5 132.5t163.5 38.5q228 0 228 -157v-60h-180v53q0 9 -1 14t-4 13t-12.5 12t-23.5 4q-21 0 -30.5 -10t-9.5 -33v-223q0 -48 40 -48q19 0 28.5 8t11 17t1.5 25v32h187v-48q0 -81 -58 -118.5t-154 -37.5q-36 0 -64.5 2.5t-64 12t-59 26.5t-40 48 t-16.5 74zM74 574l89 122h190l90 -122h-146l-37 53l-39 -53h-147z" />
<glyph unicode="&#x10a;" horiz-adv-x="542" d="M29 182v330q0 102 55 154.5t193 52.5q247 0 247 -189v-84h-195v84q0 49 -49 49q-53 0 -53 -49v-359q0 -26 12.5 -36t38.5 -10q51 0 51 51v85h197v-65q0 -113 -58.5 -161t-186.5 -48q-55 0 -96.5 8t-78.5 28.5t-57 60.5t-20 98zM197 760v110h166v-110h-166z" />
<glyph unicode="&#x10b;" horiz-adv-x="500" d="M23 151v223q0 94 57.5 132.5t163.5 38.5q228 0 228 -157v-60h-180v53q0 9 -1 14t-4 13t-12.5 12t-23.5 4q-21 0 -30.5 -10t-9.5 -33v-223q0 -48 40 -48q19 0 28.5 8t11 17t1.5 25v32h187v-48q0 -81 -58 -118.5t-154 -37.5q-36 0 -64.5 2.5t-64 12t-59 26.5t-40 48 t-16.5 74zM168 574v122h173v-122h-173z" />
<glyph unicode="&#x10c;" horiz-adv-x="542" d="M29 182v330q0 102 55 154.5t193 52.5q247 0 247 -189v-84h-195v84q0 49 -49 49q-53 0 -53 -49v-359q0 -26 12.5 -36t38.5 -10q51 0 51 51v85h197v-65q0 -113 -58.5 -161t-186.5 -48q-55 0 -96.5 8t-78.5 28.5t-57 60.5t-20 98zM96 868h148l30 -46l28 46h148l-76 -110 h-202z" />
<glyph unicode="&#x10d;" horiz-adv-x="500" d="M23 151v223q0 94 57.5 132.5t163.5 38.5q228 0 228 -157v-60h-180v53q0 9 -1 14t-4 13t-12.5 12t-23.5 4q-21 0 -30.5 -10t-9.5 -33v-223q0 -48 40 -48q19 0 28.5 8t11 17t1.5 25v32h187v-48q0 -81 -58 -118.5t-154 -37.5q-36 0 -64.5 2.5t-64 12t-59 26.5t-40 48 t-16.5 74zM69 696h144l38 -52l38 52h147l-89 -121h-189z" />
<glyph unicode="&#x10e;" horiz-adv-x="562" d="M34 0v706h243q142 0 199 -48t57 -154v-268q0 -137 -51 -186.5t-175 -49.5h-273zM74 868h148l30 -46l28 46h148l-76 -110h-202zM234 132h46q33 0 43.5 13.5t10.5 46.5v316q0 36 -10.5 49t-43.5 13h-46v-438z" />
<glyph unicode="&#x10f;" d="M24 133v250q0 26 1.5 44.5t9.5 42t22.5 38.5t41.5 25.5t65 10.5q98 0 136 -68v230h189v-706h-189v61q-21 -38 -50 -55t-75 -17q-81 0 -116 37t-35 107zM214 140q0 -12 1.5 -19.5t12 -15.5t30.5 -8q41 0 41 45v243q0 43 -43 43q-42 0 -42 -43v-245zM512 602v104h122v-104 l-65 -54h-40l25 54h-42z" />
<glyph unicode="&#x110;" horiz-adv-x="562" d="M0 334v101h34v271h242q126 0 191.5 -42.5t65.5 -153.5v-287q0 -120 -50 -171.5t-169 -51.5h-280v334h-34zM234 132h44q33 0 44.5 13t11.5 45v317q0 34 -10 48.5t-44 14.5h-46v-135h61v-101h-61v-202z" />
<glyph unicode="&#x111;" d="M24 133v250q0 26 1.5 44.5t9.5 42t22.5 38.5t41.5 25.5t65 10.5q98 0 136 -68v82h-89v101h89v47h189v-47h32v-101h-32v-558h-189v61q-21 -38 -50 -55t-75 -17q-81 0 -116 37t-35 107zM214 140q0 -12 1.5 -19.5t12 -15.5t30.5 -8q41 0 41 45v243q0 43 -43 43 q-42 0 -42 -43v-245z" />
<glyph unicode="&#x112;" horiz-adv-x="437" d="M35 0v706h386v-137h-187v-143h173v-135h-173v-155h187v-136h-386zM56 760v97h343v-97h-343z" />
<glyph unicode="&#x113;" horiz-adv-x="500" d="M23 150v222q0 98 52 136t170 38q43 0 76.5 -4t64 -14.5t50.5 -28t32 -46t12 -66.5v-149h-267v-79q0 -25 8.5 -38.5t35.5 -13.5q25 0 33.5 12t8.5 41v25h181v-30q0 -94 -54.5 -130.5t-172.5 -36.5q-48 0 -83.5 5.5t-71.5 21t-55.5 49.5t-19.5 86zM83 585v97h333v-97h-333z M213 323h89v65q0 46 -44 46q-45 0 -45 -47v-64z" />
<glyph unicode="&#x116;" horiz-adv-x="437" d="M35 0v706h386v-137h-187v-143h173v-135h-173v-155h187v-136h-386zM145 760v110h166v-110h-166z" />
<glyph unicode="&#x117;" horiz-adv-x="500" d="M23 150v222q0 98 52 136t170 38q43 0 76.5 -4t64 -14.5t50.5 -28t32 -46t12 -66.5v-149h-267v-79q0 -25 8.5 -38.5t35.5 -13.5q25 0 33.5 12t8.5 41v25h181v-30q0 -94 -54.5 -130.5t-172.5 -36.5q-48 0 -83.5 5.5t-71.5 21t-55.5 49.5t-19.5 86zM166 574v122h173v-122 h-173zM213 323h89v65q0 46 -44 46q-45 0 -45 -47v-64z" />
<glyph unicode="&#x118;" horiz-adv-x="437" d="M35 0v706h386v-137h-187v-143h173v-135h-173v-155h187v-136h-19q-23 -6 -38.5 -24t-15.5 -33q0 -28 52 -28l15 1v-104q-27 -3 -50 -3q-60 0 -97.5 22t-37.5 70q0 49 47 99h-242z" />
<glyph unicode="&#x119;" horiz-adv-x="500" d="M23 150v222q0 98 52 136t170 38q43 0 76.5 -4t64 -14.5t50.5 -28t32 -46t12 -66.5v-149h-267v-79q0 -25 8.5 -38.5t35.5 -13.5q25 0 33.5 12t8.5 41v25h181v-38q0 -63 -26 -95t-73 -50q-68 -26 -68 -59q0 -28 52 -28l15 1v-104q-27 -3 -50 -3q-60 0 -97.5 22t-37.5 70 q0 44 36 87q-35 1 -62 5t-55.5 14.5t-47.5 27.5t-31 46.5t-12 68.5zM213 323h89v65q0 46 -44 46q-45 0 -45 -47v-64z" />
<glyph unicode="&#x11c;" horiz-adv-x="562" d="M27 181v335q0 113 67 157.5t188 44.5q116 0 183 -41t67 -144v-71h-191v64q0 25 -11 38t-48 13q-34 0 -44 -13t-10 -36v-361q0 -57 54 -57q31 0 45 12.5t14 41.5v80h-61v125h252v-369h-191v77q-25 -47 -57.5 -67.5t-85.5 -20.5q-85 0 -128 44.5t-43 147.5zM109 758l77 109 h203l75 -109h-149l-29 45l-28 -45h-149z" />
<glyph unicode="&#x11d;" d="M24 162v229q0 153 146 153q42 0 78 -18.5t54 -54.5v62h187v-599q0 -96 -58 -135.5t-168 -39.5q-231 0 -231 164v20h179v-17q0 -24 10.5 -35.5t35.5 -11.5q45 0 45 48v130q-37 -68 -131 -68q-80 0 -113.5 44.5t-33.5 128.5zM76 574l89 122h190l90 -122h-146l-37 53 l-39 -53h-147zM211 154q0 -13 1.5 -21t12.5 -17t33 -9q20 0 30.5 8.5t12 16.5t1.5 23v227q0 22 -9.5 34.5t-37.5 12.5q-21 0 -32.5 -10t-11.5 -38v-227z" />
<glyph unicode="&#x11e;" horiz-adv-x="562" d="M27 181v335q0 113 67 157.5t188 44.5q116 0 183 -41t67 -144v-71h-191v64q0 25 -11 38t-48 13q-34 0 -44 -13t-10 -36v-361q0 -57 54 -57q31 0 45 12.5t14 41.5v80h-61v125h252v-369h-191v77q-25 -47 -57.5 -67.5t-85.5 -20.5q-85 0 -128 44.5t-43 147.5zM114 896h78 q3 -24 26.5 -39t60.5 -15q42 0 62.5 13.5t30.5 40.5h75q-7 -144 -170 -144q-77 0 -119.5 37t-43.5 107z" />
<glyph unicode="&#x11f;" d="M24 162v229q0 153 146 153q42 0 78 -18.5t54 -54.5v62h187v-599q0 -96 -58 -135.5t-168 -39.5q-231 0 -231 164v20h179v-17q0 -24 10.5 -35.5t35.5 -11.5q45 0 45 48v130q-37 -68 -131 -68q-80 0 -113.5 44.5t-33.5 128.5zM104 714h73q3 -24 25 -39t57 -15q70 0 87 54h71 q-7 -144 -160 -144q-72 0 -112 37t-41 107zM211 154q0 -13 1.5 -21t12.5 -17t33 -9q20 0 30.5 8.5t12 16.5t1.5 23v227q0 22 -9.5 34.5t-37.5 12.5q-21 0 -32.5 -10t-11.5 -38v-227z" />
<glyph unicode="&#x120;" horiz-adv-x="562" d="M27 181v335q0 113 67 157.5t188 44.5q116 0 183 -41t67 -144v-71h-191v64q0 25 -11 38t-48 13q-34 0 -44 -13t-10 -36v-361q0 -57 54 -57q31 0 45 12.5t14 41.5v80h-61v125h252v-369h-191v77q-25 -47 -57.5 -67.5t-85.5 -20.5q-85 0 -128 44.5t-43 147.5zM198 760v110 h166v-110h-166z" />
<glyph unicode="&#x121;" d="M24 162v229q0 153 146 153q42 0 78 -18.5t54 -54.5v62h187v-599q0 -96 -58 -135.5t-168 -39.5q-231 0 -231 164v20h179v-17q0 -24 10.5 -35.5t35.5 -11.5q45 0 45 48v130q-37 -68 -131 -68q-80 0 -113.5 44.5t-33.5 128.5zM174 574v122h173v-122h-173zM211 154 q0 -13 1.5 -21t12.5 -17t33 -9q20 0 30.5 8.5t12 16.5t1.5 23v227q0 22 -9.5 34.5t-37.5 12.5q-21 0 -32.5 -10t-11.5 -38v-227z" />
<glyph unicode="&#x122;" horiz-adv-x="562" d="M27 181v335q0 113 67 157.5t188 44.5q116 0 183 -41t67 -144v-71h-191v64q0 25 -11 38t-48 13q-34 0 -44 -13t-10 -36v-361q0 -57 54 -57q31 0 45 12.5t14 41.5v80h-61v125h252v-369h-191v77q-25 -47 -57.5 -67.5t-85.5 -20.5q-85 0 -128 44.5t-43 147.5zM224 -32h109 v-87l-49 -48h-44l18 48h-34v87z" />
<glyph unicode="&#x123;" d="M24 162v229q0 153 146 153q42 0 78 -18.5t54 -54.5v62h187v-599q0 -96 -58 -135.5t-168 -39.5q-231 0 -231 164v20h179v-17q0 -24 10.5 -35.5t35.5 -11.5q45 0 45 48v130q-37 -68 -131 -68q-80 0 -113.5 44.5t-33.5 128.5zM198 572v87l49 48h44l-18 -48h34v-87h-109z M211 154q0 -13 1.5 -21t12.5 -17t33 -9q20 0 30.5 8.5t12 16.5t1.5 23v227q0 22 -9.5 34.5t-37.5 12.5q-21 0 -32.5 -10t-11.5 -38v-227z" />
<glyph unicode="&#x124;" horiz-adv-x="562" d="M35 0v706h200v-278h93v278h198v-706h-198v282h-93v-282h-200zM103 758l77 109h203l75 -109h-149l-29 45l-28 -45h-149z" />
<glyph unicode="&#x125;" d="M-59 758l77 109h203l75 -109h-149l-29 45l-28 -45h-149zM30 0v706h188v-225q41 63 128 63q57 0 99.5 -36t42.5 -113v-395h-188v398q0 43 -40 43q-42 0 -42 -45v-396h-188z" />
<glyph unicode="&#x126;" horiz-adv-x="562" d="M2 504v136h33v66h200v-66h93v66h198v-66h33v-136h-33v-504h-198v282h-93v-282h-200v504h-33zM235 428h93v76h-93v-76z" />
<glyph unicode="&#x127;" d="M0 558v101h30v47h188v-47h88v-101h-88v-77q41 63 128 63q57 0 99.5 -36t42.5 -113v-395h-188v398q0 43 -40 43q-42 0 -42 -45v-396h-188v558h-30z" />
<glyph unicode="&#x12a;" horiz-adv-x="271" d="M-13 760v97h295v-97h-295zM35 0v706h200v-706h-200z" />
<glyph unicode="&#x12b;" horiz-adv-x="250" d="M-16 585v97h282v-97h-282zM30 0v533h189v-533h-189z" />
<glyph unicode="&#x12e;" horiz-adv-x="271" d="M35 0v706h200v-706h-23q-21 -4 -37 -23t-16 -34q0 -28 52 -28l15 1v-104q-27 -3 -50 -3q-60 0 -97.5 22t-37.5 70q0 49 47 99h-53z" />
<glyph unicode="&#x12f;" horiz-adv-x="250" d="M30 0v533h189v-533h-25q-46 -27 -46 -57q0 -28 52 -28l15 1v-104q-27 -3 -50 -3q-60 0 -97.5 22t-37.5 70q0 49 47 99h-47zM30 580v126h189v-126h-189z" />
<glyph unicode="&#x130;" horiz-adv-x="271" d="M35 0v706h200v-706h-200zM52 760v110h166v-110h-166z" />
<glyph unicode="&#x131;" horiz-adv-x="250" d="M30 0v533h189v-533h-189z" />
<glyph unicode="&#x134;" horiz-adv-x="354" d="M12 0v135h54q31 0 43 12t12 48v511h198v-534q0 -94 -38 -133t-136 -39h-133zM42 758l77 109h203l75 -109h-149l-29 45l-28 -45h-149z" />
<glyph unicode="&#x135;" horiz-adv-x="250" d="M-59 574l89 122h190l90 -122h-146l-37 53l-39 -53h-147zM-28 -92h22q36 0 36 45v580h189v-590q0 -75 -28 -103.5t-105 -28.5h-114v97z" />
<glyph unicode="&#x136;" horiz-adv-x="562" d="M36 0v706h196v-324l120 324h200l-142 -338l160 -368h-212l-126 327v-327h-196zM238 -32h109v-87l-49 -48h-44l18 48h-34v87z" />
<glyph unicode="&#x137;" d="M30 0v706h182v-393l102 220h184l-127 -242l151 -291h-198l-112 254v-254h-182zM211 -32h109v-87l-49 -48h-44l18 48h-34v87z" />
<glyph unicode="&#x139;" horiz-adv-x="417" d="M36 0v706h197v-572h183v-134h-380zM51 764l61 112h191l-103 -112h-149z" />
<glyph unicode="&#x13a;" horiz-adv-x="250" d="M31 0v706h188v-706h-188zM43 764l61 112h191l-103 -112h-149z" />
<glyph unicode="&#x13b;" horiz-adv-x="417" d="M36 0v706h197v-572h183v-134h-380zM171 -32h109v-87l-49 -48h-44l18 48h-34v87z" />
<glyph unicode="&#x13c;" horiz-adv-x="250" d="M31 0v706h188v-706h-188zM71 -32h109v-87l-49 -48h-44l18 48h-34v87z" />
<glyph unicode="&#x13d;" horiz-adv-x="417" d="M36 0v706h197v-572h183v-134h-380zM256 602v104h122v-104l-65 -54h-40l25 54h-42z" />
<glyph unicode="&#x13e;" horiz-adv-x="250" d="M31 0v706h188v-706h-188zM242 602v104h122v-104l-65 -54h-40l25 54h-42z" />
<glyph unicode="&#x13f;" horiz-adv-x="417" d="M36 0v706h197v-572h183v-134h-380zM259 279v172h162v-172h-162z" />
<glyph unicode="&#x140;" horiz-adv-x="399" d="M31 0v706h188v-706h-188zM245 281v166h161v-166h-161z" />
<glyph unicode="&#x141;" horiz-adv-x="417" d="M0 199v120l36 27v360h197v-213l131 98v-125l-131 -96v-236h183v-134h-380v225z" />
<glyph unicode="&#x142;" horiz-adv-x="250" d="M0 208v117l31 30v351h188v-166l31 30v-119l-31 -30v-421h-188v238z" />
<glyph unicode="&#x143;" horiz-adv-x="562" d="M36 0v706h183l140 -427v427h166v-706h-187l-136 412v-412h-166zM183 764l61 112h191l-103 -112h-149z" />
<glyph unicode="&#x144;" d="M30 0v533h189v-53q24 30 52.5 47t73.5 17q78 0 111 -45.5t33 -107.5v-391h-190v381q0 27 -9.5 38.5t-30.5 11.5q-40 0 -40 -50v-381h-189zM152 572l77 124h204l-131 -124h-150z" />
<glyph unicode="&#x145;" horiz-adv-x="562" d="M36 0v706h183l140 -427v427h166v-706h-187l-136 412v-412h-166zM225 -32h109v-87l-49 -48h-44l18 48h-34v87z" />
<glyph unicode="&#x146;" d="M30 0v533h189v-53q24 30 52.5 47t73.5 17q78 0 111 -45.5t33 -107.5v-391h-190v381q0 27 -9.5 38.5t-30.5 11.5q-40 0 -40 -50v-381h-189zM205 -32h109v-87l-49 -48h-44l18 48h-34v87z" />
<glyph unicode="&#x147;" horiz-adv-x="562" d="M36 0v706h183l140 -427v427h166v-706h-187l-136 412v-412h-166zM104 868h148l30 -46l28 46h148l-76 -110h-202z" />
<glyph unicode="&#x148;" d="M30 0v533h189v-53q24 30 52.5 47t73.5 17q78 0 111 -45.5t33 -107.5v-391h-190v381q0 27 -9.5 38.5t-30.5 11.5q-40 0 -40 -50v-381h-189zM77 696h144l38 -52l38 52h147l-89 -121h-189z" />
<glyph unicode="&#x150;" horiz-adv-x="562" d="M27 188v329q0 59 20.5 100t58 61.5t79 29t93.5 8.5q19 0 35.5 -1t43.5 -5t49 -11t46 -21.5t40.5 -33.5t27.5 -49t11 -67v-339q0 -199 -245 -199q-259 0 -259 198zM117 764l61 112h171l-105 -112h-127zM227 179q0 -11 1 -17.5t5.5 -16.5t16 -15t29.5 -5q23 0 35.5 9 t14.5 19t2 26v352q0 15 -1.5 23.5t-14 18t-36.5 9.5q-22 0 -34.5 -8.5t-15 -18.5t-2.5 -26v-350zM318 764l61 112h171l-105 -112h-127z" />
<glyph unicode="&#x151;" d="M25 145v248q0 40 15.5 70t37.5 45.5t55 24.5t59.5 11.5t60.5 2.5q48 0 85 -5t76 -20t60 -47t21 -80v-245q0 -50 -17 -83.5t-50.5 -50t-69.5 -22.5t-85 -6q-42 0 -72 2.5t-66 11.5t-58 25t-37 46t-15 72zM79 572l77 124h184l-132 -124h-129zM212 165q0 -11 1 -18t5 -17 t15 -15.5t28 -5.5t27 5t14 15.5t5 17.5t1 20v204q0 52 -48 52t-48 -49v-209zM292 572l77 124h183l-131 -124h-129z" />
<glyph unicode="&#x152;" horiz-adv-x="729" d="M28 184v348q0 29 2.5 51t13 49t28.5 44.5t51 29.5t79 12q32 0 56 -5.5t36.5 -12t34.5 -20.5v26h382v-139h-184v-140h170v-136h-170v-155h184v-136h-383v29q-46 -39 -118 -39q-94 0 -138 45.5t-44 148.5zM229 160q0 -15 1.5 -24.5t13 -20.5t33.5 -11q15 0 26 4.5t16 10 t8 15t3.5 16t0.5 15.5v373q0 17 -1.5 27.5t-14.5 22t-38 11.5q-16 0 -26.5 -5.5t-15 -15.5t-5.5 -18.5t-1 -20.5v-379z" />
<glyph unicode="&#x153;" horiz-adv-x="771" d="M25 175v207q0 81 57 120t149 39q42 0 76.5 -10t49 -19t33.5 -25q17 16 30 25.5t48 20.5t80 11q89 0 145 -37.5t56 -118.5v-150h-267v-78q0 -11 1 -17.5t4.5 -17t12.5 -15.5t24 -5q32 0 39 17t7 64h179v-40q0 -82 -51 -120t-157 -38q-96 0 -151 57q-18 -17 -30.5 -26 t-48 -21.5t-78.5 -12.5t-77 7.5t-55.5 18.5t-36.5 29t-22.5 32.5t-11.5 37t-4.5 34t-0.5 31.5zM210 157q0 -51 42 -51q19 0 29 10t11.5 19t1.5 23v217q0 48 -42 48q-15 0 -24 -4.5t-12.5 -13t-4.5 -14t-1 -15.5v-219zM482 321h88v61q0 13 -1.5 21t-12.5 17.5t-32 9.5 q-42 0 -42 -48v-61z" />
<glyph unicode="&#x154;" horiz-adv-x="562" d="M34 0v706h270q107 0 165 -35t58 -126v-23q0 -70 -29 -106t-90 -48q58 -7 90 -32.5t32 -91.5v-167q0 -31 6 -45.5t20 -31.5h-200q-14 25 -19 44.5t-5 58.5v142q0 27 -9.5 37.5t-36.5 10.5h-51v-293h-201zM168 764l61 112h191l-103 -112h-149zM235 427h51q29 0 38 10.5 t9 44.5v40q0 24 -10 34t-35 10h-53v-139z" />
<glyph unicode="&#x155;" horiz-adv-x="333" d="M30 0v533h189v-83q38 74 114 90v-173h-26q-55 0 -71.5 -17t-16.5 -62v-288h-189zM54 572l77 124h204l-131 -124h-150z" />
<glyph unicode="&#x15a;" d="M15 181v46h194v-47q0 -57 49 -57q46 0 46 59q0 25 -11 38.5t-50 41.5l-123 89q-59 43 -75 77.5t-16 92.5q0 109 61.5 153t174.5 44q42 0 78.5 -7.5t72.5 -26t57 -56t21 -90.5v-55h-185v47q0 52 -46 52q-18 0 -29 -9.5t-13.5 -18.5t-2.5 -18q0 -5 1 -10t3.5 -10t5 -8.5 t8 -8.5t8.5 -8t10.5 -9t11 -8.5t13 -9t13.5 -9.5l98 -71q61 -43 86.5 -83.5t25.5 -114.5q0 -100 -57 -148.5t-182 -48.5q-57 0 -96 6.5t-76.5 25.5t-56.5 59t-19 101zM160 764l61 112h191l-103 -112h-149z" />
<glyph unicode="&#x15b;" horiz-adv-x="479" d="M9 139v20h189v-27q0 -47 42 -47q40 0 40 42q0 11 -5.5 19t-12.5 12.5t-23 11.5l-74 34q-42 19 -64.5 32.5t-44.5 34t-30.5 47t-8.5 64.5q0 91 57 126t172 35q214 0 214 -141v-31h-180v24q0 14 -2 23.5t-12 17.5t-29 8q-39 0 -39 -38q0 -6 1.5 -11.5t3 -9.5t5.5 -8t7 -6.5 t10.5 -6.5t12 -6t15 -7t16.5 -8l95 -45q56 -26 81.5 -59t25.5 -89q0 -164 -228 -164q-40 0 -71 3t-63 12.5t-52.5 26t-34 44.5t-13.5 67zM140 574l77 124h204l-131 -124h-150z" />
<glyph unicode="&#x15c;" d="M15 181v46h194v-47q0 -57 49 -57q46 0 46 59q0 25 -11 38.5t-50 41.5l-123 89q-59 43 -75 77.5t-16 92.5q0 109 61.5 153t174.5 44q42 0 78.5 -7.5t72.5 -26t57 -56t21 -90.5v-55h-185v47q0 52 -46 52q-18 0 -29 -9.5t-13.5 -18.5t-2.5 -18q0 -5 1 -10t3.5 -10t5 -8.5 t8 -8.5t8.5 -8t10.5 -9t11 -8.5t13 -9t13.5 -9.5l98 -71q61 -43 86.5 -83.5t25.5 -114.5q0 -100 -57 -148.5t-182 -48.5q-57 0 -96 6.5t-76.5 25.5t-56.5 59t-19 101zM88 758l77 109h203l75 -109h-149l-29 45l-28 -45h-149z" />
<glyph unicode="&#x15d;" horiz-adv-x="479" d="M9 139v20h189v-27q0 -47 42 -47q40 0 40 42q0 11 -5.5 19t-12.5 12.5t-23 11.5l-74 34q-42 19 -64.5 32.5t-44.5 34t-30.5 47t-8.5 64.5q0 91 57 126t172 35q214 0 214 -141v-31h-180v24q0 14 -2 23.5t-12 17.5t-29 8q-39 0 -39 -38q0 -6 1.5 -11.5t3 -9.5t5.5 -8t7 -6.5 t10.5 -6.5t12 -6t15 -7t16.5 -8l95 -45q56 -26 81.5 -59t25.5 -89q0 -164 -228 -164q-40 0 -71 3t-63 12.5t-52.5 26t-34 44.5t-13.5 67zM55 574l89 122h190l90 -122h-146l-37 53l-39 -53h-147z" />
<glyph unicode="&#x15e;" d="M15 181v46h194v-47q0 -57 49 -57q46 0 46 59q0 25 -11 38.5t-50 41.5l-123 89q-59 43 -75 77.5t-16 92.5q0 109 61.5 153t174.5 44q42 0 78.5 -7.5t72.5 -26t57 -56t21 -90.5v-55h-185v47q0 52 -46 52q-18 0 -29 -9.5t-13.5 -18.5t-2.5 -18q0 -5 1 -10t3.5 -10t5 -8.5 t8 -8.5t8.5 -8t10.5 -9t11 -8.5t13 -9t13.5 -9.5l98 -71q61 -43 86.5 -83.5t25.5 -114.5q0 -91 -46.5 -139.5t-148.5 -55.5l-21 -25h13q79 0 79 -69q0 -48 -44.5 -77.5t-111.5 -29.5q-18 0 -38 3l-17 52q21 -6 34 -6q48 0 48 36q0 13 -6.5 21t-13 10t-12.5 2q-17 0 -41 -15 l-22 44l52 54q-91 7 -141 48t-50 142z" />
<glyph unicode="&#x15f;" horiz-adv-x="479" d="M9 139v20h189v-27q0 -47 42 -47q40 0 40 42q0 11 -5.5 19t-12.5 12.5t-23 11.5l-74 34q-42 19 -64.5 32.5t-44.5 34t-30.5 47t-8.5 64.5q0 91 57 126t172 35q214 0 214 -141v-31h-180v24q0 14 -2 23.5t-12 17.5t-29 8q-39 0 -39 -38q0 -6 1.5 -11.5t3 -9.5t5.5 -8t7 -6.5 t10.5 -6.5t12 -6t15 -7t16.5 -8l95 -45q56 -26 81.5 -59t25.5 -89q0 -149 -187 -162l-18 -22h13q79 0 79 -69q0 -48 -44.5 -77.5t-111.5 -29.5q-18 0 -38 3l-17 52q21 -6 34 -6q48 0 48 36q0 13 -6.5 21t-13 10t-12.5 2q-17 0 -41 -15l-22 44l49 51q-81 7 -127.5 40.5 t-46.5 110.5z" />
<glyph unicode="&#x160;" d="M15 181v46h194v-47q0 -57 49 -57q46 0 46 59q0 25 -11 38.5t-50 41.5l-123 89q-59 43 -75 77.5t-16 92.5q0 109 61.5 153t174.5 44q42 0 78.5 -7.5t72.5 -26t57 -56t21 -90.5v-55h-185v47q0 52 -46 52q-18 0 -29 -9.5t-13.5 -18.5t-2.5 -18q0 -5 1 -10t3.5 -10t5 -8.5 t8 -8.5t8.5 -8t10.5 -9t11 -8.5t13 -9t13.5 -9.5l98 -71q61 -43 86.5 -83.5t25.5 -114.5q0 -100 -57 -148.5t-182 -48.5q-57 0 -96 6.5t-76.5 25.5t-56.5 59t-19 101zM83 868h148l30 -46l28 46h148l-76 -110h-202z" />
<glyph unicode="&#x161;" horiz-adv-x="479" d="M9 139v20h189v-27q0 -47 42 -47q40 0 40 42q0 11 -5.5 19t-12.5 12.5t-23 11.5l-74 34q-42 19 -64.5 32.5t-44.5 34t-30.5 47t-8.5 64.5q0 91 57 126t172 35q214 0 214 -141v-31h-180v24q0 14 -2 23.5t-12 17.5t-29 8q-39 0 -39 -38q0 -6 1.5 -11.5t3 -9.5t5.5 -8t7 -6.5 t10.5 -6.5t12 -6t15 -7t16.5 -8l95 -45q56 -26 81.5 -59t25.5 -89q0 -164 -228 -164q-40 0 -71 3t-63 12.5t-52.5 26t-34 44.5t-13.5 67zM57 696h144l38 -52l38 52h147l-89 -121h-189z" />
<glyph unicode="&#x162;" horiz-adv-x="500" d="M-1 571v135h499v-135h-150v-571h-199v571h-150zM195 -32h109v-87l-49 -48h-44l18 48h-34v87z" />
<glyph unicode="&#x163;" horiz-adv-x="354" d="M0 430v103h80v173h184v-173h84v-103h-84v-275q0 -24 10 -35t37 -11h42v-109h-146q-68 0 -97.5 31t-29.5 94v305h-80zM147 -32h109v-87l-49 -48h-44l18 48h-34v87z" />
<glyph unicode="&#x164;" horiz-adv-x="500" d="M-1 571v135h499v-135h-150v-571h-199v571h-150zM72 868h148l30 -46l28 46h148l-76 -110h-202z" />
<glyph unicode="&#x165;" horiz-adv-x="354" d="M0 430v103h80v173h184v-173h84v-103h-84v-275q0 -24 10 -35t37 -11h42v-109h-146q-68 0 -97.5 31t-29.5 94v305h-80zM296 602v104h122v-104l-65 -54h-40l25 54h-42z" />
<glyph unicode="&#x16a;" horiz-adv-x="562" d="M31 165v541h198v-519q0 -57 51 -57q50 0 50 57v519h199v-536q0 -54 -19.5 -91t-56 -55.5t-77.5 -26t-96 -7.5q-42 0 -75.5 4t-67 15.5t-56 30.5t-36.5 51t-14 74zM109 760v97h343v-97h-343z" />
<glyph unicode="&#x16b;" d="M31 153v380h188v-388q0 -27 9 -39.5t31 -12.5q41 0 41 53v387h189v-533h-189v54q-50 -66 -134 -66q-135 0 -135 165zM94 585v97h333v-97h-333z" />
<glyph unicode="&#x16c;" horiz-adv-x="562" d="M31 165v541h198v-519q0 -57 51 -57q50 0 50 57v519h199v-536q0 -54 -19.5 -91t-56 -55.5t-77.5 -26t-96 -7.5q-42 0 -75.5 4t-67 15.5t-56 30.5t-36.5 51t-14 74zM114 896h78q3 -24 26.5 -39t60.5 -15q42 0 62.5 13.5t30.5 40.5h75q-7 -144 -170 -144q-77 0 -119.5 37 t-43.5 107z" />
<glyph unicode="&#x16d;" d="M31 153v380h188v-388q0 -27 9 -39.5t31 -12.5q41 0 41 53v387h189v-533h-189v54q-50 -66 -134 -66q-135 0 -135 165zM104 714h73q3 -24 25 -39t57 -15q70 0 87 54h71q-7 -144 -160 -144q-72 0 -112 37t-41 107z" />
<glyph unicode="&#x170;" horiz-adv-x="562" d="M31 165v541h198v-519q0 -57 51 -57q50 0 50 57v519h199v-536q0 -54 -19.5 -91t-56 -55.5t-77.5 -26t-96 -7.5q-42 0 -75.5 4t-67 15.5t-56 30.5t-36.5 51t-14 74zM104 764l61 112h171l-105 -112h-127zM305 764l61 112h171l-105 -112h-127z" />
<glyph unicode="&#x171;" d="M31 153v380h188v-388q0 -27 9 -39.5t31 -12.5q41 0 41 53v387h189v-533h-189v54q-50 -66 -134 -66q-135 0 -135 165zM79 572l77 124h184l-132 -124h-129zM292 572l77 124h183l-131 -124h-129z" />
<glyph unicode="&#x172;" horiz-adv-x="562" d="M31 165v541h198v-519q0 -57 51 -57q50 0 50 57v519h199v-536q0 -86 -42 -122.5t-120 -52.5q-26 -5 -39.5 -21.5t-13.5 -30.5q0 -28 52 -28l15 1v-104q-27 -3 -50 -3q-60 0 -97.5 22t-37.5 70q0 47 39 91q-94 6 -149 45t-55 128z" />
<glyph unicode="&#x173;" d="M31 153v380h188v-388q0 -27 9 -39.5t31 -12.5q41 0 41 53v387h189v-533h-31q-23 -6 -38.5 -23.5t-15.5 -33.5q0 -28 52 -28l15 1v-104q-27 -3 -50 -3q-60 0 -97.5 22t-37.5 70q0 49 47 99h-33v54q-50 -66 -134 -66q-135 0 -135 165z" />
<glyph unicode="&#x178;" horiz-adv-x="562" d="M0 706h197l85 -306l83 306h193l-176 -479v-227h-197v227zM100 756v121h146v-121h-146zM316 756v121h145v-121h-145z" />
<glyph unicode="&#x179;" horiz-adv-x="479" d="M16 0v137l229 435h-203v134h418v-139l-231 -430h231v-137h-444zM167 764l61 112h191l-103 -112h-149z" />
<glyph unicode="&#x17a;" horiz-adv-x="458" d="M15 0v108l193 318h-157v107h375v-107l-200 -318h208v-108h-419zM138 572l77 124h204l-131 -124h-150z" />
<glyph unicode="&#x17b;" horiz-adv-x="479" d="M16 0v137l229 435h-203v134h418v-139l-231 -430h231v-137h-444zM168 760v110h166v-110h-166z" />
<glyph unicode="&#x17c;" horiz-adv-x="458" d="M15 0v108l193 318h-157v107h375v-107l-200 -318h208v-108h-419zM152 574v122h173v-122h-173z" />
<glyph unicode="&#x17d;" horiz-adv-x="479" d="M16 0v137l229 435h-203v134h418v-139l-231 -430h231v-137h-444zM67 868h148l30 -46l28 46h148l-76 -110h-202z" />
<glyph unicode="&#x17e;" horiz-adv-x="458" d="M15 0v108l193 318h-157v107h375v-107l-200 -318h208v-108h-419zM46 696h144l38 -52l38 52h147l-89 -121h-189z" />
<glyph unicode="&#x218;" d="M15 181v46h194v-47q0 -57 49 -57q46 0 46 59q0 25 -11 38.5t-50 41.5l-123 89q-59 43 -75 77.5t-16 92.5q0 109 61.5 153t174.5 44q42 0 78.5 -7.5t72.5 -26t57 -56t21 -90.5v-55h-185v47q0 52 -46 52q-18 0 -29 -9.5t-13.5 -18.5t-2.5 -18q0 -5 1 -10t3.5 -10t5 -8.5 t8 -8.5t8.5 -8t10.5 -9t11 -8.5t13 -9t13.5 -9.5l98 -71q61 -43 86.5 -83.5t25.5 -114.5q0 -100 -57 -148.5t-182 -48.5q-57 0 -96 6.5t-76.5 25.5t-56.5 59t-19 101zM203 -32h109v-87l-49 -48h-44l18 48h-34v87z" />
<glyph unicode="&#x219;" horiz-adv-x="479" d="M9 139v20h189v-27q0 -47 42 -47q40 0 40 42q0 11 -5.5 19t-12.5 12.5t-23 11.5l-74 34q-42 19 -64.5 32.5t-44.5 34t-30.5 47t-8.5 64.5q0 91 57 126t172 35q214 0 214 -141v-31h-180v24q0 14 -2 23.5t-12 17.5t-29 8q-39 0 -39 -38q0 -6 1.5 -11.5t3 -9.5t5.5 -8t7 -6.5 t10.5 -6.5t12 -6t15 -7t16.5 -8l95 -45q56 -26 81.5 -59t25.5 -89q0 -164 -228 -164q-40 0 -71 3t-63 12.5t-52.5 26t-34 44.5t-13.5 67zM184 -32h109v-87l-49 -48h-44l18 48h-34v87z" />
<glyph unicode="&#x21a;" horiz-adv-x="500" d="M-1 571v135h499v-135h-150v-571h-199v571h-150zM195 -32h109v-87l-49 -48h-44l18 48h-34v87z" />
<glyph unicode="&#x21b;" horiz-adv-x="354" d="M0 430v103h80v173h184v-173h84v-103h-84v-275q0 -24 10 -35t37 -11h42v-109h-146q-68 0 -97.5 31t-29.5 94v305h-80zM147 -32h109v-87l-49 -48h-44l18 48h-34v87z" />
<glyph unicode="&#x2c6;" horiz-adv-x="271" d="M-49 574l89 122h190l90 -122h-146l-37 53l-39 -53h-147z" />
<glyph unicode="&#x2da;" horiz-adv-x="271" d="M33 666q0 42 30 72.5t73 30.5t72.5 -30.5t29.5 -72.5t-30 -72t-72 -30t-72.5 30t-30.5 72zM103 666q0 -13 10 -22.5t23 -9.5t22.5 9.5t9.5 22.5t-9.5 23t-22.5 10q-14 0 -23.5 -9.5t-9.5 -23.5z" />
<glyph unicode="&#x2dc;" horiz-adv-x="271" d="M-28 579q0 61 28 95t77 34q31 0 77 -16.5t57 -16.5q27 0 30 31h58q0 -132 -103 -132q-33 0 -78 18t-55 18q-29 0 -31 -31h-60z" />
<glyph unicode="&#x37e;" horiz-adv-x="292" d="M78 0v161h175v-161l-97 -153h-61l55 153h-72zM78 383v166h175v-166h-175z" />
<glyph unicode="&#x384;" horiz-adv-x="271" d="M-5 572l77 124h204l-131 -124h-150z" />
<glyph unicode="&#x385;" horiz-adv-x="412" d="M-45 574v132h137v-132h-137zM115 574l57 194h156l-106 -194h-107zM320 574v132h137v-132h-137z" />
<glyph unicode="&#x386;" horiz-adv-x="562" d="M-155 582l77 124h204l-131 -124h-150zM-2 0l164 706h238l160 -706h-197l-22 159h-121l-24 -159h-198zM238 285h85l-42 283z" />
<glyph unicode="&#x388;" horiz-adv-x="437" d="M-265 582l77 124h204l-131 -124h-150zM35 0v706h386v-137h-187v-143h173v-135h-173v-155h187v-136h-386z" />
<glyph unicode="&#x389;" horiz-adv-x="562" d="M-265 582l77 124h204l-131 -124h-150zM35 0v706h200v-278h93v278h198v-706h-198v282h-93v-282h-200z" />
<glyph unicode="&#x38a;" horiz-adv-x="271" d="M-265 582l77 124h204l-131 -124h-150zM35 0v706h200v-706h-200z" />
<glyph unicode="&#x38c;" horiz-adv-x="562" d="M-227 582l77 124h204l-131 -124h-150zM27 188v329q0 59 20.5 100t58 61.5t79 29t93.5 8.5q19 0 35.5 -1t43.5 -5t49 -11t46 -21.5t40.5 -33.5t27.5 -49t11 -67v-339q0 -199 -245 -199q-259 0 -259 198zM227 179q0 -11 1 -17.5t5.5 -16.5t16 -15t29.5 -5q23 0 35.5 9 t14.5 19t2 26v352q0 15 -1.5 23.5t-14 18t-36.5 9.5q-22 0 -34.5 -8.5t-15 -18.5t-2.5 -26v-350z" />
<glyph unicode="&#x38e;" horiz-adv-x="562" d="M-314 582l77 124h204l-131 -124h-150zM0 706h197l85 -306l83 306h193l-176 -479v-227h-197v227z" />
<glyph unicode="&#x38f;" horiz-adv-x="574" d="M-225 582l77 124h204l-131 -124h-150zM29 0v136h127q-73 28 -100 76t-27 160v145q0 59 20.5 100t58 61.5t79 29t93.5 8.5q19 0 35.5 -1t43.5 -5t49 -11t46 -21.5t40.5 -33.5t27.5 -49t11 -67v-156q0 -112 -27 -160t-100 -76h127v-136h-234v138q13 8 19.5 19t10.5 47.5 t4 107.5v219q0 15 -1.5 23.5t-14 18t-36.5 9.5q-22 0 -34.5 -8.5t-15 -18t-2.5 -24.5v-219q0 -106 5.5 -135t23.5 -39v-138h-229z" />
<glyph unicode="&#x390;" horiz-adv-x="286" d="M-103 574v132h137v-132h-137zM30 151v382h189v-378q0 -28 8 -37t31 -9v-109q-30 -2 -59 -2q-102 0 -135.5 33t-33.5 120zM57 574l57 194h156l-106 -194h-107zM262 574v132h137v-132h-137z" />
<glyph unicode="&#x391;" horiz-adv-x="562" d="M-2 0l164 706h238l160 -706h-197l-22 159h-121l-24 -159h-198zM238 285h85l-42 283z" />
<glyph unicode="&#x392;" horiz-adv-x="542" d="M34 0v706h271q100 0 156 -38.5t56 -136.5q0 -75 -30 -109.5t-91 -52.5q78 -12 106 -50.5t28 -120.5q0 -53 -11 -90t-29 -58t-50.5 -32.5t-64.5 -14.5t-82 -3h-259zM229 135h44q33 0 45 11t12 43v48q0 31 -12 42.5t-43 11.5h-46v-156zM229 424h44q29 0 40.5 11.5 t11.5 41.5v45q0 28 -11.5 38t-40.5 10h-44v-146z" />
<glyph unicode="&#x393;" horiz-adv-x="407" d="M35 0v706h370v-136h-172v-570h-198z" />
<glyph unicode="&#x394;" horiz-adv-x="605" d="M0 0l213 706h183l207 -706h-603zM222 134h157l-78 343z" />
<glyph unicode="&#x395;" horiz-adv-x="437" d="M35 0v706h386v-137h-187v-143h173v-135h-173v-155h187v-136h-386z" />
<glyph unicode="&#x396;" horiz-adv-x="479" d="M16 0v137l229 435h-203v134h418v-139l-231 -430h231v-137h-444z" />
<glyph unicode="&#x397;" horiz-adv-x="562" d="M35 0v706h200v-278h93v278h198v-706h-198v282h-93v-282h-200z" />
<glyph unicode="&#x398;" horiz-adv-x="562" d="M27 188v329q0 59 20.5 100t58 61.5t79 29t93.5 8.5q19 0 35.5 -1t43.5 -5t49 -11t46 -21.5t40.5 -33.5t27.5 -49t11 -67v-339q0 -199 -245 -199q-259 0 -259 198zM227 179q0 -11 1 -17.5t5.5 -16.5t16 -15t29.5 -5q23 0 35.5 9t14.5 19t2 26v352q0 15 -1.5 23.5t-14 18 t-36.5 9.5q-22 0 -34.5 -8.5t-15 -18.5t-2.5 -26v-350zM241 284v146h74v-146h-74z" />
<glyph unicode="&#x399;" horiz-adv-x="271" d="M35 0v706h200v-706h-200z" />
<glyph unicode="&#x39a;" horiz-adv-x="562" d="M36 0v706h196v-324l120 324h200l-142 -338l160 -368h-212l-126 327v-327h-196z" />
<glyph unicode="&#x39b;" horiz-adv-x="542" d="M-2 0l156 706h238l152 -706h-197l-74 562l-77 -562h-198z" />
<glyph unicode="&#x39c;" horiz-adv-x="750" d="M35 0v706h251l90 -466l88 466h249v-706h-166v484l-109 -484h-127l-110 475v-475h-166z" />
<glyph unicode="&#x39d;" horiz-adv-x="562" d="M36 0v706h183l140 -427v427h166v-706h-187l-136 412v-412h-166z" />
<glyph unicode="&#x39e;" horiz-adv-x="465" d="M16 0v150h433v-150h-433zM16 555v151h433v-151h-433zM50 284v149h365v-149h-365z" />
<glyph unicode="&#x39f;" horiz-adv-x="562" d="M27 188v329q0 59 20.5 100t58 61.5t79 29t93.5 8.5q19 0 35.5 -1t43.5 -5t49 -11t46 -21.5t40.5 -33.5t27.5 -49t11 -67v-339q0 -199 -245 -199q-259 0 -259 198zM227 179q0 -11 1 -17.5t5.5 -16.5t16 -15t29.5 -5q23 0 35.5 9t14.5 19t2 26v352q0 15 -1.5 23.5t-14 18 t-36.5 9.5q-22 0 -34.5 -8.5t-15 -18.5t-2.5 -26v-350z" />
<glyph unicode="&#x3a0;" horiz-adv-x="552" d="M35 0v706h485v-706h-198v560h-87v-560h-200z" />
<glyph unicode="&#x3a1;" horiz-adv-x="542" d="M35 0v706h305q102 0 143.5 -44t41.5 -150v-63q0 -113 -48 -153.5t-156 -40.5h-88v-255h-198zM233 390h50q31 0 40.5 12.5t9.5 44.5v73q0 28 -11 39.5t-39 11.5h-50v-181z" />
<glyph unicode="&#x3a3;" horiz-adv-x="479" d="M16 0v137l131 239l-117 191v139h424v-134h-209l118 -192l-134 -243h231v-137h-444z" />
<glyph unicode="&#x3a4;" horiz-adv-x="500" d="M-1 571v135h499v-135h-150v-571h-199v571h-150z" />
<glyph unicode="&#x3a5;" horiz-adv-x="562" d="M0 706h197l85 -306l83 306h193l-176 -479v-227h-197v227z" />
<glyph unicode="&#x3a6;" horiz-adv-x="757" d="M27 258v199q0 59 20.5 99.5t58.5 61t78 28.5t94 10v50h200v-50q54 -2 94 -10t78 -28.5t58.5 -61t20.5 -99.5v-199q0 -101 -64.5 -148t-186.5 -50v-60h-200v60q-122 3 -186.5 50t-64.5 148zM222 243q0 -49 56 -52v335q-33 -2 -44.5 -16t-11.5 -37v-230zM478 191 q56 3 56 54v228q0 23 -11.5 37t-44.5 16v-335z" />
<glyph unicode="&#x3a7;" d="M0 0l122 369l-122 337h201l59 -242l60 242h197l-117 -337l117 -369h-197l-60 244l-63 -244h-197z" />
<glyph unicode="&#x3a8;" horiz-adv-x="757" d="M27 355v351h195v-362q0 -49 56 -52v414h200v-414q56 3 56 52v362h195v-351q0 -101 -64 -147.5t-187 -50.5v-157h-200v157q-123 4 -187 50.5t-64 147.5z" />
<glyph unicode="&#x3a9;" horiz-adv-x="581" d="M15 0v136h158q-72 34 -104.5 89t-32.5 147v125q0 115 60.5 167t194.5 52q133 0 193.5 -52t60.5 -167v-125q0 -86 -30.5 -143t-106.5 -93h158v-136h-251v138q15 12 22 39t8 52.5t1 82.5v187q0 45 -12 64t-41 19t-43.5 -17t-14.5 -63v-190q0 -72 3.5 -106.5t8.5 -44 t19 -23.5v-138h-251z" />
<glyph unicode="&#x3aa;" horiz-adv-x="271" d="M-46 756v121h146v-121h-146zM35 0v706h200v-706h-200zM170 756v121h145v-121h-145z" />
<glyph unicode="&#x3ab;" horiz-adv-x="562" d="M0 706h197l85 -306l83 306h193l-176 -479v-227h-197v227zM100 756v121h146v-121h-146zM316 756v121h145v-121h-145z" />
<glyph unicode="&#x3ac;" horiz-adv-x="558" d="M25 148v228q0 89 36 128.5t110 39.5q101 0 132 -74v63h188v-378q0 -28 8 -37t31 -9v-109q-30 -2 -57 -2q-72 0 -105.5 13.5t-53.5 58.5q-40 -81 -143 -81q-146 0 -146 159zM194 572l77 124h204l-131 -124h-150zM214 150q0 -47 42 -47q47 0 47 50v226q0 10 -1 16t-4.5 15 t-13 13.5t-25.5 4.5q-25 0 -35 -11t-10 -37v-230z" />
<glyph unicode="&#x3ad;" horiz-adv-x="500" d="M23 143v23q0 42 21.5 77t74.5 38q-51 9 -69 34t-18 76v21q0 134 213 134q112 0 171 -34t59 -125v-18h-178v19q0 46 -39 46q-20 0 -30 -9t-11.5 -17t-1.5 -21v-18q0 -23 12.5 -29.5t54.5 -6.5h20v-105h-20q-43 0 -56 -6.5t-13 -29.5v-33q0 -25 8.5 -38.5t35.5 -13.5 q25 0 33.5 12t8.5 41v25h181v-30q0 -94 -54.5 -130.5t-172.5 -36.5q-40 0 -67 2t-60.5 11t-54 25t-34.5 45.5t-14 71.5zM182 572l77 124h204l-131 -124h-150z" />
<glyph unicode="&#x3ae;" horiz-adv-x="556" d="M10 426v106q45 8 73 8q17 0 28 -0.5t31 -4t34 -10.5t28.5 -21.5t22.5 -34.5q56 75 137 75q78 0 111 -45.5t33 -107.5v-560h-190v550q0 27 -9.5 38.5t-30.5 11.5q-40 0 -40 -50v-381h-189v385q0 18 -6 27.5t-13 11.5t-20 2zM206 572l77 124h204l-131 -124h-150z" />
<glyph unicode="&#x3af;" horiz-adv-x="286" d="M30 151v382h189v-378q0 -28 8 -37t31 -9v-109q-30 -2 -59 -2q-102 0 -135.5 33t-33.5 120zM50 572l77 124h204l-131 -124h-150z" />
<glyph unicode="&#x3b0;" horiz-adv-x="532" d="M26 574v132h137v-132h-137zM31 145v388h187v-368q0 -11 1 -18t5 -17t15 -15.5t28 -5.5t27 5t14 15.5t5 17.5t1 20v366h187v-383q0 -50 -17 -83.5t-50.5 -50t-69.5 -22.5t-85 -6q-42 0 -72 2.5t-66 11.5t-58 25t-37 46t-15 72zM186 574l57 194h156l-106 -194h-107z M391 574v132h137v-132h-137z" />
<glyph unicode="&#x3b1;" horiz-adv-x="558" d="M25 148v228q0 89 36 128.5t110 39.5q101 0 132 -74v63h188v-378q0 -28 8 -37t31 -9v-109q-30 -2 -57 -2q-72 0 -105.5 13.5t-53.5 58.5q-40 -81 -143 -81q-146 0 -146 159zM214 150q0 -47 42 -47q47 0 47 50v226q0 10 -1 16t-4.5 15t-13 13.5t-25.5 4.5q-25 0 -35 -11 t-10 -37v-230z" />
<glyph unicode="&#x3b2;" horiz-adv-x="514" d="M30 -169v709q0 94 49 136t171 42q229 0 229 -147v-77q0 -25 -3 -40.5t-19.5 -34t-47.5 -27.5q49 -16 68 -42t19 -82v-129q0 -151 -144 -151q-98 0 -136 70v-227h-186zM216 151q0 -49 50 -49q42 0 42 50v137q0 19 -1.5 28t-10.5 16t-28 7h-21v108q29 0 36.5 8t7.5 36v64 q0 16 -1.5 25t-10 17.5t-24.5 8.5q-22 0 -30.5 -10t-8.5 -35v-411z" />
<glyph unicode="&#x3b3;" horiz-adv-x="506" d="M10 426v107h64q77 0 109 -24.5t43 -89.5l38 -213l54 327h185l-147 -555v-147h-188v147l-111 413q-6 21 -14 28t-33 7z" />
<glyph unicode="&#x3b4;" d="M25 145v168q0 57 30.5 91.5t86.5 42.5q-52 21 -74 48.5t-22 69.5v16q0 76 54.5 106.5t164.5 30.5q102 0 156 -33t54 -108v-22h-180v11q0 14 -1 21t-9.5 14.5t-25.5 7.5q-32 0 -32 -28q0 -17 11 -28t50 -35l120 -74q49 -30 68 -56t19 -76v-162q0 -50 -17 -83.5t-50.5 -50 t-69.5 -22.5t-85 -6q-42 0 -72 2.5t-66 11.5t-58 25t-37 46t-15 72zM212 165q0 -11 1 -18t5 -17t15 -15.5t28 -5.5t27 5t14 15.5t5 17.5t1 20v134q0 52 -48 52t-48 -49v-139z" />
<glyph unicode="&#x3b5;" horiz-adv-x="500" d="M23 143v23q0 42 21.5 77t74.5 38q-51 9 -69 34t-18 76v21q0 134 213 134q112 0 171 -34t59 -125v-18h-178v19q0 46 -39 46q-20 0 -30 -9t-11.5 -17t-1.5 -21v-18q0 -23 12.5 -29.5t54.5 -6.5h20v-105h-20q-43 0 -56 -6.5t-13 -29.5v-33q0 -25 8.5 -38.5t35.5 -13.5 q25 0 33.5 12t8.5 41v25h181v-30q0 -94 -54.5 -130.5t-172.5 -36.5q-40 0 -67 2t-60.5 11t-54 25t-34.5 45.5t-14 71.5z" />
<glyph unicode="&#x3b6;" horiz-adv-x="448" d="M25 162v46q0 79 56.5 178t164.5 194h-180v126h401v-116q-252 -197 -252 -371v-17q0 -36 14.5 -53t47.5 -17h33q76 0 104 -30t28 -115v-115h-158v68q0 37 -15 48.5t-44 11.5h-35q-18 0 -37.5 4t-43 15t-41.5 28t-30.5 47t-12.5 68z" />
<glyph unicode="&#x3b7;" horiz-adv-x="556" d="M10 426v106q45 8 73 8q17 0 28 -0.5t31 -4t34 -10.5t28.5 -21.5t22.5 -34.5q56 75 137 75q78 0 111 -45.5t33 -107.5v-560h-190v550q0 27 -9.5 38.5t-30.5 11.5q-40 0 -40 -50v-381h-189v385q0 18 -6 27.5t-13 11.5t-20 2z" />
<glyph unicode="&#x3b8;" horiz-adv-x="512" d="M25 175v358q0 93 52 139t173 46q107 0 172 -39.5t65 -128.5v-365q0 -22 -0.5 -35.5t-5 -36.5t-13 -37.5t-25 -32.5t-40 -28.5t-60 -18t-83.5 -7.5q-49 0 -86.5 7.5t-73.5 26.5t-55.5 57.5t-19.5 94.5zM206 150q0 -51 50 -51q51 0 51 51v167h-101v-167zM206 420h101v130 q0 56 -51 56q-50 0 -50 -57v-129z" />
<glyph unicode="&#x3b9;" horiz-adv-x="286" d="M30 151v382h189v-378q0 -28 8 -37t31 -9v-109q-30 -2 -59 -2q-102 0 -135.5 33t-33.5 120z" />
<glyph unicode="&#x3ba;" horiz-adv-x="532" d="M30 0v533h182v-206l117 149q25 33 50 45t81 12h46v-117q-19 0 -28 -5t-20 -18l-87 -102l151 -291h-198l-112 254v-254h-182z" />
<glyph unicode="&#x3bb;" horiz-adv-x="525" d="M0 0l178 516l-15 53q-6 21 -17 29.5t-42 8.5h-17v106q41 7 67 7q90 0 125 -31t64 -133l117 -416q9 -31 50 -31v-109q-30 -2 -68 -2q-73 0 -104.5 21.5t-43.5 80.5l-35 175l-72 -275h-187z" />
<glyph unicode="&#x3bc;" d="M31 -168v701h188v-394q0 -46 41 -46q22 0 31 12t9 41v387h189v-465q0 -28 4 -39.5t20 -28.5h-213v54q-9 -32 -19.5 -44t-30.5 -12q-19 0 -31 13v-179h-188z" />
<glyph unicode="&#x3bd;" horiz-adv-x="464" d="M0 533h187l46 -381l46 267q6 38 6 55q0 31 -7 59h168q12 -36 12 -68q0 -26 -8 -60l-102 -405h-226z" />
<glyph unicode="&#x3be;" horiz-adv-x="448" d="M23 162v70q0 64 28 98t84 51q-30 5 -49 16.5t-26 30t-9 32t-2 35.5v17q0 29 20.5 52.5t49.5 30.5h-81v111h415v-119h-146q-77 0 -77 -65v-18q0 -42 14.5 -53.5t67.5 -11.5h88v-118h-88q-58 0 -78.5 -13.5t-20.5 -56.5v-54q0 -36 14.5 -53t47.5 -17h33q76 0 104 -30 t28 -115v-110h-158v68q0 37 -15 48.5t-44 11.5h-35q-18 0 -37.5 4t-43 15t-41.5 28t-30.5 47t-12.5 68z" />
<glyph unicode="&#x3bf;" horiz-adv-x="520" d="M25 145v248q0 40 15.5 70t37.5 45.5t55 24.5t59.5 11.5t60.5 2.5q48 0 85 -5t76 -20t60 -47t21 -80v-245q0 -50 -17 -83.5t-50.5 -50t-69.5 -22.5t-85 -6q-42 0 -72 2.5t-66 11.5t-58 25t-37 46t-15 72zM212 165q0 -11 1 -18t5 -17t15 -15.5t28 -5.5t27 5t14 15.5t5 17.5 t1 20v204q0 52 -48 52t-48 -49v-209z" />
<glyph unicode="&#x3c0;" horiz-adv-x="604" d="M38 427v107h523v-108h-35v-252q0 -41 9 -53.5t43 -12.5v-109q-35 -1 -72 -1q-92 0 -129.5 36t-37.5 127v264h-73v-425h-188v427h-40z" />
<glyph unicode="&#x3c1;" horiz-adv-x="520" d="M28 -169v562q0 40 15 70t36.5 45.5t54.5 24.5t59.5 11.5t59.5 2.5q48 0 85 -5t75.5 -20t59.5 -47t21 -80v-256q0 -151 -144 -151q-96 0 -134 70v-227h-188zM216 151q0 -49 44 -49q21 0 31.5 9.5t12 18t1.5 22.5v221q0 50 -45 50q-15 0 -25 -4.5t-13.5 -13t-4.5 -14.5 t-1 -15v-225z" />
<glyph unicode="&#x3c2;" horiz-adv-x="500" d="M23 162v212q0 94 57.5 132.5t163.5 38.5q228 0 228 -157v-60h-180v53q0 9 -1 14t-4 13t-12.5 12t-23.5 4q-21 0 -30.5 -10t-9.5 -33v-184q0 -36 14.5 -53t47.5 -17h33q76 0 104 -30t28 -115v-110h-158v68q0 37 -15 48.5t-44 11.5h-33q-18 0 -37.5 4t-43 15t-41.5 28 t-30.5 47t-12.5 68z" />
<glyph unicode="&#x3c3;" horiz-adv-x="557" d="M25 145v234q0 40 15.5 70t37.5 45.5t55 24.5t59.5 11.5t60.5 2.5h284v-107h-134q39 -9 65.5 -39t26.5 -80v-157q0 -50 -17 -83.5t-50.5 -50t-69.5 -22.5t-85 -6q-42 0 -72 2.5t-66 11.5t-58 25t-37 46t-15 72zM212 165q0 -11 1 -18t5 -17t15 -15.5t28 -5.5t27 5t14 15.5 t5 17.5t1 20v200q0 52 -48 52t-48 -49v-205z" />
<glyph unicode="&#x3c4;" horiz-adv-x="414" d="M10 406v111q43 16 122 16h272v-113h-105v-265q0 -24 10 -35t37 -11h42v-109h-146q-68 0 -97.5 31t-29.5 94v294q-66 0 -105 -13z" />
<glyph unicode="&#x3c5;" horiz-adv-x="532" d="M31 145v388h187v-368q0 -11 1 -18t5 -17t15 -15.5t28 -5.5t27 5t14 15.5t5 17.5t1 20v366h187v-383q0 -50 -17 -83.5t-50.5 -50t-69.5 -22.5t-85 -6q-42 0 -72 2.5t-66 11.5t-58 25t-37 46t-15 72z" />
<glyph unicode="&#x3c6;" horiz-adv-x="738" d="M25 154v227q0 32 8 56.5t19.5 41t32.5 28.5t39 18t47.5 10t50 5t53.5 2v131h188v-131q33 -1 53.5 -2t50 -5t47.5 -10t39 -18t32.5 -28.5t19.5 -41t8 -56.5v-227q0 -32 -8 -56.5t-19.5 -41t-32.5 -28.5t-39 -18t-47.5 -10t-50 -5t-53.5 -2v-162h-188v162q-39 1 -62 2.5 t-56.5 6.5t-53.5 16t-40 28t-29 44t-9 64zM207 167q0 -15 3.5 -25.5t19.5 -21t45 -11.5v313h-16q-52 0 -52 -58v-197zM463 109q29 1 45 11.5t19.5 21t3.5 25.5v197q0 15 -3.5 25.5t-19.5 21t-45 11.5v-313z" />
<glyph unicode="&#x3c7;" horiz-adv-x="527" d="M10 -169l123 382l-67 190q-5 15 -9.5 19.5t-14.5 4.5h-21v103q35 10 83 10q53 0 80 -15.5t36 -58.5l36 -165l61 232h186l-123 -320l81 -252q10 -30 50 -30v-107q-52 -8 -92 -8q-52 0 -79.5 19t-36.5 63l-47 228l-57 -295h-189z" />
<glyph unicode="&#x3c8;" horiz-adv-x="781" d="M31 163v370h184v-356q0 -65 66 -68v564h188v-564q66 3 66 68v356h184v-370q0 -44 -15 -75.5t-37 -49t-57.5 -28t-66.5 -14t-74 -4.5v-161h-188v161q-43 1 -74 4.5t-66.5 14t-57.5 28t-37 49t-15 75.5z" />
<glyph unicode="&#x3c9;" horiz-adv-x="748" d="M25 149v227q0 157 217 157h30v-115h-7q-28 0 -40.5 -10t-12.5 -33v-227q0 -39 34 -39t34 39v197h188v-197q0 -39 34 -39t34 39v227q0 23 -12.5 33t-40.5 10h-7v115h30q217 0 217 -157v-227q0 -161 -195 -161q-145 0 -154 101q-8 -101 -154 -101q-195 0 -195 161z" />
<glyph unicode="&#x3ca;" horiz-adv-x="286" d="M-52 574v132h152v-132h-152zM30 151v382h189v-378q0 -28 8 -37t31 -9v-109q-30 -2 -59 -2q-102 0 -135.5 33t-33.5 120zM167 574v132h152v-132h-152z" />
<glyph unicode="&#x3cb;" horiz-adv-x="532" d="M31 145v388h187v-368q0 -11 1 -18t5 -17t15 -15.5t28 -5.5t27 5t14 15.5t5 17.5t1 20v366h187v-383q0 -50 -17 -83.5t-50.5 -50t-69.5 -22.5t-85 -6q-42 0 -72 2.5t-66 11.5t-58 25t-37 46t-15 72zM81 574v132h152v-132h-152zM300 574v132h152v-132h-152z" />
<glyph unicode="&#x3cc;" horiz-adv-x="520" d="M25 145v248q0 40 15.5 70t37.5 45.5t55 24.5t59.5 11.5t60.5 2.5q48 0 85 -5t76 -20t60 -47t21 -80v-245q0 -50 -17 -83.5t-50.5 -50t-69.5 -22.5t-85 -6q-42 0 -72 2.5t-66 11.5t-58 25t-37 46t-15 72zM190 572l77 124h204l-131 -124h-150zM212 165q0 -11 1 -18t5 -17 t15 -15.5t28 -5.5t27 5t14 15.5t5 17.5t1 20v204q0 52 -48 52t-48 -49v-209z" />
<glyph unicode="&#x3cd;" horiz-adv-x="532" d="M31 145v388h187v-368q0 -11 1 -18t5 -17t15 -15.5t28 -5.5t27 5t14 15.5t5 17.5t1 20v366h187v-383q0 -50 -17 -83.5t-50.5 -50t-69.5 -22.5t-85 -6q-42 0 -72 2.5t-66 11.5t-58 25t-37 46t-15 72zM189 572l77 124h204l-131 -124h-150z" />
<glyph unicode="&#x3ce;" horiz-adv-x="748" d="M25 149v227q0 157 217 157h30v-115h-7q-28 0 -40.5 -10t-12.5 -33v-227q0 -39 34 -39t34 39v197h188v-197q0 -39 34 -39t34 39v227q0 23 -12.5 33t-40.5 10h-7v115h30q217 0 217 -157v-227q0 -161 -195 -161q-145 0 -154 101q-8 -101 -154 -101q-195 0 -195 161zM303 572 l77 124h204l-131 -124h-150z" />
<glyph unicode="&#x401;" horiz-adv-x="437" d="M35 0v706h386v-137h-187v-143h173v-135h-173v-155h187v-136h-386zM43 756v121h146v-121h-146zM259 756v121h145v-121h-145z" />
<glyph unicode="&#x402;" horiz-adv-x="643" d="M5 571v135h469v-135h-150v-139q45 24 113 24q88 0 134 -40t46 -141v-103q0 -93 -39 -132.5t-137 -39.5h-79v135q31 0 43 12t12 48v57q0 33 -11 45.5t-37 12.5q-27 0 -45 -13v-297h-199v571h-120z" />
<glyph unicode="&#x403;" horiz-adv-x="417" d="M35 0v706h380v-136h-182v-570h-198zM126 764l61 112h191l-103 -112h-149z" />
<glyph unicode="&#x404;" horiz-adv-x="542" d="M29 182v330q0 102 55 154.5t193 52.5q247 0 247 -189v-54h-195v54q0 49 -49 49q-53 0 -53 -49v-108h204v-135h-204v-116q0 -26 12.5 -36t38.5 -10q51 0 51 51v55h197v-35q0 -113 -58.5 -161t-186.5 -48q-55 0 -96.5 8t-78.5 28.5t-57 60.5t-20 98z" />
<glyph unicode="&#x405;" d="M15 181v46h194v-47q0 -57 49 -57q46 0 46 59q0 25 -11 38.5t-50 41.5l-123 89q-59 43 -75 77.5t-16 92.5q0 109 61.5 153t174.5 44q42 0 78.5 -7.5t72.5 -26t57 -56t21 -90.5v-55h-185v47q0 52 -46 52q-18 0 -29 -9.5t-13.5 -18.5t-2.5 -18q0 -5 1 -10t3.5 -10t5 -8.5 t8 -8.5t8.5 -8t10.5 -9t11 -8.5t13 -9t13.5 -9.5l98 -71q61 -43 86.5 -83.5t25.5 -114.5q0 -100 -57 -148.5t-182 -48.5q-57 0 -96 6.5t-76.5 25.5t-56.5 59t-19 101z" />
<glyph unicode="&#x406;" horiz-adv-x="271" d="M35 0v706h200v-706h-200z" />
<glyph unicode="&#x407;" horiz-adv-x="271" d="M-30 756v121h146v-121h-146zM35 0v706h200v-706h-200zM156 756v121h145v-121h-145z" />
<glyph unicode="&#x408;" horiz-adv-x="354" d="M12 0v135h54q31 0 43 12t12 48v511h198v-534q0 -94 -38 -133t-136 -39h-133z" />
<glyph unicode="&#x409;" horiz-adv-x="888" d="M10 0v137h26q52 0 52 101v468h491v-255h107q102 0 143.5 -44t41.5 -150v-63q0 -113 -48 -153.5t-156 -40.5h-286v559h-92v-315q0 -57 -5.5 -98t-19 -67.5t-29 -42.5t-42 -24t-50.5 -10t-62 -2h-71zM579 135h50q31 0 40.5 12.5t9.5 44.5v73q0 28 -11 39.5t-39 11.5h-50 v-181z" />
<glyph unicode="&#x40a;" horiz-adv-x="836" d="M35 0v706h200v-263h93v263h199v-263h107q102 0 143.5 -44t41.5 -150v-55q0 -113 -48 -153.5t-156 -40.5h-287v297h-93v-297h-200zM527 135h50q31 0 40.5 12.5t9.5 44.5v54q0 28 -11 39.5t-39 11.5h-50v-162z" />
<glyph unicode="&#x40b;" horiz-adv-x="643" d="M5 571v135h469v-135h-150v-139q45 24 113 24q88 0 134 -40t46 -141v-275h-200v252q0 33 -11 45.5t-37 12.5q-27 0 -45 -13v-297h-199v571h-120z" />
<glyph unicode="&#x40c;" horiz-adv-x="584" d="M35 0v706h201v-278h36q28 0 38.5 11.5t10.5 56.5v69q0 141 131 141h101v-134q-19 0 -26 -13t-7 -43v-51q0 -49 -15 -70.5t-51 -35.5q40 -10 53 -39.5t13 -88.5v-27q0 -43 7.5 -55t36.5 -12v-137h-102q-141 0 -141 137v75q0 47 -12 59t-47 12h-26v-283h-201zM194 764 l61 112h191l-103 -112h-149z" />
<glyph unicode="&#x40e;" horiz-adv-x="562" d="M4 706h198l93 -306l75 306h192l-180 -509q-14 -38 -24 -64.5t-22 -48.5t-20 -35.5t-23.5 -23.5t-25 -14.5t-31 -7t-36.5 -3t-47 -0.5h-31v137h41q25 0 36 9.5t17 34.5zM119 890h113q0 -29 13.5 -41.5t40.5 -12.5q53 0 53 54h113q0 -73 -37.5 -108.5t-128.5 -35.5 t-129 35.5t-38 108.5z" />
<glyph unicode="&#x40f;" horiz-adv-x="562" d="M35 0v706h198v-559h93v559h200v-706h-165v-140h-163v140h-163z" />
<glyph unicode="&#x410;" horiz-adv-x="562" d="M-2 0l164 706h238l160 -706h-197l-22 159h-121l-24 -159h-198zM238 285h85l-42 283z" />
<glyph unicode="&#x411;" horiz-adv-x="542" d="M35 0v706h445v-136h-247v-109h107q102 0 143.5 -44t41.5 -150v-73q0 -113 -48 -153.5t-156 -40.5h-286zM233 135h50q31 0 40.5 12.5t9.5 44.5v83q0 28 -11 39.5t-39 11.5h-50v-191z" />
<glyph unicode="&#x412;" horiz-adv-x="542" d="M34 0v706h271q100 0 156 -38.5t56 -136.5q0 -75 -30 -109.5t-91 -52.5q78 -12 106 -50.5t28 -120.5q0 -53 -11 -90t-29 -58t-50.5 -32.5t-64.5 -14.5t-82 -3h-259zM229 135h44q33 0 45 11t12 43v48q0 31 -12 42.5t-43 11.5h-46v-156zM229 424h44q29 0 40.5 11.5 t11.5 41.5v45q0 28 -11.5 38t-40.5 10h-44v-146z" />
<glyph unicode="&#x413;" horiz-adv-x="417" d="M35 0v706h380v-136h-182v-570h-198z" />
<glyph unicode="&#x414;" horiz-adv-x="713" d="M10 -140v287q111 0 111 141v418h491v-559h91v-287h-163v140h-367v-140h-163zM288 147h126v412h-92v-271q0 -103 -34 -141z" />
<glyph unicode="&#x415;" horiz-adv-x="437" d="M35 0v706h386v-137h-187v-143h173v-135h-173v-155h187v-136h-386z" />
<glyph unicode="&#x416;" horiz-adv-x="877" d="M20 0v137q29 0 36.5 12t7.5 55v27q0 59 13 88.5t53 39.5q-36 14 -51 35.5t-15 70.5v51q0 30 -7 43t-26 13v134h101q131 0 131 -141v-69q0 -45 10.5 -56.5t38.5 -11.5h26v278h201v-278h26q28 0 38.5 11.5t10.5 56.5v69q0 141 131 141h101v-134q-19 0 -26 -13t-7 -43v-51 q0 -49 -15 -70.5t-51 -35.5q40 -10 53 -39.5t13 -88.5v-27q0 -43 7.5 -55t36.5 -12v-137h-102q-141 0 -141 137v75q0 47 -12 59t-47 12h-16v-283h-201v283h-16q-35 0 -47 -12t-12 -59v-75q0 -137 -141 -137h-102z" />
<glyph unicode="&#x417;" horiz-adv-x="542" d="M16 196v35h197v-55q0 -51 51 -51q26 0 38.5 10t12.5 36v59q0 57 -51 57h-107v135h111q26 0 36.5 9t10.5 35v64q0 49 -53 49q-49 0 -49 -49v-54h-195v54q0 189 247 189q138 0 193 -52.5t55 -154.5v-8q0 -64 -18.5 -92.5t-62.5 -42.5q81 -21 81 -116v-71q0 -58 -20 -98 t-57 -60.5t-78.5 -28.5t-96.5 -8q-128 0 -186.5 48t-58.5 161z" />
<glyph unicode="&#x418;" horiz-adv-x="572" d="M35 0v706h200v-308l103 220v88h198v-706h-198v312l-103 -220v-92h-200z" />
<glyph unicode="&#x419;" horiz-adv-x="572" d="M35 0v706h200v-308l103 220v88h198v-706h-198v312l-103 -220v-92h-200zM119 890h113q0 -29 13.5 -41.5t40.5 -12.5q53 0 53 54h113q0 -73 -37.5 -108.5t-128.5 -35.5t-129 35.5t-38 108.5z" />
<glyph unicode="&#x41a;" horiz-adv-x="584" d="M35 0v706h201v-278h36q28 0 38.5 11.5t10.5 56.5v69q0 141 131 141h101v-134q-19 0 -26 -13t-7 -43v-51q0 -49 -15 -70.5t-51 -35.5q40 -10 53 -39.5t13 -88.5v-27q0 -43 7.5 -55t36.5 -12v-137h-102q-141 0 -141 137v75q0 47 -12 59t-47 12h-26v-283h-201z" />
<glyph unicode="&#x41b;" horiz-adv-x="614" d="M10 0v137h26q52 0 52 101v468h491v-706h-198v559h-92v-315q0 -57 -5.5 -98t-19 -67.5t-29 -42.5t-42 -24t-50.5 -10t-62 -2h-71z" />
<glyph unicode="&#x41c;" horiz-adv-x="750" d="M35 0v706h251l90 -466l88 466h249v-706h-166v484l-109 -484h-127l-110 475v-475h-166z" />
<glyph unicode="&#x41d;" horiz-adv-x="562" d="M35 0v706h200v-278h93v278h198v-706h-198v282h-93v-282h-200z" />
<glyph unicode="&#x41e;" horiz-adv-x="562" d="M27 188v329q0 59 20.5 100t58 61.5t79 29t93.5 8.5q19 0 35.5 -1t43.5 -5t49 -11t46 -21.5t40.5 -33.5t27.5 -49t11 -67v-339q0 -199 -245 -199q-259 0 -259 198zM227 179q0 -11 1 -17.5t5.5 -16.5t16 -15t29.5 -5q23 0 35.5 9t14.5 19t2 26v352q0 15 -1.5 23.5t-14 18 t-36.5 9.5q-22 0 -34.5 -8.5t-15 -18.5t-2.5 -26v-350z" />
<glyph unicode="&#x41f;" horiz-adv-x="562" d="M35 0v706h491v-706h-198v559h-93v-559h-200z" />
<glyph unicode="&#x420;" horiz-adv-x="542" d="M35 0v706h305q102 0 143.5 -44t41.5 -150v-63q0 -113 -48 -153.5t-156 -40.5h-88v-255h-198zM233 390h50q31 0 40.5 12.5t9.5 44.5v73q0 28 -11 39.5t-39 11.5h-50v-181z" />
<glyph unicode="&#x421;" horiz-adv-x="542" d="M29 182v330q0 102 55 154.5t193 52.5q247 0 247 -189v-84h-195v84q0 49 -49 49q-53 0 -53 -49v-359q0 -26 12.5 -36t38.5 -10q51 0 51 51v85h197v-65q0 -113 -58.5 -161t-186.5 -48q-55 0 -96.5 8t-78.5 28.5t-57 60.5t-20 98z" />
<glyph unicode="&#x422;" horiz-adv-x="500" d="M-1 571v135h499v-135h-150v-571h-199v571h-150z" />
<glyph unicode="&#x423;" horiz-adv-x="562" d="M4 706h198l93 -306l75 306h192l-180 -509q-14 -38 -24 -64.5t-22 -48.5t-20 -35.5t-23.5 -23.5t-25 -14.5t-31 -7t-36.5 -3t-47 -0.5h-31v137h41q25 0 36 9.5t17 34.5z" />
<glyph unicode="&#x424;" horiz-adv-x="816" d="M18 273v179q0 177 174 177h117v91h198v-91h117q174 0 174 -177v-179q0 -105 -48 -145.5t-148 -40.5h-95v-97h-198v97h-95q-100 0 -148 40.5t-48 145.5zM209 279q0 -32 9.5 -44.5t40.5 -12.5h50v271h-50q-30 0 -40 -11t-10 -40v-163zM507 222h50q31 0 40.5 12.5t9.5 44.5 v163q0 29 -10 40t-40 11h-50v-271z" />
<glyph unicode="&#x425;" d="M0 0l122 369l-122 337h201l59 -242l60 242h197l-117 -337l117 -369h-197l-60 244l-63 -244h-197z" />
<glyph unicode="&#x426;" horiz-adv-x="627" d="M35 0v706h198v-559h93v559h200v-559h91v-287h-163v140h-419z" />
<glyph unicode="&#x427;" horiz-adv-x="553" d="M26 431v275h200v-252q0 -33 11 -45.5t37 -12.5q27 0 45 13v297h198v-706h-198v274q-45 -24 -113 -24q-88 0 -134 40t-46 141z" />
<glyph unicode="&#x428;" horiz-adv-x="805" d="M35 0v706h198v-559h68v559h200v-559h68v559h200v-706h-734z" />
<glyph unicode="&#x429;" horiz-adv-x="870" d="M35 0v706h198v-559h68v559h200v-559h68v559h200v-559h91v-287h-163v140h-662z" />
<glyph unicode="&#x42a;" horiz-adv-x="637" d="M0 571v135h328v-255h107q102 0 143.5 -44t41.5 -150v-63q0 -113 -48 -153.5t-156 -40.5h-286v571h-130zM328 135h50q31 0 40.5 12.5t9.5 44.5v73q0 28 -11 39.5t-39 11.5h-50v-181z" />
<glyph unicode="&#x42b;" horiz-adv-x="798" d="M35 0v706h198v-255h97q102 0 143.5 -44t41.5 -150v-63q0 -113 -48 -153.5t-156 -40.5h-276zM233 135h40q31 0 40.5 12.5t9.5 44.5v73q0 28 -11 39.5t-39 11.5h-40v-181zM565 0v706h198v-706h-198z" />
<glyph unicode="&#x42c;" horiz-adv-x="542" d="M35 0v706h198v-255h107q102 0 143.5 -44t41.5 -150v-63q0 -113 -48 -153.5t-156 -40.5h-286zM233 135h50q31 0 40.5 12.5t9.5 44.5v73q0 28 -11 39.5t-39 11.5h-50v-181z" />
<glyph unicode="&#x42d;" horiz-adv-x="542" d="M16 196v35h197v-55q0 -51 51 -51q26 0 38.5 10t12.5 36v116h-204v135h204v108q0 49 -53 49q-49 0 -49 -49v-54h-195v54q0 189 247 189q138 0 193 -52.5t55 -154.5v-330q0 -58 -20 -98t-57 -60.5t-78.5 -28.5t-96.5 -8q-128 0 -186.5 48t-58.5 161z" />
<glyph unicode="&#x42e;" horiz-adv-x="849" d="M35 0v706h200v-278h79v89q0 59 20.5 100t58 61.5t79 29t93.5 8.5q19 0 35.5 -1t43.5 -5t49 -11t46 -21.5t40.5 -33.5t27.5 -49t11 -67v-339q0 -199 -245 -199q-259 0 -259 198v94h-79v-282h-200zM514 179q0 -11 1 -17.5t5.5 -16.5t16 -15t29.5 -5q23 0 35.5 9t14.5 19 t2 26v352q0 15 -1.5 23.5t-14 18t-36.5 9.5q-22 0 -34.5 -8.5t-15 -18.5t-2.5 -26v-350z" />
<glyph unicode="&#x42f;" horiz-adv-x="575" d="M20 0v137q29 0 36.5 12t7.5 55v17q0 39 16 60t53 28q-50 26 -68 65.5t-18 135.5q0 43 3.5 69.5t16.5 53.5t38.5 41t69.5 23t108 9h257v-706h-201v283h-17q-35 0 -47 -12t-12 -59v-75q0 -137 -141 -137h-102zM241 476q0 -34 9 -44.5t38 -10.5h51v145h-53q-25 0 -35 -10 t-10 -34v-46z" />
<glyph unicode="&#x430;" d="M21 113v25q0 63 19.5 97t74.5 54q27 10 91 25t94 29v35q0 10 -1 15.5t-4.5 13.5t-12.5 12t-24 4q-40 0 -40 -47v-28h-175v48q0 149 226 149q113 0 166.5 -38t53.5 -120v-319q0 -29 5 -41.5t19 -26.5h-213v47q-69 -60 -145 -60q-134 0 -134 126zM210 179q0 -57 7.5 -73 t34.5 -16q17 0 27.5 5t14.5 14t5 15t1 16v116q-61 -24 -75.5 -35.5t-14.5 -41.5z" />
<glyph unicode="&#x431;" d="M25 145v213q0 54 2.5 83.5t14 65.5t34.5 58.5t64.5 45.5t104.5 42q32 10 44 14.5t21 14t9 24.5h156q0 -40 -8.5 -66.5t-30 -43t-43 -25t-60.5 -19.5q-101 -27 -141.5 -50t-40.5 -67q53 61 146 61q24 0 46.5 -2.5t51.5 -12t50 -25.5t35.5 -45t14.5 -67v-194 q0 -50 -17 -83.5t-50.5 -50t-69.5 -22.5t-85 -6q-42 0 -72 2.5t-66 11.5t-58 25t-37 46t-15 72zM212 165q0 -11 1 -18t5 -17t15 -15.5t28 -5.5t27 5t14 15.5t5 17.5t1 20v153q0 52 -48 52t-48 -49v-158z" />
<glyph unicode="&#x432;" horiz-adv-x="538" d="M30 0v532h273q95 0 145.5 -29t50.5 -103q0 -98 -77 -122q90 -23 90 -129q0 -40 -11 -67.5t-28 -43.5t-48.5 -24.5t-63 -11t-79.5 -2.5h-252zM219 103h43q32 0 44 9.5t12 34.5v27q0 23 -12 33.5t-42 10.5h-45v-115zM219 321h43q27 0 39 10t12 33v24q0 22 -12 32t-39 10 h-43v-109z" />
<glyph unicode="&#x433;" horiz-adv-x="391" d="M30 0v533h351v-107h-162v-426h-189z" />
<glyph unicode="&#x434;" horiz-adv-x="630" d="M11 107q40 0 64.5 30t24.5 87v309h435v-426h80v-245h-151v138h-303v-138h-150v245zM247 107h99v318h-64v-201q0 -88 -35 -117z" />
<glyph unicode="&#x435;" horiz-adv-x="500" d="M23 150v222q0 98 52 136t170 38q43 0 76.5 -4t64 -14.5t50.5 -28t32 -46t12 -66.5v-149h-267v-79q0 -25 8.5 -38.5t35.5 -13.5q25 0 33.5 12t8.5 41v25h181v-30q0 -94 -54.5 -130.5t-172.5 -36.5q-48 0 -83.5 5.5t-71.5 21t-55.5 49.5t-19.5 86zM213 323h89v65 q0 46 -44 46q-45 0 -45 -47v-64z" />
<glyph unicode="&#x436;" horiz-adv-x="829" d="M19 0v103q27 0 34 9t7 42v21q0 44 12.5 66.5t49.5 29.5q-34 10 -48 27t-14 53v36q0 23 -6 33t-25 10v103h97q123 0 123 -106v-56q0 -34 10 -42.5t37 -8.5h24v213h189v-213h24q27 0 37 8.5t10 42.5v56q0 106 123 106h97v-103q-19 0 -25 -10t-6 -33v-36q0 -36 -14 -53 t-48 -27q37 -7 49.5 -29.5t12.5 -66.5v-21q0 -33 7 -42t34 -9v-103h-98q-63 0 -97.5 27.5t-34.5 68.5v69q0 35 -11.5 44t-45.5 9h-14v-218h-189v218h-14q-34 0 -45.5 -9t-11.5 -44v-69q0 -41 -34.5 -68.5t-97.5 -27.5h-98z" />
<glyph unicode="&#x437;" horiz-adv-x="492" d="M9 149v33h187v-26q0 -46 42 -46q22 0 30.5 10t8.5 32v31q0 43 -47 43h-99v85h102q25 0 34.5 7t9.5 27v36q0 43 -39 43q-24 0 -33 -11.5t-9 -35.5v-29h-180v48q0 149 219 149q126 0 175 -42t49 -117v-6q0 -50 -14 -71t-54 -32q76 -16 76 -88v-44q0 -157 -227 -157 q-124 0 -177.5 37t-53.5 124z" />
<glyph unicode="&#x438;" horiz-adv-x="539" d="M30 0v533h189v-253l101 190v63h189v-533h-189v257l-101 -190v-67h-189z" />
<glyph unicode="&#x439;" horiz-adv-x="539" d="M30 0v533h189v-253l101 190v63h189v-533h-189v257l-101 -190v-67h-189zM113 714h113q0 -54 44 -54q43 0 43 54h113q0 -75 -33.5 -109.5t-122.5 -34.5q-90 0 -123.5 34.5t-33.5 109.5z" />
<glyph unicode="&#x43a;" horiz-adv-x="549" d="M30 0v533h189v-213h34q27 0 37 8.5t10 42.5v56q0 106 123 106h97v-103q-19 0 -25 -10t-6 -33v-36q0 -36 -14 -53t-48 -27q37 -7 49.5 -29.5t12.5 -66.5v-21q0 -33 7 -42t34 -9v-103h-98q-63 0 -97.5 27.5t-34.5 68.5v69q0 35 -11.5 44t-45.5 9h-24v-218h-189z" />
<glyph unicode="&#x43b;" horiz-adv-x="549" d="M10 0v108h25q49 0 49 76v349h435v-533h-189v425h-64v-241q0 -64 -10.5 -101.5t-37.5 -55.5t-56.5 -22.5t-84.5 -4.5h-67z" />
<glyph unicode="&#x43c;" horiz-adv-x="708" d="M30 0v533h240l86 -352l84 352h238v-533h-159v365l-104 -365h-121l-105 358v-358h-159z" />
<glyph unicode="&#x43d;" horiz-adv-x="529" d="M30 0v533h189v-213h91v213h189v-533h-189v217h-91v-217h-189z" />
<glyph unicode="&#x43e;" d="M25 145v248q0 40 15.5 70t37.5 45.5t55 24.5t59.5 11.5t60.5 2.5q48 0 85 -5t76 -20t60 -47t21 -80v-245q0 -50 -17 -83.5t-50.5 -50t-69.5 -22.5t-85 -6q-42 0 -72 2.5t-66 11.5t-58 25t-37 46t-15 72zM212 165q0 -11 1 -18t5 -17t15 -15.5t28 -5.5t27 5t14 15.5t5 17.5 t1 20v204q0 52 -48 52t-48 -49v-209z" />
<glyph unicode="&#x43f;" horiz-adv-x="529" d="M30 0v533h469v-533h-189v426h-91v-426h-189z" />
<glyph unicode="&#x440;" d="M30 -169v702h188v-66q35 77 130 77q148 0 148 -138v-267q0 -151 -144 -151q-96 0 -134 70v-227h-188zM218 151q0 -49 44 -49q21 0 31.5 9.5t12 18t1.5 22.5v226q0 13 -1.5 21.5t-12 18t-30.5 9.5q-21 0 -31.5 -10t-12 -18.5t-1.5 -22.5v-225z" />
<glyph unicode="&#x441;" horiz-adv-x="500" d="M23 151v223q0 94 57.5 132.5t163.5 38.5q228 0 228 -157v-60h-180v53q0 9 -1 14t-4 13t-12.5 12t-23.5 4q-21 0 -30.5 -10t-9.5 -33v-223q0 -48 40 -48q19 0 28.5 8t11 17t1.5 25v32h187v-48q0 -81 -58 -118.5t-154 -37.5q-36 0 -64.5 2.5t-64 12t-59 26.5t-40 48 t-16.5 74z" />
<glyph unicode="&#x442;" horiz-adv-x="449" d="M10 426v106h429v-106h-120v-426h-189v426h-120z" />
<glyph unicode="&#x443;" horiz-adv-x="500" d="M0 533h187l65 -324l62 324h185l-148 -527q-18 -65 -34 -101.5t-42.5 -63t-62.5 -36t-93 -9.5h-85l5 117h41q20 0 32.5 2.5t27 16t21.5 37.5z" />
<glyph unicode="&#x444;" horiz-adv-x="769" d="M25 177v178q0 177 185 177h80v174h188v-174h79q186 0 186 -177v-178q0 -177 -186 -177h-79v-169h-188v169h-80q-185 0 -185 177zM206 188q0 -45 11.5 -62.5t42.5 -17.5h30v317h-30q-30 0 -42 -21t-12 -68v-148zM478 108h28q32 0 44 17.5t12 62.5v148q0 47 -12.5 68 t-43.5 21h-28v-317z" />
<glyph unicode="&#x445;" horiz-adv-x="500" d="M2 0l123 272l-112 261h185l50 -173l61 173h186l-123 -261l123 -272h-186l-61 185l-57 -185h-189z" />
<glyph unicode="&#x446;" horiz-adv-x="594" d="M30 0v533h189v-426h91v426h189v-426h80v-245h-151v138h-398z" />
<glyph unicode="&#x447;" horiz-adv-x="517" d="M20 355v178h192v-182q0 -30 10 -40.5t33 -10.5q26 0 43 11v222h189v-533h-189v220q-50 -23 -105 -23q-84 0 -128.5 35.5t-44.5 122.5z" />
<glyph unicode="&#x448;" horiz-adv-x="759" d="M30 0v533h189v-426h66v426h189v-426h66v426h189v-533h-699z" />
<glyph unicode="&#x449;" horiz-adv-x="824" d="M30 0v533h189v-426h66v426h189v-426h66v426h189v-426h80v-245h-151v138h-628z" />
<glyph unicode="&#x44a;" horiz-adv-x="587" d="M0 426v107h298v-170h92q99 0 138 -35t39 -125v-40q0 -92 -46.5 -127.5t-148.5 -35.5h-263v426h-109zM298 103h38q29 0 38.5 12t9.5 42v55q0 26 -11 37t-37 11h-38v-157z" />
<glyph unicode="&#x44b;" horiz-adv-x="738" d="M30 0v533h189v-170h82q99 0 138 -35t39 -125v-40q0 -92 -46.5 -127.5t-148.5 -35.5h-253zM219 103h28q29 0 38.5 12t9.5 42v55q0 26 -11 37t-37 11h-28v-157zM519 0v533h189v-533h-189z" />
<glyph unicode="&#x44c;" horiz-adv-x="508" d="M30 0v533h189v-170h92q99 0 138 -35t39 -125v-40q0 -92 -46.5 -127.5t-148.5 -35.5h-263zM219 103h38q29 0 38.5 12t9.5 42v55q0 26 -11 37t-37 11h-38v-157z" />
<glyph unicode="&#x44d;" horiz-adv-x="500" d="M21 144v38h187v-22q0 -16 1.5 -25t11 -17t28.5 -8q40 0 40 48v68h-146v85h146v70q0 23 -9.5 33t-30.5 10q-14 0 -23.5 -4t-12.5 -12t-4 -13t-1 -14v-33h-180v40q0 157 228 157q106 0 163.5 -38.5t57.5 -132.5v-223q0 -43 -16.5 -74t-40 -48t-59 -26.5t-64 -12t-64.5 -2.5 q-96 0 -154 37.5t-58 118.5z" />
<glyph unicode="&#x44e;" horiz-adv-x="776" d="M30 0v533h189v-213h61v73q0 40 15.5 70t37.5 45.5t55 24.5t59.5 11.5t60.5 2.5q48 0 85 -5t76 -20t60 -47t21 -80v-245q0 -50 -17 -83.5t-50.5 -50t-69.5 -22.5t-85 -6q-42 0 -72 2.5t-66 11.5t-58 25t-37 46t-15 72v72h-61v-217h-189zM467 165q0 -11 1 -18t5 -17 t15 -15.5t28 -5.5t27 5t14 15.5t5 17.5t1 20v204q0 52 -48 52t-48 -49v-209z" />
<glyph unicode="&#x44f;" horiz-adv-x="551" d="M19 0v103q27 0 34 7.5t7 33.5v21q0 34 9 53t34 28q-28 12 -38.5 33t-10.5 71v33q0 55 16.5 85.5t65.5 47t141 16.5h244v-532h-191v208h-36q-26 0 -35.5 -10.5t-9.5 -42.5v-59q0 -41 -34.5 -68.5t-97.5 -27.5h-98zM238 363q0 -33 8.5 -43t35.5 -10h48v120h-50 q-23 0 -32.5 -10t-9.5 -33v-24z" />
<glyph unicode="&#x451;" horiz-adv-x="500" d="M23 150v222q0 98 52 136t170 38q43 0 76.5 -4t64 -14.5t50.5 -28t32 -46t12 -66.5v-149h-267v-79q0 -25 8.5 -38.5t35.5 -13.5q25 0 33.5 12t8.5 41v25h181v-30q0 -94 -54.5 -130.5t-172.5 -36.5q-48 0 -83.5 5.5t-71.5 21t-55.5 49.5t-19.5 86zM69 574v132h152v-132 h-152zM213 323h89v65q0 46 -44 46q-45 0 -45 -47v-64zM288 574v132h152v-132h-152z" />
<glyph unicode="&#x452;" horiz-adv-x="531" d="M-32 544v103h72v59h188v-59h138v-103h-138v-108q41 63 128 63q57 0 99.5 -36t42.5 -113v-407q0 -75 -28 -103.5t-105 -28.5h-113v97h22q36 0 36 45v400q0 43 -40 43q-42 0 -42 -45v-351h-188v544h-72z" />
<glyph unicode="&#x453;" horiz-adv-x="391" d="M30 0v533h351v-107h-162v-426h-189zM91 572l77 124h204l-131 -124h-150z" />
<glyph unicode="&#x454;" horiz-adv-x="500" d="M23 151v223q0 94 57.5 132.5t163.5 38.5q228 0 228 -157v-40h-180v33q0 9 -1 14t-4 13t-12.5 12t-23.5 4q-21 0 -30.5 -10t-9.5 -33v-70h146v-85h-146v-68q0 -48 40 -48q19 0 28.5 8t11 17t1.5 25v22h187v-38q0 -81 -58 -118.5t-154 -37.5q-36 0 -64.5 2.5t-64 12 t-59 26.5t-40 48t-16.5 74z" />
<glyph unicode="&#x455;" horiz-adv-x="479" d="M9 139v20h189v-27q0 -47 42 -47q40 0 40 42q0 11 -5.5 19t-12.5 12.5t-23 11.5l-74 34q-42 19 -64.5 32.5t-44.5 34t-30.5 47t-8.5 64.5q0 91 57 126t172 35q214 0 214 -141v-31h-180v24q0 14 -2 23.5t-12 17.5t-29 8q-39 0 -39 -38q0 -6 1.5 -11.5t3 -9.5t5.5 -8t7 -6.5 t10.5 -6.5t12 -6t15 -7t16.5 -8l95 -45q56 -26 81.5 -59t25.5 -89q0 -164 -228 -164q-40 0 -71 3t-63 12.5t-52.5 26t-34 44.5t-13.5 67z" />
<glyph unicode="&#x456;" horiz-adv-x="250" d="M30 0v533h189v-533h-189zM30 580v126h189v-126h-189z" />
<glyph unicode="&#x457;" horiz-adv-x="250" d="M-50 580v126h152v-126h-152zM30 0v533h189v-533h-189zM149 580v126h152v-126h-152z" />
<glyph unicode="&#x458;" horiz-adv-x="250" d="M-28 -92h22q36 0 36 45v580h189v-590q0 -75 -28 -103.5t-105 -28.5h-114v97zM30 580v126h188v-126h-188z" />
<glyph unicode="&#x459;" horiz-adv-x="808" d="M10 0v108h25q49 0 49 76v349h435v-170h82q99 0 138 -35t39 -125v-40q0 -92 -46.5 -127.5t-148.5 -35.5h-253v425h-64v-241q0 -64 -10.5 -101.5t-37.5 -55.5t-56.5 -22.5t-84.5 -4.5h-67zM519 103h28q29 0 38.5 12t9.5 42v55q0 26 -11 37t-37 11h-28v-157z" />
<glyph unicode="&#x45a;" horiz-adv-x="778" d="M30 0v533h189v-200h91v200h189v-200h82q98 0 137.5 -33.5t39.5 -116.5v-30q0 -85 -47 -119t-148 -34h-253v230h-91v-230h-189zM499 103h28q29 0 38.5 12t9.5 42v25q0 26 -11 37t-37 11h-28v-127z" />
<glyph unicode="&#x45b;" horiz-adv-x="531" d="M-32 544v103h72v59h188v-59h138v-103h-138v-108q41 63 128 63q57 0 99.5 -36t42.5 -113v-350h-188v353q0 43 -40 43q-42 0 -42 -45v-351h-188v544h-72z" />
<glyph unicode="&#x45c;" horiz-adv-x="549" d="M30 0v533h189v-213h34q27 0 37 8.5t10 42.5v56q0 106 123 106h97v-103q-19 0 -25 -10t-6 -33v-36q0 -36 -14 -53t-48 -27q37 -7 49.5 -29.5t12.5 -66.5v-21q0 -33 7 -42t34 -9v-103h-98q-63 0 -97.5 27.5t-34.5 68.5v69q0 35 -11.5 44t-45.5 9h-24v-218h-189zM171 572 l77 124h204l-131 -124h-150z" />
<glyph unicode="&#x45e;" horiz-adv-x="500" d="M0 533h187l65 -324l62 324h185l-148 -527q-18 -65 -34 -101.5t-42.5 -63t-62.5 -36t-93 -9.5h-85l5 117h41q20 0 32.5 2.5t27 16t21.5 37.5zM96 714h113q0 -54 44 -54q43 0 43 54h113q0 -75 -33.5 -109.5t-122.5 -34.5q-90 0 -123.5 34.5t-33.5 109.5z" />
<glyph unicode="&#x45f;" horiz-adv-x="529" d="M30 0v533h189v-426h91v426h189v-533h-159v-138h-151v138h-159z" />
<glyph unicode="&#x490;" horiz-adv-x="417" d="M35 0v706h223v140h157v-276h-182v-570h-198z" />
<glyph unicode="&#x491;" horiz-adv-x="391" d="M30 0v533h200v133h151v-240h-162v-426h-189z" />
<glyph unicode="&#x2013;" horiz-adv-x="545" d="M29 232v137h487v-137h-487z" />
<glyph unicode="&#x2014;" horiz-adv-x="729" d="M29 232v137h671v-137h-671z" />
<glyph unicode="&#x2018;" horiz-adv-x="250" d="M38 392v162l90 152h64l-52 -152h70v-162h-172z" />
<glyph unicode="&#x2019;" horiz-adv-x="250" d="M37 541v165h175v-165l-87 -155h-63l46 155h-71z" />
<glyph unicode="&#x201a;" horiz-adv-x="250" d="M37 0v165h175v-165l-87 -155h-63l46 155h-71z" />
<glyph unicode="&#x201c;" horiz-adv-x="458" d="M34 389v162l93 155h64l-53 -155h72v-162h-176zM245 389v162l95 155h66l-56 -155h71v-162h-176z" />
<glyph unicode="&#x201d;" horiz-adv-x="458" d="M34 544v162h177v-162l-86 -154h-67l52 154h-76zM245 544v162h176v-162l-89 -154h-66l53 154h-74z" />
<glyph unicode="&#x201e;" horiz-adv-x="458" d="M34 0v164h176v-164l-95 -154h-66l56 154h-71zM245 0v164h176v-164l-92 -154h-65l54 154h-73z" />
<glyph unicode="&#x2022;" horiz-adv-x="333" d="M38 218v257h257v-257h-257z" />
<glyph unicode="&#x2026;" horiz-adv-x="1000" d="M99 0v145h135v-145h-135zM434 0v145h135v-145h-135zM765 0v145h136v-145h-136z" />
<glyph unicode="&#x2039;" horiz-adv-x="187" d="M11 225v147l158 129v-155l-61 -48l61 -50v-152z" />
<glyph unicode="&#x203a;" horiz-adv-x="187" d="M15 92v153l62 50l-62 51v154l160 -132v-145z" />
<glyph unicode="&#x20ac;" horiz-adv-x="592" d="M16 258l36 81h44v40h-76l34 80h40v13q0 127 75.5 188t206.5 61q62 0 107 -12t94 -44l-63 -143q-52 59 -121 59q-53 0 -80.5 -29.5t-27.5 -83.5v-9h205l-36 -80h-168v-40h156l-36 -81h-121v-8q0 -119 109 -119q75 0 138 61v-173q-79 -33 -175 -33q-145 0 -204 63t-59 209 h-78z" />
<glyph unicode="&#x2122;" horiz-adv-x="686" d="M13 625v81h256v-81h-76v-251h-103v251h-77zM287 374v332h125l49 -201l43 201h129l-1 -332h-97l10 228l-47 -228h-74l-49 225l8 -225h-96z" />
<glyph unicode="&#xe000;" horiz-adv-x="535" d="M0 0v535h535v-535h-535z" />
</font>
</defs>
</svg>
