<?xml version="1.0" standalone="no"?>
<!DOCTYPE svg PUBLIC "-//W3C//DTD SVG 1.1//EN" "http://www.w3.org/Graphics/SVG/1.1/DTD/svg11.dtd" >
<svg xmlns="http://www.w3.org/2000/svg">
<metadata></metadata>
<defs>
<font id="nissanag_mediumregular" horiz-adv-x="1150" >
<font-face units-per-em="2048" ascent="1638" descent="-410" />
<missing-glyph horiz-adv-x="589" />
<glyph horiz-adv-x="2048" />
<glyph horiz-adv-x="2048" />
<glyph unicode="&#xd;" horiz-adv-x="2048" />
<glyph unicode=" "  horiz-adv-x="589" />
<glyph unicode="&#x09;" horiz-adv-x="589" />
<glyph unicode="&#xa0;" horiz-adv-x="589" />
<glyph unicode="!" horiz-adv-x="512" d="M164 0v283h268v-283h-268zM164 893v553h268v-553q0 -31 -4 -58.5t-11 -61t-11 -58.5l-52 -355h-114l-52 355q-3 23 -10 58t-10.5 62t-3.5 58z" />
<glyph unicode="&#x22;" horiz-adv-x="679" d="M72 1522h196l-61 -613h-72zM410 1522h198l-63 -613h-70z" />
<glyph unicode="#" horiz-adv-x="1366" d="M86 438v205h276l27 193h-258v204h285l55 406h213l-57 -406h200l56 406h207l-56 -406h242v-204h-268l-29 -193h252v-205h-277l-63 -438h-207l64 438h-203l-62 -438h-209l62 438h-250zM569 643h205l27 193h-203z" />
<glyph unicode="$" horiz-adv-x="1280" d="M72 272l207 158q132 -172 266 -184v391q-89 6 -163.5 29t-137 65.5t-98 112.5t-35.5 162q0 183 121.5 291t312.5 130v222h188v-222q271 -27 443 -223l-193 -153q-53 68 -96.5 93.5t-130.5 52.5q-5 1 -7.5 2t-7 2.5t-8.5 2.5v-327q79 -13 143.5 -33t126.5 -54t104 -79.5 t67.5 -111.5t25.5 -148q0 -102 -36.5 -184.5t-101.5 -137t-148 -87t-181 -42.5v-233h-188v233q-169 31 -274.5 88t-198.5 184zM379 1042q0 -33 14.5 -57t42 -38.5t51 -22t58.5 -15.5v295q-71 -12 -118.5 -53t-47.5 -109zM733 242q84 17 140.5 66t56.5 128q0 72 -58.5 115 t-138.5 57v-366z" />
<glyph unicode="%" horiz-adv-x="1792" d="M53 909q0 73 5 126t20.5 115.5t51 112t89.5 85.5q70 47 170 47q79 0 138.5 -29t95.5 -74.5t58 -110t30 -127.5t8 -136q0 -140 -31 -232q-36 -105 -113.5 -165t-187.5 -60q-76 0 -135 26t-96 68.5t-60.5 102t-33 120.5t-9.5 131zM238 905q0 -284 151 -284q146 0 146 284 v15v55t-3 58t-8.5 62t-16.5 54t-27 47.5t-40.5 30t-56.5 12.5q-30 0 -54 -14t-39 -33.5t-25.5 -53.5t-15.5 -58.5t-8 -65.5t-3 -58.5v-50.5zM487 -12l646 1401l139 -66l-643 -1399zM1075 410q0 156 15 225q29 130 113.5 207.5t213.5 77.5q114 0 193 -70q77 -67 104 -166 t27 -227v-19q0 -147 -35 -239q-37 -100 -113.5 -156.5t-181.5 -56.5q-73 0 -131 23.5t-95.5 63t-63 94.5t-36 115t-10.5 128zM1260 442q0 -33 1 -57.5t5 -63.5t14 -66.5t25 -55t41.5 -42t60.5 -14.5q149 0 149 277v20v54t-2.5 58t-8 62.5t-16 55.5t-26 49t-39.5 30.5 t-55 12.5t-55.5 -13t-40 -31.5t-26 -50t-16 -56t-8 -62.5t-3 -56.5t-0.5 -50.5z" />
<glyph unicode="&#x26;" horiz-adv-x="1323" d="M88 383q0 58 19 112t46.5 95t72.5 83t83 70.5t92 63.5q-35 61 -48 105.5t-13 111.5q0 148 93.5 240t242.5 92q136 0 234 -87t98 -220q0 -87 -47.5 -161t-126.5 -122q-19 -12 -56 -28t-43 -19q12 -24 28 -48.5t38.5 -56l32.5 -45.5q67 -99 90 -125q37 57 53 106.5 t22 121.5h236q-12 -105 -57 -213t-111 -195q36 -34 67 -48.5t78 -14.5q17 0 45 4v-205q-105 -6 -106 -6q-80 0 -141 18.5t-115 65.5q-152 -109 -350 -109q-128 0 -230.5 47.5t-164.5 143t-62 223.5zM336 395q0 -93 67 -153t160 -60q51 0 104.5 21.5t92.5 56.5l-248 363 q-2 -1 -6 -3.5t-6 -3.5q-164 -93 -164 -221zM571 1055q0 -64 62 -154q12 4 14 4q56 10 101 52.5t45 95.5q0 49 -31.5 79.5t-81.5 30.5t-79.5 -29.5t-29.5 -78.5z" />
<glyph unicode="'" horiz-adv-x="339" d="M72 1522h196l-61 -613h-72z" />
<glyph unicode="(" horiz-adv-x="667" d="M72 647q0 186 56.5 366t160.5 328q62 84 129 154q78 78 166 143l94 -104q-101 -103 -156 -178q-96 -136 -147 -312.5t-51 -373.5q0 -275 95.5 -511t262.5 -374l-90 -121q-21 15 -49 37q-143 118 -234 236q-237 304 -237 710z" />
<glyph unicode=")" horiz-adv-x="671" d="M-2 -231q101 103 156 178q97 137 148.5 313.5t51.5 374.5q0 275 -94.5 509.5t-261.5 373.5l90 120q11 -9 27 -21l20 -15q133 -108 234 -236q237 -311 237 -711q0 -186 -56.5 -365.5t-162.5 -328.5q-58 -83 -126.5 -151.5t-168.5 -145.5z" />
<glyph unicode="*" horiz-adv-x="774" d="M41 1126l51 170l201 -57v211h178v-213l205 70l57 -166l-201 -70l123 -162l-139 -108l-131 170l-119 -170l-143 104l115 164z" />
<glyph unicode="+" horiz-adv-x="1482" d="M190 532v220h418v436h266v-436h418v-220h-418v-442h-266v442h-418z" />
<glyph unicode="," horiz-adv-x="425" d="M76 0v281h272v-301v-9q0 -105 -55.5 -162t-165.5 -85q-16 -3 -35 -9v119q64 7 87.5 51t23.5 115h-127z" />
<glyph unicode="-" horiz-adv-x="761" d="M84 506v231h592v-231h-592z" />
<glyph unicode="." horiz-adv-x="425" d="M76 0v281h270v-281h-270z" />
<glyph unicode="/" horiz-adv-x="980" d="M27 0l686 1446h243l-686 -1446h-243z" />
<glyph unicode="0" d="M74 684q0 100 8 178.5t30 167t70 161.5t121 126q121 88 289 88q197 0 323 -135q168 -178 168 -555q0 -183 -24 -301q-41 -200 -165 -316t-321 -116q-177 0 -297 100q-52 43 -90 99.5t-59 112.5t-33.5 127.5t-16 130t-3.5 132.5zM338 690q0 -61 1.5 -97t7.5 -102 t21.5 -107.5t41 -86t69 -66.5t101.5 -22q57 0 99.5 22t67.5 66t40.5 85.5t21 107.5t7 101.5t1.5 96.5v2q0 49 -0.5 80t-5 87.5t-13 94.5t-26 84.5t-41.5 74.5t-61.5 47.5t-85.5 19.5q-50 0 -89.5 -19t-64.5 -47t-43.5 -73t-27.5 -84t-14 -94t-6 -89t-1 -82z" />
<glyph unicode="1" d="M154 961v157h59q278 0 326 264h204v-1382h-251v817q0 37 -1.5 55.5t-7 39t-18 29.5t-34 14.5t-54.5 5.5h-223z" />
<glyph unicode="2" d="M117 0v199q130 87 308 248.5t247 267.5q78 123 78 248q0 90 -48 148t-137 58q-44 0 -78 -13.5t-54 -40t-33 -54t-18.5 -69t-7 -71.5t-1.5 -73l-256 22v19q0 149 53 264t162 183.5t260 68.5q197 0 318.5 -119.5t121.5 -316.5q0 -75 -22 -146t-53 -125t-85 -114.5 t-97 -100.5t-109 -96q-21 -18 -66 -56t-80 -66t-69 -52h606v-213h-940z" />
<glyph unicode="3" d="M96 453h273q-4 -28 -4 -43q0 -95 61.5 -150t157.5 -55q99 0 157 60.5t58 158.5q0 105 -63.5 154t-168.5 49q-66 0 -78 -2v215q15 0 46 -1t47 -1q84 0 135 39t51 122q0 79 -48.5 129t-127.5 50q-95 0 -147 -67t-52 -165l-270 58q28 117 55 167q61 114 173.5 174t246.5 60 q85 0 162.5 -23.5t141 -67.5t101 -115.5t37.5 -160.5q0 -83 -36 -154.5t-105 -109.5q-17 -9 -48 -19t-40 -14q126 -23 194 -113.5t68 -221.5q0 -101 -40.5 -183t-109 -134t-156.5 -79.5t-185 -27.5q-230 0 -358 121t-128 350z" />
<glyph unicode="4" d="M35 317v181l606 884h252v-854h178v-211h-178v-317h-252v317h-606zM299 528h342l14 549z" />
<glyph unicode="5" d="M76 387l284 21q0 -90 56 -147.5t145 -57.5q76 0 128 43.5t73.5 105.5t21.5 135q0 108 -62 181t-167 73q-71 0 -126 -33t-81 -96l-229 15l96 759h768l-20 -231h-537l-47 -305q99 102 264 102q130 0 227 -62.5t145 -165.5t48 -232q0 -234 -144.5 -372t-377.5 -138 q-139 0 -256 59.5t-170 177.5q-28 62 -39 168z" />
<glyph unicode="6" d="M98 651q0 77 6.5 149t22.5 149t41.5 142t66 124t92.5 100.5t125 65.5t160 24q164 0 284 -93.5t138 -252.5l-262 -35q0 71 -46 113.5t-118 42.5q-43 0 -77.5 -15t-58 -37t-41.5 -59.5t-28 -68t-18 -79t-11 -75.5t-7 -73q-1 -14 -2 -21q109 139 294 139q120 0 210.5 -59.5 t136 -156t45.5 -214.5q0 -206 -131 -342.5t-336 -136.5q-174 0 -293 102q-59 49 -99 116t-59.5 145t-27 150t-7.5 156zM389 436q0 -99 52 -162t149 -63t150 62t53 161q0 96 -50.5 160.5t-144.5 64.5q-96 0 -152.5 -62.5t-56.5 -160.5z" />
<glyph unicode="7" d="M131 1145v241h918v-225q-397 -488 -465 -1161h-338l24 135q84 416 342 805q23 35 72.5 102.5t71.5 102.5h-625z" />
<glyph unicode="8" d="M59 397q0 177 140 277q32 22 88 51q-84 34 -131 120t-47 181t42 170t111.5 119t152.5 67t173 23q93 0 176 -24.5t148.5 -72t104 -124.5t38.5 -174q0 -96 -47 -171t-134 -114q8 -3 19 -10q97 -58 145.5 -132t48.5 -180q0 -85 -29 -155.5t-79 -119t-116.5 -82t-140.5 -49 t-153 -15.5q-97 0 -186.5 25.5t-162.5 74.5t-117 130.5t-44 184.5zM348 406q0 -95 67.5 -145t166.5 -50q98 0 164.5 49t66.5 143q0 99 -64.5 151t-166.5 52t-168 -50.5t-66 -149.5zM371 995q0 -89 59.5 -135.5t151.5 -46.5q94 0 149 47.5t55 138.5q0 87 -57.5 134t-146.5 47 q-95 0 -153 -46.5t-58 -138.5z" />
<glyph unicode="9" d="M102 332l281 39q8 -73 51.5 -117.5t114.5 -44.5q54 0 95.5 29t65.5 72t39.5 100t21 106.5t5.5 97.5q-45 -61 -119.5 -90.5t-158.5 -29.5q-187 0 -291.5 122.5t-104.5 311.5q0 216 130 346.5t346 130.5q104 0 187 -37t137 -98t90 -144t51.5 -171t15.5 -183 q0 -172 -27 -307q-21 -103 -62 -188t-102.5 -152.5t-150 -105t-195.5 -37.5q-168 0 -278.5 91.5t-141.5 258.5zM369 950q0 -98 49 -166.5t143 -68.5q97 0 146 64t49 165q0 99 -48 168.5t-141 69.5q-96 0 -147 -66t-51 -166z" />
<glyph unicode=":" horiz-adv-x="512" d="M160 0v281h270v-281h-270zM160 760v282h270v-282h-270z" />
<glyph unicode=";" horiz-adv-x="512" d="M160 0v281h272v-299q0 -122 -62.5 -179.5t-195.5 -89.5v123q113 13 113 144v20h-127zM160 760v282h272v-282h-272z" />
<glyph unicode="&#x3c;" horiz-adv-x="1482" d="M231 526v252l953 467v-254l-709 -332l709 -335v-267z" />
<glyph unicode="=" horiz-adv-x="1482" d="M203 303v219h1077v-219h-1077zM203 719v219h1077v-219h-1077z" />
<glyph unicode="&#x3e;" horiz-adv-x="1482" d="M291 977l2 266l952 -469v-252l-952 -467v254l708 332z" />
<glyph unicode="?" d="M109 997q11 126 38 191q56 143 179.5 212.5t285.5 69.5q96 0 183 -28.5t154 -81.5t107 -135.5t40 -182.5q0 -189 -152 -313q-22 -18 -78 -55q-87 -60 -111 -102.5t-24 -141.5q0 -39 2 -57h-241v51q0 223 57 303q22 32 59 61.5t70.5 51.5t65 49t50.5 65t19 88 q0 84 -65 139.5t-150 55.5q-114 0 -178 -76.5t-64 -191.5zM477 0v281h273v-281h-273z" />
<glyph unicode="@" horiz-adv-x="1835" d="M141 481q0 195 72 374t196 312t300 212t374 79q273 0 442 -161t169 -435q0 -99 -25 -205q-23 -104 -70 -204q-28 -57 -66 -109.5t-86.5 -99.5t-109.5 -75t-123 -28q-76 0 -122.5 40.5t-55.5 117.5q-126 -158 -276 -158q-134 0 -205.5 99t-71.5 239q0 74 18.5 154.5 t56.5 157.5t89 138t123.5 98.5t153.5 37.5q150 0 225 -147l25 104h161l-67 -315q-58 -267 -58 -345q0 -30 12 -52.5t40 -22.5q20 0 42 12.5t32.5 22t31.5 30.5q83 81 131.5 228.5t48.5 277.5q0 219 -130.5 341t-348.5 122q-131 0 -252.5 -45.5t-217 -126t-167.5 -185.5 t-110.5 -229t-38.5 -252q0 -188 85.5 -325.5t230.5 -206t331 -68.5t361.5 80t312.5 219l82 -104q-156 -158 -349.5 -245t-406.5 -87q-170 0 -330 61q-227 89 -343 260.5t-116 413.5zM670 489q0 -131 84 -174q29 -16 61 -16h8q63 5 116 49t84.5 107.5t49 131.5t17.5 128 q0 77 -40 135.5t-114 58.5q-64 0 -117.5 -44t-84.5 -110.5t-47.5 -136t-16.5 -129.5z" />
<glyph unicode="A" horiz-adv-x="1323" d="M12 0l490 1446h307l494 -1446h-289l-84 283h-543l-84 -283h-291zM459 520h399l-199 666z" />
<glyph unicode="B" horiz-adv-x="1409" d="M164 0v1446h624q128 0 218.5 -26.5t160.5 -106.5q82 -94 82 -219q0 -86 -37 -159.5t-108 -111.5q-35 -19 -94 -30q140 -23 223.5 -131t83.5 -252q0 -141 -76 -244q-75 -99 -182 -132.5t-256 -33.5h-639zM432 233h344q264 0 264 207q0 91 -65 150q-78 72 -254 72h-289 v-429zM432 864h121q247 0 303 23q53 21 84 63.5t31 98.5q0 63 -49 112q-64 64 -228 64h-262v-361z" />
<glyph unicode="C" horiz-adv-x="1409" d="M76 719q0 180 47 317q73 211 245.5 329t397.5 118q147 0 278 -59.5t207 -174.5q58 -90 99 -213l-269 -69q-13 121 -102 194.5t-213 73.5q-99 0 -177 -43.5t-125 -115.5t-71 -158.5t-24 -180.5q0 -73 11.5 -140.5t36.5 -132.5t71.5 -118.5t109.5 -85.5q77 -41 168 -41 q128 0 222.5 81.5t131.5 209.5l256 -107q-79 -213 -242 -326.5t-389 -113.5q-126 0 -235 40t-187.5 110.5t-135 165.5t-84 207t-27.5 233z" />
<glyph unicode="D" horiz-adv-x="1449" d="M145 0v1446h519q171 0 274 -33q111 -36 196 -109t135.5 -168.5t75.5 -203t25 -223.5q0 -104 -22.5 -212t-67.5 -190q-45 -81 -103 -138t-117 -89.5t-138.5 -50.5t-149 -23.5t-166.5 -5.5h-461zM416 244h114h48h53t49 1t54 3.5t47.5 7t49.5 10.5q55 15 97 41.5t68.5 63.5 t44.5 76.5t27 91t12 96.5t3 102q0 108 -27.5 195.5t-95 157t-169.5 96.5q-64 16 -232 16h-143v-958z" />
<glyph unicode="E" horiz-adv-x="1280" d="M160 0v1446h1028v-242h-762v-340h698v-233h-698v-387h813v-244h-1079z" />
<glyph unicode="F" d="M166 0v1446h956v-242h-688v-360h604v-232h-604v-612h-268z" />
<glyph unicode="G" horiz-adv-x="1536" d="M94 713q0 153 49 292.5t137 245.5t221.5 169t291.5 63q213 0 372 -113t238 -313l-258 -103q-48 135 -131 210t-217 75q-85 0 -154.5 -29.5t-116 -79.5t-78 -117.5t-45.5 -141t-14 -152.5q0 -152 56 -275.5t178 -183.5q80 -41 172 -41q119 0 208.5 57.5t126.5 167.5 q15 45 25 109h-360v238h608v-791h-232v123q-90 -80 -183 -120t-206 -40q-159 0 -290 58.5t-217.5 160.5t-133.5 238.5t-47 292.5z" />
<glyph unicode="H" horiz-adv-x="1492" d="M164 0v1446h272v-545h621v545h272v-1446h-272v657h-621v-657h-272z" />
<glyph unicode="I" horiz-adv-x="598" d="M164 0v1446h266v-1446h-266z" />
<glyph unicode="J" horiz-adv-x="811" d="M53 -12v266q99 -21 144 -21q76 0 127 29q14 9 26 19.5t21 19.5t15.5 24.5t11.5 23.5t8 27.5t4.5 26t2.5 30t1 28v31.5v30v924h266v-1022v-30.5v-33t-0.5 -30t-2 -33t-4 -29.5t-6.5 -32t-10 -29q-25 -65 -71.5 -112.5t-107 -74t-124 -39t-133.5 -12.5q-81 0 -168 19z" />
<glyph unicode="K" horiz-adv-x="1366" d="M164 0v1446h268v-664l580 664h317l-473 -545l506 -901h-309l-385 680l-236 -270v-410h-268z" />
<glyph unicode="L" horiz-adv-x="1067" d="M168 0v1446h272v-1200h574v-246h-846z" />
<glyph unicode="M" horiz-adv-x="1662" d="M156 0v1446h393l282 -1073l279 1073h391v-1446h-264l27 1188l-314 -1188h-243l-314 1188l27 -1188h-264z" />
<glyph unicode="N" horiz-adv-x="1449" d="M168 0v1446h244l641 -1020l-33 1020h266v-1446h-237l-633 1014l16 -1014h-264z" />
<glyph unicode="O" horiz-adv-x="1579" d="M98 717q0 123 31 237.5t91 210.5t143.5 167t195 111t238.5 40q207 0 377 -113q158 -104 234.5 -274t76.5 -373q0 -156 -48.5 -293.5t-136 -241.5t-221 -164.5t-293.5 -60.5q-153 0 -283.5 61.5t-218 165t-137 240.5t-49.5 287zM377 733q0 -133 37 -237 q47 -128 148.5 -204.5t234.5 -76.5q126 0 228.5 73.5t148.5 192.5q38 99 38 213v15q0 100 -25.5 191.5t-74.5 167.5t-132 121.5t-189 45.5q-103 0 -184 -42t-130.5 -113.5t-74.5 -159.5t-25 -187z" />
<glyph unicode="P" horiz-adv-x="1280" d="M168 0v1446h510q75 0 133 -6.5t120 -24.5t115 -54.5t97 -90.5q100 -123 100 -297q0 -168 -80 -289q-40 -59 -92.5 -98t-115 -59t-122.5 -27.5t-135 -7.5h-260v-492h-270zM438 713h195q57 0 95 3.5t83 16t77 42t52 75.5q25 57 25 127q0 82 -35 133q-46 67 -112.5 85.5 t-172.5 18.5h-207v-501z" />
<glyph unicode="Q" horiz-adv-x="1579" d="M74 721q0 124 29 237.5t87 209t139 166t192 110t239 39.5q213 0 372 -99t240.5 -266.5t81.5 -378.5q0 -106 -28 -228.5t-76 -201.5q20 -46 91 -78t128 -32q18 0 28 4l-75 -260q-75 17 -161.5 68.5t-146.5 111.5q-93 -80 -212.5 -120t-247.5 -40q-158 0 -288.5 60.5 t-215 165t-130.5 241t-46 291.5zM362 717q0 -93 27 -180.5t77 -158.5t130 -114t178 -43q79 0 145 30.5t110.5 80.5t75 116.5t44.5 137.5t14 145q0 93 -26.5 180t-76 157.5t-128.5 113.5t-176 43q-77 0 -143 -30.5t-111 -81.5t-77.5 -117.5t-47.5 -137t-15 -141.5z" />
<glyph unicode="R" horiz-adv-x="1323" d="M166 0v1446h532q155 0 262.5 -35.5t186.5 -140.5q88 -118 88 -281q0 -142 -75.5 -251t-209.5 -148l322 -590h-309l-285 537h-244v-537h-268zM434 762h176q42 0 71.5 1t69 6.5t67 14.5t56.5 26t46.5 40.5t29 59.5t11.5 81q0 78 -40 130t-99.5 72.5t-135.5 20.5 q-42 0 -126 -1t-126 -1v-450z" />
<glyph unicode="S" horiz-adv-x="1366" d="M47 272l227 158q28 -39 45 -59q137 -158 400 -158q50 0 96 9t89.5 28.5t70 58.5t26.5 92q0 26 -8.5 48.5t-19 38t-33 30t-37 22.5t-45.5 17.5t-44.5 12.5t-48 10.5t-42.5 9.5l-172 39q-101 22 -135 33q-291 93 -291 370q0 93 33 169t88.5 127.5t129.5 87t155 51.5t167 16 q326 0 533 -232q2 -2 49 -61l-223 -166q-71 107 -158.5 161t-210.5 54q-44 0 -89 -8.5t-89 -27.5t-72 -55t-28 -85q0 -21 5 -39t18 -32.5t23.5 -25.5t33.5 -21t34.5 -16t40.5 -13.5t38 -9.5t39.5 -8t33.5 -7q204 -44 263 -62q222 -67 302 -195q53 -86 53 -206 q0 -101 -37.5 -182t-98 -132.5t-143 -86.5t-168.5 -49.5t-177 -14.5q-146 0 -283 46t-237 138q-73 69 -103 125z" />
<glyph unicode="T" d="M45 1202v244h1063v-244h-399v-1202h-271v1202h-393z" />
<glyph unicode="U" horiz-adv-x="1492" d="M164 450v22v34v47v893h272v-924q0 -87 19 -137q64 -160 293 -160q231 0 294 172q17 48 17 174v875h270v-924q0 -148 -22 -223q-22 -72 -66 -129.5t-100 -95.5t-124.5 -63.5t-138.5 -36.5t-143 -11q-92 0 -177 19t-161 58.5t-133 107t-82 157.5q-7 22 -11 45.5t-5.5 53.5 t-1.5 46z" />
<glyph unicode="V" horiz-adv-x="1236" d="M16 1446h285l324 -1141l315 1141h279l-412 -1446h-365z" />
<glyph unicode="W" horiz-adv-x="1705" d="M25 1446h276l197 -1102l225 1102h252l229 -1102l203 1102h279l-318 -1446h-315l-203 1006l-209 -1006h-315z" />
<glyph unicode="X" horiz-adv-x="1323" d="M18 0l486 784l-416 662h311l263 -414l251 414h314l-408 -662l490 -784h-310l-337 535l-330 -535h-314z" />
<glyph unicode="Y" horiz-adv-x="1280" d="M20 1446h308l313 -598l315 598h304l-488 -875v-571h-268v571z" />
<glyph unicode="Z" horiz-adv-x="1236" d="M49 0v221l791 983h-723v242h1061v-229l-760 -973h760v-244h-1129z" />
<glyph unicode="[" horiz-adv-x="583" d="M121 -295v1890h420v-149h-199v-1593h199v-148h-420z" />
<glyph unicode="\" horiz-adv-x="980" d="M27 1446h243l686 -1446h-243z" />
<glyph unicode="]" horiz-adv-x="583" d="M41 -145h199v1593h-199v147h420v-1890h-420v150z" />
<glyph unicode="^" horiz-adv-x="1482" d="M188 582l428 864h258l422 -864h-268l-278 630l-283 -630h-279z" />
<glyph unicode="_" horiz-adv-x="1024" d="M-20 -256h1064v-211h-1064v211z" />
<glyph unicode="`" horiz-adv-x="555" d="M72 1446h305l106 -272h-182z" />
<glyph unicode="a" horiz-adv-x="1110" d="M53 297q0 103 64 186q20 26 43.5 47t52.5 36.5t52 26t60 20.5t58 14.5t64 13t61 12.5q119 25 225 58q0 62 -18 90q-43 63 -156 63q-209 0 -209 -153l-250 14q0 67 37 143q95 187 408 187q332 0 411 -174q23 -49 23 -150v-588q0 -46 9 -74t36 -69h-291q-4 54 -4 80 q-57 -48 -141.5 -76.5t-161.5 -28.5q-155 0 -264 85.5t-109 236.5zM313 307q0 -63 49 -92t117 -29q63 0 118.5 18.5t95.5 63.5t40 109v133q-65 -30 -135 -45q-17 -4 -64 -12t-79 -15t-67.5 -23.5t-51.5 -39.5q-23 -33 -23 -68z" />
<glyph unicode="b" horiz-adv-x="1193" d="M131 0v1446h244v-508q136 117 297 117q110 0 213 -64q116 -72 175.5 -198.5t59.5 -272.5q0 -84 -19.5 -164.5t-59.5 -150.5t-95 -122.5t-132 -83t-165 -30.5q-154 0 -274 137v-106h-244zM373 528q0 -63 13.5 -118.5t41.5 -103.5t78 -75.5t117 -27.5q65 0 114 29t76.5 78 t41 105t13.5 117q0 123 -68 211t-188 88q-60 0 -107.5 -26.5t-75.5 -70.5t-42 -96.5t-14 -109.5z" />
<glyph unicode="c" horiz-adv-x="1024" d="M49 512q0 148 64.5 271.5t183.5 197.5t268 74t267 -77.5t176 -213.5l-220 -102q-27 81 -88 127.5t-145 46.5q-63 0 -113 -27.5t-79.5 -73.5t-44.5 -101t-15 -116q0 -84 26.5 -154t87 -117.5t146.5 -47.5q96 0 150 50.5t96 149.5l209 -110q-45 -143 -178.5 -231.5 t-286.5 -88.5q-148 0 -264.5 75.5t-178 198.5t-61.5 269z" />
<glyph unicode="d" horiz-adv-x="1193" d="M74 492v6q0 83 18.5 163t57.5 151.5t93 125.5t130.5 85.5t165.5 31.5q171 0 274 -115v506h244v-1446h-244v100q-105 -131 -285 -131q-109 0 -196.5 42.5t-143 115.5t-85 166.5t-29.5 198.5zM330 518q0 -58 13 -112.5t39.5 -103.5t74.5 -79t110 -30q82 0 139 45t81 112 t24 148q0 63 -11 117.5t-36 104t-72.5 78.5t-113.5 29q-82 0 -140 -46t-83 -114t-25 -149z" />
<glyph unicode="e" d="M70 512q0 151 49 260q63 137 184.5 210t276.5 73q130 0 241 -52.5t174 -156.5q45 -72 68.5 -178.5t23.5 -204.5h-757q22 -123 96 -188.5t195 -65.5q175 0 266 141l209 -121q-69 -82 -92 -104q-82 -76 -188 -116t-220 -40q-239 0 -382.5 152t-143.5 391zM338 643h479 q-16 102 -72.5 158.5t-156.5 56.5q-163 0 -230 -145q-17 -38 -20 -70z" />
<glyph unicode="f" horiz-adv-x="641" d="M8 850v174h154v139q0 86 19.5 142t63 87.5t102 43.5t145.5 12q61 0 139 -10v-209q-27 6 -80 6q-31 0 -54 -4.5t-38 -13t-25.5 -20.5t-15.5 -27.5t-7.5 -34t-2.5 -39v-43.5v-15.5v-13.5h223v-174h-223v-850h-246v850h-154z" />
<glyph unicode="g" horiz-adv-x="1193" d="M70 553q0 161 68.5 282.5t209.5 180.5q89 39 182 39h5q178 0 286 -140v109h244v-924q0 -212 -76 -299q-125 -143 -416 -143q-99 0 -172 14t-135.5 49t-103.5 99.5t-60 159.5h271q22 -74 77 -102t140 -28q233 0 233 230q0 14 -1 44t-1 46q-52 -54 -137 -82.5t-168 -28.5 q-143 0 -245 65.5t-151.5 175.5t-49.5 253zM322 557q0 -123 65 -198.5t186 -75.5t187.5 72t66.5 194q0 124 -65 205.5t-187 81.5q-118 0 -185.5 -79t-67.5 -200z" />
<glyph unicode="h" horiz-adv-x="1193" d="M129 0v1446h246v-526q135 135 325 135q125 0 213 -56q91 -59 121.5 -135.5t30.5 -197.5v-666h-242v563q0 110 -14 144q-47 114 -174 114q-87 0 -158 -50t-94 -134q-8 -31 -8 -115v-522h-246z" />
<glyph unicode="i" horiz-adv-x="512" d="M133 0v1024h244v-1024h-244zM133 1184v248h244v-248h-244z" />
<glyph unicode="j" horiz-adv-x="512" d="M2 -106q2 0 19.5 2t25.5 4q17 4 30.5 9t23 12.5t16 14t10.5 17.5t6.5 18t3.5 22t1 23.5t-0.5 27t-0.5 28.5v952h242v-1061q0 -115 -12 -145q-60 -150 -310 -150q-37 0 -55 2v224zM137 1186v250h242v-250h-242z" />
<glyph unicode="k" horiz-adv-x="1110" d="M131 0v1446h244v-813l399 391h313l-391 -391l430 -633h-299l-309 459l-143 -142v-317h-244z" />
<glyph unicode="l" horiz-adv-x="512" d="M133 0v1446h250v-1446h-250z" />
<glyph unicode="m" horiz-adv-x="1792" d="M129 0v1024h246v-115q49 67 140.5 106.5t180.5 39.5t169 -41.5t118 -116.5q50 76 141.5 117t190.5 41q122 0 211 -56t123 -168q16 -53 16 -161v-670h-244v565q0 45 -2.5 76.5t-12.5 69t-27.5 60.5t-51 38.5t-80.5 15.5q-75 0 -135 -51q-58 -50 -76 -122t-18 -171v-481 h-244v614q0 57 -14.5 102t-53 76t-96.5 31q-78 0 -135 -51q-46 -41 -69.5 -104.5t-27 -110.5t-3.5 -127v-430h-246z" />
<glyph unicode="n" d="M129 0v1024h248v-121q54 74 138 113t179 39q105 0 187 -49q48 -29 78.5 -68.5t44 -91.5t17 -94.5t3.5 -108.5v-643h-242v580q0 49 -8.5 88.5t-28 74t-56 53.5t-87.5 19q-66 0 -119 -39q-63 -49 -84.5 -117.5t-21.5 -164.5v-494h-248z" />
<glyph unicode="o" horiz-adv-x="1193" d="M72 516q0 235 147 387t381 152q231 0 377.5 -156.5t146.5 -390.5q0 -233 -145.5 -386t-378.5 -153q-154 0 -275.5 72.5t-187 197t-65.5 277.5zM328 518q0 -132 74.5 -227.5t203.5 -95.5q126 0 194 91.5t68 221.5q0 86 -30 158.5t-94.5 120t-151.5 47.5q-126 0 -195 -92.5 t-69 -223.5z" />
<glyph unicode="p" horiz-adv-x="1193" d="M131 -334v1358h246v-92q62 63 127 93t151 30q88 0 164.5 -30.5t131 -83t94 -123t58.5 -150.5t19 -164q0 -83 -19.5 -161.5t-58.5 -146t-94 -118.5t-130.5 -80t-162.5 -29q-153 0 -280 115v-418h-246zM373 508q0 -79 26 -146.5t84.5 -113t139.5 -45.5q64 0 112.5 26.5 t77 71t43 98.5t14.5 115q0 81 -26.5 148.5t-85.5 112t-140 44.5t-138 -47t-82 -115.5t-25 -148.5z" />
<glyph unicode="q" d="M51 502q0 176 75.5 316t227.5 204q73 33 164 33q82 0 157 -37t122 -103v109h243v-1358h-243v430q-66 -66 -134.5 -96.5t-160.5 -30.5q-88 0 -163 29t-127 79.5t-89 118.5t-54.5 145.5t-17.5 160.5zM303 504q0 -61 14 -114.5t42.5 -98t78 -70.5t113.5 -26q83 0 140.5 45.5 t81.5 112.5t24 149q0 59 -14.5 113.5t-43 100t-77 72.5t-111.5 27q-82 0 -140 -47t-83 -115.5t-25 -148.5z" />
<glyph unicode="r" horiz-adv-x="724" d="M131 0v1024h238v-145q47 92 129 130t196 38v-252q-172 0 -248.5 -81.5t-76.5 -250.5v-33v-430h-238z" />
<glyph unicode="s" horiz-adv-x="1067" d="M45 154l182 149q108 -131 295 -131q41 0 84.5 10t81 38.5t37.5 70.5q0 43 -47 71q-20 12 -78.5 25t-130 25.5t-92.5 17.5q-287 75 -287 293q0 110 75 191t185 116q79 25 170 25h10q273 0 441 -191l-174 -162q-77 156 -279 156q-36 0 -72 -8t-67 -32.5t-31 -61.5 q0 -21 7.5 -37.5t25 -28t30.5 -19t41 -14.5t37 -9t37 -7q18 -4 85.5 -15t107.5 -19t91.5 -26.5t80.5 -41.5q106 -84 106 -224q0 -73 -36 -137q-30 -56 -77.5 -97.5t-105.5 -65t-118.5 -35t-124.5 -11.5h-7q-136 0 -264 47t-219 138z" />
<glyph unicode="t" horiz-adv-x="641" d="M8 850v174h150v365h245v-365h220v-174h-220v-512q0 -74 24 -104.5t95 -30.5q48 0 101 12v-207q-76 -16 -179 -16q-45 0 -81 4.5t-75 17t-68.5 38.5t-45.5 65q-16 37 -16 162v571h-150z" />
<glyph unicode="u" horiz-adv-x="1193" d="M127 354v670h248v-582q0 -85 19 -134.5t83 -80.5q41 -20 96 -20q91 0 148 51q33 29 53.5 63.5t28 80.5t9 76t1.5 87v25v434h246v-1024h-246v106q-76 -69 -153.5 -100t-178.5 -31q-182 0 -268 99t-86 280z" />
<glyph unicode="v" horiz-adv-x="980" d="M27 1024h254l213 -705l208 705h256l-337 -1024h-263z" />
<glyph unicode="w" horiz-adv-x="1536" d="M35 1024h256l178 -700l190 700h220l188 -700l182 700h256l-307 -1024h-244l-184 653l-195 -653h-243z" />
<glyph unicode="x" horiz-adv-x="1024" d="M18 0l353 549l-312 475h289l168 -258l162 258h293l-309 -475l350 -549h-283l-213 324l-205 -324h-293z" />
<glyph unicode="y" horiz-adv-x="980" d="M25 1024h264l229 -764l193 764h252l-261 -893q-5 -17 -22 -80t-28.5 -98.5t-31.5 -87.5t-44.5 -89.5t-53.5 -62.5q-45 -39 -97.5 -52t-125.5 -13q-87 0 -137 14v213q4 0 27.5 -3t37.5 -3q67 0 108.5 25.5t59.5 85.5z" />
<glyph unicode="z" horiz-adv-x="1024" d="M63 0v188l553 617h-497v219h821v-190l-541 -617h541v-217h-877z" />
<glyph unicode="{" horiz-adv-x="614" d="M29 573v154q72 5 114 29q36 22 49 61t13 127l-2 316v12q0 115 14 170q13 53 45 88q35 40 83.5 56t135.5 16h107l2 -148h-35q-69 0 -96 -31q-18 -25 -23 -45q-8 -31 -8 -145v-307q0 -127 -34 -183t-134 -96q35 -9 53.5 -18.5t40.5 -30.5q42 -36 58 -84t16 -139v-309 q0 -115 8 -144q21 -78 125 -78h29v-147h-107q-91 0 -138.5 15.5t-82.5 56.5q-33 39 -45 88q-14 55 -14 172v10l2 317q0 104 -23 148q-19 32 -53 47.5t-100 21.5z" />
<glyph unicode="|" horiz-adv-x="505" d="M139 -293v1888h223v-1888h-223z" />
<glyph unicode="}" horiz-adv-x="614" d="M25 -156l34 -2q64 -3 95 33q18 21 24 45q8 31 8 146v307q0 126 34 182t134 96q-36 9 -54.5 18t-41.5 29q-41 37 -56.5 85.5t-15.5 140.5v309q0 107 -10 143q-18 78 -123 78h-28v148h106q89 0 136 -16t83 -56q35 -41 47 -88q15 -70 15 -172v-10l-2 -318q0 -113 20 -149 q17 -31 53.5 -46.5t102.5 -21.5v-154q-49 -5 -70.5 -10t-44.5 -18q-35 -22 -48 -61t-13 -128l2 -315v-12q0 -102 -15 -170q-12 -50 -47 -88q-34 -40 -82 -56t-135 -16h-108v147z" />
<glyph unicode="~" horiz-adv-x="1482" d="M147 651q38 53 59 76.5t50 48.5q92 80 215 80q52 0 105 -16t155 -62l105 -47q69 -32 100 -41.5t61 -9.5q73 0 136 47q29 20 50.5 42t61.5 71l92 -205q-46 -57 -76 -85.5t-73 -57.5q-92 -60 -189 -60q-49 0 -101.5 16.5t-145.5 61.5l-72 35q-127 61 -213 61q-38 0 -68 -12 q-34 -13 -60.5 -37t-80.5 -88l-20 -25z" />
<glyph unicode="&#xa1;" horiz-adv-x="512" d="M82 0v555q0 31 4.5 58.5t11.5 61t11 58.5l51 354h114l52 -354q3 -23 10 -58t10.5 -62t3.5 -58v-555h-268zM82 1163v283h268v-283h-268z" />
<glyph unicode="&#xa2;" horiz-adv-x="1024" d="M45 522q0 215 113.5 360t322.5 187v203h160v-203q133 -16 212 -84t151 -199l-218 -102q-60 146 -149 162v-631q64 18 108 71t58 120l209 -113q-27 -72 -62 -123q-45 -66 -111.5 -115t-140.5 -63q-10 -2 -29.5 -5t-29.5 -5v-203h-160v203q-138 19 -237.5 96.5t-148 191.5 t-48.5 252zM297 532q0 -70 15 -129t57 -110t108 -70v625q-97 -48 -138.5 -125.5t-41.5 -190.5z" />
<glyph unicode="&#xa3;" horiz-adv-x="1280" d="M100 215q0 104 64.5 164.5t169.5 60.5q57 0 145 -30q6 18 6 36q0 70 -57 117h-266v217h166q-88 111 -88 242q0 137 71 229q64 82 175 127t223 45q143 0 256 -65q109 -64 152.5 -161.5t43.5 -235.5q0 -12 -1 -35.5t-1 -36.5h-266q10 48 10 88q0 91 -57.5 154t-147.5 63 q-79 0 -133.5 -55t-54.5 -135q0 -40 16.5 -83t34.5 -71t49 -70h252v-217h-160q1 -9 7 -62.5t6 -82.5q0 -32 -13 -125q81 -60 140 -60q27 0 47 9.5t31.5 29.5t18.5 38.5t9.5 49.5t3 48t0.5 47v7.5v6v6.5h265v-20q0 -68 -8 -130t-30.5 -126t-57 -110t-91.5 -75.5t-131 -29.5 q-27 0 -55 4.5t-47.5 9.5t-49.5 17.5t-43 18.5t-48 23.5t-46 22.5q-12 -6 -60 -31t-69.5 -34t-61 -20t-73.5 -11q-106 0 -176 63t-70 168zM295 205q0 -20 18.5 -31.5t38.5 -11.5q26 0 46.5 15t31.5 40q-39 35 -78 35q-24 0 -40.5 -12t-16.5 -35z" />
<glyph unicode="&#xa5;" horiz-adv-x="1236" d="M6 1405h305l305 -584l314 584h301l-297 -524h172v-203h-291l-70 -125h361v-203h-361v-350h-264v350h-362v203h360l-63 125h-297v203h182z" />
<glyph unicode="&#xa6;" horiz-adv-x="505" d="M141 -295v821h224v-821h-224zM141 770v823h224v-823h-224z" />
<glyph unicode="&#xa7;" horiz-adv-x="1323" d="M88 770q0 54 16.5 100t48 83t67.5 65t85 57q-80 71 -80 180q0 76 36 136t95 94t126.5 51.5t138.5 17.5q127 0 254 -35.5t231 -101.5l-115 -172q-5 2 -32 14.5t-34.5 15.5t-32.5 14t-35 14.5t-33 12t-35.5 12t-33.5 9t-36.5 7.5t-34.5 4t-37 2q-19 0 -41 -3t-47.5 -9.5 t-42 -21t-16.5 -34.5q0 -9 2.5 -17.5t8.5 -16.5l10.5 -14t15 -12.5t16 -10t18.5 -9.5t17 -8t17.5 -7.5t15.5 -6.5l190 -82q169 -74 238 -119q188 -122 188 -303q0 -108 -60 -194.5t-159 -133.5q84 -91 84 -188q0 -75 -38 -134t-99.5 -92.5t-130 -50t-138.5 -16.5 q-130 0 -268.5 43.5t-241.5 118.5l119 168q191 -125 383 -125q23 0 45 4t44.5 12.5t36 26.5t13.5 43q0 28 -41 57t-106 57t-143.5 59.5t-157.5 74t-144 91.5t-106 120t-41 153zM348 811q0 -28 12 -53t26 -40.5t43 -34t44.5 -26t48.5 -22.5q44 -20 115 -51q120 -56 235 -113 q39 29 65 72.5t26 87.5q0 51 -27 88q-24 33 -91 72.5t-122 63t-148 60t-106 41.5q-52 -19 -86.5 -56t-34.5 -89z" />
<glyph unicode="&#xa8;" horiz-adv-x="555" d="M-45 1202v244h231v-244h-231zM365 1202v244h235v-244h-235z" />
<glyph unicode="&#xa9;" horiz-adv-x="1675" d="M109 723q0 200 97 367.5t265 264.5t369 97q117 0 227.5 -36.5t200 -103t157.5 -154.5t105 -197t37 -224q0 -157 -56 -295t-152.5 -236t-232.5 -155t-290 -57q-198 0 -365.5 97t-264.5 264.5t-97 367.5zM193 721q0 -135 50.5 -255.5t136.5 -207t205.5 -137.5t252.5 -51 q130 0 249.5 51.5t206.5 137.5t139 204t52 246q0 141 -49.5 264.5t-135 212t-206 139.5t-256.5 51q-175 0 -323.5 -87.5t-235 -238.5t-86.5 -329zM424 719q0 205 120 341t302 136q109 0 184 -37.5t160 -132.5l-129 -133q-60 69 -105.5 95t-105.5 26q-100 0 -160.5 -80.5 t-60.5 -212.5q0 -133 59.5 -212t159.5 -79q64 0 112 26t101 89l129 -129q-83 -93 -162 -132.5t-182 -39.5q-188 0 -305 131.5t-117 343.5z" />
<glyph unicode="&#xaa;" horiz-adv-x="681" d="M80 1044q0 48 19.5 82t49 52.5t71.5 32t80 19.5t83 15.5t72 20.5v10q0 76 -97 76q-108 0 -108 -84l-144 10q3 93 76 138.5t172 45.5q44 0 83 -7.5t76 -24.5t59 -50.5t22 -79.5v-346q0 -41 24 -82h-141q-12 27 -14 46q-88 -58 -182 -58q-85 0 -143 50t-58 134zM229 1044 q0 -31 24.5 -45t57.5 -14q56 0 98 24t42 76v62q-5 -1 -41 -11t-54 -14q-4 -1 -28.5 -5.5t-36 -8.5t-29 -12t-25.5 -21t-8 -31z" />
<glyph unicode="&#xab;" horiz-adv-x="894" d="M121 500v288l291 230v-230l-181 -147l181 -141v-228zM492 500v288l292 234v-234l-176 -145l176 -143v-230z" />
<glyph unicode="&#xac;" horiz-adv-x="1482" d="M141 528v224h1159v-719h-266v495h-893z" />
<glyph unicode="&#xad;" horiz-adv-x="761" d="M84 506v231h592v-231h-592z" />
<glyph unicode="&#xae;" horiz-adv-x="1693" d="M119 723q0 200 97 367.5t264.5 264.5t367.5 97q196 0 364 -96t266.5 -261t98.5 -358q0 -157 -56 -295t-152.5 -236t-232.5 -155t-290 -57q-198 0 -365.5 97t-264.5 264.5t-97 367.5zM201 721q0 -133 51 -254t137 -208t205.5 -138t251.5 -51q174 0 323.5 86.5t237.5 234.5 t88 320q0 187 -84.5 339.5t-233 239t-331.5 86.5q-175 0 -323.5 -87.5t-235 -238.5t-86.5 -329zM539 274v914h301q155 0 221 -41q57 -35 90 -101.5t33 -146.5q0 -88 -36.5 -145.5t-119.5 -100.5l160 -379h-209l-129 347h-119l-2 -347h-190zM729 780h119q75 0 109 28.5 t34 90.5q0 60 -33.5 88.5t-103.5 28.5h-125v-236z" />
<glyph unicode="&#xaf;" horiz-adv-x="555" d="M-72 1200v184h699v-184h-699z" />
<glyph unicode="&#xb0;" horiz-adv-x="724" d="M10 1192q0 147 102.5 250.5t249.5 103.5q148 0 250.5 -103t102.5 -251q0 -145 -104 -248.5t-249 -103.5t-248.5 103.5t-103.5 248.5zM215 1192q0 -60 43.5 -104t103.5 -44t104 44t44 104q0 61 -43.5 103t-104.5 42q-62 0 -104.5 -42t-42.5 -103z" />
<glyph unicode="&#xb1;" horiz-adv-x="1482" d="M190 0v219h1102v-219h-1102zM190 748v219h418v407h266v-407h418v-219h-418v-416h-266v416h-418z" />
<glyph unicode="&#xb2;" horiz-adv-x="768" d="M70 1042q2 16 6 55.5t8 61.5q27 114 99.5 175t189.5 61q134 0 217.5 -73t83.5 -206q0 -33 -6.5 -65t-15.5 -59t-28 -57.5t-33 -52t-41.5 -50.5t-44 -45.5t-49.5 -44.5t-48 -40.5t-51.5 -41t-47.5 -37.5h383v-146h-618v135q101 69 207.5 164.5t152.5 173.5q49 83 49 158 q0 54 -28.5 90.5t-81.5 36.5q-22 0 -40 -6t-30 -13.5t-21.5 -23.5t-14.5 -27t-8.5 -33.5t-5 -33.5t-3 -36t-2.5 -34z" />
<glyph unicode="&#xb3;" horiz-adv-x="768" d="M43 778h178q5 -79 37.5 -123.5t108.5 -44.5q63 0 101 40.5t38 103.5q0 36 -14 61.5t-32.5 38t-50 19.5t-54.5 8.5t-58 1.5v145h65q55 0 90 24t35 76q0 54 -32 82.5t-86 28.5q-65 0 -92.5 -39.5t-36.5 -109.5l-174 38q19 125 105 196t212 71q117 0 202 -67t85 -181 q0 -138 -148 -186q85 -30 125.5 -76.5t40.5 -134.5q0 -135 -91.5 -212t-229.5 -77q-104 0 -186 43t-118 133q-20 49 -20 141z" />
<glyph unicode="&#xb4;" horiz-adv-x="555" d="M74 1174l102 272h305l-221 -272h-186z" />
<glyph unicode="&#xb5;" horiz-adv-x="1222" d="M154 -442v1464h252v-473q0 -128 8 -185.5t32 -93.5q23 -35 64.5 -56t87.5 -21q95 0 148 80t53 225v94v430h250v-713q0 -72 14.5 -99.5t54.5 -27.5q14 0 58 17v-201q-70 -18 -136 -18q-91 0 -145 45q-24 18 -36.5 39.5t-31.5 76.5q-40 -89 -91.5 -125t-137.5 -36 q-70 0 -117.5 27.5t-87.5 90.5l6 -540h-245z" />
<glyph unicode="&#xb6;" horiz-adv-x="1310" d="M145 1028q0 190 121 305q56 53 129 80q48 19 96 26t132 7h477v-143h-72v-1645h-151v1645h-263v-1645h-151v979q-48 9 -90 25q-106 41 -167 139t-61 227z" />
<glyph unicode="&#xb7;" horiz-adv-x="448" d="M88 444v299h272v-299h-272z" />
<glyph unicode="&#xb8;" horiz-adv-x="555" d="M72 -188l204 213h93l-93 -119q37 0 69.5 -5.5t65.5 -19t52.5 -41.5t19.5 -67t-22.5 -68.5t-54.5 -45t-76 -25.5t-78.5 -12.5t-69.5 -2.5h-53q-33 0 -47 2v64q6 -2 20 -2q146 0 146 51q0 52 -128 51h-7q-29 0 -41 -4v31z" />
<glyph unicode="&#xb9;" horiz-adv-x="768" d="M131 1096v121q48 2 75.5 5t63 13.5t55.5 28t36 50t20 79.5h145v-916h-174v561q0 16 -5.5 27.5t-12.5 17t-22 8t-23.5 3t-28.5 0.5z" />
<glyph unicode="&#xba;" horiz-adv-x="681" d="M49 1155q0 131 82.5 219t212.5 88q132 0 210.5 -88t78.5 -221q0 -130 -83 -216.5t-212 -86.5q-127 0 -208 88.5t-81 216.5zM199 1157q0 -74 36 -126t107 -52q70 0 107.5 54t37.5 128q0 71 -36.5 122.5t-104.5 51.5q-69 0 -108 -53t-39 -125z" />
<glyph unicode="&#xbb;" horiz-adv-x="894" d="M106 264v232l177 147l-177 141v232l293 -232v-288zM481 268v228l178 149l-178 139v230l291 -230v-288z" />
<glyph unicode="&#xbc;" horiz-adv-x="1792" d="M131 1096v121q48 2 75.5 5t63 13.5t55.5 28t36 50t20 79.5h145v-916h-174v561q0 16 -5.5 27.5t-12.5 17t-22 8t-23.5 3t-28.5 0.5zM487 -12l646 1401l139 -66l-643 -1399zM1069 207v129l397 569h170v-555h115v-147h-121v-203h-164v207h-397zM1251 352h222l4 346z" />
<glyph unicode="&#xbd;" horiz-adv-x="1792" d="M131 1096v121q48 2 75.5 5t63 13.5t55.5 28t36 50t20 79.5h145v-916h-174v561q0 16 -5.5 27.5t-12.5 17t-22 8t-23.5 3t-28.5 0.5zM469 -12l645 1401l139 -66l-643 -1399zM1096 565q11 355 309 355q132 0 212.5 -77t80.5 -208q0 -100 -46.5 -175t-138.5 -161 q-82 -74 -182 -154h385v-145h-618v137q97 65 210 166t154 176q45 75 45 152q0 54 -28.5 90.5t-81.5 36.5q-28 0 -49.5 -8t-34.5 -26t-21 -34t-12 -45t-5.5 -44.5t-2.5 -47.5z" />
<glyph unicode="&#xbe;" horiz-adv-x="1792" d="M43 778h178q5 -79 37.5 -123.5t108.5 -44.5q63 0 101 40.5t38 103.5q0 36 -14 61.5t-32.5 38t-50 19.5t-54.5 8.5t-58 1.5v145h65q55 0 90 24t35 76q0 54 -32 82.5t-86 28.5q-65 0 -92.5 -39.5t-36.5 -109.5l-174 38q19 125 105 196t212 71q117 0 202 -67t85 -181 q0 -138 -148 -186q85 -30 125.5 -76.5t40.5 -134.5q0 -135 -91.5 -212t-229.5 -77q-104 0 -186 43t-118 133q-20 49 -20 141zM537 -12l645 1401l137 -66l-641 -1399zM1069 207v129l397 569h170v-555h115v-147h-121v-203h-164v207h-397zM1251 352h222l4 346z" />
<glyph unicode="&#xbf;" d="M55 406q0 184 150 309q16 13 45.5 33.5t36.5 25.5q58 41 83 67.5t38.5 67t13.5 107.5q0 43 -6 59h241v-47q0 -231 -61 -315q-29 -41 -107.5 -93t-107.5 -90q-45 -59 -45 -120q0 -89 65 -145t156 -56q109 0 172.5 79.5t63.5 190.5l247 -30q-13 -132 -36 -187 q-55 -141 -178 -214t-281 -73q-132 0 -241.5 47.5t-179 147.5t-69.5 236zM399 1165v281h273v-281h-273z" />
<glyph unicode="&#xc0;" horiz-adv-x="1323" d="M12 0l490 1446h307l494 -1446h-289l-84 283h-543l-84 -283h-291zM379 1833h291l110 -248h-182zM459 520h399l-199 666z" />
<glyph unicode="&#xc1;" horiz-adv-x="1323" d="M12 0l490 1446h307l494 -1446h-289l-84 283h-543l-84 -283h-291zM459 520h399l-199 666zM547 1587l110 246h293l-221 -246h-182z" />
<glyph unicode="&#xc2;" horiz-adv-x="1323" d="M12 0l490 1446h307l494 -1446h-289l-84 283h-543l-84 -283h-291zM336 1583l207 250h239l215 -250h-247l-86 115l-86 -115h-242zM459 520h399l-199 666z" />
<glyph unicode="&#xc3;" horiz-adv-x="1323" d="M12 0l490 1446h307l494 -1446h-289l-84 283h-543l-84 -283h-291zM303 1575q7 65 28.5 120.5t70 96.5t114.5 41q39 0 92 -15t90 -34q9 -2 45.5 -15.5t59.5 -13.5q20 0 33 5t22 19t12 22.5t11 31.5h157q-1 -64 -22.5 -121.5t-69 -98t-112.5 -40.5q-58 0 -156.5 39 t-142.5 39q-28 0 -49 -23.5t-23 -52.5h-160zM459 520h399l-199 666z" />
<glyph unicode="&#xc4;" horiz-adv-x="1323" d="M12 0l490 1446h307l494 -1446h-289l-84 283h-543l-84 -283h-291zM350 1581v252h230v-252h-230zM459 520h399l-199 666zM760 1581v252h231v-252h-231z" />
<glyph unicode="&#xc5;" horiz-adv-x="1323" d="M12 0l490 1446h307l494 -1446h-289l-84 283h-543l-84 -283h-291zM459 520h399l-199 666zM461 1763q0 86 61.5 147.5t147.5 61.5q85 0 146 -62t61 -147t-61 -146t-146 -61q-86 0 -147.5 60.5t-61.5 146.5zM582 1763q0 -34 26 -60t60 -26t60 26t26 60q0 35 -25.5 60.5 t-60.5 25.5q-34 0 -60 -26t-26 -60z" />
<glyph unicode="&#xc6;" horiz-adv-x="2134" d="M12 0l856 1446h1186v-242h-754v-344h656v-237h-656v-377h785v-246h-1057v338h-508l-192 -338h-316zM657 582h371v661z" />
<glyph unicode="&#xc7;" horiz-adv-x="1409" d="M76 729q0 175 47 307q76 212 246.5 329.5t396.5 117.5q148 0 277 -59t208 -175q56 -82 99 -213l-269 -69q-13 121 -102 194.5t-213 73.5q-99 0 -177 -43.5t-125 -115.5t-71 -158.5t-24 -180.5q0 -73 11.5 -140t36.5 -132t70.5 -118.5t108.5 -86.5q80 -41 170 -41 q128 0 222.5 81.5t131.5 209.5l256 -107l-8 -20q-62 -157 -165 -255.5t-259 -135.5q-61 -14 -160 -25l-49 -61q36 0 68.5 -5t66.5 -18t54 -40t20 -66q0 -158 -328 -158q-48 0 -73 2v64q6 -2 22 -2q142 0 142 51q0 52 -126 51h-10q-27 0 -41 -4v31l154 157q-3 1 -32 6t-34 6 t-30.5 6t-33.5 7.5t-29 7.5t-32 9.5t-28.5 11t-32 14t-29.5 16.5q-112 66 -187.5 179t-107.5 237.5t-32 259.5z" />
<glyph unicode="&#xc8;" horiz-adv-x="1280" d="M160 0v1446h1028v-242h-762v-340h698v-233h-698v-387h813v-244h-1079zM356 1833h291l113 -248h-185z" />
<glyph unicode="&#xc9;" horiz-adv-x="1280" d="M160 0v1446h1028v-242h-762v-340h698v-233h-698v-387h813v-244h-1079zM526 1587l109 246h295l-221 -246h-183z" />
<glyph unicode="&#xca;" horiz-adv-x="1280" d="M160 0v1446h1028v-242h-762v-340h698v-233h-698v-387h813v-244h-1079zM315 1583l207 250h240l215 -250h-248l-88 115l-86 -115h-240z" />
<glyph unicode="&#xcb;" horiz-adv-x="1280" d="M160 0v1446h1028v-242h-762v-340h698v-233h-698v-387h813v-244h-1079zM322 1581v252h229v-252h-229zM731 1581v252h234v-252h-234z" />
<glyph unicode="&#xcc;" horiz-adv-x="598" d="M16 1833h291l111 -248h-182zM164 0v1446h266v-1446h-266z" />
<glyph unicode="&#xcd;" horiz-adv-x="598" d="M164 0v1446h266v-1446h-266zM184 1587l111 246h293l-221 -246h-183z" />
<glyph unicode="&#xce;" horiz-adv-x="598" d="M-27 1583l207 250h240l215 -250h-248l-86 115l-86 -115h-242zM164 0v1446h266v-1446h-266z" />
<glyph unicode="&#xcf;" horiz-adv-x="598" d="M-20 1581v252h229v-252h-229zM164 0v1446h266v-1446h-266zM389 1581v252h234v-252h-234z" />
<glyph unicode="&#xd0;" horiz-adv-x="1449" d="M6 668v184h139v594h476q203 0 301 -29q115 -34 203 -106t140.5 -168t78.5 -205.5t26 -228.5q0 -109 -22 -208.5t-66.5 -189.5t-121.5 -159.5t-179 -106.5q-124 -45 -350 -45h-486v668h-139zM416 244h114h48h53t49 1t54 3.5t47.5 7t49.5 10.5q61 17 107 50.5t73 74.5 t43.5 96t22.5 107.5t6 116.5q0 383 -268 469q-75 22 -197 22h-202v-350h315v-184h-315v-424z" />
<glyph unicode="&#xd1;" horiz-adv-x="1449" d="M168 0v1446h244l641 -1020l-33 1020h266v-1446h-237l-633 1014l16 -1014h-264zM367 1575q1 8 4.5 31.5t7 38.5t8.5 30q25 69 75 113.5t118 44.5q36 0 94 -15.5t88 -33.5q11 -2 47.5 -15.5t58.5 -13.5q19 0 31.5 5t21.5 20.5t12 21.5t11 31h160q-3 -14 -6 -39t-6 -39 q-50 -182 -195 -182q-56 0 -155 39t-144 39q-51 0 -72 -76h-159z" />
<glyph unicode="&#xd2;" horiz-adv-x="1579" d="M98 717q0 123 31 237.5t91 210.5t143.5 167t195 111t238.5 40q207 0 377 -113q158 -104 234.5 -274t76.5 -373q0 -156 -48.5 -293.5t-136 -241.5t-221 -164.5t-293.5 -60.5q-153 0 -283.5 61.5t-218 165t-137 240.5t-49.5 287zM377 733q0 -133 37 -237 q47 -128 148.5 -204.5t234.5 -76.5q126 0 228.5 73.5t148.5 192.5q38 99 38 213v15q0 100 -25.5 191.5t-74.5 167.5t-132 121.5t-189 45.5q-103 0 -184 -42t-130.5 -113.5t-74.5 -159.5t-25 -187zM506 1833h291l110 -248h-182z" />
<glyph unicode="&#xd3;" horiz-adv-x="1579" d="M98 717q0 123 31 237.5t91 210.5t143.5 167t195 111t238.5 40q207 0 377 -113q158 -104 234.5 -274t76.5 -373q0 -156 -48.5 -293.5t-136 -241.5t-221 -164.5t-293.5 -60.5q-153 0 -283.5 61.5t-218 165t-137 240.5t-49.5 287zM377 733q0 -133 37 -237 q47 -128 148.5 -204.5t234.5 -76.5q126 0 228.5 73.5t148.5 192.5q38 99 38 213v15q0 100 -25.5 191.5t-74.5 167.5t-132 121.5t-189 45.5q-103 0 -184 -42t-130.5 -113.5t-74.5 -159.5t-25 -187zM676 1587l108 246h293l-219 -246h-182z" />
<glyph unicode="&#xd4;" horiz-adv-x="1579" d="M98 717q0 123 31 237.5t91 210.5t143.5 167t195 111t238.5 40q207 0 377 -113q158 -104 234.5 -274t76.5 -373q0 -156 -48.5 -293.5t-136 -241.5t-221 -164.5t-293.5 -60.5q-153 0 -283.5 61.5t-218 165t-137 240.5t-49.5 287zM377 733q0 -133 37 -237 q47 -128 148.5 -204.5t234.5 -76.5q126 0 228.5 73.5t148.5 192.5q38 99 38 213v15q0 100 -25.5 191.5t-74.5 167.5t-132 121.5t-189 45.5q-103 0 -184 -42t-130.5 -113.5t-74.5 -159.5t-25 -187zM465 1583l205 250h241l215 -250h-247l-88 115l-86 -115h-240z" />
<glyph unicode="&#xd5;" horiz-adv-x="1579" d="M98 717q0 123 31 237.5t91 210.5t143.5 167t195 111t238.5 40q207 0 377 -113q158 -104 234.5 -274t76.5 -373q0 -156 -48.5 -293.5t-136 -241.5t-221 -164.5t-293.5 -60.5q-153 0 -283.5 61.5t-218 165t-137 240.5t-49.5 287zM377 733q0 -133 37 -237 q47 -128 148.5 -204.5t234.5 -76.5q126 0 228.5 73.5t148.5 192.5q38 99 38 213v15q0 100 -25.5 191.5t-74.5 167.5t-132 121.5t-189 45.5q-103 0 -184 -42t-130.5 -113.5t-74.5 -159.5t-25 -187zM432 1575q7 60 19 100q23 69 74 113.5t120 44.5q56 0 153 -39t134 -39 q35 0 51 20t25 58h159q-1 -63 -23.5 -121t-70.5 -98.5t-112 -40.5q-57 0 -155.5 39t-141.5 39q-55 0 -74 -76h-158z" />
<glyph unicode="&#xd6;" horiz-adv-x="1579" d="M98 717q0 123 31 237.5t91 210.5t143.5 167t195 111t238.5 40q207 0 377 -113q158 -104 234.5 -274t76.5 -373q0 -156 -48.5 -293.5t-136 -241.5t-221 -164.5t-293.5 -60.5q-153 0 -283.5 61.5t-218 165t-137 240.5t-49.5 287zM377 733q0 -133 37 -237 q47 -128 148.5 -204.5t234.5 -76.5q126 0 228.5 73.5t148.5 192.5q38 99 38 213v15q0 100 -25.5 191.5t-74.5 167.5t-132 121.5t-189 45.5q-103 0 -184 -42t-130.5 -113.5t-74.5 -159.5t-25 -187zM471 1581v252h231v-252h-231zM881 1581v252h233v-252h-233z" />
<glyph unicode="&#xd7;" horiz-adv-x="1482" d="M264 930l185 190l315 -305l291 301l155 -151l-290 -301l317 -308l-186 -190l-318 307l-291 -301l-155 152l291 301z" />
<glyph unicode="&#xd8;" horiz-adv-x="1579" d="M47 203l143 125q-96 149 -96 397q0 154 49.5 292t139 241.5t223.5 164t293 60.5q222 0 391 -129q16 -12 43.5 -37t34.5 -31l127 113l121 -137l-136 -121q107 -195 107 -424q0 -206 -83 -376.5t-243 -274t-368 -103.5q-161 0 -280 51t-218 168l-131 -114zM365 743 q0 -122 45 -221l665 594q-71 67 -130 95t-148 28q-129 0 -229.5 -73t-151.5 -185t-51 -238zM500 362q54 -78 123.5 -114.5t164.5 -36.5q100 0 183 42.5t135.5 113.5t81.5 160.5t29 185.5q0 117 -48 241z" />
<glyph unicode="&#xd9;" horiz-adv-x="1492" d="M163.5 450.5q-0.5 15.5 0 55t0.5 47.5v893h272v-924q0 -87 19 -137q64 -160 293 -160q231 0 294 172q17 48 17 174v875h270v-924q0 -148 -22 -223q-22 -72 -66 -129.5t-100 -95.5t-124.5 -63.5t-138.5 -36.5t-143 -11q-92 0 -177 19t-161 58.5t-133 107t-82 157.5 q-7 22 -11 45.5t-5.5 54t-2 46zM465 1833h289l112 -248h-184z" />
<glyph unicode="&#xda;" horiz-adv-x="1492" d="M163.5 450.5q-0.5 15.5 0 55t0.5 47.5v893h272v-924q0 -87 19 -137q64 -160 293 -160q231 0 294 172q17 48 17 174v875h270v-924q0 -148 -22 -223q-22 -72 -66 -129.5t-100 -95.5t-124.5 -63.5t-138.5 -36.5t-143 -11q-92 0 -177 19t-161 58.5t-133 107t-82 157.5 q-7 22 -11 45.5t-5.5 54t-2 46zM633 1587l108 246h295l-221 -246h-182z" />
<glyph unicode="&#xdb;" horiz-adv-x="1492" d="M163.5 450.5q-0.5 15.5 0 55t0.5 47.5v893h272v-924q0 -87 19 -137q64 -160 293 -160q231 0 294 172q17 48 17 174v875h270v-924q0 -148 -22 -223q-22 -72 -66 -129.5t-100 -95.5t-124.5 -63.5t-138.5 -36.5t-143 -11q-92 0 -177 19t-161 58.5t-133 107t-82 157.5 q-7 22 -11 45.5t-5.5 54t-2 46zM422 1583l207 250h239l215 -250h-247l-86 115l-88 -115h-240z" />
<glyph unicode="&#xdc;" horiz-adv-x="1492" d="M163.5 450.5q-0.5 15.5 0 55t0.5 47.5v893h272v-924q0 -87 19 -137q64 -160 293 -160q231 0 294 172q17 48 17 174v875h270v-924q0 -148 -22 -223q-22 -72 -66 -129.5t-100 -95.5t-124.5 -63.5t-138.5 -36.5t-143 -11q-92 0 -177 19t-161 58.5t-133 107t-82 157.5 q-7 22 -11 45.5t-5.5 54t-2 46zM426 1581v252h231v-252h-231zM836 1581v252h233v-252h-233z" />
<glyph unicode="&#xdd;" horiz-adv-x="1280" d="M20 1446h308l313 -598l315 598h304l-488 -875v-571h-268v571zM526 1587l109 246h295l-221 -246h-183z" />
<glyph unicode="&#xde;" horiz-adv-x="1280" d="M168 0v1446h270v-205h217q81 0 139.5 -5.5t125 -23t122 -54.5t101.5 -95q100 -124 100 -295t-80 -289q-40 -59 -92.5 -98t-115 -59t-122.5 -27.5t-135 -7.5h-260v-287h-270zM438 508h195q57 0 95 3.5t83 16t77 42t52 75.5q25 57 25 127q0 82 -35 133q-46 67 -113 86 t-172 19h-207v-502z" />
<glyph unicode="&#xdf;" d="M133 0v1083q0 188 123.5 287.5t316.5 99.5q64 0 127.5 -14.5t123 -44t105 -71.5t72.5 -101.5t27 -128.5q0 -92 -49 -162t-137 -102q74 -32 104 -58q69 -56 101 -146.5t32 -192.5q0 -207 -108.5 -336t-311.5 -129q-110 0 -188 32v238q39 -25 69 -35t72 -10q99 0 154 77 t55 181q0 146 -83.5 214.5t-229.5 68.5q-6 0 -18.5 -1t-18.5 -1v184q40 -4 64 -4q87 0 150 44t63 128q0 72 -50 111.5t-125 39.5q-192 0 -192 -227v-51v-973h-248z" />
<glyph unicode="&#xe0;" horiz-adv-x="1110" d="M53 297q0 103 64 186q20 26 43.5 47t52.5 36.5t52 26t60 20.5t58 14.5t64 13t61 12.5q119 25 225 58q0 62 -18 90q-43 63 -156 63q-209 0 -209 -153l-250 14q0 67 37 143q95 187 408 187q332 0 411 -174q23 -49 23 -150v-588q0 -46 9 -74t36 -69h-291q-4 54 -4 80 q-57 -48 -141.5 -76.5t-161.5 -28.5q-155 0 -264 85.5t-109 236.5zM303 1446h303l107 -272h-185zM313 307q0 -63 49 -92t117 -29q63 0 118.5 18.5t95.5 63.5t40 109v133q-65 -30 -135 -45q-17 -4 -64 -12t-79 -15t-67.5 -23.5t-51.5 -39.5q-23 -33 -23 -68z" />
<glyph unicode="&#xe1;" horiz-adv-x="1110" d="M53 297q0 103 64 186q20 26 43.5 47t52.5 36.5t52 26t60 20.5t58 14.5t64 13t61 12.5q119 25 225 58q0 62 -18 90q-43 63 -156 63q-209 0 -209 -153l-250 14q0 67 37 143q95 187 408 187q332 0 411 -174q23 -49 23 -150v-588q0 -46 9 -74t36 -69h-291q-4 54 -4 80 q-57 -48 -141.5 -76.5t-161.5 -28.5q-155 0 -264 85.5t-109 236.5zM313 307q0 -63 49 -92t117 -29q63 0 118.5 18.5t95.5 63.5t40 109v133q-65 -30 -135 -45q-17 -4 -64 -12t-79 -15t-67.5 -23.5t-51.5 -39.5q-23 -33 -23 -68zM449 1174l102 272h303l-221 -272h-184z" />
<glyph unicode="&#xe2;" horiz-adv-x="1110" d="M53 297q0 103 64 186q20 26 43.5 47t52.5 36.5t52 26t60 20.5t58 14.5t64 13t61 12.5q119 25 225 58q0 62 -18 90q-43 63 -156 63q-209 0 -209 -153l-250 14q0 67 37 143q95 187 408 187q332 0 411 -174q23 -49 23 -150v-588q0 -46 9 -74t36 -69h-291q-4 54 -4 80 q-57 -48 -141.5 -76.5t-161.5 -28.5q-155 0 -264 85.5t-109 236.5zM207 1171l227 275h242l227 -275h-250l-98 138l-100 -138h-248zM313 307q0 -63 49 -92t117 -29q63 0 118.5 18.5t95.5 63.5t40 109v133q-65 -30 -135 -45q-17 -4 -64 -12t-79 -15t-67.5 -23.5t-51.5 -39.5 q-23 -33 -23 -68z" />
<glyph unicode="&#xe3;" horiz-adv-x="1110" d="M53 297q0 103 64 186q20 26 43.5 47t52.5 36.5t52 26t60 20.5t58 14.5t64 13t61 12.5q119 25 225 58q0 62 -18 90q-43 63 -156 63q-209 0 -209 -153l-250 14q0 67 37 143q95 187 408 187q332 0 411 -174q23 -49 23 -150v-588q0 -46 9 -74t36 -69h-291q-4 54 -4 80 q-57 -48 -141.5 -76.5t-161.5 -28.5q-155 0 -264 85.5t-109 236.5zM197 1196q5 49 19 92t38 81.5t64.5 61.5t91.5 23q58 0 154 -38t134 -38q18 0 30.5 4t21.5 16.5t12 19t12 28.5h158v-8q0 -12 -12 -66q-50 -178 -195 -178q-59 0 -158 40t-139 40q-29 0 -49.5 -24t-22.5 -54 h-159zM313 307q0 -63 49 -92t117 -29q63 0 118.5 18.5t95.5 63.5t40 109v133q-65 -30 -135 -45q-17 -4 -64 -12t-79 -15t-67.5 -23.5t-51.5 -39.5q-23 -33 -23 -68z" />
<glyph unicode="&#xe4;" horiz-adv-x="1110" d="M53 297q0 103 64 186q20 26 43.5 47t52.5 36.5t52 26t60 20.5t58 14.5t64 13t61 12.5q119 25 225 58q0 62 -18 90q-43 63 -156 63q-209 0 -209 -153l-250 14q0 67 37 143q95 187 408 187q332 0 411 -174q23 -49 23 -150v-588q0 -46 9 -74t36 -69h-291q-4 54 -4 80 q-57 -48 -141.5 -76.5t-161.5 -28.5q-155 0 -264 85.5t-109 236.5zM221 1202v244h230v-244h-230zM313 307q0 -63 49 -92t117 -29q63 0 118.5 18.5t95.5 63.5t40 109v133q-65 -30 -135 -45q-17 -4 -64 -12t-79 -15t-67.5 -23.5t-51.5 -39.5q-23 -33 -23 -68zM631 1202v244 h233v-244h-233z" />
<glyph unicode="&#xe5;" horiz-adv-x="1110" d="M53 297q0 103 64 186q20 26 43.5 47t52.5 36.5t52 26t60 20.5t58 14.5t64 13t61 12.5q119 25 225 58q0 62 -18 90q-43 63 -156 63q-209 0 -209 -153l-250 14q0 67 37 143q95 187 408 187q332 0 411 -174q23 -49 23 -150v-588q0 -46 9 -74t36 -69h-291q-4 54 -4 80 q-57 -48 -141.5 -76.5t-161.5 -28.5q-155 0 -264 85.5t-109 236.5zM313 307q0 -63 49 -92t117 -29q63 0 118.5 18.5t95.5 63.5t40 109v133q-65 -30 -135 -45q-17 -4 -64 -12t-79 -15t-67.5 -23.5t-51.5 -39.5q-23 -33 -23 -68zM334 1356q0 86 62 146.5t147 60.5 q86 0 147.5 -60.5t61.5 -146.5t-61.5 -147.5t-147.5 -61.5t-147.5 61.5t-61.5 147.5zM457 1354q0 -35 25.5 -60.5t60.5 -25.5q34 0 60 26t26 60q0 35 -25.5 60.5t-60.5 25.5q-38 0 -62 -24.5t-24 -61.5z" />
<glyph unicode="&#xe6;" horiz-adv-x="1792" d="M59 274q0 64 20 115.5t56 86.5t80 61.5t99.5 44.5t106.5 30.5t108 24.5q33 7 49 10q73 15 167 49q-1 8 -2 24t-2.5 25.5t-4.5 22.5t-9 23q-46 86 -172 86q-87 0 -147 -41.5t-60 -124.5h-237q13 174 126.5 259t294.5 85q182 0 281 -68q10 -6 21 -15t18 -15.5t19 -18 t18 -16.5q81 73 155 103t181 30q129 0 228 -46t159.5 -128t90.5 -187t30 -229h-748q12 -128 82.5 -202.5t194.5 -74.5q44 0 78 9t64 30.5t50 42t53 58.5l197 -119q-100 -122 -214 -181t-267 -59q-104 0 -204.5 39.5t-174.5 112.5q-172 -152 -387 -152q-118 0 -200.5 27.5 t-141.5 107.5q-56 75 -56 170zM319 285q0 -68 53 -101.5t126 -33.5t132.5 37t88.5 104q26 61 26 201l-16 -9q-33 -12 -66 -20.5t-89 -19t-68 -13.5q-31 -6 -51 -11t-48.5 -17t-45.5 -26t-29.5 -37.5t-12.5 -53.5zM987 641h455q-18 95 -78 155t-152 60q-94 0 -155.5 -60.5 t-69.5 -154.5z" />
<glyph unicode="&#xe7;" horiz-adv-x="1024" d="M49 512q0 148 64.5 271.5t183.5 197.5t268 74t267 -77.5t176 -213.5l-220 -102q-27 81 -88 127.5t-145 46.5q-63 0 -113 -27.5t-79.5 -73.5t-44.5 -101t-15 -116q0 -84 26.5 -154t87 -117.5t146.5 -47.5q96 0 150 50.5t96 149.5l209 -110q-28 -83 -84 -148 q-66 -79 -138.5 -113t-189.5 -55l-53 -67q36 0 68.5 -5.5t65.5 -19t53 -40t20 -64.5q0 -32 -13.5 -57.5t-33 -41.5t-50.5 -28t-58 -17.5t-63.5 -9t-58 -4t-51.5 -0.5q-49 0 -74 2v64q6 -2 23 -2q141 0 141 51q0 52 -126 51h-7q-29 0 -43 -4v31l158 161q-128 23 -197 60 q-126 69 -192 198.5t-66 280.5z" />
<glyph unicode="&#xe8;" d="M70 512q0 151 49 260q63 137 184.5 210t276.5 73q130 0 241 -52.5t174 -156.5q45 -72 68.5 -178.5t23.5 -204.5h-757q22 -123 96 -188.5t195 -65.5q175 0 266 141l209 -121q-69 -82 -92 -104q-82 -76 -188 -116t-220 -40q-239 0 -382.5 152t-143.5 391zM283 1446h303 l104 -272h-182zM338 643h479q-16 102 -72.5 158.5t-156.5 56.5q-163 0 -230 -145q-17 -38 -20 -70z" />
<glyph unicode="&#xe9;" d="M70 512q0 151 49 260q63 137 184.5 210t276.5 73q130 0 241 -52.5t174 -156.5q45 -72 68.5 -178.5t23.5 -204.5h-757q22 -123 96 -188.5t195 -65.5q175 0 266 141l209 -121q-69 -82 -92 -104q-82 -76 -188 -116t-220 -40q-239 0 -382.5 152t-143.5 391zM338 643h479 q-16 102 -72.5 158.5t-156.5 56.5q-163 0 -230 -145q-17 -38 -20 -70zM469 1174l102 272h306l-222 -272h-186z" />
<glyph unicode="&#xea;" d="M70 512q0 151 49 260q63 137 184.5 210t276.5 73q130 0 241 -52.5t174 -156.5q45 -72 68.5 -178.5t23.5 -204.5h-757q22 -123 96 -188.5t195 -65.5q175 0 266 141l209 -121q-69 -82 -92 -104q-82 -76 -188 -116t-220 -40q-239 0 -382.5 152t-143.5 391zM227 1171l228 275 h241l230 -275h-252l-96 138l-103 -138h-248zM338 643h479q-16 102 -72.5 158.5t-156.5 56.5q-163 0 -230 -145q-17 -38 -20 -70z" />
<glyph unicode="&#xeb;" d="M70 512q0 151 49 260q63 137 184.5 210t276.5 73q130 0 241 -52.5t174 -156.5q45 -72 68.5 -178.5t23.5 -204.5h-757q22 -123 96 -188.5t195 -65.5q175 0 266 141l209 -121q-69 -82 -92 -104q-82 -76 -188 -116t-220 -40q-239 0 -382.5 152t-143.5 391zM256 1202v244h231 v-244h-231zM338 643h479q-16 102 -72.5 158.5t-156.5 56.5q-163 0 -230 -145q-17 -38 -20 -70zM666 1202v244h233v-244h-233z" />
<glyph unicode="&#xec;" horiz-adv-x="512" d="M-39 1446h303l107 -272h-183zM133 0v1024h244v-1024h-244z" />
<glyph unicode="&#xed;" horiz-adv-x="512" d="M133 0v1024h244v-1024h-244zM150 1174l102 272h303l-221 -272h-184z" />
<glyph unicode="&#xee;" horiz-adv-x="512" d="M-92 1171l227 275h242l227 -275h-250l-96 138l-102 -138h-248zM133 0v1024h244v-1024h-244z" />
<glyph unicode="&#xef;" horiz-adv-x="512" d="M-63 1202v244h229v-244h-229zM133 0v1024h244v-1024h-244zM346 1202v244h234v-244h-234z" />
<glyph unicode="&#xf0;" horiz-adv-x="1193" d="M72 522q0 105 35.5 202t98 171t156 118t201.5 44q66 0 112.5 -17.5t96.5 -60.5q-25 105 -102 205l-334 -90l-39 108l293 80q-16 16 -49 48t-49 48l229 99q19 -17 38 -37.5t43 -48.5t36 -41l188 51l41 -109l-156 -43q106 -171 160.5 -331t54.5 -340q0 -103 -19 -193 t-60.5 -167t-102.5 -132t-148.5 -86t-195.5 -31q-240 0 -384 156t-144 397zM328 518q0 -132 74.5 -227.5t203.5 -95.5q126 0 194 91.5t68 221.5q0 86 -30 159t-94.5 120t-151.5 47q-127 0 -195.5 -92t-68.5 -224z" />
<glyph unicode="&#xf1;" d="M129 0v1024h248v-121q54 74 138 113t179 39q105 0 187 -49q48 -29 78.5 -68.5t44 -91.5t17 -94.5t3.5 -108.5v-643h-242v580q0 49 -8.5 88.5t-28 74t-56 53.5t-87.5 19q-66 0 -119 -39q-63 -49 -84.5 -117.5t-21.5 -164.5v-494h-248zM217 1196q14 81 21 102 q25 68 74.5 112t117.5 44q56 0 153.5 -38t135.5 -38q18 0 30.5 4t21.5 16.5t12 19t12 28.5h159l-2 -8q-3 -10 -6 -32.5t-6 -33.5q-50 -178 -192 -178q-58 0 -158 40t-141 40q-32 0 -47 -21t-25 -57h-160z" />
<glyph unicode="&#xf2;" horiz-adv-x="1193" d="M72 516q0 235 147 387t381 152q231 0 377.5 -156.5t146.5 -390.5q0 -233 -145.5 -386t-378.5 -153q-154 0 -275.5 72.5t-187 197t-65.5 277.5zM303 1446h303l107 -272h-185zM328 518q0 -132 74.5 -227.5t203.5 -95.5q126 0 194 91.5t68 221.5q0 86 -30 158.5t-94.5 120 t-151.5 47.5q-126 0 -195 -92.5t-69 -223.5z" />
<glyph unicode="&#xf3;" horiz-adv-x="1193" d="M72 516q0 235 147 387t381 152q231 0 377.5 -156.5t146.5 -390.5q0 -233 -145.5 -386t-378.5 -153q-154 0 -275.5 72.5t-187 197t-65.5 277.5zM328 518q0 -132 74.5 -227.5t203.5 -95.5q126 0 194 91.5t68 221.5q0 86 -30 158.5t-94.5 120t-151.5 47.5q-126 0 -195 -92.5 t-69 -223.5zM492 1174l102 272h303l-221 -272h-184z" />
<glyph unicode="&#xf4;" horiz-adv-x="1193" d="M72 516q0 235 147 387t381 152q231 0 377.5 -156.5t146.5 -390.5q0 -233 -145.5 -386t-378.5 -153q-154 0 -275.5 72.5t-187 197t-65.5 277.5zM250 1171l227 275h242l227 -275h-250l-98 138l-100 -138h-248zM328 518q0 -132 74.5 -227.5t203.5 -95.5q126 0 194 91.5 t68 221.5q0 86 -30 158.5t-94.5 120t-151.5 47.5q-126 0 -195 -92.5t-69 -223.5z" />
<glyph unicode="&#xf5;" horiz-adv-x="1193" d="M72 516q0 235 147 387t381 152q231 0 377.5 -156.5t146.5 -390.5q0 -233 -145.5 -386t-378.5 -153q-154 0 -275.5 72.5t-187 197t-65.5 277.5zM240 1196q5 49 19 92t38 81.5t64.5 61.5t91.5 23q56 0 152.5 -38t133.5 -38q19 0 31.5 4t21.5 15.5t13 19.5t12 29h158l-2 -8 q-3 -12 -7.5 -37.5t-7.5 -38.5q-22 -76 -69 -122t-121 -46q-59 0 -158 40t-139 40q-30 0 -50 -23.5t-22 -54.5h-159zM328 518q0 -132 74.5 -227.5t203.5 -95.5q126 0 194 91.5t68 221.5q0 86 -30 158.5t-94.5 120t-151.5 47.5q-126 0 -195 -92.5t-69 -223.5z" />
<glyph unicode="&#xf6;" horiz-adv-x="1193" d="M72 516q0 235 147 387t381 152q231 0 377.5 -156.5t146.5 -390.5q0 -233 -145.5 -386t-378.5 -153q-154 0 -275.5 72.5t-187 197t-65.5 277.5zM281 1202v244h231v-244h-231zM328 518q0 -132 74.5 -227.5t203.5 -95.5q126 0 194 91.5t68 221.5q0 86 -30 158.5t-94.5 120 t-151.5 47.5q-126 0 -195 -92.5t-69 -223.5zM690 1202v244h234v-244h-234z" />
<glyph unicode="&#xf7;" horiz-adv-x="1482" d="M162 526v230h1159v-230h-1159zM616 127v274h248v-274h-248zM616 879v276h250v-276h-250z" />
<glyph unicode="&#xf8;" horiz-adv-x="1193" d="M18 162l115 92q-39 71 -55.5 130.5t-16.5 139.5q0 142 70.5 270.5t192.5 194.5q124 66 276 66q106 0 190 -34t168 -106l105 84l94 -114l-115 -90q41 -73 59.5 -137.5t18.5 -145.5q0 -150 -67.5 -281.5t-192.5 -197.5q-120 -64 -280 -64q-120 0 -197.5 35t-165.5 123 l-108 -86zM303 518q0 -65 16 -117l459 369q-31 41 -83 62.5t-109 21.5q-53 0 -107 -23q-91 -39 -133.5 -119.5t-42.5 -185.5v-8zM393 272q46 -50 93 -75t110 -25q131 0 207 97.5t76 232.5q0 69 -25 139z" />
<glyph unicode="&#xf9;" horiz-adv-x="1193" d="M127 354v670h248v-582q0 -85 19 -134.5t83 -80.5q41 -20 96 -20q91 0 148 51q33 29 53.5 63.5t28 80.5t9 76t1.5 87v25v434h246v-1024h-246v106q-76 -69 -153.5 -100t-178.5 -31q-182 0 -268 99t-86 280zM303 1446h303l107 -272h-185z" />
<glyph unicode="&#xfa;" horiz-adv-x="1193" d="M127 354v670h248v-582q0 -85 19 -134.5t83 -80.5q41 -20 96 -20q91 0 148 51q33 29 53.5 63.5t28 80.5t9 76t1.5 87v25v434h246v-1024h-246v106q-76 -69 -153.5 -100t-178.5 -31q-182 0 -268 99t-86 280zM492 1174l102 272h303l-221 -272h-184z" />
<glyph unicode="&#xfb;" horiz-adv-x="1193" d="M127 354v670h248v-582q0 -85 19 -134.5t83 -80.5q41 -20 96 -20q91 0 148 51q33 29 53.5 63.5t28 80.5t9 76t1.5 87v25v434h246v-1024h-246v106q-76 -69 -153.5 -100t-178.5 -31q-182 0 -268 99t-86 280zM250 1171l227 275h242l227 -275h-250l-98 138l-100 -138h-248z " />
<glyph unicode="&#xfc;" horiz-adv-x="1193" d="M127 354v670h248v-582q0 -85 19 -134.5t83 -80.5q41 -20 96 -20q91 0 148 51q33 29 53.5 63.5t28 80.5t9 76t1.5 87v25v434h246v-1024h-246v106q-76 -69 -153.5 -100t-178.5 -31q-182 0 -268 99t-86 280zM274 1202v244h230v-244h-230zM684 1202v244h234v-244h-234z" />
<glyph unicode="&#xfd;" horiz-adv-x="980" d="M25 1024h264l229 -764l193 764h252l-261 -893q-5 -17 -22 -80t-28.5 -98.5t-31.5 -87.5t-44.5 -89.5t-53.5 -62.5q-45 -39 -97.5 -52t-125.5 -13q-87 0 -137 14v213q4 0 27.5 -3t37.5 -3q67 0 108.5 25.5t59.5 85.5zM385 1174l102 272h304l-222 -272h-184z" />
<glyph unicode="&#xfe;" horiz-adv-x="1193" d="M131 -334v1780h246v-514q62 63 127 93t151 30q88 0 164.5 -30.5t131 -83t94 -123t58.5 -150.5t19 -164q0 -83 -19.5 -161.5t-58.5 -146t-94 -118.5t-130.5 -80t-162.5 -29q-84 0 -149.5 28t-130.5 87v-418h-246zM373 508q0 -79 26 -146.5t84.5 -113t139.5 -45.5 q64 0 112.5 26.5t77 71t43 98.5t14.5 115q0 81 -26.5 148.5t-85.5 112t-140 44.5t-138 -47t-82 -115.5t-25 -148.5z" />
<glyph unicode="&#xff;" horiz-adv-x="980" d="M25 1024h264l229 -764l193 764h252l-261 -893q-5 -17 -22 -80t-28.5 -98.5t-31.5 -87.5t-44.5 -89.5t-53.5 -62.5q-45 -39 -97.5 -52t-125.5 -13q-87 0 -137 14v213q4 0 27.5 -3t37.5 -3q67 0 108.5 25.5t59.5 85.5zM172 1202v244h229v-244h-229zM582 1202v244h233v-244 h-233z" />
<glyph unicode="&#x152;" horiz-adv-x="2260" d="M96 698q0 154 48.5 295.5t136 250.5t220.5 174t290 65h6q92 0 163 -23.5t168 -75.5v62h1033v-246h-764v-346h665v-233h-665v-377h809v-244h-1078v51q-99 -47 -175 -67.5t-175 -20.5q-153 0 -282.5 59t-216 159.5t-135 234t-48.5 282.5zM385 684q0 -133 50 -241 t150.5 -174t235.5 -66q79 0 152.5 26t116.5 80q38 51 38 76v545q0 110 -14 141q-33 71 -123.5 113.5t-177.5 42.5q-106 0 -190 -44.5t-134.5 -119.5t-77 -167t-26.5 -194v-18z" />
<glyph unicode="&#x153;" horiz-adv-x="1878" d="M70 496q0 143 47 256q60 142 184 222.5t279 80.5q103 0 199.5 -40t160.5 -114q84 76 170 115t190 39q173 0 301.5 -97.5t178.5 -263.5q6 -19 10 -41t7 -37.5t5.5 -43t3.5 -37t3.5 -43t2.5 -39.5h-735q16 -117 84.5 -191t181.5 -74q76 0 140 37.5t108 102.5l199 -119 q-88 -123 -201.5 -181.5t-265.5 -58.5q-96 0 -167 25.5t-140 87.5q-47 43 -64 74q-142 -187 -366 -187q-147 0 -238 43q-137 63 -207.5 193.5t-70.5 290.5zM317 506q0 -129 69 -221t194 -92q127 0 194.5 88.5t67.5 220.5q0 62 -16.5 119t-48.5 103t-84 73.5t-118 27.5 q-86 0 -146 -47.5t-86 -117.5t-26 -154zM1077 627h451q-53 215 -225 215q-94 0 -151 -58.5t-75 -156.5z" />
<glyph unicode="&#x178;" horiz-adv-x="1280" d="M20 1446h308l313 -598l315 598h304l-488 -875v-571h-268v571zM322 1581v252h229v-252h-229zM731 1581v252h234v-252h-234z" />
<glyph unicode="&#x2c6;" horiz-adv-x="555" d="M-72 1171l228 275h241l230 -275h-252l-96 138l-103 -138h-248z" />
<glyph unicode="&#x2dc;" horiz-adv-x="555" d="M-92 1196q3 11 8 46.5t12 55.5q25 68 75 112t118 44q56 0 153.5 -38t135.5 -38q17 0 29 4t20 13.5t12 18t11 24.5q2 5 3 8h162l-2 -8q-3 -10 -6 -32.5t-6 -33.5q-50 -178 -193 -178q-60 0 -159 40t-140 40q-22 0 -37 -13t-21.5 -27.5t-12.5 -37.5h-162z" />
<glyph unicode="&#x2000;" horiz-adv-x="986" />
<glyph unicode="&#x2001;" horiz-adv-x="1972" />
<glyph unicode="&#x2002;" horiz-adv-x="986" />
<glyph unicode="&#x2003;" horiz-adv-x="1972" />
<glyph unicode="&#x2004;" horiz-adv-x="657" />
<glyph unicode="&#x2005;" horiz-adv-x="493" />
<glyph unicode="&#x2006;" horiz-adv-x="328" />
<glyph unicode="&#x2007;" horiz-adv-x="328" />
<glyph unicode="&#x2008;" horiz-adv-x="246" />
<glyph unicode="&#x2009;" horiz-adv-x="394" />
<glyph unicode="&#x200a;" horiz-adv-x="109" />
<glyph unicode="&#x2010;" horiz-adv-x="761" d="M84 506v231h592v-231h-592z" />
<glyph unicode="&#x2011;" horiz-adv-x="761" d="M84 506v231h592v-231h-592z" />
<glyph unicode="&#x2012;" horiz-adv-x="761" d="M84 506v231h592v-231h-592z" />
<glyph unicode="&#x2013;" horiz-adv-x="1249" d="M84 506v231h1081v-231h-1081z" />
<glyph unicode="&#x2014;" horiz-adv-x="1828" d="M84 506v231h1661v-231h-1661z" />
<glyph unicode="&#x2018;" horiz-adv-x="425" d="M74 887v307q0 61 8 86q23 73 94.5 118.5t153.5 53.5v-121q-64 -7 -87.5 -50t-23.5 -114h127v-280h-272z" />
<glyph unicode="&#x2019;" horiz-adv-x="425" d="M80 1165v281h268v-305q0 -112 -70 -179t-184 -83v114q60 27 84.5 53.5t24.5 86.5q0 22 -2 32h-121z" />
<glyph unicode="&#x201a;" horiz-adv-x="425" d="M76 0v281h272v-301v-9q0 -105 -55.5 -162t-165.5 -85q-16 -3 -35 -9v119q64 7 87.5 51t23.5 115h-127z" />
<glyph unicode="&#x201c;" horiz-adv-x="768" d="M76 893v297q0 123 60 185.5t188 88.5v-114q-32 -13 -51 -25t-30.5 -23t-16.5 -32t-6 -38.5t-1 -55.5h123v-283h-266zM426 893v311q0 69 18 113t68 82q67 50 166 57v-108q-75 -29 -94 -58t-19 -114h127v-283h-266z" />
<glyph unicode="&#x201d;" horiz-adv-x="768" d="M76 1161v285h266v-318q0 -66 -18.5 -108.5t-67.5 -79.5q-77 -60 -166 -57v108q58 15 85.5 49t27.5 93q0 5 -1 14t-1 14h-125zM426 1161v285h266v-293q0 -126 -60.5 -191.5t-189.5 -89.5v115q31 10 51 22t31.5 24.5t17 34.5t6.5 40t1 53h-123z" />
<glyph unicode="&#x201e;" horiz-adv-x="768" d="M76 0v285h266v-299q0 -82 -12 -113q-27 -68 -96 -111t-144 -43v109q113 29 113 143q0 5 -1 14.5t-1 14.5h-125zM426 0v285h266v-295q0 -126 -60 -191.5t-190 -89.5v115q58 20 82.5 48.5t24.5 84.5v43h-123z" />
<glyph unicode="&#x2022;" horiz-adv-x="681" d="M96 477v488h490v-488h-490z" />
<glyph unicode="&#x2026;" horiz-adv-x="2048" d="M225 0v227h230v-227h-230zM909 0v227h230v-227h-230zM1591 0v227h232v-227h-232z" />
<glyph unicode="&#x202f;" horiz-adv-x="394" />
<glyph unicode="&#x2039;" horiz-adv-x="512" d="M115 500v288l291 234v-234l-177 -145l177 -143v-230z" />
<glyph unicode="&#x203a;" horiz-adv-x="512" d="M102 264v232l177 147l-177 141v232l291 -232v-288z" />
<glyph unicode="&#x205f;" horiz-adv-x="493" />
<glyph unicode="&#x20ac;" horiz-adv-x="1429" d="M68 516l55 148h88l4 81h-147l55 148h108q58 252 233 391t433 139q144 0 252 -33t213 -118l-94 -273q-74 96 -157 140.5t-200 44.5q-145 0 -246 -76t-139 -215h707l-55 -148h-672q-2 -12 -2 -38q0 -29 2 -43h647l-55 -148h-574q42 -150 142 -229.5t254 -79.5 q114 0 219 47.5t180 132.5v-305q-183 -125 -430 -125q-271 0 -438.5 145t-223.5 414h-159z" />
<glyph unicode="&#x2122;" horiz-adv-x="1406" d="M16 1327v119h521v-119h-181v-561h-147v561h-193zM621 766l2 680h217l116 -477l113 477h215l2 -680h-135l2 539l-139 -539h-119l-143 547l8 -547h-139z" />
<glyph unicode="&#xe000;" horiz-adv-x="1024" d="M0 0v1024h1024v-1024h-1024z" />
<glyph unicode="&#xfb01;" d="M8 850v174h154v139q0 86 19.5 142t63 87.5t102 43.5t145.5 12q61 0 139 -10v-209q-27 6 -80 6q-31 0 -54 -4.5t-38 -13t-25.5 -20.5t-15.5 -27.5t-7.5 -34t-2.5 -39v-43.5v-15.5v-13.5h223v-174h-223v-850h-246v850h-154zM772 0v1024h246v-1024h-246zM772 1184v248h246 v-248h-246z" />
<glyph unicode="&#xfb02;" d="M8 850v174h154v139q0 86 19.5 142t63 87.5t102 43.5t145.5 12q61 0 139 -10v-209q-27 6 -80 6q-31 0 -54 -4.5t-38 -13t-25.5 -20.5t-15.5 -27.5t-7.5 -34t-2.5 -39v-43.5v-15.5v-13.5h223v-174h-223v-850h-246v850h-154zM774 0v1446h248v-1446h-248z" />
</font>
</defs>
</svg>
