<?xml version="1.0" standalone="no"?>
<!DOCTYPE svg PUBLIC "-//W3C//DTD SVG 1.1//EN" "http://www.w3.org/Graphics/SVG/1.1/DTD/svg11.dtd" >
<svg xmlns="http://www.w3.org/2000/svg">
<metadata></metadata>
<defs>
<font id="nissanag_lightextitalregular" horiz-adv-x="1449" >
<font-face units-per-em="2048" ascent="1638" descent="-410" />
<missing-glyph horiz-adv-x="716" />
<glyph horiz-adv-x="2048" />
<glyph horiz-adv-x="2048" />
<glyph unicode="&#xd;" horiz-adv-x="2048" />
<glyph unicode=" "  horiz-adv-x="716" />
<glyph unicode="&#x09;" horiz-adv-x="716" />
<glyph unicode="&#xa0;" horiz-adv-x="716" />
<glyph unicode="!" horiz-adv-x="641" d="M152 0l47 203h157l-47 -203h-157zM276 410l78 438l138 598h145l-137 -596l-129 -440h-95z" />
<glyph unicode="&#x22;" horiz-adv-x="710" d="M170 928l82 596h180l-190 -596h-72zM555 928l82 596h182l-190 -596h-74z" />
<glyph unicode="#" horiz-adv-x="1572" d="M59 530l27 111h422l57 199h-413l26 116h420l143 490h129l-147 -490h297l141 490h123l-145 -490h391l-29 -116h-395l-59 -199h391l-27 -111h-395l-156 -530h-127l162 530h-299l-162 -530h-119l158 530h-414zM629 641h297l59 199h-297z" />
<glyph unicode="$" horiz-adv-x="1662" d="M-20 422l153 45q26 -86 56 -135t81 -92q60 -48 131 -78q91 -39 224 -60l141 613q-109 23 -211 47q-133 35 -180 63q-154 88 -154 252q0 190 171.5 296t477.5 106q41 0 74 -2l29 127h127l-33 -142q111 -15 242 -71q171 -70 276 -234l-131 -67q-76 118 -190 176 q-107 56 -226 77l-120 -520q208 -46 260 -61q90 -25 151 -60q78 -45 121 -114.5t43 -155.5q0 -89 -35.5 -167.5t-101.5 -133.5q-100 -86 -246 -124t-379 -38h-10l-29 -127h-131l33 138q-133 22 -215 49t-158 75q-98 61 -149.5 129.5t-91.5 188.5zM362 1094q0 -99 76 -144 q43 -25 99 -41q73 -19 260 -59l121 512q-18 0 -39 1t-31 1q-220 0 -353 -74t-133 -196zM750 92q162 2 262 23q123 25 207 75q63 38 96 97.5t33 132.5q0 124 -113 174q-50 24 -100 37q-107 32 -248 57z" />
<glyph unicode="%" horiz-adv-x="2217" d="M78 903q0 139 61.5 256.5t167.5 185.5t232 68q175 0 283 -108t108 -283q0 -217 -134.5 -363.5t-332.5 -146.5q-170 0 -277.5 109t-107.5 282zM182 909q0 -138 80 -223.5t209 -85.5q153 0 253.5 121t100.5 305q0 135 -78 217t-206 82q-154 0 -256.5 -119t-102.5 -297z M520 0l1041 1409h122l-1040 -1409h-123zM1266 381q0 139 61 256.5t167 185.5t232 68q175 0 283.5 -109t108.5 -284q0 -215 -134.5 -361.5t-332.5 -146.5q-171 0 -278 108.5t-107 282.5zM1372 385q0 -138 79 -223.5t208 -85.5q153 0 253.5 121.5t100.5 304.5q0 135 -77.5 218 t-206.5 83q-154 0 -255.5 -119t-101.5 -299z" />
<glyph unicode="&#x26;" horiz-adv-x="1579" d="M8 328q0 71 17.5 123.5t58.5 103.5q41 52 90.5 88t126.5 70q84 39 240 88q-107 150 -107 280q0 151 105 244.5t274 93.5q147 0 238.5 -77t91.5 -201q0 -110 -82 -201q-42 -51 -107 -92q-49 -29 -82 -44.5t-131 -55.5q84 -117 148 -199q84 -105 182 -207l12 14 q88 105 131 191q49 96 86 217l132 -2q-42 -154 -121 -293q-76 -130 -152 -209l29 -22q78 -62 128.5 -87t121.5 -32l-23 -123q-54 0 -108 12q-66 17 -133 62q-59 37 -125 96q-247 -203 -566 -203q-217 0 -346 99t-129 266zM158 348q0 -122 91.5 -193t248.5 -71q98 0 199.5 28 t185.5 78q24 15 82 58q-62 62 -99.5 106t-120.5 150q-66 84 -139 196q-147 -47 -241 -88q-109 -50 -158 -112.5t-49 -151.5zM573 1102q0 -54 21 -103q19 -51 84 -153q15 5 35.5 12t27.5 10q140 56 203 119q68 71 68 156q0 72 -59 118t-152 46q-106 0 -167 -55t-61 -150z" />
<glyph unicode="'" horiz-adv-x="323" d="M170 928l82 596h180l-190 -596h-72z" />
<glyph unicode="(" horiz-adv-x="724" d="M86 319q0 139 33 291q32 138 99.5 277.5t156.5 255.5q82 104 186 192q65 55 115.5 88.5t144.5 85.5l53 -57q-45 -33 -59 -45q-261 -198 -395 -432q-182 -320 -182 -711q0 -180 57 -358.5t151 -292.5l-63 -55q-143 138 -220 336t-77 425z" />
<glyph unicode=")" horiz-adv-x="724" d="M-246 -369q52 35 62 43q252 189 393 435q184 315 184 710q0 180 -57.5 358t-151.5 291l62 56q143 -138 220 -336t77 -426q0 -148 -31 -291q-32 -137 -100 -277t-158 -255q-92 -114 -186 -193q-62 -52 -111.5 -84.5t-149.5 -89.5z" />
<glyph unicode="*" horiz-adv-x="731" d="M176 1268l45 80l201 -107l51 217l94 -22l-53 -222l234 23l12 -88l-240 -29l92 -211l-86 -37l-94 209l-164 -149l-61 72l166 153z" />
<glyph unicode="+" horiz-adv-x="1581" d="M160 541l28 121h535l113 485h122l-112 -485h536l-28 -121h-537l-112 -490h-123l112 490h-534z" />
<glyph unicode="," horiz-adv-x="555" d="M-27 -238l17 74q28 2 53 27q21 20 33 48t26 89h-77l47 203h153l-57 -244q-24 -108 -88 -156q-41 -32 -107 -41z" />
<glyph unicode="-" horiz-adv-x="747" d="M37 541l29 123h589l-26 -123h-592z" />
<glyph unicode="." horiz-adv-x="555" d="M25 0l47 203h157l-47 -203h-157z" />
<glyph unicode="/" horiz-adv-x="1024" d="M-90 0l1048 1446h144l-1047 -1446h-145z" />
<glyph unicode="0" horiz-adv-x="1492" d="M41 602q0 167 60.5 321t162.5 266t242.5 178.5t292.5 66.5q287 0 461 -173t174 -460q0 -122 -39.5 -249t-110.5 -235q-110 -167 -272 -255.5t-359 -88.5q-274 0 -443 174t-169 455zM188 588q0 -219 130.5 -355.5t340.5 -136.5q176 0 320 93.5t225.5 258.5t81.5 367 q0 226 -129 360t-346 134q-120 0 -207 -30.5t-170 -102.5q-112 -95 -179 -256t-67 -332z" />
<glyph unicode="1" horiz-adv-x="1492" d="M403 1016l31 123q73 2 112 6.5t91 19.5q100 31 162 86.5t119 167.5h94l-328 -1419h-139l256 1112q-79 -52 -163 -74t-200 -22h-35z" />
<glyph unicode="2" horiz-adv-x="1492" d="M-29 0l29 135q294 101 492 189q323 141 477 254q132 96 194 194t62 215q0 148 -116 239t-304 91q-137 0 -251.5 -50.5t-180.5 -140.5q-50 -69 -84 -202l-137 30q33 107 61 160q79 153 238 237.5t366 84.5q249 0 401 -122t152 -321q0 -148 -84.5 -280.5t-243.5 -233.5 q-207 -131 -487 -250q-138 -60 -342 -125l1020 13l-21 -117h-1241z" />
<glyph unicode="3" horiz-adv-x="1492" d="M23 406l145 32q21 -79 40.5 -118.5t59.5 -79.5q140 -146 412 -146q218 0 351.5 94.5t133.5 249.5q0 111 -80 172q-52 39 -119 51.5t-223 14.5l-168 2l25 119h162q61 0 102 2q107 3 161.5 16t102.5 45q47 32 75 83t28 106q0 118 -115.5 189t-306.5 71q-183 0 -301.5 -70.5 t-183.5 -216.5l-127 53q62 102 100 144q179 206 514 206q252 0 407.5 -101t155.5 -265q0 -126 -84 -212t-233 -114q119 -28 184.5 -102.5t65.5 -181.5q0 -209 -176.5 -339t-460.5 -130q-296 0 -471 137q-66 52 -104 111.5t-68 162.5z" />
<glyph unicode="4" horiz-adv-x="1492" d="M10 379l29 121l1089 923h152l-213 -923h305l-29 -121h-305l-88 -379h-137l88 379h-891zM221 500h709l174 755z" />
<glyph unicode="5" horiz-adv-x="1492" d="M10 399l148 29q10 -64 23 -98t40 -70q59 -77 169 -120.5t249 -43.5q248 0 399.5 117t151.5 309q0 156 -123 248t-332 92q-141 0 -253.5 -45.5t-217.5 -146.5l-129 10l219 727h1098l-27 -113h-974l-138 -454q107 76 210.5 108.5t240.5 32.5q262 0 414.5 -117.5 t152.5 -320.5q0 -252 -190.5 -407.5t-499.5 -155.5q-319 0 -491 159q-125 116 -140 260z" />
<glyph unicode="6" horiz-adv-x="1492" d="M88 528q0 187 62 355t168 288t253 190.5t312 70.5q144 0 269 -49.5t210 -139.5q36 -39 57.5 -72.5t53.5 -99.5l-142 -49q-30 62 -50.5 93t-53.5 63q-66 63 -162 98t-205 35q-230 0 -389 -152t-231 -442q39 59 82 92q172 131 450 131q268 0 439 -122.5t171 -313.5 q0 -152 -87 -272.5t-242.5 -188.5t-350.5 -68q-286 0 -450 148t-164 405zM248 449q0 -158 130.5 -252.5t350.5 -94.5q218 0 365 108.5t147 268.5q0 152 -133 243t-354 91q-232 0 -369 -98.5t-137 -265.5z" />
<glyph unicode="7" horiz-adv-x="1492" d="M180 1286l27 123h1233l-25 -102q-239 -168 -444 -392q-122 -134 -229 -293.5t-177 -312.5q-36 -78 -58 -137t-56 -172h-154q46 207 209 485q96 165 198.5 299t235.5 267q75 75 126.5 120t143.5 115h-1030z" />
<glyph unicode="8" horiz-adv-x="1492" d="M31 352q0 162 125 266q63 52 118 74q80 34 201 58q-124 25 -192 98t-68 182q0 183 167.5 294.5t442.5 111.5q262 0 419 -98.5t157 -262.5q0 -84 -45 -157q-46 -78 -122 -121.5t-212 -69.5q150 -31 232.5 -113.5t82.5 -203.5q0 -128 -86.5 -228.5t-241.5 -156.5t-352 -56 q-281 0 -453.5 106t-172.5 277zM176 375q0 -130 136 -207.5t362 -77.5q234 0 378 86t144 227q0 119 -137.5 193t-358.5 74q-247 0 -385.5 -78.5t-138.5 -216.5zM365 1051q0 -118 116.5 -184t323.5 -66q215 0 337 70.5t122 195.5q0 116 -120 185t-321 69q-218 0 -338 -71 t-120 -199z" />
<glyph unicode="9" horiz-adv-x="1492" d="M0 334l141 47q34 -66 53 -96t48 -62q123 -129 368 -129q476 0 625 592q-45 -55 -88 -88q-166 -131 -447 -131q-270 0 -440 120.5t-170 313.5q0 150 87.5 270.5t243 188t349.5 67.5q286 0 451 -147t165 -403q0 -245 -106 -465q-63 -132 -150 -222q-104 -112 -237.5 -165.5 t-308.5 -53.5q-314 0 -478 191q-33 39 -52.5 70.5t-53.5 101.5zM231 924q0 -149 133 -238.5t357 -89.5q232 0 368 97t136 261q0 158 -131 252t-351 94q-142 0 -259.5 -49t-185 -135.5t-67.5 -191.5z" />
<glyph unicode=":" horiz-adv-x="641" d="M111 0l47 203h157l-47 -203h-157zM295 797l47 202h158l-47 -202h-158z" />
<glyph unicode=";" horiz-adv-x="641" d="M59 -236l17 74q31 3 53 27q21 21 33.5 49.5t25.5 87.5h-77l45 203h153l-55 -244q-25 -117 -107 -168q-14 -9 -20.5 -13t-15 -7t-11.5 -3.5t-17 -2t-24 -3.5zM295 797l47 202h158l-47 -202h-158z" />
<glyph unicode="&#x3c;" horiz-adv-x="1581" d="M172 535l33 137l1225 495l-33 -141l-1078 -428l881 -416l-29 -127z" />
<glyph unicode="=" horiz-adv-x="1581" d="M115 354l28 119h1194l-28 -119h-1194zM201 717l28 119h1194l-28 -119h-1194z" />
<glyph unicode="&#x3e;" horiz-adv-x="1581" d="M117 57l33 142l1077 428l-883 415l29 125l999 -477l-31 -137z" />
<glyph unicode="?" d="M223 1038q123 235 281.5 338t396.5 103q240 0 376 -103t136 -286q0 -92 -40 -183t-109 -157q-77 -74 -193 -115q-65 -22 -199 -60q-69 -19 -112 -38q-29 -13 -43.5 -34t-26.5 -67l-3 -12q-3 -13 -5 -21h-127l8 35q21 95 64 144q51 60 172 92l75 20q196 54 277 119 q55 44 88 115t33 145q0 138 -106 213.5t-300 75.5q-157 0 -270 -72q-77 -47 -132.5 -113.5t-119.5 -187.5zM446 0l48 203h153l-47 -203h-154z" />
<glyph unicode="@" horiz-adv-x="1835" d="M37 475q0 200 78.5 382t211 313.5t316 209.5t385.5 78q311 0 500.5 -162.5t189.5 -429.5q0 -134 -44.5 -266t-116 -231t-166.5 -160.5t-191 -61.5q-78 0 -125 44.5t-47 119.5v27q-147 -188 -338 -188q-126 0 -201 85t-75 228q0 151 66.5 288.5t176.5 220.5t232 83 q91 0 158 -49q34 -25 55.5 -56t46.5 -90l39 148h125l-78 -301l-23 -97q-7 -29 -15 -61.5t-12.5 -52.5t-6.5 -31q-15 -76 -15 -117q0 -49 21.5 -75.5t60.5 -26.5q23 0 53 12q81 36 153.5 133t115.5 224.5t43 250.5q0 227 -161 361.5t-433 134.5q-176 0 -336 -70t-276 -188.5 t-185 -282t-69 -342.5q0 -290 198.5 -464.5t528.5 -174.5q271 0 518 140q67 39 109.5 69.5t115.5 93.5l66 -73q-85 -74 -131.5 -107.5t-116.5 -73.5q-128 -71 -278 -110t-294 -39q-155 0 -300 43t-261 123q-268 190 -268 569zM555 475q0 -100 52 -157.5t141 -57.5t170 60.5 t131.5 165.5t50.5 225v14q0 98 -55 159.5t-144 61.5q-88 0 -168.5 -66t-129 -175.5t-48.5 -229.5z" />
<glyph unicode="A" horiz-adv-x="1622" d="M-139 0l995 1446h156l446 -1446h-141l-115 375h-928l-260 -375h-153zM354 489h813l-249 832z" />
<glyph unicode="B" horiz-adv-x="1867" d="M0 0l334 1446h950q190 0 275 -25q92 -26 145 -104.5t53 -186.5q0 -143 -82.5 -238t-234.5 -126q122 -35 180.5 -112t58.5 -201q0 -207 -140.5 -330t-375.5 -123h-123h-1040zM170 121h899q111 0 177.5 9.5t121.5 33.5q74 32 120 107.5t46 164.5q0 97 -51 160 q-43 57 -115.5 77.5t-226.5 20.5h-840zM330 817h852q131 0 213 21t135 67q42 39 66 95t24 118q0 45 -16 86.5t-43 65.5q-24 24 -52 35q-36 15 -73.5 19.5t-120.5 4.5h-866z" />
<glyph unicode="C" horiz-adv-x="1662" d="M72 639q0 179 67 335.5t184.5 267.5t283 175t356.5 64q249 0 419.5 -104t270.5 -318l-133 -60q-70 180 -214.5 271.5t-355.5 91.5q-205 0 -373 -90.5t-264 -250t-96 -355.5q0 -198 84 -326q78 -121 225 -190.5t324 -69.5q280 0 471 164q52 43 82.5 79t77.5 109l112 -67 q-119 -195 -312 -298.5t-441 -103.5q-346 0 -557 186t-211 490z" />
<glyph unicode="D" horiz-adv-x="1724" d="M0 0l334 1446h520q216 0 334 -14q159 -21 266 -107q199 -159 199 -473q0 -158 -51 -304t-148 -261q-128 -154 -313 -220.5t-486 -66.5h-655zM172 121h461q218 0 360 32.5t242 104.5q124 89 199 251t75 341q0 199 -102 321q-90 112 -244 140q-58 10 -111 13t-192 3h-409z " />
<glyph unicode="E" horiz-adv-x="1695" d="M0 0l334 1446h1384l-28 -119h-1241l-119 -508h1149l-29 -123h-1149l-131 -575h1300l-26 -121h-1444z" />
<glyph unicode="F" horiz-adv-x="1536" d="M0 0l334 1446h1329l-27 -119h-1190l-118 -514h1065l-29 -125h-1065l-158 -688h-141z" />
<glyph unicode="G" horiz-adv-x="1835" d="M70 616q0 189 67 353t185 280t285 182t360 66q521 0 737 -416l-127 -65q-44 90 -95.5 150.5t-121.5 105.5q-168 108 -414 108q-271 0 -457 -151q-124 -99 -196 -259t-72 -333q0 -263 154 -411t428 -148q173 0 322.5 70t256.5 202q66 81 115 191q13 32 31 94h-766l26 123 h893l-174 -756h-125l64 274q-232 -315 -653 -315q-327 0 -525 179t-198 476z" />
<glyph unicode="H" horiz-adv-x="1835" d="M0 0l334 1446h141l-143 -619h1214l144 619h137l-334 -1446h-137l162 707h-1213l-164 -707h-141z" />
<glyph unicode="I" horiz-adv-x="468" d="M0 0l334 1446h137l-334 -1446h-137z" />
<glyph unicode="J" horiz-adv-x="1280" d="M-102 385l149 51q13 -79 26.5 -116.5t41.5 -77.5q51 -72 142 -114t198 -42q162 0 276 88q67 51 105 123q59 116 122 385l177 764h135l-178 -770q-2 -6 -12 -48t-19 -77q-32 -130 -54.5 -192.5t-60.5 -129.5q-152 -266 -491 -266q-228 0 -369 106.5t-188 315.5z" />
<glyph unicode="K" horiz-adv-x="1613" d="M0 0l334 1446h137l-201 -871l1231 871h215l-811 -567l522 -879h-157l-473 805l-566 -393l-94 -412h-137z" />
<glyph unicode="L" horiz-adv-x="1409" d="M0 0l334 1446h143l-305 -1325h1051l-27 -121h-1196z" />
<glyph unicode="M" horiz-adv-x="1918" d="M0 0l334 1446h178l309 -1323l914 1323h186l-334 -1446h-129l297 1286l-887 -1286h-143l-297 1288l-297 -1288h-131z" />
<glyph unicode="N" horiz-adv-x="1835" d="M0 0l334 1446h129l946 -1268l293 1268h129l-334 -1446h-129l-948 1262l-291 -1262h-129z" />
<glyph unicode="O" horiz-adv-x="1861" d="M72 625q0 231 108 420t302 303.5t440 130.5q70 4 102 4q347 0 556.5 -175.5t209.5 -465.5q0 -96 -31 -217q-69 -260 -262 -430q-255 -228 -668 -228q-347 0 -552 178.5t-205 479.5zM215 631q0 -252 173 -400.5t468 -148.5q166 0 312 57.5t250 157.5t164 239.5t60 297.5 q0 246 -171.5 389t-464.5 143q-172 0 -319.5 -54.5t-251 -150.5t-162 -233t-58.5 -297z" />
<glyph unicode="P" horiz-adv-x="1662" d="M0 0l334 1446h878q170 0 251 -17.5t141 -68.5q51 -44 79.5 -111t28.5 -145q0 -146 -80 -262q-81 -122 -221 -162q-74 -21 -145.5 -27t-247.5 -6h-725l-150 -647h-143zM319 766h736q98 0 131 2q181 6 264 68q51 36 80 103t29 144q0 115 -56 177q-36 36 -80 47 q-44 13 -84.5 16.5t-152.5 3.5h-735z" />
<glyph unicode="Q" horiz-adv-x="1861" d="M72 625q0 206 90 384t256 298q248 176 602 176q231 0 406 -79t269.5 -224.5t94.5 -337.5q0 -106 -33 -227t-88 -216q-46 -79 -88 -126t-127 -115l270 -189l-73 -104l-308 219q-15 -7 -34 -16.5l-25 -12.5q-194 -88 -455 -88q-347 0 -552 178.5t-205 479.5zM215 631 q0 -252 173 -400.5t468 -148.5q166 0 312 57.5t250 157.5t164 239.5t60 297.5q0 246 -171.5 389t-464.5 143q-172 0 -319.5 -54.5t-251 -150.5t-162 -233t-58.5 -297z" />
<glyph unicode="R" horiz-adv-x="1792" d="M0 0l334 1446h921q150 0 227.5 -15t133.5 -55q62 -43 95.5 -113t33.5 -157q0 -169 -96 -293q-96 -119 -269 -147q-91 -16 -245 -21l432 -645h-195l-422 645h-661l-150 -645h-139zM317 768h830q118 0 189 14t128 47q59 35 94 108t35 159q0 116 -71 174q-65 57 -289 57 h-787z" />
<glyph unicode="S" horiz-adv-x="1662" d="M-8 422l153 45q25 -87 54.5 -135.5t83.5 -91.5q87 -71 217 -109.5t286 -38.5q270 0 421 86.5t151 241.5q0 73 -37 119q-38 45 -120 74t-302 75l-258 55q-184 40 -256 82q-154 88 -154 252q0 190 172 296t480 106q237 0 436 -88q94 -41 159.5 -96.5t116.5 -137.5l-131 -67 q-77 120 -190 176q-88 44 -193 70t-200 26q-237 0 -372.5 -71t-135.5 -197q0 -99 76 -144q44 -26 98 -41q70 -19 321 -73q244 -53 320 -74q88 -24 153 -60q77 -45 119.5 -114.5t42.5 -155.5q0 -218 -188.5 -340.5t-523.5 -122.5q-243 0 -422 68q-89 34 -165 86.5t-122 112.5 q-32 39 -49 75t-41 111z" />
<glyph unicode="T" horiz-adv-x="1409" d="M135 1327l27 119h1407l-27 -119h-620l-308 -1327h-137l307 1327h-649z" />
<glyph unicode="U" horiz-adv-x="1792" d="M106 416q0 93 41 264l179 766h133l-180 -778q-35 -146 -35 -236q0 -91 31 -152t100 -104q148 -92 413 -92q183 0 319.5 46t211.5 132q52 58 78 129q45 108 86 291l176 764h131l-188 -819q-38 -166 -82.5 -272t-104.5 -177q-182 -215 -641 -215q-329 0 -498.5 114.5 t-169.5 338.5z" />
<glyph unicode="V" d="M141 1446h148l299 -1294l878 1294h162l-1003 -1446h-136z" />
<glyph unicode="W" horiz-adv-x="2174" d="M178 1446h139l121 -1303l748 1303h149l156 -1303l707 1303h141l-791 -1446h-168l-145 1305l-748 -1305h-163z" />
<glyph unicode="X" horiz-adv-x="1492" d="M-178 0l840 756l-474 690h164l412 -600l674 600h188l-792 -709l505 -737h-163l-445 649l-719 -649h-190z" />
<glyph unicode="Y" horiz-adv-x="1492" d="M172 1446h162l403 -744l729 744h172l-854 -860l-135 -586h-131l135 586z" />
<glyph unicode="Z" horiz-adv-x="1531" d="M-160 0l27 117l1560 1210h-1216l27 119h1423l-29 -127l-1552 -1198h1286l-27 -121h-1499z" />
<glyph unicode="[" horiz-adv-x="598" d="M-88 -440l446 1939h383l-28 -127h-250l-389 -1683h250l-29 -129h-383z" />
<glyph unicode="\" horiz-adv-x="724" d="M184 1448h117l234 -1483h-119z" />
<glyph unicode="]" horiz-adv-x="598" d="M-250 -440l31 127h250l387 1683h-250l31 129h383l-449 -1939h-383z" />
<glyph unicode="^" horiz-adv-x="1581" d="M260 586l635 860h141l211 -860l-129 2l-178 729l-532 -731h-148z" />
<glyph unicode="_" horiz-adv-x="1024" d="M-115 -301h1065v-121h-1065v121z" />
<glyph unicode="`" horiz-adv-x="598" d="M123 1432h223l129 -297h-88z" />
<glyph unicode="a" horiz-adv-x="1366" d="M4 266q0 101 51.5 181.5t143.5 121.5q93 43 241 62q129 16 230 20t348 4h59q13 72 13 86q0 82 -62 117q-112 64 -350 64q-189 0 -284.5 -51t-135.5 -171l-139 9q25 76 51.5 120.5t69.5 83.5q70 63 178.5 92t271.5 29q270 0 397 -65.5t127 -204.5q0 -41 -16 -119l-90 -395 q-12 -50 -12 -78q0 -38 21.5 -53t76.5 -15h45l-22 -102q-3 0 -18 -2t-48 -4q-36 -4 -45 -4q-72 0 -110 32t-38 93v30q-171 -174 -559 -174q-189 0 -292 76.5t-103 216.5zM145 285q0 -101 74 -149t230 -48q375 0 509 203q33 48 56 112q19 53 37 142q-35 0 -83 1t-61 1 q-205 0 -422 -23q-163 -17 -235 -55q-48 -25 -76.5 -74.5t-28.5 -109.5z" />
<glyph unicode="b" d="M-10 0l334 1446h135l-131 -565q56 48 90 68.5t86 39.5q115 43 280 43q247 0 389 -126t142 -347q0 -168 -86 -301.5t-239 -208t-345 -74.5q-320 0 -475 224l-45 -199h-135zM238 434q0 -130 65 -207q56 -65 153 -103t206 -38q223 0 364 134t141 345q0 170 -106 263.5 t-299 93.5q-229 0 -367 -113q-72 -60 -114.5 -162.5t-42.5 -212.5z" />
<glyph unicode="c" horiz-adv-x="1341" d="M29 446q0 125 49 233.5t135 185.5t208 121t263 44q200 0 349.5 -84t221.5 -237l-131 -54q-43 79 -72.5 113.5t-84.5 67.5q-120 77 -287 77q-232 0 -371 -123.5t-139 -328.5q0 -170 119 -271.5t317 -101.5q112 0 210 35t167 100q35 34 57.5 63t65.5 97l127 -57 q-122 -185 -275 -270t-366 -85q-257 0 -410 129t-153 346z" />
<glyph unicode="d" d="M29 438q0 259 188 425.5t481 166.5q174 0 283 -49t199 -170l147 635h133l-334 -1446h-135l31 129q-64 -51 -98 -72.5t-84 -40.5q-115 -45 -279 -45q-246 0 -389 126t-143 341zM174 440q0 -169 109 -262.5t305 -93.5q230 0 364 115q72 60 114 160.5t42 213.5 q0 163 -111 255t-307 92q-231 0 -373.5 -132.5t-142.5 -347.5z" />
<glyph unicode="e" horiz-adv-x="1347" d="M31 444q0 263 175 426.5t456 163.5q256 0 398 -127.5t142 -357.5q0 -35 -2 -64h-1030q-4 -46 -4 -49q0 -152 117 -250t297 -98q294 0 481 258l94 -78q-116 -154 -258.5 -225.5t-335.5 -71.5q-242 0 -386 128.5t-144 344.5zM195 598h862q-15 158 -119 242t-287 84 q-172 0 -292 -86t-164 -240z" />
<glyph unicode="f" horiz-adv-x="724" d="M90 0l209 897h-201l23 104h201l49 209q35 149 110.5 211t223.5 62q7 0 69 -4q65 -5 131 -19l-31 -119q-98 23 -174 23q-92 0 -134.5 -39.5t-67.5 -146.5l-41 -177h342l-25 -104h-342l-207 -897h-135z" />
<glyph unicode="g" horiz-adv-x="1409" d="M-6 -111q0 21 2 35h141q-4 -24 -4 -30q0 -97 101.5 -143t316.5 -46q122 0 223.5 37t147.5 98q54 67 100 287q-50 -47 -84.5 -68t-93.5 -41q-122 -43 -275 -43q-251 0 -395.5 125t-144.5 342q0 128 57 246.5t158 200.5q172 141 461 141q242 0 370 -102q35 -27 56 -50 t51 -69l41 195h131l-207 -902q-18 -80 -33 -129q-42 -154 -110 -227q-147 -156 -502 -156q-247 0 -377.5 76.5t-130.5 222.5zM176 446q0 -170 108.5 -263t305.5 -93q230 0 366 111q71 60 113.5 160t42.5 210q0 163 -112 256t-310 93q-230 0 -372 -131t-142 -343z" />
<glyph unicode="h" d="M-10 0l332 1446h135l-133 -586q140 168 454 168q244 0 373 -97t129 -282q0 -80 -27 -200l-102 -449h-135l100 440q25 109 25 183q0 286 -379 286q-244 0 -377 -118q-55 -50 -94 -129q-19 -41 -29 -70t-24 -92l-113 -500h-135z" />
<glyph unicode="i" horiz-adv-x="425" d="M-10 0l233 1001h135l-233 -1001h-135zM266 1192l45 197h135l-45 -197h-135z" />
<glyph unicode="j" horiz-adv-x="425" d="M-422 -362l31 122q82 -26 166 -26q92 0 133 38.5t67 149.5l248 1079h131l-248 -1077q-19 -81 -34 -121.5t-39 -76.5q-38 -59 -98.5 -86t-153.5 -27q-100 0 -203 25zM266 1190l47 199h131l-47 -199h-131z" />
<glyph unicode="k" horiz-adv-x="1366" d="M-8 0l334 1446h133l-234 -1002l858 557h222l-611 -393l523 -608h-173l-458 537l-398 -256l-63 -281h-133z" />
<glyph unicode="l" horiz-adv-x="425" d="M-8 0l334 1446h135l-334 -1446h-135z" />
<glyph unicode="m" horiz-adv-x="2410" d="M-10 0l229 1001h135l-30 -141q67 82 181 126t257 44q193 0 323 -76q97 -54 142 -176q84 122 203 183q64 31 153 50t176 19q228 0 355 -100.5t127 -280.5q0 -80 -27 -200l-103 -449h-135l101 440q24 105 24 185q0 137 -93.5 210.5t-268.5 73.5q-228 0 -361 -118 q-60 -55 -94 -129q-26 -53 -63 -213l-103 -449h-135l100 440q25 109 25 185q0 137 -94 210.5t-269 73.5q-227 0 -360 -118q-55 -50 -94 -129q-19 -41 -29 -70t-24 -92l-113 -500h-135z" />
<glyph unicode="n" d="M-10 0l229 1001h135l-30 -141q140 168 454 168q244 0 373 -97t129 -282q0 -80 -27 -200l-102 -449h-135l100 440q25 109 25 183q0 286 -379 286q-244 0 -377 -118q-55 -50 -94 -129q-19 -41 -29 -70t-24 -92l-113 -500h-135z" />
<glyph unicode="o" horiz-adv-x="1433" d="M27 444q0 120 51 229t145 191q188 164 502 164q262 0 417.5 -128t155.5 -343q0 -166 -89 -300t-245.5 -210t-349.5 -76q-266 0 -426.5 129t-160.5 344zM172 449q0 -172 120 -269.5t329 -97.5q233 0 382.5 131.5t149.5 337.5q0 159 -110 263t-289 104h-43 q-235 0 -387 -132.5t-152 -336.5z" />
<glyph unicode="p" d="M-100 -383l319 1384h135l-30 -131q54 49 89.5 71t92.5 42q122 45 278 45q245 0 390 -127t145 -342q0 -262 -188 -428t-484 -166q-170 0 -286.5 51t-198.5 160l-127 -559h-135zM236 426q0 -161 111.5 -251.5t309.5 -90.5q230 0 372 129t142 340q0 169 -108.5 262.5 t-304.5 93.5q-233 0 -367 -110q-71 -60 -113 -160.5t-42 -212.5z" />
<glyph unicode="q" d="M25 430q0 264 187.5 430t483.5 166q341 0 482 -209l43 184h135l-318 -1384h-135l113 498q-55 -47 -89.5 -68t-88.5 -41q-127 -45 -279 -45q-245 0 -389.5 127t-144.5 342zM172 438q0 -170 108.5 -264t305.5 -94q228 0 366 113q71 61 113.5 161t42.5 211q0 160 -112 251 t-310 91q-230 0 -372 -129t-142 -340z" />
<glyph unicode="r" horiz-adv-x="811" d="M-8 0l229 1001h135l-37 -163q74 95 175 141q119 55 299 55q36 0 77 -2l-34 -141q-73 8 -121 8q-197 0 -328 -113q-34 -27 -61 -67q-31 -42 -47 -81t-35 -120l-117 -518h-135z" />
<glyph unicode="s" horiz-adv-x="1280" d="M-41 274l152 25q7 -29 15 -44t26 -34q54 -62 170 -98.5t258 -36.5q172 0 283.5 60.5t111.5 152.5q0 59 -51 90q-25 17 -88 29q-150 24 -338 45q-119 13 -182 29.5t-111 46.5q-94 61 -94 174q0 131 98 213q65 55 164.5 79.5t251.5 24.5q255 0 409 -74q94 -43 137 -125 q12 -21 25 -65l-156 -25q-15 46 -35.5 69t-66.5 46q-139 68 -317 68t-273.5 -50.5t-95.5 -144.5q0 -64 61 -94q30 -15 78 -23t199 -26l168 -21q128 -17 188 -37q81 -26 124.5 -79t43.5 -125q0 -123 -90 -213q-138 -138 -457 -138q-266 0 -421 76.5t-187 224.5z" />
<glyph unicode="t" horiz-adv-x="634" d="M94 897l25 104h178l82 359l149 63l-96 -422h277l-25 -104h-276l-121 -524q-25 -106 -25 -160q0 -61 32.5 -89t104.5 -28q47 0 111 10l-25 -112q-66 -14 -131 -14q-110 0 -172.5 53t-62.5 145q0 54 26 170l127 549h-178z" />
<glyph unicode="u" d="M88 352q0 78 27 201l100 448h135l-98 -442q-25 -121 -25 -182q0 -141 96 -214t283 -73q241 0 377 121q54 47 94 127q27 54 51 164l113 499h135l-227 -1001h-135l30 141q-141 -170 -454 -170q-246 0 -374 97.5t-128 283.5z" />
<glyph unicode="v" horiz-adv-x="1150" d="M70 1001h143l221 -851l617 851h159l-741 -1001h-123z" />
<glyph unicode="w" horiz-adv-x="1748" d="M70 1001h139l143 -837l516 837h142l133 -837l528 837h144l-639 -1001h-129l-140 848l-522 -848h-129z" />
<glyph unicode="x" horiz-adv-x="1150" d="M-182 0l628 528l-352 473h170l281 -389l459 389h188l-582 -487l377 -514h-166l-305 426l-504 -426h-194z" />
<glyph unicode="y" horiz-adv-x="1150" d="M-219 -367l31 129q130 -47 227 -47q123 0 197 68q32 29 51 54.5t71 105.5l-282 1058h147l242 -911l598 911h160l-729 -1081l-76 -115q-19 -28 -62 -77q-63 -71 -137 -101t-184 -30q-63 0 -112 7t-142 29z" />
<glyph unicode="z" horiz-adv-x="1150" d="M-127 0l27 109l1032 782h-787l25 110h997l-20 -94l-1051 -796h899l-26 -111h-1096z" />
<glyph unicode="{" horiz-adv-x="548" d="M-61 471l28 117q94 0 146 24q40 20 61 59.5t43 133.5l80 358q25 115 53 189q34 82 98 118t177 35l104 -2l-27 -117h-67q-53 0 -79 -6.5t-46 -25.5q-25 -23 -38 -57t-36 -134l-84 -366q-31 -133 -81 -194t-148 -83q119 -42 119 -162q0 -33 -17 -112l-82 -352 q-22 -97 -22 -132q0 -49 27 -68.5t94 -21.5l65 -2l-26 -116h-105q-92 0 -144 49t-52 135q0 54 24 158l84 358q16 69 16 104q0 59 -37.5 84.5t-127.5 28.5z" />
<glyph unicode="|" horiz-adv-x="468" d="M-117 -440l451 1939h133l-449 -1939h-135z" />
<glyph unicode="}" horiz-adv-x="548" d="M-268 -446l26 118h68q52 0 78.5 7t48.5 26q23 22 36 55.5t36 133.5l84 366q31 133 81 194.5t148 84.5q-117 39 -117 161q0 45 15 111l81 354q23 101 23 129q0 50 -27.5 71t-91.5 21h-67l28 119h103q92 0 145 -49t53 -135q0 -45 -26 -160l-82 -358q-17 -73 -17 -105 q0 -59 37.5 -84t128.5 -26l-28 -119q-95 0 -146 -25q-41 -22 -61.5 -60t-42.5 -132l-80 -358q-24 -110 -55 -187q-32 -83 -95.5 -118t-179.5 -35h-104z" />
<glyph unicode="~" horiz-adv-x="1581" d="M74 549q59 56 87 79t66 48q116 78 258 78q56 0 93 -11q71 -16 157 -57l131 -59q73 -33 104 -42.5t66 -9.5q78 0 162 48q63 34 164 118l82 -90q-66 -60 -105 -88t-96 -57q-117 -60 -221 -60q-59 0 -117.5 17t-146.5 61l-74 37q-124 62 -219 62q-38 0 -82 -13 q-43 -12 -92 -45q-37 -29 -98 -82q-3 -2 -15.5 -11.5t-21.5 -16.5z" />
<glyph unicode="&#xa1;" horiz-adv-x="641" d="M12 0l138 596l129 440h94l-78 -440l-137 -596h-146zM293 1243l47 203h158l-47 -203h-158z" />
<glyph unicode="&#xa2;" horiz-adv-x="1366" d="M43 446q0 166 84 299.5t232 209t331 75.5h17l51 219h112l-53 -227q170 -31 280.5 -107.5t172.5 -205.5l-131 -54q-43 80 -72 113q-94 108 -276 139l-189 -819h16q111 0 209 33q94 32 156.5 88.5t136.5 173.5l127 -57q-53 -80 -87 -119.5t-89 -83.5q-190 -152 -448 -152 q-28 0 -48 2l-49 -211h-112l51 222q-200 37 -311 158t-111 304zM190 461q0 -282 304 -359l186 811q-230 -9 -360 -128.5t-130 -323.5z" />
<glyph unicode="&#xa3;" horiz-adv-x="1622" d="M-16 184q0 114 95.5 186t244.5 72q70 0 125 -14q47 -11 85 -29t119 -65q19 61 19 90q0 36 -21 90q-14 33 -27.5 56t-58.5 89l-18 27h-416l27 115h323q-38 67 -52.5 116.5t-14.5 112.5q0 204 158.5 323.5t428.5 119.5q313 0 455 -154q49 -54 70 -120.5t26 -180.5l-141 -19 v41q0 155 -107.5 235.5t-316.5 80.5q-204 0 -316 -81.5t-112 -230.5q0 -58 21 -109t79 -134h488l-27 -115h-401q52 -81 71 -134t19 -114q0 -86 -53 -176q103 -72 190 -115q71 -36 150 -36q103 0 170.5 84.5t93.5 246.5h131q-34 -223 -145.5 -341.5t-286.5 -118.5 q-119 0 -217 55q-63 37 -164 123q-91 -94 -188 -136t-224 -42q-134 0 -208 53t-74 149zM119 199q0 -48 41 -75.5t114 -27.5q64 0 132 19q57 15 92.5 36t87.5 70q-53 39 -90 58q-80 47 -174 47q-89 0 -146 -35.5t-57 -91.5z" />
<glyph unicode="&#xa5;" horiz-adv-x="1492" d="M92 393l27 113h524l16 69l-41 68h-466l24 113h379l-381 667h162l403 -733l729 733h172l-671 -667h360l-26 -113h-447l-65 -68l-17 -69h498l-27 -113h-497l-91 -393h-131l90 393h-524z" />
<glyph unicode="&#xa6;" horiz-adv-x="468" d="M-117 -440l195 827h133l-193 -827h-135zM139 670l195 829h133l-193 -829h-135z" />
<glyph unicode="&#xa7;" horiz-adv-x="1409" d="M8 -199l96 115q260 -184 514 -184q121 0 190 53.5t69 148.5q0 73 -60 115q-31 24 -84.5 47t-183.5 70q-34 12 -78 28t-53 19q-99 38 -164 76q-201 116 -201 315q0 144 84 264q38 57 86.5 95t130.5 75q-30 52 -30 125q0 141 109.5 227.5t287.5 86.5q119 0 229 -37.5 t279 -120.5l12 -6l-94 -111q-220 152 -440 152q-116 0 -178 -46t-62 -132q0 -73 57 -115q32 -23 83 -44.5t179 -66.5q198 -67 285 -119q100 -59 148.5 -130.5t48.5 -163.5q0 -136 -82 -258q-37 -54 -84 -92t-127 -78q28 -42 38.5 -76.5t10.5 -83.5q0 -65 -25 -126.5 t-71 -107.5q-110 -110 -336 -110q-117 0 -232 33q-96 26 -171.5 59t-168.5 96zM199 627q0 -105 63 -168q37 -37 139 -82q59 -27 224 -86q104 -38 144 -54.5t110 -52.5q108 40 174.5 129.5t66.5 194.5q0 101 -63 158q-41 41 -131 79q-69 29 -215 82q-30 10 -79 29t-61 23 q-57 23 -81.5 36t-59.5 41q-61 -31 -96 -57.5t-64 -64.5q-71 -92 -71 -207z" />
<glyph unicode="&#xa8;" horiz-adv-x="598" d="M-68 1155l45 195h144l-43 -195h-146zM477 1155l45 195h144l-45 -195h-144z" />
<glyph unicode="&#xa9;" horiz-adv-x="1705" d="M115 727q0 120 36 231t103 200t156 155.5t201 102.5t233 36q200 0 367.5 -96t264.5 -262t97 -363v-12q0 -200 -98 -367t-266 -262.5t-367 -95.5q-150 0 -285 57.5t-232 155t-153.5 233.5t-56.5 287zM180 723q0 -182 88.5 -334.5t241 -241t334.5 -88.5q180 0 333 89 t241.5 241t88.5 330q0 185 -87.5 338t-239.5 241t-336 88q-136 0 -259 -52t-211.5 -140.5t-141 -211.5t-52.5 -259zM375 682q0 209 147 349t365 140q101 0 194 -38q73 -31 123 -81t88 -132l-108 -50q-64 195 -316 195q-164 0 -267 -103.5t-103 -267.5q0 -140 90 -226.5 t237 -86.5q72 0 141.5 23.5t118.5 64.5q26 23 41 42.5t37 59.5l94 -57q-66 -115 -179 -176.5t-259 -61.5q-197 0 -320.5 113t-123.5 293z" />
<glyph unicode="&#xaa;" horiz-adv-x="894" d="M96 930q0 67 37.5 123t104.5 90q79 40 227 55q154 14 358 16q6 40 6 50q0 60 -60 86t-198 26q-139 0 -200.5 -29.5t-98.5 -115.5l-108 4q50 131 144.5 183t281.5 52q175 0 259.5 -45t84.5 -139q0 -30 -21 -133l-51 -244q-6 -30 -6 -45q0 -22 14.5 -30.5t49.5 -8.5h38 l-16 -82q-49 -8 -82 -8q-58 0 -80.5 22t-25.5 81q-78 -63 -158.5 -89t-196.5 -26q-146 0 -224.5 53.5t-78.5 153.5zM211 944q0 -123 203 -123q111 0 201 35t135 98q33 52 51 138l6 30q-31 2 -62 2q-52 0 -157 -6q-183 -10 -264 -37q-113 -40 -113 -137z" />
<glyph unicode="&#xab;" horiz-adv-x="1067" d="M53 588l25 112l491 351l-30 -129l-346 -289l210 -291l-22 -109zM479 588l27 112l491 351l-30 -129l-346 -289l210 -291l-22 -109z" />
<glyph unicode="&#xac;" horiz-adv-x="1581" d="M84 541l29 121h1278l-154 -662h-123l123 541h-1153z" />
<glyph unicode="&#xad;" horiz-adv-x="747" d="M37 541l29 123h589l-26 -123h-592z" />
<glyph unicode="&#xae;" horiz-adv-x="1705" d="M115 727q0 120 36 231t103 200t156 155.5t201 102.5t233 36q200 0 367.5 -96t264.5 -262t97 -363v-12q0 -200 -98 -367t-266 -262.5t-367 -95.5q-150 0 -285 57.5t-232 155t-153.5 233.5t-56.5 287zM180 723q0 -182 88.5 -334.5t241 -241t334.5 -88.5q180 0 333 89 t241.5 241t88.5 330q0 185 -87.5 338t-239.5 241t-336 88q-136 0 -259 -52t-211.5 -140.5t-141 -211.5t-52.5 -259zM453 301l192 852h361q108 0 176 -49q73 -54 73 -164q0 -249 -321 -264l221 -375h-129l-213 375h-162l-84 -375h-114zM674 774h229q117 0 180 35 q64 39 64 123q0 25 -11 51t-28 39q-19 16 -43 22q-34 11 -121 11h-205z" />
<glyph unicode="&#xaf;" horiz-adv-x="598" d="M-57 1165l26 107h686l-26 -107h-686z" />
<glyph unicode="&#xb0;" horiz-adv-x="724" d="M174 1233q0 123 88 212t211 89q127 0 215 -87.5t88 -213.5q0 -125 -88 -213t-213 -88t-213 87.5t-88 213.5zM289 1231q0 -78 55 -133.5t133 -55.5q76 0 129 55.5t53 135.5q0 78 -53.5 133t-128.5 55q-78 0 -133 -55.5t-55 -134.5z" />
<glyph unicode="&#xb1;" horiz-adv-x="1581" d="M35 0l26 119h1194l-26 -119h-1194zM211 770l29 121h536l111 485h123l-113 -485h537l-29 -121h-535l-112 -489h-123l113 489h-537z" />
<glyph unicode="&#xb2;" horiz-adv-x="974" d="M74 522l18 94q178 64 344 148q161 78 230 123q174 112 174 248q0 89 -71.5 142.5t-190.5 53.5q-131 0 -205 -61q-56 -48 -99 -178l-92 20q37 112 82 168q107 137 322 137q159 0 257.5 -75.5t98.5 -198.5q0 -148 -129 -258q-43 -37 -123 -82.5t-151.5 -80t-210.5 -99.5 l-39 -19l569 4l-16 -86h-768z" />
<glyph unicode="&#xb3;" horiz-adv-x="974" d="M88 774l94 25q13 -46 26.5 -69t39.5 -48q83 -80 248 -80q131 0 214 57t83 146q0 76 -66 113q-33 18 -79.5 24t-147.5 6h-70l19 82l47 -2h59q103 0 149.5 10.5t83.5 42.5q52 46 52 109q0 69 -66 108t-186 39q-114 0 -184.5 -44.5t-116.5 -145.5l-82 35q65 126 154.5 180.5 t234.5 54.5q161 0 252.5 -58t91.5 -161q0 -70 -49 -126.5t-129 -78.5q71 -35 102 -76.5t31 -99.5q0 -131 -113.5 -215t-290.5 -84q-168 0 -271.5 66t-129.5 190z" />
<glyph unicode="&#xb4;" horiz-adv-x="598" d="M86 1137l203 297h223l-338 -297h-88z" />
<glyph unicode="&#xb5;" horiz-adv-x="1492" d="M-98 -379l319 1380h133l-100 -440q-25 -121 -25 -182q0 -141 96 -214t283 -73q241 0 377 121q54 47 94 127q18 36 26.5 64t24.5 100l113 497h135l-170 -749q-3 -15 -6 -39q-6 -24 -6 -39q0 -39 21.5 -54.5t76.5 -15.5q3 0 17 1t30 1l-24 -104l-19 -2q-64 -6 -92 -6 q-147 0 -147 127v39q-77 -97 -189 -142t-276 -45q-195 0 -328 88q-39 27 -58.5 46.5t-45.5 58.5l-125 -545h-135z" />
<glyph unicode="&#xb6;" horiz-adv-x="1310" d="M250 979q0 117 53.5 221t145.5 164q127 84 352 84h510l-27 -111h-70l-387 -1677h-118l387 1677h-332l-387 -1677h-119l229 995q-24 0 -90 37q-59 38 -94 88q-53 77 -53 199z" />
<glyph unicode="&#xb7;" horiz-adv-x="555" d="M137 492l47 202h158l-47 -202h-158z" />
<glyph unicode="&#xb8;" horiz-adv-x="598" d="M82 -379l14 68q18 -3 25 -6q23 -3 38 -6.5t21 -4.5q49 -6 86 -6q119 0 119 74q0 34 -32.5 51.5t-110.5 24.5l61 207h88l-41 -142q89 -15 127.5 -45.5t38.5 -85.5q0 -75 -59.5 -117.5t-165.5 -42.5q-53 0 -178 25z" />
<glyph unicode="&#xb9;" horiz-adv-x="974" d="M338 1155l20 82q62 1 90.5 6t63.5 19q41 15 73.5 49t71.5 100h68l-203 -883h-96l156 678q-76 -51 -213 -51h-31z" />
<glyph unicode="&#xba;" horiz-adv-x="980" d="M129 1055q0 181 130.5 296t336.5 115q189 0 306.5 -93.5t117.5 -244.5q0 -181 -132.5 -295t-342.5 -114q-183 0 -299.5 94t-116.5 242zM248 1063q0 -114 83.5 -183t221.5 -69t231 69t113 185q4 18 4 57q0 114 -88 184t-229 70q-151 0 -243.5 -86.5t-92.5 -226.5z" />
<glyph unicode="&#xbb;" horiz-adv-x="1067" d="M25 240l30 131l346 288l-213 291l25 107l328 -355l-27 -112zM453 240l30 131l346 288l-213 291l25 107l328 -355l-27 -112z" />
<glyph unicode="&#xbc;" horiz-adv-x="2217" d="M397 1155l19 82q92 2 153 25q44 18 77 51t71 98h67l-204 -883h-97l158 678q-76 -51 -213 -51h-31zM489 0l1067 1409h115l-1063 -1409h-119zM1133 231l16 80l678 574h98l-129 -568h191l-21 -86h-190l-52 -231h-94l51 231h-548zM1282 317h420l102 447z" />
<glyph unicode="&#xbd;" horiz-adv-x="2217" d="M334 1155l18 82q99 2 156 25q41 15 73.5 49t71.5 100h68l-203 -883h-96l156 678q-76 -51 -213 -51h-31zM412 0l1067 1409h114l-1063 -1409h-118zM1159 0l19 92q177 66 344 148q152 76 229 125q174 112 174 247q0 88 -72 142.5t-190 54.5q-131 0 -205 -61 q-54 -46 -98 -179l-94 21q40 114 84 168q105 135 319 135q160 0 258 -75t98 -197q0 -151 -127 -259q-155 -131 -485 -264l-41 -16l572 4l-17 -86h-768z" />
<glyph unicode="&#xbe;" horiz-adv-x="2217" d="M80 774l94 25q13 -45 26 -68.5t38 -48.5q86 -80 249 -80q130 0 212.5 57t82.5 146q0 78 -63 113q-34 18 -81.5 24t-148.5 6h-67l16 82l49 -2h60q103 0 149.5 10.5t81.5 42.5q53 47 53 109q0 69 -66.5 108t-184.5 39q-115 0 -185 -44.5t-116 -145.5l-84 35 q64 126 155 180.5t236 54.5q160 0 251 -58t91 -161q0 -70 -49 -126.5t-127 -78.5q70 -35 100.5 -76t30.5 -100q0 -130 -113.5 -214.5t-288.5 -84.5q-168 0 -271.5 66t-129.5 190zM553 0l1067 1409h115l-1065 -1409h-117zM1182 231l18 80l678 574h98l-129 -568h191l-21 -86 h-190l-53 -231h-95l54 231h-551zM1333 317h420l102 447z" />
<glyph unicode="&#xbf;" d="M33 354q0 94 39.5 185t109.5 155q77 74 193 115q52 18 196 59q72 21 115 39q28 14 43 36t27 67l8 32h127l-10 -36q-18 -62 -30 -91t-32 -53q-51 -57 -172 -90l-76 -20q-191 -52 -276 -121q-56 -44 -89.5 -115.5t-33.5 -144.5q0 -138 106.5 -213.5t301.5 -75.5 q154 0 270 72q75 48 131.5 115t120.5 188l121 -49q-125 -236 -283 -339.5t-395 -103.5q-239 0 -375.5 103.5t-136.5 285.5zM799 1241l45 203h153l-47 -203h-151z" />
<glyph unicode="&#xc0;" horiz-adv-x="1622" d="M-139 0l995 1446h156l446 -1446h-141l-115 375h-928l-260 -375h-153zM354 489h813l-249 832zM655 1843h228l147 -258h-98z" />
<glyph unicode="&#xc1;" horiz-adv-x="1622" d="M-139 0l995 1446h156l446 -1446h-141l-115 375h-928l-260 -375h-153zM354 489h813l-249 832zM823 1585l209 258h228l-345 -258h-92z" />
<glyph unicode="&#xc2;" horiz-adv-x="1622" d="M-139 0l995 1446h156l446 -1446h-141l-115 375h-928l-260 -375h-153zM354 489h813l-249 832zM631 1585l287 258h161l168 -258h-125l-131 158l-225 -158h-135z" />
<glyph unicode="&#xc3;" horiz-adv-x="1622" d="M-139 0l995 1446h156l446 -1446h-141l-115 375h-928l-260 -375h-153zM354 489h813l-249 832zM557 1657q56 65 105 102q70 51 155 51q86 0 246 -59q30 -10 51 -18q33 -11 60 -11q43 0 73.5 19.5t65.5 68.5l53 -34q-34 -48 -52.5 -70t-43.5 -41q-65 -53 -152 -53 q-63 0 -190 49q-117 45 -170 45q-39 0 -70 -18t-80 -70z" />
<glyph unicode="&#xc4;" horiz-adv-x="1622" d="M-139 0l995 1446h156l446 -1446h-141l-115 375h-928l-260 -375h-153zM354 489h813l-249 832zM549 1634l45 197h145l-45 -197h-145zM1210 1634l45 197h146l-45 -197h-146z" />
<glyph unicode="&#xc5;" horiz-adv-x="1622" d="M-139 0l995 1446h156l446 -1446h-141l-115 375h-928l-260 -375h-153zM354 489h813l-249 832zM731 1692q0 82 64.5 130t173.5 48q103 0 165 -46t62 -124q0 -80 -64 -130t-167 -50t-168.5 48.5t-65.5 123.5zM838 1694q0 -40 34 -63t91 -23t90.5 24t33.5 64q0 42 -33 66 t-91 24q-56 0 -90.5 -25.5t-34.5 -66.5z" />
<glyph unicode="&#xc6;" horiz-adv-x="2322" d="M-170 0l1370 1446h1100l-27 -119h-915l-121 -520h913l-28 -123h-914l-129 -563h1026l-28 -121h-1164l82 356h-647l-338 -356h-180zM455 471h567l199 823z" />
<glyph unicode="&#xc7;" horiz-adv-x="1662" d="M72 639q0 179 67 335.5t184.5 267.5t283 175t356.5 64q249 0 419.5 -104t270.5 -318l-133 -60q-70 180 -214.5 271.5t-355.5 91.5q-205 0 -373 -90.5t-264 -250t-96 -355.5q0 -198 84 -326q78 -121 225 -190.5t324 -69.5q280 0 471 164q52 43 82.5 79t77.5 109l112 -67 q-115 -192 -308 -297t-429 -105q-27 0 -47 2l-27 -90q90 -15 129 -45.5t39 -85.5q0 -74 -60.5 -116t-166.5 -42q-63 0 -178 23l-31 6l14 68l25 -5q92 -18 145 -18q119 0 119 74q0 34 -32.5 51.5t-110.5 24.5l47 161q-297 31 -473 212t-176 456z" />
<glyph unicode="&#xc8;" horiz-adv-x="1695" d="M0 0l334 1446h1384l-28 -119h-1241l-119 -508h1149l-29 -123h-1149l-131 -575h1300l-26 -121h-1444zM717 1843h227l148 -258h-99z" />
<glyph unicode="&#xc9;" horiz-adv-x="1695" d="M0 0l334 1446h1384l-28 -119h-1241l-119 -508h1149l-29 -123h-1149l-131 -575h1300l-26 -121h-1444zM909 1585l209 258h228l-345 -258h-92z" />
<glyph unicode="&#xca;" horiz-adv-x="1695" d="M0 0l334 1446h1384l-28 -119h-1241l-119 -508h1149l-29 -123h-1149l-131 -575h1300l-26 -121h-1444zM717 1585l289 258h161l166 -258h-123l-133 158l-223 -158h-137z" />
<glyph unicode="&#xcb;" horiz-adv-x="1695" d="M0 0l334 1446h1384l-28 -119h-1241l-119 -508h1149l-29 -123h-1149l-131 -575h1300l-26 -121h-1444zM647 1634l45 197h146l-45 -197h-146zM1309 1634l45 197h145l-45 -197h-145z" />
<glyph unicode="&#xcc;" horiz-adv-x="468" d="M0 0l334 1446h137l-334 -1446h-137zM145 1843h228l149 -258h-98z" />
<glyph unicode="&#xcd;" horiz-adv-x="468" d="M0 0l334 1446h137l-334 -1446h-137zM305 1585l209 258h227l-344 -258h-92z" />
<glyph unicode="&#xce;" horiz-adv-x="468" d="M0 0l334 1446h137l-334 -1446h-137zM121 1585l289 258h161l166 -258h-125l-131 158l-225 -158h-135z" />
<glyph unicode="&#xcf;" horiz-adv-x="468" d="M0 0l334 1446h137l-334 -1446h-137zM16 1634l47 197h146l-47 -197h-146zM678 1634l45 197h145l-45 -197h-145z" />
<glyph unicode="&#xd0;" horiz-adv-x="1724" d="M-2 729l25 107h170l141 610h520q216 0 334 -14q159 -21 266 -107q199 -159 199 -473q0 -158 -51 -304t-148 -261q-128 -154 -313 -220.5t-486 -66.5h-655l168 729h-170zM172 121h461q218 0 360 32.5t242 104.5q124 89 199 251t75 341q0 199 -102 321q-90 112 -244 140 q-58 10 -111 13t-192 3h-409l-115 -493h713l-25 -105h-713z" />
<glyph unicode="&#xd1;" horiz-adv-x="1835" d="M0 0l334 1446h129l946 -1268l293 1268h129l-334 -1446h-129l-948 1262l-291 -1262h-129zM713 1657q58 67 104 102q70 51 156 51t246 -59q30 -10 51 -18q33 -11 59 -11q43 0 73.5 19.5t65.5 68.5l54 -34q-33 -47 -52 -69t-45 -42q-65 -53 -151 -53q-64 0 -191 49 q-117 45 -170 45q-39 0 -69.5 -18t-79.5 -70z" />
<glyph unicode="&#xd2;" horiz-adv-x="1861" d="M72 625q0 231 108 420t302 303.5t440 130.5q70 4 102 4q347 0 556.5 -175.5t209.5 -465.5q0 -96 -31 -217q-69 -260 -262 -430q-255 -228 -668 -228q-347 0 -552 178.5t-205 479.5zM215 631q0 -252 173 -400.5t468 -148.5q166 0 312 57.5t250 157.5t164 239.5t60 297.5 q0 246 -171.5 389t-464.5 143q-172 0 -319.5 -54.5t-251 -150.5t-162 -233t-58.5 -297zM748 1843h227l147 -258h-98z" />
<glyph unicode="&#xd3;" horiz-adv-x="1861" d="M72 625q0 231 108 420t302 303.5t440 130.5q70 4 102 4q347 0 556.5 -175.5t209.5 -465.5q0 -96 -31 -217q-69 -260 -262 -430q-255 -228 -668 -228q-347 0 -552 178.5t-205 479.5zM215 631q0 -252 173 -400.5t468 -148.5q166 0 312 57.5t250 157.5t164 239.5t60 297.5 q0 246 -171.5 389t-464.5 143q-172 0 -319.5 -54.5t-251 -150.5t-162 -233t-58.5 -297zM918 1585l208 258h228l-344 -258h-92z" />
<glyph unicode="&#xd4;" horiz-adv-x="1861" d="M72 625q0 231 108 420t302 303.5t440 130.5q70 4 102 4q347 0 556.5 -175.5t209.5 -465.5q0 -96 -31 -217q-69 -260 -262 -430q-255 -228 -668 -228q-347 0 -552 178.5t-205 479.5zM215 631q0 -252 173 -400.5t468 -148.5q166 0 312 57.5t250 157.5t164 239.5t60 297.5 q0 246 -171.5 389t-464.5 143q-172 0 -319.5 -54.5t-251 -150.5t-162 -233t-58.5 -297zM702 1585l289 258h162l166 -258h-123l-133 158l-223 -158h-138z" />
<glyph unicode="&#xd5;" horiz-adv-x="1861" d="M72 625q0 231 108 420t302 303.5t440 130.5q70 4 102 4q347 0 556.5 -175.5t209.5 -465.5q0 -96 -31 -217q-69 -260 -262 -430q-255 -228 -668 -228q-347 0 -552 178.5t-205 479.5zM215 631q0 -252 173 -400.5t468 -148.5q166 0 312 57.5t250 157.5t164 239.5t60 297.5 q0 246 -171.5 389t-464.5 143q-172 0 -319.5 -54.5t-251 -150.5t-162 -233t-58.5 -297zM594 1657q58 67 104 102q70 51 156 51t246 -59q30 -10 51 -18q33 -11 59 -11q43 0 74 19.5t66 68.5l53 -34q-34 -48 -52.5 -70t-43.5 -41q-65 -53 -152 -53q-63 0 -190 49 q-117 45 -170 45q-39 0 -70 -18t-80 -70z" />
<glyph unicode="&#xd6;" horiz-adv-x="1861" d="M72 625q0 231 108 420t302 303.5t440 130.5q70 4 102 4q347 0 556.5 -175.5t209.5 -465.5q0 -96 -31 -217q-69 -260 -262 -430q-255 -228 -668 -228q-347 0 -552 178.5t-205 479.5zM215 631q0 -252 173 -400.5t468 -148.5q166 0 312 57.5t250 157.5t164 239.5t60 297.5 q0 246 -171.5 389t-464.5 143q-172 0 -319.5 -54.5t-251 -150.5t-162 -233t-58.5 -297zM610 1634l45 197h146l-45 -197h-146zM1272 1634l45 197h145l-45 -197h-145z" />
<glyph unicode="&#xd7;" horiz-adv-x="1581" d="M246 285l430 313l-381 330l106 73l381 -327l430 311l86 -74l-430 -313l383 -334l-106 -76l-383 334l-430 -313z" />
<glyph unicode="&#xd8;" horiz-adv-x="1861" d="M-18 125l192 135q-55 87 -79.5 172.5t-24.5 190.5q0 207 91 385.5t257 298.5q244 176 604 176q155 0 291 -39q100 -28 172 -69t145 -113l189 131l65 -93l-184 -129q90 -156 90 -321q0 -104 -31 -225q-69 -260 -262 -430q-258 -228 -668 -228q-180 0 -334.5 54.5 t-246.5 150.5l-205 -137zM215 631q0 -159 78 -289l1218 840q-78 89 -210.5 136.5t-301.5 47.5q-170 0 -316 -55t-248.5 -151.5t-161 -233.5t-58.5 -295zM365 254q76 -81 207 -126.5t284 -45.5q165 0 310.5 57.5t250 157t165 238.5t60.5 296q0 94 -11.5 143t-49.5 118z" />
<glyph unicode="&#xd9;" horiz-adv-x="1792" d="M106 416q0 93 41 264l179 766h133l-180 -778q-35 -146 -35 -236q0 -91 31 -152t100 -104q148 -92 413 -92q183 0 319.5 46t211.5 132q52 58 78 129q45 108 86 291l176 764h131l-188 -819q-38 -166 -82.5 -272t-104.5 -177q-182 -215 -641 -215q-329 0 -498.5 114.5 t-169.5 338.5zM758 1843h227l150 -258h-99z" />
<glyph unicode="&#xda;" horiz-adv-x="1792" d="M106 416q0 93 41 264l179 766h133l-180 -778q-35 -146 -35 -236q0 -91 31 -152t100 -104q148 -92 413 -92q183 0 319.5 46t211.5 132q52 58 78 129q45 108 86 291l176 764h131l-188 -819q-38 -166 -82.5 -272t-104.5 -177q-182 -215 -641 -215q-329 0 -498.5 114.5 t-169.5 338.5zM934 1585l209 258h227l-344 -258h-92z" />
<glyph unicode="&#xdb;" horiz-adv-x="1792" d="M106 416q0 93 41 264l179 766h133l-180 -778q-35 -146 -35 -236q0 -91 31 -152t100 -104q148 -92 413 -92q183 0 319.5 46t211.5 132q52 58 78 129q45 108 86 291l176 764h131l-188 -819q-38 -166 -82.5 -272t-104.5 -177q-182 -215 -641 -215q-329 0 -498.5 114.5 t-169.5 338.5zM727 1585l287 258h162l165 -258h-122l-132 158l-225 -158h-135z" />
<glyph unicode="&#xdc;" horiz-adv-x="1792" d="M106 416q0 93 41 264l179 766h133l-180 -778q-35 -146 -35 -236q0 -91 31 -152t100 -104q148 -92 413 -92q183 0 319.5 46t211.5 132q52 58 78 129q45 108 86 291l176 764h131l-188 -819q-38 -166 -82.5 -272t-104.5 -177q-182 -215 -641 -215q-329 0 -498.5 114.5 t-169.5 338.5zM668 1634l47 197h145l-47 -197h-145zM1329 1634l47 197h146l-47 -197h-146z" />
<glyph unicode="&#xdd;" horiz-adv-x="1492" d="M172 1446h162l403 -744l729 744h172l-854 -860l-135 -586h-131l135 586zM819 1585l209 258h227l-344 -258h-92z" />
<glyph unicode="&#xde;" horiz-adv-x="1662" d="M0 0l334 1446h143l-67 -289h735q170 0 250.5 -17.5t138.5 -68.5q52 -42 80 -109.5t28 -146.5q0 -146 -77 -262q-78 -118 -224 -160q-74 -22 -147 -28.5t-244 -6.5h-725l-82 -358h-143zM252 477h735q98 0 131 2q181 6 264 68q51 37 80 104t29 146q0 111 -57 174 q-29 34 -80 49q-42 12 -83 15t-153 3h-737z" />
<glyph unicode="&#xdf;" d="M-10 0l223 965q40 175 78 254q65 135 197 199.5t348 64.5q256 0 396 -79t140 -222q0 -260 -287 -330q230 -76 230 -317q0 -93 -38.5 -204.5t-96.5 -187.5q-123 -163 -406 -163q-350 0 -350 272q0 29 8 84h131q-6 -53 -6 -66q0 -94 53 -136t170 -42q164 0 254 78 q63 56 102.5 157.5t39.5 211.5q0 125 -82 188q-51 40 -123 56t-199 16q-59 0 -135 -2l27 110h96q173 0 272 29q201 59 201 219q0 98 -109 157.5t-290 59.5q-223 0 -334 -82q-55 -39 -90.5 -114t-69.5 -220l-221 -956h-129z" />
<glyph unicode="&#xe0;" horiz-adv-x="1366" d="M4 266q0 101 51.5 181.5t143.5 121.5q93 43 241 62q129 16 230 20t348 4h59q13 72 13 86q0 82 -62 117q-112 64 -350 64q-189 0 -284.5 -51t-135.5 -171l-139 9q25 76 51.5 120.5t69.5 83.5q70 63 178.5 92t271.5 29q270 0 397 -65.5t127 -204.5q0 -41 -16 -119l-90 -395 q-12 -50 -12 -78q0 -38 21.5 -53t76.5 -15h45l-22 -102q-3 0 -18 -2t-48 -4q-36 -4 -45 -4q-72 0 -110 32t-38 93v30q-171 -174 -559 -174q-189 0 -292 76.5t-103 216.5zM145 285q0 -101 74 -149t230 -48q375 0 509 203q33 48 56 112q19 53 37 142q-35 0 -83 1t-61 1 q-205 0 -422 -23q-163 -17 -235 -55q-48 -25 -76.5 -74.5t-28.5 -109.5zM459 1432h223l127 -297h-88z" />
<glyph unicode="&#xe1;" horiz-adv-x="1366" d="M4 266q0 101 51.5 181.5t143.5 121.5q93 43 241 62q129 16 230 20t348 4h59q13 72 13 86q0 82 -62 117q-112 64 -350 64q-189 0 -284.5 -51t-135.5 -171l-139 9q25 76 51.5 120.5t69.5 83.5q70 63 178.5 92t271.5 29q270 0 397 -65.5t127 -204.5q0 -41 -16 -119l-90 -395 q-12 -50 -12 -78q0 -38 21.5 -53t76.5 -15h45l-22 -102q-3 0 -18 -2t-48 -4q-36 -4 -45 -4q-72 0 -110 32t-38 93v30q-171 -174 -559 -174q-189 0 -292 76.5t-103 216.5zM145 285q0 -101 74 -149t230 -48q375 0 509 203q33 48 56 112q19 53 37 142q-35 0 -83 1t-61 1 q-205 0 -422 -23q-163 -17 -235 -55q-48 -25 -76.5 -74.5t-28.5 -109.5zM596 1137l203 297h223l-338 -297h-88z" />
<glyph unicode="&#xe2;" horiz-adv-x="1366" d="M4 266q0 101 51.5 181.5t143.5 121.5q93 43 241 62q129 16 230 20t348 4h59q13 72 13 86q0 82 -62 117q-112 64 -350 64q-189 0 -284.5 -51t-135.5 -171l-139 9q25 76 51.5 120.5t69.5 83.5q70 63 178.5 92t271.5 29q270 0 397 -65.5t127 -204.5q0 -41 -16 -119l-90 -395 q-12 -50 -12 -78q0 -38 21.5 -53t76.5 -15h45l-22 -102q-3 0 -18 -2t-48 -4q-36 -4 -45 -4q-72 0 -110 32t-38 93v30q-171 -174 -559 -174q-189 0 -292 76.5t-103 216.5zM145 285q0 -101 74 -149t230 -48q375 0 509 203q33 48 56 112q19 53 37 142q-35 0 -83 1t-61 1 q-205 0 -422 -23q-163 -17 -235 -55q-48 -25 -76.5 -74.5t-28.5 -109.5zM436 1124l279 271h121l153 -271h-100l-123 174l-215 -174h-115z" />
<glyph unicode="&#xe3;" horiz-adv-x="1366" d="M4 266q0 101 51.5 181.5t143.5 121.5q93 43 241 62q129 16 230 20t348 4h59q13 72 13 86q0 82 -62 117q-112 64 -350 64q-189 0 -284.5 -51t-135.5 -171l-139 9q25 76 51.5 120.5t69.5 83.5q70 63 178.5 92t271.5 29q270 0 397 -65.5t127 -204.5q0 -41 -16 -119l-90 -395 q-12 -50 -12 -78q0 -38 21.5 -53t76.5 -15h45l-22 -102q-3 0 -18 -2t-48 -4q-36 -4 -45 -4q-72 0 -110 32t-38 93v30q-171 -174 -559 -174q-189 0 -292 76.5t-103 216.5zM145 285q0 -101 74 -149t230 -48q375 0 509 203q33 48 56 112q19 53 37 142q-35 0 -83 1t-61 1 q-205 0 -422 -23q-163 -17 -235 -55q-48 -25 -76.5 -74.5t-28.5 -109.5zM348 1255q66 71 105 97q71 51 151 51q67 0 195 -43q13 -4 25.5 -8.5t25.5 -8.5t18 -6q58 -18 90 -18q40 0 72.5 20t67.5 66l53 -29q-54 -72 -96 -104q-75 -60 -158 -60q-60 0 -186 48q-111 43 -164 43 q-43 0 -76.5 -19t-77.5 -70z" />
<glyph unicode="&#xe4;" horiz-adv-x="1366" d="M4 266q0 101 51.5 181.5t143.5 121.5q93 43 241 62q129 16 230 20t348 4h59q13 72 13 86q0 82 -62 117q-112 64 -350 64q-189 0 -284.5 -51t-135.5 -171l-139 9q25 76 51.5 120.5t69.5 83.5q70 63 178.5 92t271.5 29q270 0 397 -65.5t127 -204.5q0 -41 -16 -119l-90 -395 q-12 -50 -12 -78q0 -38 21.5 -53t76.5 -15h45l-22 -102q-3 0 -18 -2t-48 -4q-36 -4 -45 -4q-72 0 -110 32t-38 93v30q-171 -174 -559 -174q-189 0 -292 76.5t-103 216.5zM145 285q0 -101 74 -149t230 -48q375 0 509 203q33 48 56 112q19 53 37 142q-35 0 -83 1t-61 1 q-205 0 -422 -23q-163 -17 -235 -55q-48 -25 -76.5 -74.5t-28.5 -109.5zM367 1155l45 195h143l-45 -195h-143zM911 1155l45 195h142l-45 -195h-142z" />
<glyph unicode="&#xe5;" horiz-adv-x="1366" d="M4 266q0 101 51.5 181.5t143.5 121.5q93 43 241 62q129 16 230 20t348 4h59q13 72 13 86q0 82 -62 117q-112 64 -350 64q-189 0 -284.5 -51t-135.5 -171l-139 9q25 76 51.5 120.5t69.5 83.5q70 63 178.5 92t271.5 29q270 0 397 -65.5t127 -204.5q0 -41 -16 -119l-90 -395 q-12 -50 -12 -78q0 -38 21.5 -53t76.5 -15h45l-22 -102q-3 0 -18 -2t-48 -4q-36 -4 -45 -4q-72 0 -110 32t-38 93v30q-171 -174 -559 -174q-189 0 -292 76.5t-103 216.5zM145 285q0 -101 74 -149t230 -48q375 0 509 203q33 48 56 112q19 53 37 142q-35 0 -83 1t-61 1 q-205 0 -422 -23q-163 -17 -235 -55q-48 -25 -76.5 -74.5t-28.5 -109.5zM506 1290q0 78 65.5 128t169.5 50q102 0 167 -48.5t65 -123.5q0 -80 -66 -130t-170 -50q-101 0 -166 49t-65 125zM612 1292q0 -40 34 -63t91 -23t92 23.5t35 62.5q0 40 -36 65t-93 25 q-54 0 -88.5 -25.5t-34.5 -64.5z" />
<glyph unicode="&#xe6;" horiz-adv-x="2347" d="M4 279q0 66 28.5 127t78.5 102q62 50 170.5 71t308.5 21h471q26 91 26 133q0 82 -59 117q-54 32 -150 51t-206 19q-122 0 -195 -16.5t-119 -53.5q-69 -55 -98 -145l-141 8q2 6 7 20.5t7 18.5q15 41 46 85.5t65 75.5q69 65 167.5 93t256.5 28q224 0 348 -42t180 -136 q100 96 206.5 137t256.5 41q259 0 401 -126.5t142 -358.5q0 -35 -2 -64h-1031q-2 -23 -2 -49q0 -152 116.5 -250t297.5 -98q293 0 481 258l92 -78q-114 -154 -256 -225.5t-333 -71.5q-247 0 -381 119q-35 31 -57.5 59.5t-59.5 90.5q-5 -9 -35 -54q-32 -40 -81 -79.5 t-99 -63.5q-150 -70 -416 -70q-210 0 -321 78.5t-111 227.5zM145 289q0 -102 81 -151.5t247 -49.5q178 0 304 49.5t188 143.5q28 45 51 122q10 33 20 84l-383 -2q-149 0 -194 -2q-138 -3 -209 -32q-49 -20 -77 -63t-28 -99zM1194 598h864q-15 158 -119 242t-286 84 q-173 0 -294 -86t-165 -240z" />
<glyph unicode="&#xe7;" horiz-adv-x="1341" d="M29 446q0 125 49 233.5t135 185.5t208 121t263 44q200 0 349.5 -84t221.5 -237l-131 -54q-43 79 -72.5 113.5t-84.5 67.5q-120 77 -287 77q-232 0 -371 -123.5t-139 -328.5q0 -170 119 -271.5t317 -101.5q112 0 210 35t167 100q35 34 57.5 63t65.5 97l127 -57 q-53 -81 -87.5 -120t-90.5 -83q-97 -78 -203.5 -113t-263.5 -39l-27 -90q90 -15 129 -45.5t39 -85.5q0 -75 -60.5 -117.5t-166.5 -42.5q-53 0 -178 25l-31 6l14 68q6 -1 14.5 -3.5t10.5 -2.5q49 -10 59 -11q49 -6 86 -6q119 0 119 74q0 34 -32.5 51.5t-110.5 24.5l49 161 q-221 23 -347 148t-126 321z" />
<glyph unicode="&#xe8;" horiz-adv-x="1347" d="M31 444q0 263 175 426.5t456 163.5q256 0 398 -127.5t142 -357.5q0 -35 -2 -64h-1030q-4 -46 -4 -49q0 -152 117 -250t297 -98q294 0 481 258l94 -78q-116 -154 -258.5 -225.5t-335.5 -71.5q-242 0 -386 128.5t-144 344.5zM195 598h862q-15 158 -119 242t-287 84 q-172 0 -292 -86t-164 -240zM432 1432h223l127 -297h-88z" />
<glyph unicode="&#xe9;" horiz-adv-x="1347" d="M31 444q0 263 175 426.5t456 163.5q256 0 398 -127.5t142 -357.5q0 -35 -2 -64h-1030q-4 -46 -4 -49q0 -152 117 -250t297 -98q294 0 481 258l94 -78q-116 -154 -258.5 -225.5t-335.5 -71.5q-242 0 -386 128.5t-144 344.5zM195 598h862q-15 158 -119 242t-287 84 q-172 0 -292 -86t-164 -240zM557 1137l203 297h223l-338 -297h-88z" />
<glyph unicode="&#xea;" horiz-adv-x="1347" d="M31 444q0 263 175 426.5t456 163.5q256 0 398 -127.5t142 -357.5q0 -35 -2 -64h-1030q-4 -46 -4 -49q0 -152 117 -250t297 -98q294 0 481 258l94 -78q-116 -154 -258.5 -225.5t-335.5 -71.5q-242 0 -386 128.5t-144 344.5zM195 598h862q-15 158 -119 242t-287 84 q-172 0 -292 -86t-164 -240zM389 1126l279 271h120l154 -271h-100l-123 174l-215 -174h-115z" />
<glyph unicode="&#xeb;" horiz-adv-x="1347" d="M31 444q0 263 175 426.5t456 163.5q256 0 398 -127.5t142 -357.5q0 -35 -2 -64h-1030q-4 -46 -4 -49q0 -152 117 -250t297 -98q294 0 481 258l94 -78q-116 -154 -258.5 -225.5t-335.5 -71.5q-242 0 -386 128.5t-144 344.5zM195 598h862q-15 158 -119 242t-287 84 q-172 0 -292 -86t-164 -240zM350 1157l45 195h144l-45 -195h-144zM895 1157l45 195h141l-45 -195h-141z" />
<glyph unicode="&#xec;" horiz-adv-x="425" d="M-10 0l233 1001h135l-233 -1001h-135zM57 1432h224l127 -297h-89z" />
<glyph unicode="&#xed;" horiz-adv-x="425" d="M-10 0l233 1001h135l-233 -1001h-135zM205 1137l203 297h223l-338 -297h-88z" />
<glyph unicode="&#xee;" horiz-adv-x="425" d="M-10 0l233 1001h135l-233 -1001h-135zM27 1124l278 271h121l154 -271h-101l-123 174l-215 -174h-114z" />
<glyph unicode="&#xef;" horiz-adv-x="425" d="M-41 1155l45 195h143l-45 -195h-143zM-10 0l233 1001h135l-233 -1001h-135zM504 1155l45 195h141l-45 -195h-141z" />
<glyph unicode="&#xf0;" horiz-adv-x="1433" d="M27 444q0 120 51 229t145 191q190 164 498 164q91 0 170 -18q54 -13 92 -33t100 -66q-34 81 -84 152q-36 51 -61 80t-72 74l-448 -76l-33 102l393 66q-29 29 -73 65q-47 35 -105 76l176 31q10 -7 86 -70q44 -37 82 -76l281 49l32 -104l-225 -37q46 -54 96 -125 q83 -119 126.5 -256t43.5 -272q0 -277 -189 -448t-495 -171q-266 0 -426.5 129t-160.5 344zM172 449q0 -172 120 -269.5t329 -97.5q233 0 382.5 131.5t149.5 337.5q0 159 -110 263t-289 104h-43q-235 0 -387 -132.5t-152 -336.5z" />
<glyph unicode="&#xf1;" d="M-10 0l229 1001h135l-30 -141q140 168 454 168q244 0 373 -97t129 -282q0 -80 -27 -200l-102 -449h-135l100 440q25 109 25 183q0 286 -379 286q-244 0 -377 -118q-55 -50 -94 -129q-19 -41 -29 -70t-24 -92l-113 -500h-135zM422 1255q41 44 60 62.5t44 34.5 q71 51 152 51q66 0 194 -43q17 -6 41.5 -14t28.5 -9q58 -18 90 -18q39 0 71 20t68 66l54 -29q-53 -70 -97 -104q-75 -60 -157 -60q-61 0 -187 48q-111 43 -163 43q-43 0 -76.5 -19t-77.5 -70z" />
<glyph unicode="&#xf2;" horiz-adv-x="1433" d="M27 444q0 120 51 229t145 191q188 164 502 164q262 0 417.5 -128t155.5 -343q0 -166 -89 -300t-245.5 -210t-349.5 -76q-266 0 -426.5 129t-160.5 344zM172 449q0 -172 120 -269.5t329 -97.5q233 0 382.5 131.5t149.5 337.5q0 159 -110 263t-289 104h-43 q-235 0 -387 -132.5t-152 -336.5zM502 1432h223l127 -297h-88z" />
<glyph unicode="&#xf3;" horiz-adv-x="1433" d="M27 444q0 120 51 229t145 191q188 164 502 164q262 0 417.5 -128t155.5 -343q0 -166 -89 -300t-245.5 -210t-349.5 -76q-266 0 -426.5 129t-160.5 344zM172 449q0 -172 120 -269.5t329 -97.5q233 0 382.5 131.5t149.5 337.5q0 159 -110 263t-289 104h-43 q-235 0 -387 -132.5t-152 -336.5zM639 1137l203 297h223l-338 -297h-88z" />
<glyph unicode="&#xf4;" horiz-adv-x="1433" d="M27 444q0 120 51 229t145 191q188 164 502 164q262 0 417.5 -128t155.5 -343q0 -166 -89 -300t-245.5 -210t-349.5 -76q-266 0 -426.5 129t-160.5 344zM172 449q0 -172 120 -269.5t329 -97.5q233 0 382.5 131.5t149.5 337.5q0 159 -110 263t-289 104h-43 q-235 0 -387 -132.5t-152 -336.5zM459 1124l278 271h121l154 -271h-101l-123 174l-215 -174h-114z" />
<glyph unicode="&#xf5;" horiz-adv-x="1433" d="M27 444q0 120 51 229t145 191q188 164 502 164q262 0 417.5 -128t155.5 -343q0 -166 -89 -300t-245.5 -210t-349.5 -76q-266 0 -426.5 129t-160.5 344zM172 449q0 -172 120 -269.5t329 -97.5q233 0 382.5 131.5t149.5 337.5q0 159 -110 263t-289 104h-43 q-235 0 -387 -132.5t-152 -336.5zM352 1255q66 71 105 97q71 51 151 51q67 0 195 -43q13 -4 25.5 -8.5t25.5 -8.5t18 -6q58 -18 91 -18q39 0 71 20t68 66l53 -29q-54 -72 -96 -104q-75 -60 -158 -60q-60 0 -186 48q-111 43 -164 43q-43 0 -76.5 -19t-77.5 -70z" />
<glyph unicode="&#xf6;" horiz-adv-x="1433" d="M27 444q0 120 51 229t145 191q188 164 502 164q262 0 417.5 -128t155.5 -343q0 -166 -89 -300t-245.5 -210t-349.5 -76q-266 0 -426.5 129t-160.5 344zM172 449q0 -172 120 -269.5t329 -97.5q233 0 382.5 131.5t149.5 337.5q0 159 -110 263t-289 104h-43 q-235 0 -387 -132.5t-152 -336.5zM414 1155l45 195h143l-45 -195h-143zM958 1155l46 195h141l-45 -195h-142z" />
<glyph unicode="&#xf7;" horiz-adv-x="1581" d="M100 539l29 123h1309l-31 -123h-1307zM596 217l39 168h170l-39 -168h-170zM731 809l39 168h168l-37 -168h-170z" />
<glyph unicode="&#xf8;" horiz-adv-x="1433" d="M-39 109l137 92q-43 69 -57 115t-14 128q0 120 51 229t145 191q188 164 510 164q128 0 236.5 -33.5t171.5 -93.5l137 92l63 -86l-124 -86q81 -118 81 -266q0 -165 -89 -298.5t-246 -209.5t-351 -76q-266 0 -444 146l-145 -97zM172 446q0 -102 39 -170l815 547 q-124 95 -315 95q-155 0 -278 -60.5t-192 -168.5t-69 -243zM279 190q128 -108 344 -108q232 0 381 131.5t149 335.5q0 115 -53 192z" />
<glyph unicode="&#xf9;" d="M88 352q0 78 27 201l100 448h135l-98 -442q-25 -121 -25 -182q0 -141 96 -214t283 -73q241 0 377 121q54 47 94 127q27 54 51 164l113 499h135l-227 -1001h-135l30 141q-141 -170 -454 -170q-246 0 -374 97.5t-128 283.5zM555 1432h223l127 -297h-88z" />
<glyph unicode="&#xfa;" d="M88 352q0 78 27 201l100 448h135l-98 -442q-25 -121 -25 -182q0 -141 96 -214t283 -73q241 0 377 121q54 47 94 127q27 54 51 164l113 499h135l-227 -1001h-135l30 141q-141 -170 -454 -170q-246 0 -374 97.5t-128 283.5zM686 1137l203 297h223l-338 -297h-88z" />
<glyph unicode="&#xfb;" d="M88 352q0 78 27 201l100 448h135l-98 -442q-25 -121 -25 -182q0 -141 96 -214t283 -73q241 0 377 121q54 47 94 127q27 54 51 164l113 499h135l-227 -1001h-135l30 141q-141 -170 -454 -170q-246 0 -374 97.5t-128 283.5zM512 1124l279 271h120l154 -271h-100l-123 174 l-215 -174h-115z" />
<glyph unicode="&#xfc;" d="M88 352q0 78 27 201l100 448h135l-98 -442q-25 -121 -25 -182q0 -141 96 -214t283 -73q241 0 377 121q54 47 94 127q27 54 51 164l113 499h135l-227 -1001h-135l30 141q-141 -170 -454 -170q-246 0 -374 97.5t-128 283.5zM469 1155l45 195h143l-45 -195h-143zM1014 1155 l45 195h141l-45 -195h-141z" />
<glyph unicode="&#xfd;" horiz-adv-x="1150" d="M-219 -367l31 129q130 -47 227 -47q123 0 197 68q32 29 51 54.5t71 105.5l-282 1058h147l242 -911l598 911h160l-729 -1081l-76 -115q-19 -28 -62 -77q-63 -71 -137 -101t-184 -30q-63 0 -112 7t-142 29zM553 1137l203 297h223l-338 -297h-88z" />
<glyph unicode="&#xfe;" d="M-100 -383l422 1829h135l-133 -576q54 49 89.5 71t92.5 42q122 45 278 45q245 0 390 -127t145 -342q0 -262 -188 -428t-484 -166q-170 0 -286.5 51t-198.5 160l-127 -559h-135zM236 426q0 -161 111.5 -251.5t309.5 -90.5q230 0 372 129t142 340q0 169 -108.5 262.5 t-304.5 93.5q-233 0 -367 -110q-71 -60 -113 -160.5t-42 -212.5z" />
<glyph unicode="&#xff;" horiz-adv-x="1150" d="M-219 -367l31 129q130 -47 227 -47q123 0 197 68q32 29 51 54.5t71 105.5l-282 1058h147l242 -911l598 911h160l-729 -1081l-76 -115q-19 -28 -62 -77q-63 -71 -137 -101t-184 -30q-63 0 -112 7t-142 29zM317 1155l45 195h144l-45 -195h-144zM862 1155l45 195h142 l-45 -195h-142z" />
<glyph unicode="&#x152;" horiz-adv-x="2361" d="M66 594q0 179 71 348.5t197 294.5q246 240 620 240q232 0 402 -84l12 53h1059l-29 -119h-915l-119 -516h821l-28 -121h-822l-131 -569h914l-29 -121h-1055l13 47q-88 -41 -162 -58.5t-164 -17.5q-298 0 -476.5 170t-178.5 453zM207 602q0 -309 231 -436q144 -80 305 -80 q77 0 129 12q62 13 203 72l252 1094q-164 94 -389 94q-154 0 -289.5 -58t-232.5 -158.5t-153 -240.5t-56 -299z" />
<glyph unicode="&#x153;" horiz-adv-x="2457" d="M27 442q0 168 88.5 302t246.5 209t357 75q188 0 323 -63q70 -32 112 -74t87 -123q42 62 68.5 91.5t68.5 62.5q146 110 396 110q256 0 397 -127t141 -356q0 -37 -2 -66h-1030q-4 -40 -4 -47q0 -152 117 -251t297 -99q294 0 481 260l94 -80q-116 -154 -258.5 -225.5 t-335.5 -71.5q-180 0 -298.5 66t-184.5 203q-37 -49 -61.5 -74.5t-61.5 -52.5q-85 -66 -202 -103t-247 -37q-265 0 -427 129.5t-162 341.5zM174 440q0 -166 120 -262t327 -96q234 0 383 133t149 342q0 155 -111 258t-288 103h-43q-236 0 -386.5 -134.5t-150.5 -343.5z M1305 598h862q-15 158 -118.5 241t-285.5 83q-173 0 -293.5 -85t-164.5 -239z" />
<glyph unicode="&#x178;" horiz-adv-x="1492" d="M172 1446h162l403 -744l729 744h172l-854 -860l-135 -586h-131l135 586zM516 1636l47 197h146l-47 -197h-146zM1178 1636l45 197h145l-45 -197h-145z" />
<glyph unicode="&#x2c6;" horiz-adv-x="598" d="M23 1124l278 271h121l153 -271h-100l-123 174l-215 -174h-114z" />
<glyph unicode="&#x2dc;" horiz-adv-x="598" d="M-102 1255q41 44 60 62.5t44 34.5q71 51 152 51q66 0 194 -43q17 -6 41.5 -14t28.5 -9q58 -18 90 -18q39 0 71 20t68 66l53 -29q-54 -72 -96 -104q-75 -60 -158 -60q-60 0 -186 48q-111 43 -164 43q-43 0 -76 -19t-77 -70z" />
<glyph unicode="&#x2000;" horiz-adv-x="935" />
<glyph unicode="&#x2001;" horiz-adv-x="1870" />
<glyph unicode="&#x2002;" horiz-adv-x="935" />
<glyph unicode="&#x2003;" horiz-adv-x="1870" />
<glyph unicode="&#x2004;" horiz-adv-x="623" />
<glyph unicode="&#x2005;" horiz-adv-x="467" />
<glyph unicode="&#x2006;" horiz-adv-x="311" />
<glyph unicode="&#x2007;" horiz-adv-x="311" />
<glyph unicode="&#x2008;" horiz-adv-x="233" />
<glyph unicode="&#x2009;" horiz-adv-x="374" />
<glyph unicode="&#x200a;" horiz-adv-x="103" />
<glyph unicode="&#x2010;" horiz-adv-x="747" d="M37 541l29 123h589l-26 -123h-592z" />
<glyph unicode="&#x2011;" horiz-adv-x="747" d="M37 541l29 123h589l-26 -123h-592z" />
<glyph unicode="&#x2012;" horiz-adv-x="747" d="M37 541l29 123h589l-26 -123h-592z" />
<glyph unicode="&#x2013;" horiz-adv-x="1249" d="M37 541l29 123h1093l-29 -123h-1093z" />
<glyph unicode="&#x2014;" horiz-adv-x="1865" d="M37 541l29 123h1710l-29 -123h-1710z" />
<glyph unicode="&#x2018;" horiz-adv-x="569" d="M264 1012l55 243q15 69 35.5 107t55.5 63q49 37 116 37h2l-18 -82q-48 -8 -70 -31t-34 -83l-9 -41h90l-49 -213h-174z" />
<glyph unicode="&#x2019;" horiz-adv-x="569" d="M270 995l19 82q49 7 69 30t35 85l10 41h-90l49 213h175l-58 -244q-18 -73 -36.5 -110t-51.5 -60q-52 -37 -119 -37h-2z" />
<glyph unicode="&#x201a;" horiz-adv-x="569" d="M-14 -238l18 82q49 6 69.5 29t35.5 86l10 41h-90l49 213h174l-57 -244q-17 -73 -36.5 -110.5t-52.5 -61.5q-49 -35 -118 -35h-2z" />
<glyph unicode="&#x201c;" horiz-adv-x="854" d="M264 1012l55 243q15 69 35.5 107t55.5 63q49 37 116 37h2l-18 -82q-48 -8 -70 -31t-34 -83l-9 -41h90l-49 -213h-174zM547 1012l57 243q17 71 36.5 108t53.5 62q49 37 117 37h2l-18 -82q-48 -8 -69 -30.5t-36 -83.5l-10 -41h90l-49 -213h-174z" />
<glyph unicode="&#x201d;" horiz-adv-x="854" d="M270 995l19 82q49 7 69 30t35 85l10 41h-90l49 213h175l-58 -244q-18 -73 -36.5 -110t-51.5 -60q-52 -37 -119 -37h-2zM555 995l18 82q49 7 69.5 30t35.5 85l10 41h-90l49 213h174l-57 -244q-18 -73 -36.5 -110t-51.5 -60q-52 -37 -119 -37h-2z" />
<glyph unicode="&#x201e;" horiz-adv-x="854" d="M-14 -238l18 82q49 6 69.5 29t35.5 86l10 41h-90l49 213h174l-57 -244q-17 -73 -36.5 -110.5t-52.5 -61.5q-49 -35 -118 -35h-2zM270 -238l19 82q48 6 68.5 29t35.5 86l10 41h-90l49 213h175l-58 -244q-18 -74 -36.5 -111t-51.5 -61q-49 -35 -119 -35h-2z" />
<glyph unicode="&#x2022;" horiz-adv-x="681" d="M57 500l103 446h448l-98 -446h-453z" />
<glyph unicode="&#x2026;" horiz-adv-x="2048" d="M92 0l39 164h158l-39 -164h-158zM774 0l37 164h158l-37 -164h-158zM1456 0l39 164h158l-39 -164h-158z" />
<glyph unicode="&#x202f;" horiz-adv-x="374" />
<glyph unicode="&#x2039;" horiz-adv-x="638" d="M53 588l25 112l491 351l-30 -129l-346 -289l210 -291l-22 -109z" />
<glyph unicode="&#x203a;" horiz-adv-x="638" d="M25 240l30 131l346 288l-213 291l25 107l328 -355l-27 -112z" />
<glyph unicode="&#x205f;" horiz-adv-x="467" />
<glyph unicode="&#x20ac;" horiz-adv-x="1720" d="M49 555l66 109h108l2 16q9 67 17 104h-152l64 109h116q51 150 96.5 224t141.5 163q110 104 249 153.5t322 49.5q184 0 326 -51q83 -29 144.5 -71t158.5 -136l-96 -135q-67 90 -117 131.5t-127 74.5q-142 62 -313 62q-233 0 -388 -115t-237 -350h1040l-59 -109h-1018 q-16 -61 -18 -120h962l-61 -109h-903q19 -223 163.5 -344t391.5 -121q151 0 282 45q85 27 144 60.5t155 107.5l-30 -180q-132 -83 -263.5 -121.5t-283.5 -38.5q-315 0 -503.5 157t-207.5 435h-172z" />
<glyph unicode="&#x2122;" horiz-adv-x="1406" d="M143 1362l21 84h534l-18 -84h-217l-137 -596h-99l138 596h-222zM600 766l156 680h137l49 -557l301 557h139l-155 -680h-92l139 584l-318 -584h-86l-47 582l-127 -582h-96z" />
<glyph unicode="&#xe000;" horiz-adv-x="1003" d="M0 0v1004h1004v-1004h-1004z" />
<glyph unicode="&#xfb01;" horiz-adv-x="1150" d="M90 0l209 897h-201l23 104h201l49 209q35 149 110.5 211t223.5 62q7 0 69 -4q65 -5 131 -19l-31 -119q-98 23 -174 23q-92 0 -134.5 -39.5t-67.5 -146.5l-41 -177h342l-25 -104h-342l-207 -897h-135zM672 0l233 1001h135l-233 -1001h-135zM948 1192l45 197h135l-45 -197 h-135z" />
<glyph unicode="&#xfb02;" horiz-adv-x="1150" d="M90 0l209 897h-201l23 104h201l49 209q35 149 110.5 211t223.5 62q7 0 69 -4q65 -5 131 -19l-31 -119q-98 23 -174 23q-92 0 -134.5 -39.5t-67.5 -146.5l-41 -177h342l-25 -104h-342l-207 -897h-135zM674 0l334 1446h135l-334 -1446h-135z" />
</font>
</defs>
</svg>
