<?xml version="1.0" standalone="no"?>
<!DOCTYPE svg PUBLIC "-//W3C//DTD SVG 1.1//EN" "http://www.w3.org/Graphics/SVG/1.1/DTD/svg11.dtd" >
<svg xmlns="http://www.w3.org/2000/svg">
<metadata></metadata>
<defs>
<font id="nissanag_lightextregular" horiz-adv-x="1449" >
<font-face units-per-em="2048" ascent="1638" descent="-410" />
<missing-glyph horiz-adv-x="716" />
<glyph horiz-adv-x="2048" />
<glyph horiz-adv-x="2048" />
<glyph unicode="&#xd;" horiz-adv-x="2048" />
<glyph unicode=" "  horiz-adv-x="716" />
<glyph unicode="&#x09;" horiz-adv-x="716" />
<glyph unicode="&#xa0;" horiz-adv-x="716" />
<glyph unicode="!" horiz-adv-x="641" d="M281 0v203h157v-203h-157zM287 866v580h145v-623q0 -31 -8 -137l-18 -276h-95l-16 305q-8 118 -8 151z" />
<glyph unicode="&#x22;" horiz-adv-x="712" d="M72 1524h182l-53 -596h-74zM459 1524h182l-53 -596h-74z" />
<glyph unicode="#" horiz-adv-x="1572" d="M100 530v111h422l19 199h-414v116h424l47 490h129l-51 -490h297l45 490h123l-49 -490h385v-116h-396l-20 -199h391v-111h-401l-52 -530h-127l58 530h-297l-58 -530h-118l53 530h-410zM643 641h297l21 199h-297z" />
<glyph unicode="$" horiz-adv-x="1662" d="M66 362l151 58q28 -75 72.5 -131t96 -91t119.5 -58t132.5 -33t144.5 -15v615q-20 3 -62 7q-209 25 -307 58q-237 81 -237 293q0 125 90 225q91 100 219 141t297 52v131h123v-131q331 -14 531 -195q14 -14 86 -90l-131 -70q-92 114 -209 165.5t-277 62.5v-527 q383 -42 506 -127q70 -47 111 -116t41 -150q0 -136 -90 -250q-49 -62 -115.5 -105t-145 -66t-149 -34t-158.5 -16v-137h-123v137q-98 6 -176.5 18.5t-165.5 39t-160 76t-128 120.5q-25 32 -86 143zM324 1075q0 -30 9.5 -55.5t23.5 -44.5t39.5 -35.5t47 -28t56.5 -21t58 -15 t62.5 -11t58.5 -7t56.5 -5t46.5 -4.5v510q-124 -5 -236.5 -41.5t-172.5 -114.5q-49 -62 -49 -127zM905 94q344 22 459 182q49 67 49 150q0 109 -106 172q-43 25 -128.5 46t-134 28t-139.5 18v-596z" />
<glyph unicode="%" horiz-adv-x="2217" d="M61 965q0 124 53.5 226.5t153 164t224.5 61.5t223 -62.5t150.5 -165.5t52.5 -226q0 -191 -121.5 -324t-311.5 -133q-124 0 -222.5 63.5t-150 168t-51.5 227.5zM164 963q0 -119 50 -210t153 -132q61 -25 120 -25q99 0 174.5 50t113.5 131t38 179q0 155 -85 263t-236 108 q-156 0 -242 -102.5t-86 -261.5zM641 0l817 1409h109l-817 -1409h-109zM1294 446q0 190 121 321.5t309 131.5q186 0 306 -134t120 -323q0 -191 -121 -322.5t-311 -131.5q-124 0 -222.5 64t-150 168t-51.5 226zM1395 444q0 -113 45.5 -201t140.5 -132q71 -33 137 -33 q149 0 237.5 103t88.5 255q0 165 -87 268t-249 103q-99 0 -172 -52.5t-107 -133t-34 -177.5z" />
<glyph unicode="&#x26;" horiz-adv-x="1579" d="M78 379q0 54 15 102t37 83t61.5 68.5t72.5 55t86.5 46t87 37.5t90.5 34q-73 84 -113 155t-40 154q0 98 53.5 169.5t135 104.5t177.5 33q142 0 238 -85t96 -226q0 -112 -70.5 -193.5t-183.5 -130.5q-13 -6 -41 -17t-41 -17q206 -232 402 -406q70 98 103.5 193.5 t51.5 228.5h134q-25 -162 -66.5 -274.5t-128.5 -223.5q94 -73 156.5 -105t154.5 -42v-123q-82 3 -155 28.5t-121 56t-129 91.5q-47 -47 -86 -76q-91 -66 -207.5 -99.5t-235.5 -33.5q-74 0 -143.5 14t-135 42t-120 76.5t-90.5 113.5q-45 82 -45 166zM223 391 q0 -60 23.5 -111.5t63 -86t90.5 -59t106 -35.5t110 -11h7q83 0 174 25t161 67q33 20 95 70q-244 212 -441 455q-156 -50 -219 -82q-170 -88 -170 -232zM514 1118q0 -35 12.5 -71t39 -75t43.5 -61t50 -61q35 13 57.5 22t56.5 25t55.5 30.5t46.5 36t39.5 44.5t24 53.5 t9.5 64.5q0 82 -65 132.5t-148 50.5q-93 0 -157 -50.5t-64 -140.5z" />
<glyph unicode="'" horiz-adv-x="325" d="M72 1524h182l-53 -596h-74z" />
<glyph unicode="(" horiz-adv-x="724" d="M158 541q0 528 370 870q21 19 62.5 52.5t48.5 39.5l51 -53q-106 -106 -168 -197q-105 -153 -159 -347t-54 -392q0 -258 98 -488.5t283 -412.5l-51 -59q-234 181 -357.5 436t-123.5 551z" />
<glyph unicode=")" horiz-adv-x="724" d="M37 -393q108 108 168 196q102 150 156.5 343.5t54.5 383.5q0 541 -379 914l51 59q231 -180 356 -435t125 -546q0 -532 -372 -876q-41 -39 -109 -92z" />
<glyph unicode="*" horiz-adv-x="731" d="M68 1202l28 88l217 -57v223h99v-227l221 74l31 -84l-226 -80l137 -187l-75 -55l-140 184l-124 -184l-78 55l127 189z" />
<glyph unicode="+" horiz-adv-x="1581" d="M195 541v121h534v485h123v-485h537v-121h-537v-490h-123v490h-534z" />
<glyph unicode="," horiz-adv-x="555" d="M199 0v203h153v-256q0 -76 -38 -127t-111 -58v74q26 4 42 19t22.5 41.5t7.5 44.5t1 49v10h-77z" />
<glyph unicode="-" horiz-adv-x="747" d="M78 541v123h590v-123h-590z" />
<glyph unicode="." horiz-adv-x="555" d="M197 0v203h157v-203h-157z" />
<glyph unicode="/" horiz-adv-x="1024" d="M35 0l817 1446h121l-815 -1446h-123z" />
<glyph unicode="0" horiz-adv-x="1492" d="M61 705q0 201 84 366.5t242.5 265t362.5 99.5q48 0 129 -15q171 -33 296.5 -137.5t188.5 -252.5t63 -322q0 -199 -85.5 -365.5t-245 -266.5t-361.5 -100q-196 0 -358 105.5t-246 284.5q-33 72 -51.5 164t-18.5 174zM209 702q0 -163 61.5 -297.5t184.5 -217.5t288 -83 q123 0 225.5 49t169.5 132t103.5 190.5t36.5 226.5q0 332 -207 498q-136 109 -323 109q-130 0 -234 -48t-169.5 -132t-100.5 -193t-35 -234z" />
<glyph unicode="1" horiz-adv-x="1492" d="M338 1016v117q132 0 230 39t153 139q21 40 39 108h94v-1419h-139v1112q-82 -59 -168 -77.5t-209 -18.5z" />
<glyph unicode="2" horiz-adv-x="1492" d="M150 2v129q20 9 138 62.5t169 78t159 78.5t172 92t139 90t124 99q157 150 157 327q0 89 -38 159t-101.5 112t-140.5 64t-162 22h-8q-90 0 -171 -23.5t-152 -78t-107 -134.5q-29 -61 -37 -186l-141 20q18 116 30 152q41 127 133.5 213t208 123t252.5 37q151 0 258 -43 q144 -56 233 -170t89 -262q0 -190 -135 -347q-201 -235 -850 -495h1003v-119h-1222z" />
<glyph unicode="3" horiz-adv-x="1492" d="M117 354l137 45q126 -305 518 -305q63 0 125.5 10t126 34t112 59.5t79 92t30.5 126.5q0 93 -61 157q-59 63 -143.5 83t-198.5 20h-232v121h178h64t56.5 2.5t62 8t51.5 15.5t56.5 27t47.5 41q64 64 64 153q0 76 -41.5 131t-109 83t-135.5 40.5t-138 12.5 q-86 0 -160.5 -17.5t-138.5 -54.5t-109.5 -100t-64.5 -148l-135 45q6 13 16 39t19.5 47t19.5 39q80 142 227 207.5t326 65.5q97 0 191 -21t180 -64.5t139 -123t53 -183.5q0 -110 -72 -187t-184 -101q139 -28 225 -114.5t86 -221.5q0 -104 -53 -193q-41 -69 -106 -120 t-143.5 -78t-157 -39.5t-162.5 -12.5q-348 0 -533 203q-54 59 -112 176z" />
<glyph unicode="4" horiz-adv-x="1492" d="M70 379v121l876 923h152v-923h305v-121h-305v-379h-137v379h-891zM233 500h728v770z" />
<glyph unicode="5" horiz-adv-x="1492" d="M94 354l139 39q33 -93 74 -141q66 -79 181 -117.5t233 -38.5q92 0 181.5 24.5t166 72t123.5 126.5t47 177q0 84 -39 155q-41 78 -116.5 129.5t-158.5 71.5t-177 20q-301 0 -467 -229h-129l45 766h1081v-115h-959l-28 -479q51 51 69 64q152 112 410 112q116 0 222 -30.5 t193 -89.5t139 -156t52 -219q0 -102 -36.5 -188t-98 -146t-143.5 -102.5t-173 -62.5t-186 -20q-107 0 -203.5 21t-183 65t-153.5 118t-105 173z" />
<glyph unicode="6" horiz-adv-x="1492" d="M109 651q0 162 43 301.5t125.5 247t215.5 169t302 61.5q385 0 587 -308l-129 -59q-165 242 -471 242q-109 0 -198.5 -33.5t-151.5 -92t-105 -139.5t-64 -173t-23 -195q30 73 92.5 127.5t141.5 83t157.5 42t159.5 13.5q179 0 333 -63t236 -199q57 -94 57 -203 q0 -134 -90 -262q-56 -79 -151 -133.5t-194.5 -77.5t-201.5 -23q-312 0 -491.5 181t-179.5 493zM297 471q0 -126 82 -217q133 -150 395 -150q68 0 136.5 12t135.5 40.5t118 69.5t82.5 103t31.5 138q0 75 -31 135.5t-80 98.5t-115 63.5t-132 36t-134 10.5h-18 q-83 0 -162.5 -18.5t-150.5 -57t-114.5 -107t-43.5 -157.5z" />
<glyph unicode="7" horiz-adv-x="1492" d="M147 1286v123h1233v-102q-62 -46 -90 -72q-135 -121 -267 -314t-206 -368q-125 -294 -125 -553h-153v12q0 58 10 133q29 189 119 401.5t206 377.5q126 181 304 362h-1031z" />
<glyph unicode="8" horiz-adv-x="1492" d="M100 391q0 72 33 134.5t88 105t120 70.5t134 38q-132 19 -221.5 99.5t-89.5 208.5q0 85 38.5 153.5t99.5 111t140.5 71t156.5 40t153 11.5q99 0 189.5 -16.5t182.5 -62.5t146 -118q65 -86 65 -188q0 -74 -39 -144q-70 -132 -278 -166q93 -12 176.5 -55.5t140 -121.5 t56.5 -173q0 -82 -37 -149q-40 -76 -108 -130t-151.5 -82t-165 -39.5t-171.5 -11.5h-13q-391 0 -561 191q-84 93 -84 223zM242 393q0 -67 36.5 -120t91.5 -85.5t126 -54t134.5 -29.5t121.5 -8q60 0 122 7.5t131 28t122 52.5t87.5 85.5t34.5 121.5q0 67 -35.5 118.5t-88 81.5 t-122.5 49t-130 25.5t-119 6.5q-60 0 -121.5 -6.5t-134 -25t-127.5 -48t-92 -81.5t-37 -118zM309 1057q0 -93 68 -152q57 -51 169.5 -76.5t211.5 -25.5q54 0 107.5 5.5t115.5 22.5t108.5 43.5t77.5 73.5t31 107q0 62 -30 110t-76 76.5t-106.5 47.5t-115.5 25.5t-110 6.5 q-57 0 -112.5 -6t-119 -24t-110.5 -46t-78 -76.5t-31 -111.5z" />
<glyph unicode="9" horiz-adv-x="1492" d="M90 930q0 126 70 235q90 135 240 202t323 67h20q212 0 362.5 -88t225 -244t74.5 -367q0 -163 -44 -300t-127.5 -238.5t-214.5 -159t-296 -57.5q-178 0 -327 71.5t-246 214.5l126 64q83 -110 202 -169t257 -59q110 0 200.5 36.5t153 98.5t105.5 147t62.5 180.5t19.5 199.5 q-32 -81 -96.5 -140.5t-147.5 -91t-167 -46.5t-171 -15q-176 0 -325.5 63t-227.5 199q-51 91 -51 197zM231 938q0 -74 28.5 -133.5t74.5 -97t108.5 -63t126 -36t131.5 -10.5q66 0 133.5 10.5t136 36.5t121.5 64t86 98.5t33 134.5q0 75 -26.5 137.5t-70.5 104t-104 70 t-125.5 41t-135.5 12.5t-139.5 -12.5t-138.5 -41t-121.5 -70t-85 -105t-32.5 -140.5z" />
<glyph unicode=":" horiz-adv-x="641" d="M283 0v203h161v-203h-161zM283 801v200h161v-200h-161z" />
<glyph unicode=";" horiz-adv-x="641" d="M283 0v203h153v-256q0 -76 -38 -127t-111 -58v74q73 12 73 129q0 23 -2 35h-75zM283 801v200h161v-200h-161z" />
<glyph unicode="&#x3c;" horiz-adv-x="1581" d="M203 535v137l1110 495v-131l-979 -426l979 -417v-138z" />
<glyph unicode="=" horiz-adv-x="1581" d="M193 354v119h1196v-119h-1196zM193 717v119h1196v-119h-1196z" />
<glyph unicode="&#x3e;" horiz-adv-x="1581" d="M268 55v131l979 428l-979 416v137l1110 -479v-137z" />
<glyph unicode="?" d="M164 1034q78 226 224 335.5t384 109.5q87 0 168.5 -16t156 -51.5t129.5 -87t87.5 -129t32.5 -171.5q0 -99 -38 -185.5t-112 -144.5q-62 -49 -164 -86q-9 -3 -83.5 -22.5t-117.5 -42t-55 -56.5q-4 -9 -5 -23.5t-1.5 -34t-1.5 -26.5h-127q0 5 1 29t1.5 36.5t2.5 32.5t6 35 t10 27q18 36 52.5 61.5t58 34t78.5 23.5q9 3 13 4q77 21 127 41q107 43 163 111t56 178q0 71 -25 129t-67.5 97t-99.5 65.5t-118.5 38.5t-127.5 12q-117 0 -226.5 -47t-174.5 -135q-12 -16 -22 -33t-19.5 -40t-14.5 -34.5t-16 -42t-14 -37.5zM627 0v203h153v-203h-153z" />
<glyph unicode="@" horiz-adv-x="1906" d="M141 522q0 195 73.5 368.5t200 298t302.5 197t373 72.5q307 0 487 -165.5t180 -448.5q0 -218 -112 -416q-77 -135 -173.5 -208t-199.5 -73q-85 0 -125 45.5t-43 145.5q-60 -78 -115 -117q-91 -71 -209 -71q-125 0 -196.5 87.5t-71.5 239.5q0 150 62 284t165 214t219 80 q105 0 175 -70q37 -37 77 -125l35 148h125l-67 -299q-2 -9 -9 -34t-10 -40q-16 -68 -31 -143q-16 -88 -16 -142q0 -46 22 -75t56 -29q59 0 123 61q103 95 165 242.5t62 296.5q0 244 -157.5 385t-428.5 141q-175 0 -330.5 -65.5t-266.5 -178t-175.5 -270.5t-64.5 -336 q0 -314 192.5 -499t519.5 -185q190 0 379 74q102 40 170 83.5t176 139.5l60 -65q-136 -113 -218 -165t-192 -93q-180 -66 -364 -66q-242 0 -429.5 97t-291 273.5t-103.5 405.5zM649 481q0 -105 50.5 -166t136.5 -61q98 0 172 74q66 66 111.5 178.5t45.5 208.5 q0 106 -52.5 168.5t-143.5 62.5q-82 0 -156.5 -65t-119 -172.5t-44.5 -227.5z" />
<glyph unicode="A" horiz-adv-x="1622" d="M12 0l713 1446h156l729 -1446h-150l-186 375h-932l-184 -375h-146zM397 489h820l-414 828z" />
<glyph unicode="B" horiz-adv-x="1878" d="M168 0v1446h1073q124 0 210.5 -28.5t154.5 -110.5q77 -96 77 -224q0 -121 -66.5 -207.5t-184.5 -109.5q149 -17 237 -118.5t88 -252.5q0 -143 -69 -239q-66 -91 -163.5 -123.5t-230.5 -32.5h-1126zM309 121h985q97 0 162.5 24.5t112.5 94.5q45 65 45 151q0 104 -51 178 q-30 43 -74 70t-102 38t-100 14t-107 3h-871v-573zM309 817h893q67 0 123 12.5t104.5 40t76.5 79t28 122.5q0 94 -43 154q-48 65 -113 84.5t-166 19.5h-903v-512z" />
<glyph unicode="C" horiz-adv-x="1662" d="M84 729q0 166 65.5 310t176.5 242t259.5 154t311.5 56q161 0 314 -55.5t266 -161.5q59 -56 139 -180l-123 -70q-60 98 -94 135q-87 100 -219 151.5t-275 51.5q-187 0 -338.5 -78.5t-240 -225.5t-88.5 -335q0 -139 51.5 -257.5t140 -200.5t210 -128.5t259.5 -46.5 q164 0 307.5 60.5t241.5 181.5q18 22 47 67t33 50l125 -58q-122 -213 -314.5 -320.5t-439.5 -107.5q-171 0 -317.5 49.5t-264 157.5t-178.5 264q-55 140 -55 295z" />
<glyph unicode="D" horiz-adv-x="1748" d="M170 0v1446h754q162 0 274 -37q217 -71 334 -261.5t117 -428.5q0 -248 -115 -422q-51 -77 -113.5 -131.5t-126 -86.5t-145 -50t-154.5 -23.5t-170 -5.5h-655zM313 121h494q124 0 217 10.5t176 46.5q107 46 177 131.5t98 185.5t28 220q0 131 -37.5 243t-121 201.5 t-205.5 132.5q-104 35 -246 35h-580v-1206z" />
<glyph unicode="E" horiz-adv-x="1705" d="M170 0v1446h1384v-119h-1243v-508h1149v-123h-1149v-575h1303v-121h-1444z" />
<glyph unicode="F" horiz-adv-x="1536" d="M170 0v1446h1331v-119h-1190v-514h1065v-125h-1065v-688h-141z" />
<glyph unicode="G" horiz-adv-x="1835" d="M90 719q0 140 41.5 263t117 215.5t177.5 159t226 100.5t261 34q176 0 342.5 -59.5t280.5 -176.5q62 -64 113 -147l-136 -78q-47 86 -96 137q-97 99 -230.5 146t-285.5 47q-187 0 -337 -78.5t-237 -224.5t-87 -334q0 -194 90 -339.5t243 -220.5t345 -75q122 0 235 37 t201.5 105t144 172.5t60.5 230.5h-768v123h892v-756h-124v297q-59 -113 -169.5 -191.5t-234.5 -112.5t-256 -34q-167 0 -314.5 54.5t-257 151.5t-173.5 240.5t-64 313.5z" />
<glyph unicode="H" horiz-adv-x="1835" d="M170 0v1446h141v-619h1215v619h137v-1446h-137v707h-1215v-707h-141z" />
<glyph unicode="I" horiz-adv-x="468" d="M168 0v1446h137v-1446h-137z" />
<glyph unicode="J" horiz-adv-x="1280" d="M12 354l144 56q18 -72 43 -115q119 -203 403 -203q83 0 147 17.5t106.5 43.5t72 74.5t45 90.5t24 112t10 120t1.5 132v764h135v-893q0 -98 -10 -170t-38.5 -144t-84.5 -126.5t-142 -94.5q-121 -55 -274 -55q-150 0 -278 52t-210 163q-40 53 -94 176z" />
<glyph unicode="K" horiz-adv-x="1622" d="M170 0v1446h137v-879l1082 879h190l-684 -557l719 -889h-182l-646 801l-479 -389v-412h-137z" />
<glyph unicode="L" horiz-adv-x="1409" d="M170 0v1446h143v-1325h1053v-121h-1196z" />
<glyph unicode="M" horiz-adv-x="1921" d="M168 0v1446h184l549 -1172q46 -93 66 -153l608 1325h180v-1446h-129v1288q-86 -192 -184 -406.5t-219.5 -476.5t-186.5 -405h-143l-553 1180q-21 45 -41 108v-1288h-131z" />
<glyph unicode="N" horiz-adv-x="1835" d="M170 0v1446h129l1239 -1268v1268h129v-1446h-129l-1239 1262v-1262h-129z" />
<glyph unicode="O" horiz-adv-x="1878" d="M86 725q0 173 68 318.5t183 242.5t267 151t320 54q218 0 383 -64q222 -85 354.5 -273.5t132.5 -424.5q0 -161 -63 -305q-51 -115 -136.5 -204.5t-192 -145.5t-226 -84.5t-246.5 -28.5q-171 0 -324 52.5t-268.5 148t-183.5 241.5t-68 322zM238 721q0 -151 55.5 -273 t151.5 -200.5t223.5 -121t273.5 -42.5q147 0 274 44.5t220.5 126.5t146.5 206t53 274q0 139 -51 260.5t-151 208.5q-88 78 -226 121t-268 43q-144 0 -272 -45.5t-223.5 -127t-151 -204.5t-55.5 -270z" />
<glyph unicode="P" horiz-adv-x="1662" d="M168 0v1446h975q142 0 245.5 -35t170.5 -133q67 -101 67 -229q0 -130 -67 -224q-41 -57 -93 -94t-115 -54.5t-120.5 -23.5t-134.5 -6h-785v-647h-143zM311 766h774q392 0 392 285q0 84 -35 143q-48 82 -117.5 107.5t-181.5 25.5h-832v-561z" />
<glyph unicode="Q" horiz-adv-x="1878" d="M82 725q0 217 115 398t311 272q195 90 440 90q162 0 308.5 -47.5t269 -148.5t190.5 -245q74 -151 74 -325q0 -235 -137 -426q-33 -47 -117 -127l285 -156l-62 -110l-338 186q-130 -68 -235 -97.5t-240 -29.5q-247 0 -451 95t-315 294q-98 174 -98 377zM236 725 q0 -152 54.5 -274.5t149.5 -202.5t222.5 -123t275.5 -43q146 0 273 44.5t221 126t148 204t54 270.5q0 121 -36 224t-101 177.5t-153 127t-193 78.5t-221 26q-103 0 -219 -29q-212 -56 -343.5 -222t-131.5 -384z" />
<glyph unicode="R" horiz-adv-x="1792" d="M170 0v1446h1030q142 0 242 -34.5t166 -135.5q61 -94 61 -227q0 -150 -88 -254q-40 -47 -88.5 -77t-110 -44.5t-106.5 -19.5t-121 -9l582 -645h-195l-571 645h-662v-645h-139zM309 768h807q60 0 100 3t91 14t91 37t70 67q24 32 37 79t13 89q0 86 -39 145 q-46 73 -113.5 99t-165.5 26h-891v-559z" />
<glyph unicode="S" horiz-adv-x="1662" d="M66 362l151 58q37 -97 103 -164.5t154 -102t177.5 -49t196.5 -14.5q66 0 136.5 9t149.5 32.5t140 59t101 96t40 135.5q0 94 -76 158q-25 20 -80 39.5t-112 32.5t-142 26.5t-136 20t-130.5 15.5t-91.5 11q-51 7 -89.5 13.5t-90.5 19.5t-89.5 29t-77.5 42t-65 57.5t-41 76 t-16 98.5q0 120 82 221q61 75 167 123t208 64t211 16q206 0 384 -69t292 -216l-129 -72q-171 232 -559 232q-59 0 -121 -7.5t-133.5 -27.5t-126 -51t-91 -83.5t-36.5 -119.5q0 -39 13.5 -70.5t47.5 -53.5t57 -35.5t77.5 -25t71.5 -14t74 -10.5q18 -3 27 -4q28 -4 147 -19 t197.5 -26t174 -32.5t143.5 -45.5q209 -99 209 -305q0 -123 -76 -225q-67 -90 -177.5 -146.5t-219.5 -76t-232 -19.5q-486 0 -688 232q-45 51 -106 167z" />
<glyph unicode="T" horiz-adv-x="1409" d="M-2 1327v119h1407v-119h-621v-1327h-137v1327h-649z" />
<glyph unicode="U" horiz-adv-x="1792" d="M162 610v836h133v-776v-35v-39.5t0.5 -37t1.5 -41t3 -38t5.5 -39.5t8 -34.5t10.5 -34.5q106 -277 538 -277q84 0 145.5 4.5t140.5 19t143 49.5t108 89q29 35 48.5 79t28.5 77t13.5 93t5 84t0.5 93v764h131v-866q0 -137 -34.5 -242.5t-96.5 -175.5t-153 -115t-197 -64.5 t-236 -19.5q-100 0 -184 8.5t-175 34.5t-159.5 69t-124 116t-82.5 171q-22 77 -22 248z" />
<glyph unicode="V" d="M0 1446h156l598 -1294l579 1294h154l-670 -1446h-135z" />
<glyph unicode="W" horiz-adv-x="2174" d="M6 1446h146l370 -1137q24 -75 51 -166q50 161 222 658q38 107 112.5 322t112.5 323h149l396 -1116q10 -27 20.5 -58.5t22 -69.5t18.5 -59q48 174 72 248l334 1055h137l-459 -1446h-168l-403 1161q-34 100 -43 144q-103 -309 -447 -1305h-164z" />
<glyph unicode="X" horiz-adv-x="1492" d="M-8 1446h178l567 -606l527 606h172l-613 -705l693 -741h-179l-600 645l-557 -645h-172l641 741z" />
<glyph unicode="Y" horiz-adv-x="1492" d="M12 1446h172l576 -744l557 744h164l-656 -860v-586h-131v586z" />
<glyph unicode="Z" horiz-adv-x="1536" d="M0 0v117l1350 1210h-1237v119h1423v-127l-1337 -1198h1300v-121h-1499z" />
<glyph unicode="[" horiz-adv-x="598" d="M166 -434v1929h383v-127h-250v-1675h250v-127h-383z" />
<glyph unicode="\" horiz-adv-x="1024" d="M35 1446h123l815 -1446h-121z" />
<glyph unicode="]" horiz-adv-x="598" d="M49 -309h250v1675h-250v129h383v-1929h-383v125z" />
<glyph unicode="^" horiz-adv-x="1581" d="M297 586l436 860h141l410 -860l-137 2l-346 729l-365 -731h-139z" />
<glyph unicode="_" horiz-adv-x="1024" d="M-20 -301h1064v-121h-1064v121z" />
<glyph unicode="`" horiz-adv-x="768" d="M195 1432h225l153 -297h-88z" />
<glyph unicode="a" horiz-adv-x="1366" d="M84 303q0 90 45 161.5t125 113.5q32 16 79 29t92.5 21t114 14.5t113.5 10t122 5.5t109.5 3t105.5 1h83q-1 47 -3 67.5t-14 52.5t-36 56q-46 46 -153.5 63t-211.5 17q-54 0 -90 -2t-83.5 -8t-80.5 -20t-66.5 -36t-57 -58.5t-37.5 -84.5l-144 6q9 67 56 137 q121 188 497 188q402 0 506 -168q43 -71 43 -186v-463q0 -73 45 -101q32 -21 81 -21q19 0 40 3v-104q-14 -1 -56 -4.5t-65 -3.5q-83 0 -119 36.5t-49 118.5q-88 -61 -98 -67q-91 -53 -207 -80t-231 -27q-123 0 -219.5 26.5t-159.5 100.5q-76 88 -76 203zM229 301 q0 -48 21.5 -85.5t54 -60t77 -37t86 -19.5t85.5 -5q78 0 165.5 17t175 59.5t128.5 101.5q25 36 37.5 85t14 82t1.5 93v17q-600 0 -733 -78q-113 -67 -113 -170z" />
<glyph unicode="b" d="M147 0v1446h136v-598q74 100 201.5 145t271.5 45q124 0 232 -36t189 -102.5t128 -169t47 -228.5q0 -125 -50.5 -226.5t-135.5 -165.5t-193 -98.5t-228 -34.5q-127 0 -262 47t-200 134v-158h-136zM281 502q0 -105 33.5 -184t95.5 -127t145 -71.5t186 -23.5q129 0 232 45 t167 140t64 225q0 131 -71 228.5t-195 142.5q-96 34 -231 34q-107 0 -209 -45q-117 -51 -167 -140t-50 -224z" />
<glyph unicode="c" horiz-adv-x="1366" d="M82 512q0 128 53 232.5t141.5 171t201 102t235.5 35.5q186 0 347.5 -84t246.5 -240l-136 -57q-83 135 -193.5 199.5t-266.5 64.5q-153 0 -270 -63t-173 -195q-35 -81 -35 -166q0 -129 66.5 -225.5t172.5 -143.5t233 -47q109 0 217.5 40t177.5 114q12 13 22 26t20.5 30.5 t16 26.5t17.5 32t16 30l135 -51q-77 -126 -156 -203q-88 -84 -216 -124t-265 -40q-98 0 -187.5 21.5t-166.5 66t-133.5 107.5t-88.5 150.5t-32 189.5z" />
<glyph unicode="d" d="M90 508q0 102 34 189.5t93.5 150t138.5 107t169.5 66t187.5 21.5q82 0 166 -18t165.5 -63.5t120.5 -110.5v596h135v-1446h-135v156q-156 -185 -460 -185q-122 0 -232 36t-196 102t-136.5 169.5t-50.5 229.5zM242 508q0 -92 39 -178q39 -85 110.5 -140t153 -77.5 t178.5 -22.5q118 0 222.5 41.5t160.5 128.5q59 90 59 254q0 158 -67 250q-43 59 -113.5 97.5t-142 52.5t-150.5 14q-69 0 -166 -33q-137 -48 -210.5 -146t-73.5 -241z" />
<glyph unicode="e" horiz-adv-x="1366" d="M96 528q0 121 46.5 220t126 163t183.5 98.5t222 34.5q196 0 353.5 -95.5t221.5 -272.5q23 -59 35 -184h-1046q17 -190 152 -295t329 -105q305 0 459 260l106 -76q-112 -153 -253 -228t-326 -75q-122 0 -232 39t-194 109.5t-133.5 176t-49.5 230.5zM242 606h878 q-19 105 -89.5 180.5t-164.5 109.5t-200 34q-159 0 -276.5 -86t-147.5 -238z" />
<glyph unicode="f" horiz-adv-x="724" d="M20 907v105h201q0 8 -1 66q-1 40 -1 69q0 14 1 27q0 36 4.5 84t13.5 73q31 83 98.5 116.5t165.5 33.5q97 0 196 -21v-119q-103 21 -174 21q-96 0 -132 -43t-36 -141v-166h342v-105h-342v-907h-135v907h-201z" />
<glyph unicode="g" horiz-adv-x="1409" d="M82 512q0 165 88 293t242 188q122 49 284 49q126 0 243.5 -44.5t197.5 -133.5l-4 148h131v-932q0 -166 -41 -252q-33 -70 -93 -119t-135.5 -73.5t-148.5 -35t-154 -10.5q-80 0 -146.5 7t-138 29t-122 57.5t-87 97.5t-44.5 145h141q7 -65 35 -102q46 -60 148 -86.5 t204 -26.5q114 0 233 29q64 17 107.5 47t65.5 59.5t33 85.5t12.5 93t1.5 113v22q-35 -43 -68 -70q-73 -59 -185 -89t-220 -30q-165 0 -295.5 63.5t-207.5 187.5t-77 290zM229 510q0 -128 61 -224.5t163.5 -145t230.5 -48.5q116 0 223 43q122 51 176 145t54 232 q0 165 -62 254q-57 83 -162.5 123.5t-220.5 40.5q-128 0 -232 -48.5t-167.5 -145.5t-63.5 -226z" />
<glyph unicode="h" d="M143 0v1446h136v-598q43 68 130.5 113t174.5 61t176 16q109 0 225 -29.5t182 -88.5q77 -69 104 -157.5t27 -209.5v-553h-133v532q0 150 -45 226q-93 157 -389 157q-64 0 -126.5 -12t-123 -36.5t-108.5 -69t-72 -103.5q-22 -55 -22 -135v-559h-136z" />
<glyph unicode="i" horiz-adv-x="425" d="M145 0v1012h136v-1012h-136zM145 1192v197h136v-197h-136z" />
<glyph unicode="j" horiz-adv-x="425" d="M-182 -242q95 -26 155 -26q93 0 133.5 33.5t40.5 121.5v1125h132v-1133q0 -140 -65 -204t-210 -64q-64 0 -186 24v123zM147 1188v198h132v-198h-132z" />
<glyph unicode="k" horiz-adv-x="1366" d="M147 0v1446h134v-1010l757 576h205l-512 -391l643 -621h-200l-556 537l-337 -261v-276h-134z" />
<glyph unicode="l" horiz-adv-x="425" d="M147 0v1446h136v-1446h-136z" />
<glyph unicode="m" horiz-adv-x="2390" d="M145 0v1012h138v-131q167 159 442 159q146 0 273.5 -50.5t199.5 -158.5q82 107 215 156t283 49q81 0 158 -15.5t149.5 -48t129 -89.5t83.5 -133q22 -65 22 -152v-598h-133v565q0 92 -33.5 160.5t-93 107.5t-133 57.5t-162.5 18.5q-61 0 -119 -9.5t-113.5 -32.5 t-96.5 -57.5t-66.5 -88t-25.5 -119.5v-602h-136v557q0 352 -409 352q-58 0 -116 -9.5t-117 -30t-107 -58.5t-72 -88q-22 -45 -22 -131v-592h-138z" />
<glyph unicode="n" d="M145 0v1012h136v-142q63 58 88 76q71 47 178.5 70.5t208.5 23.5q73 0 142.5 -11t139 -34.5t126.5 -68.5t91 -107q52 -95 52 -260v-559h-136v588q0 323 -432 323q-67 0 -128.5 -9.5t-122.5 -32.5t-106 -59t-73 -93t-28 -129v-588h-136z" />
<glyph unicode="o" d="M88 504q0 105 34.5 194t94.5 152t141 107.5t173 65.5t192 21q140 0 233 -28q185 -53 294.5 -190.5t109.5 -327.5q0 -101 -36.5 -188t-98.5 -148.5t-144 -105t-173.5 -64.5t-186.5 -21q-123 0 -229 28t-200 97t-147 174q-57 111 -57 234zM242 504q0 -103 37.5 -184 t103.5 -131.5t151.5 -76.5t184.5 -26t185.5 26t155 76t108.5 131.5t40 184.5q0 134 -66.5 233t-174.5 148t-240 49q-98 0 -185.5 -28.5t-154.5 -81.5t-106 -135.5t-39 -184.5z" />
<glyph unicode="p" d="M152 -383v1395h131v-160q82 99 212 143.5t277 44.5q164 0 294.5 -61.5t208 -182t77.5 -282.5v-6q0 -123 -51.5 -226t-137 -169t-195 -102t-227.5 -36q-143 0 -255.5 41.5t-202.5 139.5v-539h-131zM285 506q0 -136 43 -211q56 -99 168 -147t239 -48t231 46t169 141t65 223 q0 87 -35 168q-55 123 -165.5 182.5t-254.5 59.5h-6q-206 0 -330 -107t-124 -307z" />
<glyph unicode="q" d="M92 508q0 170 81 294.5t214.5 185.5t300.5 61q139 0 264 -43t213 -134v140h133v-1381h-133v508q-100 -90 -208 -129t-246 -39q-123 0 -233.5 35.5t-197 101.5t-137.5 169.5t-51 230.5zM244 524q0 -133 65.5 -231.5t172 -147.5t237.5 -49q109 0 214 40t163 118 q71 96 71 256q0 208 -124 313t-332 105q-87 0 -170 -21q-136 -37 -216.5 -140t-80.5 -243z" />
<glyph unicode="r" horiz-adv-x="811" d="M145 0v1012h136v-164q45 63 101.5 104t125.5 59.5t130.5 24.5t147.5 6v-141q-70 8 -106 8q-110 0 -198.5 -37t-144.5 -116.5t-56 -190.5v-565h-136z" />
<glyph unicode="s" horiz-adv-x="1280" d="M61 250l148 33q91 -185 453 -185q43 0 89.5 4t105.5 17.5t103.5 34.5t75.5 58.5t31 86.5q0 35 -16 60.5t-37 39.5t-56.5 24t-58 13t-59.5 6q-68 6 -135 9q-52 4 -164 8q-65 2 -99.5 5t-95.5 12t-104.5 30.5t-73.5 54.5q-62 71 -62 162q0 79 35 138.5t87 92.5t125.5 53.5 t137.5 26.5t136 6q70 0 128 -4.5t126.5 -19t121.5 -39.5t101.5 -69.5t77.5 -104.5l-150 -31q-21 45 -70.5 77t-114 46.5t-119.5 20.5t-110 6q-53 0 -108 -7t-119.5 -25t-104.5 -57.5t-40 -95.5q0 -42 28 -78q6 -7 14 -13.5t15.5 -11t18.5 -8.5t18 -6.5t20.5 -5t20 -3.5 t21.5 -2.5t19.5 -2t20 -1.5t17.5 -1q84 -6 235 -14q180 -8 260 -26q140 -31 197 -107q53 -68 53 -154q0 -94 -55 -164q-129 -164 -477 -164q-522 0 -611 275z" />
<glyph unicode="t" horiz-adv-x="641" d="M18 907v105h193v346l135 63v-409h287v-105h-287v-499v-9v-51t2 -48t5.5 -48t10 -42t16 -38.5t24.5 -30.5t34.5 -25t46 -14t58.5 -6q14 0 28.5 1t32.5 2.5t29 2.5v-110q-84 -15 -135 -15q-46 0 -84 7.5t-66 18.5t-49.5 32t-36 40.5t-24.5 51t-15 56t-8 64.5t-3.5 67.5 t-0.5 72.5v520h-193z" />
<glyph unicode="u" d="M145 446v566h136v-553q0 -52 2 -84t13.5 -74.5t33.5 -75.5q49 -69 144 -98t200 -29q84 0 170.5 15t174.5 58t124 108q28 50 28 131v602h134v-1012h-134v147q-188 -174 -497 -174q-411 0 -502 263q-27 73 -27 210z" />
<glyph unicode="v" horiz-adv-x="1150" d="M4 1012h154l422 -862l419 862h154l-512 -1012h-125z" />
<glyph unicode="w" horiz-adv-x="1748" d="M0 1012h145l336 -846l324 846h141l328 -846l334 846h139l-410 -1012h-129l-334 856l-327 -856h-129z" />
<glyph unicode="x" horiz-adv-x="1150" d="M-8 0l500 526l-469 486h182l370 -394l371 394h174l-463 -486l502 -526h-178l-406 432l-405 -432h-178z" />
<glyph unicode="y" horiz-adv-x="1150" d="M0 1012h162l452 -918l387 918h146l-477 -1090q-22 -50 -37.5 -82.5t-35.5 -67.5t-37.5 -56t-42.5 -42.5t-51.5 -33t-62 -21t-77.5 -13t-95 -3.5q-103 0 -208 24v127q107 -37 206 -37q133 0 200 51t114 177z" />
<glyph unicode="z" horiz-adv-x="1150" d="M23 0v111l901 790h-836v111h1030v-94l-907 -805h907v-113h-1095z" />
<glyph unicode="{" horiz-adv-x="643" d="M90 473v113q75 14 108.5 40t46.5 80.5t13 170.5v317q0 105 29 170q41 87 145 121q63 18 162 18v-112h-16q-56 0 -86.5 -9t-53.5 -32q-27 -27 -37 -64q-10 -44 -10 -160v-276q0 -128 -18 -188q-12 -46 -43.5 -76.5t-91.5 -55.5q41 -15 61.5 -29t40.5 -40q23 -26 33 -64 q11 -35 14.5 -70t3.5 -116v-363q0 -90 47 -137q25 -25 56 -34t94 -9h6v-112q-50 0 -66 2q-118 6 -188 67q-69 56 -78 162q-4 66 -4 152v243q0 117 -13 172t-46.5 80.5t-108.5 38.5z" />
<glyph unicode="|" horiz-adv-x="471" d="M168 -434v1929h135v-1929h-135z" />
<glyph unicode="}" horiz-adv-x="643" d="M53 -332h19q53 0 84 10t55 33q26 26 35 64q10 44 10 159l2 277q0 85 3 119t13 69q13 45 45 75.5t91 55.5q-40 15 -61 29t-42 39q-26 37 -33 64q-10 35 -13 69t-3 119l-2 362q0 90 -45 138q-25 25 -56.5 34t-93.5 9h-8v110q52 0 68 -2q116 -6 188 -65q67 -61 76 -162 q4 -33 4 -152v-245q0 -116 13 -170.5t46.5 -80.5t108.5 -40v-111q-75 -14 -108.5 -40t-46.5 -81t-13 -172v-317q0 -101 -27 -168q-42 -92 -147 -121q-59 -17 -162 -20v112z" />
<glyph unicode="~" horiz-adv-x="1693" d="M164 543q40 51 65 75.5t60 51.5q114 82 250 82q34 0 98 -11q71 -15 229 -77l97 -37q85 -33 119 -42.5t69 -9.5q80 0 158 48q57 36 127 110l94 -82q-53 -59 -86.5 -87.5t-83.5 -57.5q-108 -60 -221 -60q-73 0 -156 29q-24 8 -70.5 26.5t-56.5 22.5l-86 35q-153 62 -248 62 q-63 0 -111.5 -29.5t-127.5 -108.5l-23 -22z" />
<glyph unicode="&#xa1;" horiz-adv-x="641" d="M203 1245v201h157v-201h-157zM209 0v623q0 29 8 139l19 276h94l16 -305q8 -118 8 -153v-580h-145z" />
<glyph unicode="&#xa2;" horiz-adv-x="1366" d="M88 510q0 183 104.5 317t282.5 185q67 19 172 26v211h113v-213q179 -5 320 -86t231 -235l-125 -53q-62 120 -175.5 190t-250.5 76v-836q171 18 271.5 83t170.5 214l129 -49q-100 -178 -234 -264t-337 -101v-213h-113v213q-95 6 -190 33q-169 52 -269 188.5t-100 313.5z M236 510q0 -177 116.5 -291.5t294.5 -128.5v838q-176 -12 -293.5 -127.5t-117.5 -290.5z" />
<glyph unicode="&#xa3;" horiz-adv-x="1622" d="M76 221q0 54 27 97t70.5 67t93 36.5t100.5 12.5q87 0 164 -25.5t182 -76.5q2 18 2 53q0 83 -55.5 161t-135.5 140h-428v115h326q-131 131 -131 291q0 105 74 198q77 97 208.5 140t278.5 43q83 0 159 -14t149 -43.5t133.5 -82t99.5 -123.5q27 -48 39.5 -95t23.5 -116h-137 q-6 78 -34.5 139t-72 101t-103 66.5t-124.5 37.5t-139 11q-55 0 -109 -7.5t-110.5 -27.5t-99 -49.5t-70 -78.5t-27.5 -110q0 -57 29.5 -112t64 -90t86.5 -78h475v-115h-372q66 -76 102.5 -149t36.5 -156q0 -44 -23 -119q58 -34 87 -50.5t87.5 -45t106.5 -42t90 -13.5 q69 0 116.5 37t67 91.5t19.5 122.5q0 26 -4 80h127q2 -18 2 -55q0 -86 -19 -157.5t-58 -128t-105.5 -88t-155.5 -31.5q-58 0 -113 14t-113.5 46.5t-93.5 55t-100 68.5q-138 -184 -379 -184q-57 0 -111 14t-100.5 42t-75 75.5t-28.5 107.5zM209 213q0 -42 31.5 -69t69 -35.5 t79.5 -8.5q165 0 283 121q-85 52 -148 76.5t-141 24.5q-40 0 -76.5 -8.5t-67 -34.5t-30.5 -66z" />
<glyph unicode="&#xa5;" horiz-adv-x="1492" d="M12 1423h172l574 -733l559 733h164l-518 -667h360v-113h-446l-52 -68v-69h498v-113h-498v-393h-131v393h-524v113h524v69l-55 68h-469v113h379z" />
<glyph unicode="&#xa6;" horiz-adv-x="471" d="M168 391h135v-825h-135v825zM168 670v825h135v-825h-135z" />
<glyph unicode="&#xa7;" horiz-adv-x="1409" d="M74 608q0 128 66 231t184 160q-56 68 -56 158q0 76 39 143q54 94 154 138.5t219 44.5q116 0 224.5 -31.5t248.5 -91.5l-78 -107q-235 107 -407 107q-47 0 -90.5 -10t-82 -31t-62 -58.5t-23.5 -86.5q0 -58 30 -90.5t88 -53.5q59 -21 159 -46t179.5 -43t170.5 -54.5 t152 -81t101.5 -121.5t40.5 -178q0 -83 -29 -161.5t-85 -133.5q-34 -34 -97 -70q34 -50 49 -92t15 -98q0 -110 -70 -205q-122 -166 -395 -166q-136 0 -269 36t-286 101l86 107q143 -58 257.5 -89.5t229.5 -31.5q74 0 140.5 24t113.5 79.5t47 132.5q0 26 -6 48.5t-20 40.5 t-27.5 32.5t-38 27.5t-40 21t-46.5 17.5t-45 13.5t-46.5 12t-41.5 10q-43 12 -128 32.5t-128 32.5q-52 12 -125 37q-272 102 -272 344zM213 618q0 -174 221 -235q47 -13 184 -46.5t230 -61t178 -62.5q164 117 164 285q0 63 -25 112.5t-54 78t-91 55t-95.5 36t-107.5 27.5 l-6 1.5t-5 1t-5 1.5q-17 4 -75 18.5t-84 21.5t-71.5 20t-82.5 26.5t-72 28.5q-89 -48 -146 -130t-57 -178z" />
<glyph unicode="&#xa8;" horiz-adv-x="768" d="M41 1165v197h143v-197h-143zM584 1165v197h143v-197h-143z" />
<glyph unicode="&#xa9;" horiz-adv-x="1705" d="M125 727q0 120 36 231t103 200t156 155.5t201 102.5t233 36q105 0 208.5 -30t197 -92t165 -147.5t114 -205.5t42.5 -258q0 -197 -97.5 -364t-265.5 -264t-368 -97q-150 0 -284.5 57.5t-231 155t-153 233.5t-56.5 287zM188 721q0 -181 88.5 -333t241 -240.5t334.5 -88.5 q135 0 257.5 52t211.5 140.5t142 211t53 256.5q0 185 -87.5 338t-239.5 241t-335 88q-137 0 -260.5 -52t-212 -141t-141 -212t-52.5 -260zM410 715q0 199 129.5 327.5t330.5 128.5q98 0 187 -35.5t155 -101.5q48 -51 95 -135l-109 -55q-57 110 -136 162.5t-188 52.5 q-151 0 -244 -96.5t-93 -251.5q0 -145 92.5 -238.5t236.5 -93.5q138 0 236 82q36 29 58 61.5t52 100.5l109 -50q-40 -74 -60 -104t-55 -66q-60 -66 -150.5 -101.5t-193.5 -35.5q-202 0 -327 124t-125 325z" />
<glyph unicode="&#xaa;" horiz-adv-x="894" d="M37 954q0 121 102 187q18 13 49.5 23t63.5 17t80.5 12t82 8t88 5t78.5 2.5t74.5 1t55.5 0.5q-2 43 -12 68.5t-40 48.5t-96.5 33t-124.5 10q-85 0 -150 -15t-102 -63q-19 -23 -32 -65l-111 4q20 76 43 108q84 127 342 127q40 0 69.5 -1.5t71.5 -6t73.5 -15t64 -26.5 t55.5 -42.5t35 -61.5q14 -43 14 -96v-312q0 -25 6 -41t13 -25t25 -13t30.5 -4.5t40.5 -0.5v-82q-62 -8 -90 -8q-56 0 -84.5 24.5t-34.5 78.5q-87 -61 -171 -88t-190 -27q-63 0 -116 11t-100.5 36t-75 73t-27.5 115zM150 950q0 -49 36.5 -81t80.5 -42t93 -10q58 0 119 11.5 t122 43t87 78.5q23 45 23 137v29q-145 0 -219 -2q-150 -5 -216 -25q-126 -38 -126 -139z" />
<glyph unicode="&#xab;" horiz-adv-x="1067" d="M113 584v112l409 351v-119l-278 -289l278 -291v-119zM541 584v112l415 355v-115l-282 -297l282 -297v-117z" />
<glyph unicode="&#xac;" horiz-adv-x="1581" d="M119 541v121h1280v-662h-127l2 541h-1155z" />
<glyph unicode="&#xad;" horiz-adv-x="747" d="M78 541v123h590v-123h-590z" />
<glyph unicode="&#xae;" horiz-adv-x="1705" d="M125 727q0 120 36 231t103 200t156 155.5t201 102.5t233 36q105 0 208.5 -30t197 -92t165 -147.5t114 -205.5t42.5 -258q0 -197 -97.5 -364t-265.5 -264t-368 -97q-150 0 -284.5 57.5t-231 155t-153 233.5t-56.5 287zM188 721q0 -181 88.5 -333t241 -240.5t334.5 -88.5 q135 0 257.5 52t211.5 140.5t142 211t53 256.5q0 185 -87.5 338t-239.5 241t-335 88q-137 0 -260.5 -52t-212 -141t-141 -212t-52.5 -260zM541 301v852h362q80 0 121.5 -7.5t77.5 -25.5q46 -25 73 -76.5t27 -115.5q0 -40 -12 -82t-31 -68q-45 -61 -127 -86q-30 -9 -92 -14 l260 -377h-141l-252 375h-150v-375h-116zM657 774h224q108 0 157 35q47 30 47 115q0 74 -47 106q-26 16 -51 19q-41 6 -129 6h-201v-281z" />
<glyph unicode="&#xaf;" horiz-adv-x="768" d="M41 1165v107h686v-107h-686z" />
<glyph unicode="&#xb0;" horiz-adv-x="724" d="M61 1231q0 125 88.5 213t212.5 88t213 -89t89 -212q0 -124 -88.5 -212.5t-213.5 -88.5q-124 0 -212.5 88t-88.5 213zM184 1231q0 -73 52 -125.5t126 -52.5q73 0 125 52t52 126t-52 126t-125 52q-74 0 -126 -52.5t-52 -125.5z" />
<glyph unicode="&#xb1;" horiz-adv-x="1581" d="M193 0v119h1196v-119h-1196zM193 772v119h536v487h123v-487h537v-119h-537v-491h-123v491h-536z" />
<glyph unicode="&#xb2;" horiz-adv-x="980" d="M104 1094q7 40 11 60t15 51.5t26 56.5q50 83 138 123t193 40q70 0 134.5 -19t117.5 -55t85 -95t32 -132q0 -57 -21.5 -109.5t-51.5 -90.5t-79.5 -77t-88.5 -63t-95 -55q-64 -34 -248 -119h594v-82h-757v95q6 3 51 23t60.5 27.5t60 28t67 32t62 31.5t64.5 34.5t56 32.5 t54.5 34.5t42.5 32.5q129 104 129 225q0 102 -78.5 158.5t-185.5 56.5q-130 0 -210.5 -66.5t-80.5 -193.5z" />
<glyph unicode="&#xb3;" horiz-adv-x="980" d="M96 754l88 28q35 -62 41 -71q44 -59 118.5 -86t158.5 -27q49 0 96 10t91.5 31t71.5 61t27 93q0 45 -21 77t-57 47.5t-72.5 22t-78.5 6.5h-162v82q11 0 62 -1.5t77 0t67 6.5t70.5 20t49.5 39q31 39 31 84q0 44 -24 77t-63 50t-79.5 24.5t-81.5 7.5q-73 0 -142.5 -22 t-105.5 -70q-15 -21 -29.5 -53.5t-15.5 -54.5l-90 30q46 137 139 194.5t244 57.5q61 0 118.5 -12.5t110 -39.5t84 -76t31.5 -115q0 -60 -37.5 -105t-97.5 -70q78 -23 126 -74.5t48 -127.5q0 -75 -35.5 -132.5t-95 -89.5t-125.5 -47.5t-137 -15.5q-87 0 -165 24.5t-143 81 t-92 136.5z" />
<glyph unicode="&#xb4;" horiz-adv-x="768" d="M193 1137l159 297h223l-294 -297h-88z" />
<glyph unicode="&#xb5;" horiz-adv-x="1476" d="M145 -383v1395h136v-576q0 -152 59 -225q90 -113 332 -113q127 0 238.5 31.5t179.5 87.5q81 66 81 193v602h134v-791q0 -57 30 -89t84 -32q31 0 51 2v-104q-88 -8 -118 -8q-85 0 -123 38t-47 130q-103 -96 -226 -140.5t-286 -44.5q-162 0 -277 50q-32 13 -54.5 29.5 t-57.5 51.5v-487h-136z" />
<glyph unicode="&#xb6;" horiz-adv-x="1310" d="M152 1049q0 171 106 280q62 62 143 89.5t203 27.5h506v-111h-68v-1675h-118v1675h-332v-1675h-121v1014q-154 26 -236.5 123.5t-82.5 251.5z" />
<glyph unicode="&#xb7;" horiz-adv-x="555" d="M197 596v203h157v-203h-157z" />
<glyph unicode="&#xb8;" horiz-adv-x="768" d="M182 -340q82 -8 125 -8q150 0 150 72q0 27 -15.5 44.5t-46 23.5t-48.5 7.5t-50 1.5v238h92v-162q197 -9 197 -141q0 -45 -23 -77.5t-61.5 -48.5t-77 -23t-80.5 -7q-56 0 -162 12v68z" />
<glyph unicode="&#xb9;" horiz-adv-x="980" d="M266 1155v82q115 0 172 35.5t88 138.5h68v-883h-96v678q-50 -30 -93 -41.5t-104 -11.5q-6 0 -17.5 1t-17.5 1z" />
<glyph unicode="&#xba;" horiz-adv-x="980" d="M49 1090q0 92 38 165.5t102 119t143.5 69.5t167.5 24q181 0 306.5 -103.5t125.5 -279.5q0 -92 -39.5 -164.5t-105 -116.5t-145.5 -66.5t-167 -22.5q-85 0 -161.5 25.5t-135.5 72t-94 118.5t-35 159zM168 1085q0 -135 90.5 -205.5t230.5 -70.5q134 0 230 74t96 204 q0 139 -96.5 214t-239.5 75q-131 0 -221 -80.5t-90 -210.5z" />
<glyph unicode="&#xbb;" horiz-adv-x="1067" d="M109 229v115l280 295l-280 297v117l413 -355v-114zM543 231v119l276 289l-276 291v119l409 -355v-108z" />
<glyph unicode="&#xbc;" horiz-adv-x="2217" d="M266 1155v82q115 0 172 35.5t88 138.5h68v-883h-96v678q-50 -30 -93 -41.5t-104 -11.5q-6 0 -17.5 1t-17.5 1zM610 0l820 1409h106l-817 -1409h-109zM1270 231v80l547 574h98v-568h190v-86h-190v-231h-94v231h-551zM1389 317h432v455z" />
<glyph unicode="&#xbd;" horiz-adv-x="2217" d="M266 1155v82q115 0 172 35.5t88 138.5h68v-883h-96v678q-50 -30 -93 -41.5t-104 -11.5q-6 0 -17.5 1t-17.5 1zM567 0l819 1409h109l-817 -1409h-111zM1341 565q19 114 52 168q51 84 138.5 124t192.5 40q70 0 134.5 -19t117.5 -55t85 -95t32 -132q0 -57 -21 -109 t-52 -90.5t-79.5 -77t-88.5 -63t-95 -53.5q-64 -34 -248 -119h594v-84h-757v94q399 179 518 279q129 107 129 223q0 70 -39.5 120t-97.5 72.5t-127 22.5q-130 0 -210.5 -66.5t-80.5 -193.5z" />
<glyph unicode="&#xbe;" horiz-adv-x="2217" d="M96 754l88 28q35 -62 41 -71q44 -59 118.5 -86t158.5 -27q49 0 96 10t91.5 31t71.5 61t27 93q0 45 -21 77t-57 47.5t-72.5 22t-78.5 6.5h-162v82q11 0 62 -1.5t77 0t67 6.5t70.5 20t49.5 39q31 39 31 84q0 44 -24 77t-63 50t-79.5 24.5t-81.5 7.5q-73 0 -142.5 -22 t-105.5 -70q-15 -21 -29.5 -53.5t-15.5 -54.5l-90 30q46 137 139 194.5t244 57.5q61 0 118.5 -12.5t110 -39.5t84 -76t31.5 -115q0 -60 -37.5 -105t-97.5 -70q78 -23 126 -74.5t48 -127.5q0 -75 -35.5 -132.5t-95 -89.5t-125.5 -47.5t-137 -15.5q-87 0 -165 24.5t-143 81 t-92 136.5zM700 0l820 1409h106l-815 -1409h-111zM1270 231v80l547 574h98v-568h190v-86h-190v-231h-94v231h-551zM1389 317h432v455z" />
<glyph unicode="&#xbf;" d="M104 424q0 209 150 330q61 50 164 84q23 8 82 24t90 29q3 1 11 4.5t10.5 4.5t9.5 4.5t10 5.5t8.5 5.5t8.5 6t7 7t6.5 8.5t5.5 9.5t5 11.5q5 11 6.5 25t2.5 35t1 26h127q-5 -123 -23 -159q-8 -15 -18 -28.5t-18 -22.5t-24.5 -19t-23 -14.5t-29 -12.5t-26.5 -9.5 t-31.5 -9.5t-29.5 -9q-76 -20 -129 -41q-107 -42 -162 -110t-55 -179q0 -71 25 -129t67.5 -97t99.5 -65.5t118.5 -38.5t127.5 -12q116 0 226 47.5t175 136.5q14 19 27.5 45t20.5 42.5t20.5 51.5t17.5 46l121 -43q-78 -227 -223.5 -337t-384.5 -110q-88 0 -169.5 16 t-155.5 52t-129 88t-87.5 129.5t-32.5 171.5zM668 1245v201h155v-201h-155z" />
<glyph unicode="&#xc0;" horiz-adv-x="1622" d="M12 0l713 1446h156l729 -1446h-150l-186 375h-932l-184 -375h-146zM397 489h820l-414 828zM483 1843h228l176 -258h-99z" />
<glyph unicode="&#xc1;" horiz-adv-x="1622" d="M12 0l713 1446h156l729 -1446h-150l-186 375h-932l-184 -375h-146zM397 489h820l-414 828zM733 1585l172 258h230l-310 -258h-92z" />
<glyph unicode="&#xc2;" horiz-adv-x="1622" d="M12 0l713 1446h156l729 -1446h-150l-186 375h-932l-184 -375h-146zM397 489h820l-414 828zM502 1585l233 258h162l221 -258h-131l-174 158l-182 -158h-129z" />
<glyph unicode="&#xc3;" horiz-adv-x="1622" d="M12 0l713 1446h156l729 -1446h-150l-186 375h-932l-184 -375h-146zM389 1657q60 74 118.5 111.5t139.5 37.5q78 0 230 -41q11 -3 37 -11t41 -12t36.5 -7.5t40.5 -3.5q50 0 80.5 19t58.5 62l66 -24q-51 -82 -110 -125t-146 -43q-67 0 -196 42t-191 42q-26 0 -46 -5.5 t-40 -20t-30 -24t-34 -34.5zM397 489h820l-414 828z" />
<glyph unicode="&#xc4;" horiz-adv-x="1622" d="M14 0l711 1446h156l729 -1446h-150l-186 375h-932l-184 -375h-144zM399 489h815l-411 832zM399 1634v197h146v-197h-146zM1061 1634v197h145v-197h-145z" />
<glyph unicode="&#xc5;" horiz-adv-x="1622" d="M14 0l711 1446h156l729 -1446h-150l-186 375h-932l-184 -375h-144zM397 489h817l-411 832zM567 1694q0 84 69 130t157 46h14q56 0 105 -15.5t84.5 -55t35.5 -97.5q0 -88 -68.5 -135t-160.5 -47q-57 0 -108.5 16.5t-89.5 57.5t-38 100zM674 1694q0 -45 38.5 -65.5 t86.5 -20.5q49 0 87 21.5t38 66.5q0 49 -37.5 69.5t-89.5 20.5q-48 0 -85.5 -23.5t-37.5 -68.5z" />
<glyph unicode="&#xc6;" horiz-adv-x="2304" d="M-25 0l1037 1446h1181v-119h-997v-520h913v-123h-913v-563h1026v-121h-1163v356h-674l-254 -356h-156zM467 471h594v754q0 58 10 102z" />
<glyph unicode="&#xc7;" horiz-adv-x="1662" d="M84 729q0 166 65.5 310t176.5 242t259.5 154t311.5 56q161 0 314 -55.5t266 -161.5q59 -56 139 -180l-123 -70q-60 98 -94 135q-87 100 -219 151.5t-275 51.5q-187 0 -338.5 -78.5t-240 -225.5t-88.5 -335q0 -139 51.5 -257.5t140 -200.5t210 -128.5t259.5 -46.5 q164 0 306.5 60.5t242.5 181.5q18 22 47 67t33 50l125 -58q-246 -428 -770 -428v-86q196 -8 196 -149q0 -43 -24 -74t-63 -46t-77 -21.5t-77 -6.5q-56 0 -162 12v68q82 -8 125 -8q149 0 149 72q0 27 -15.5 44.5t-45.5 23.5t-48 7.5t-50 1.5v166q-152 14 -283 77t-224.5 162 t-146.5 234t-53 289z" />
<glyph unicode="&#xc8;" horiz-adv-x="1705" d="M170 0v1446h1384v-119h-1243v-508h1149v-123h-1149v-575h1303v-121h-1444zM526 1843h228l176 -258h-99z" />
<glyph unicode="&#xc9;" horiz-adv-x="1705" d="M170 0v1446h1384v-119h-1243v-508h1149v-123h-1149v-575h1303v-121h-1444zM776 1585l172 258h228l-308 -258h-92z" />
<glyph unicode="&#xca;" horiz-adv-x="1705" d="M170 0v1446h1384v-119h-1243v-508h1149v-123h-1149v-575h1303v-121h-1444zM545 1585l233 258h162l221 -258h-131l-174 158l-182 -158h-129z" />
<glyph unicode="&#xcb;" horiz-adv-x="1705" d="M170 0v1446h1384v-119h-1243v-508h1149v-123h-1149v-575h1303v-121h-1444zM453 1647v196h149v-196h-149zM1114 1647v196h150v-196h-150z" />
<glyph unicode="&#xcc;" horiz-adv-x="468" d="M-92 1843h227l176 -258h-98zM168 0v1446h137v-1446h-137z" />
<glyph unicode="&#xcd;" horiz-adv-x="468" d="M158 1585l172 258h227l-307 -258h-92zM168 0v1446h137v-1446h-137z" />
<glyph unicode="&#xce;" horiz-adv-x="468" d="M-74 1585l234 258h162l221 -258h-131l-174 158l-183 -158h-129zM168 0v1446h137v-1446h-137z" />
<glyph unicode="&#xcf;" horiz-adv-x="468" d="M-166 1647v196h150v-196h-150zM168 0v1446h137v-1446h-137zM496 1647v196h149v-196h-149z" />
<glyph unicode="&#xd0;" horiz-adv-x="1748" d="M0 729v107h170v610h754q162 0 274 -37q217 -71 334 -261.5t117 -428.5q0 -248 -115 -422q-51 -77 -113.5 -131.5t-126 -86.5t-145 -50t-154.5 -23.5t-170 -5.5h-655v729h-170zM313 121h494q124 0 217 10.5t176 46.5q107 46 177 131.5t98 185.5t28 220q0 131 -37.5 243 t-121 201.5t-205.5 132.5q-104 35 -246 35h-580v-493h713v-105h-713v-608z" />
<glyph unicode="&#xd1;" horiz-adv-x="1835" d="M170 0v1446h129l1239 -1268v1268h129v-1446h-129l-1239 1262v-1262h-129zM496 1657q60 74 118.5 111.5t139.5 37.5q79 0 231 -41q12 -3 37.5 -11t40 -12t36 -7.5t40.5 -3.5q50 0 81 19t60 62l63 -24q-51 -82 -110 -125t-146 -43q-68 0 -197 42t-188 42q-34 0 -62.5 -13 t-43.5 -26.5t-45 -44.5z" />
<glyph unicode="&#xd2;" horiz-adv-x="1878" d="M86 725q0 173 68 318.5t183 242.5t267 151t320 54q218 0 383 -64q222 -85 354.5 -273.5t132.5 -424.5q0 -161 -63 -305q-51 -115 -136.5 -204.5t-192 -145.5t-226 -84.5t-246.5 -28.5q-171 0 -324 52.5t-268.5 148t-183.5 241.5t-68 322zM238 721q0 -151 55.5 -273 t151.5 -200.5t223.5 -121t273.5 -42.5q147 0 274 44.5t220.5 126.5t146.5 206t53 274q0 139 -51 260.5t-151 208.5q-88 78 -226 121t-268 43q-144 0 -272 -45.5t-223.5 -127t-151 -204.5t-55.5 -270zM612 1843h226l178 -258h-98z" />
<glyph unicode="&#xd3;" horiz-adv-x="1878" d="M86 725q0 173 68 318.5t183 242.5t267 151t320 54q218 0 383 -64q222 -85 354.5 -273.5t132.5 -424.5q0 -161 -63 -305q-51 -115 -136.5 -204.5t-192 -145.5t-226 -84.5t-246.5 -28.5q-171 0 -324 52.5t-268.5 148t-183.5 241.5t-68 322zM238 721q0 -151 55.5 -273 t151.5 -200.5t223.5 -121t273.5 -42.5q147 0 274 44.5t220.5 126.5t146.5 206t53 274q0 139 -51 260.5t-151 208.5q-88 78 -226 121t-268 43q-144 0 -272 -45.5t-223.5 -127t-151 -204.5t-55.5 -270zM860 1585l174 258h228l-308 -258h-94z" />
<glyph unicode="&#xd4;" horiz-adv-x="1878" d="M86 725q0 173 68 318.5t183 242.5t267 151t320 54q218 0 383 -64q222 -85 354.5 -273.5t132.5 -424.5q0 -161 -63 -305q-51 -115 -136.5 -204.5t-192 -145.5t-226 -84.5t-246.5 -28.5q-171 0 -324 52.5t-268.5 148t-183.5 241.5t-68 322zM238 721q0 -151 55.5 -273 t151.5 -200.5t223.5 -121t273.5 -42.5q147 0 274 44.5t220.5 126.5t146.5 206t53 274q0 139 -51 260.5t-151 208.5q-88 78 -226 121t-268 43q-144 0 -272 -45.5t-223.5 -127t-151 -204.5t-55.5 -270zM629 1585l235 258h162l221 -258h-133l-172 158l-182 -158h-131z" />
<glyph unicode="&#xd5;" horiz-adv-x="1878" d="M86 725q0 173 68 318.5t183 242.5t267 151t320 54q218 0 383 -64q222 -85 354.5 -273.5t132.5 -424.5q0 -161 -63 -305q-51 -115 -136.5 -204.5t-192 -145.5t-226 -84.5t-246.5 -28.5q-171 0 -324 52.5t-268.5 148t-183.5 241.5t-68 322zM238 721q0 -151 55.5 -273 t151.5 -200.5t223.5 -121t273.5 -42.5q147 0 274 44.5t220.5 126.5t146.5 206t53 274q0 139 -51 260.5t-151 208.5q-88 78 -226 121t-268 43q-144 0 -272 -45.5t-223.5 -127t-151 -204.5t-55.5 -270zM516 1657q62 75 120 112t140 37q78 0 230 -41q11 -3 37 -11t41 -12 t36.5 -7.5t40.5 -3.5q49 0 80.5 19t58.5 62l66 -24q-57 -85 -112.5 -126.5t-143.5 -41.5q-68 0 -197 42t-190 42q-48 0 -80 -20.5t-70 -63.5z" />
<glyph unicode="&#xd6;" horiz-adv-x="1878" d="M86 725q0 173 68 318.5t183 242.5t267 151t320 54q218 0 383 -64q222 -85 354.5 -273.5t132.5 -424.5q0 -161 -63 -305q-51 -115 -136.5 -204.5t-192 -145.5t-226 -84.5t-246.5 -28.5q-171 0 -324 52.5t-268.5 148t-183.5 241.5t-68 322zM238 721q0 -151 55.5 -273 t151.5 -200.5t223.5 -121t273.5 -42.5q147 0 274 44.5t220.5 126.5t146.5 206t53 274q0 139 -51 260.5t-151 208.5q-88 78 -226 121t-268 43q-144 0 -272 -45.5t-223.5 -127t-151 -204.5t-55.5 -270zM535 1634v199h147v-199h-147zM1196 1634v199h150v-199h-150z" />
<glyph unicode="&#xd7;" horiz-adv-x="1581" d="M309 244l389 358l-381 361l95 86l381 -361l391 361l88 -84l-391 -363l385 -362l-95 -86l-385 362l-389 -356z" />
<glyph unicode="&#xd8;" horiz-adv-x="1878" d="M74 82l182 149q-172 222 -172 476q0 145 44.5 269.5t124 215.5t187.5 156t236 97t268 32q353 0 590 -199l188 154l74 -86l-182 -150q86 -95 132 -220.5t46 -258.5q0 -157 -63 -301q-50 -116 -135.5 -206t-192 -146t-226 -84.5t-245.5 -28.5q-355 0 -594 201l-193 -156z M233 717q0 -228 129 -400l1070 877q-192 162 -508 162q-215 0 -384 -98t-253 -289q-54 -120 -54 -252zM440 238q100 -83 232.5 -123.5t273.5 -40.5q193 0 349 76.5t248.5 225t92.5 343.5q0 220 -127 393z" />
<glyph unicode="&#xd9;" horiz-adv-x="1792" d="M162 610v836h133v-776v-35v-39.5t0.5 -37t1.5 -41t3 -38t5.5 -39.5t8 -34.5t10.5 -34.5q106 -277 538 -277q84 0 145.5 4.5t140.5 19t143 49.5t108 89q29 35 48.5 79t28.5 77t13.5 93t5 84t0.5 93v764h131v-866q0 -137 -34.5 -242.5t-96.5 -175.5t-153 -115t-197 -64.5 t-236 -19.5q-100 0 -184 8.5t-175 34.5t-159.5 69t-124 116t-82.5 171q-22 77 -22 248zM569 1843h228l176 -258h-99z" />
<glyph unicode="&#xda;" horiz-adv-x="1792" d="M162 610v836h133v-776v-35v-39.5t0.5 -37t1.5 -41t3 -38t5.5 -39.5t8 -34.5t10.5 -34.5q106 -277 538 -277q84 0 145.5 4.5t140.5 19t143 49.5t108 89q29 35 48.5 79t28.5 77t13.5 93t5 84t0.5 93v764h131v-866q0 -137 -34.5 -242.5t-96.5 -175.5t-153 -115t-197 -64.5 t-236 -19.5q-100 0 -184 8.5t-175 34.5t-159.5 69t-124 116t-82.5 171q-22 77 -22 248zM819 1585l172 258h228l-308 -258h-92z" />
<glyph unicode="&#xdb;" horiz-adv-x="1792" d="M162 610v836h133v-776v-35v-39.5t0.5 -37t1.5 -41t3 -38t5.5 -39.5t8 -34.5t10.5 -34.5q106 -277 538 -277q84 0 145.5 4.5t140.5 19t143 49.5t108 89q29 35 48.5 79t28.5 77t13.5 93t5 84t0.5 93v764h131v-866q0 -137 -34.5 -242.5t-96.5 -175.5t-153 -115t-197 -64.5 t-236 -19.5q-100 0 -184 8.5t-175 34.5t-159.5 69t-124 116t-82.5 171q-22 77 -22 248zM588 1585l233 258h162l221 -258h-133l-172 158l-182 -158h-129z" />
<glyph unicode="&#xdc;" horiz-adv-x="1792" d="M162 610v836h133v-776v-35v-39.5t0.5 -37t1.5 -41t3 -38t5.5 -39.5t8 -34.5t10.5 -34.5q106 -277 538 -277q84 0 145.5 4.5t140.5 19t143 49.5t108 89q29 35 48.5 79t28.5 77t13.5 93t5 84t0.5 93v764h131v-866q0 -137 -34.5 -242.5t-96.5 -175.5t-153 -115t-197 -64.5 t-236 -19.5q-100 0 -184 8.5t-175 34.5t-159.5 69t-124 116t-82.5 171q-22 77 -22 248zM494 1638v197h147v-197h-147zM1155 1638v197h148v-197h-148z" />
<glyph unicode="&#xdd;" horiz-adv-x="1492" d="M12 1446h172l576 -744l557 744h164l-656 -860v-586h-131v586zM670 1585l172 258h227l-307 -258h-92z" />
<glyph unicode="&#xde;" horiz-adv-x="1662" d="M168 0v1446h143v-301h817q58 0 100.5 -3t93 -12.5t89.5 -27.5t78 -49.5t70 -75.5q67 -94 67 -223q0 -130 -67 -230q-38 -57 -90.5 -94t-117 -54.5t-122 -23.5t-133.5 -6h-785v-346h-143zM311 465h779q387 0 387 285q0 84 -35 143q-25 43 -57 70.5t-72.5 40t-77.5 16.5 t-92 4h-832v-559z" />
<glyph unicode="&#xdf;" d="M147 0v1028q0 137 33 207q32 72 92 123t136 77t150.5 37t156.5 11q70 0 140.5 -9.5t146 -34t133 -62t94.5 -99.5t37 -141q0 -102 -61.5 -173t-162.5 -96q158 -36 238 -146.5t80 -275.5q0 -218 -122.5 -343.5t-342.5 -125.5q-181 0 -282 91t-101 268h131q8 -125 70 -184.5 t190 -59.5q152 0 234 94.5t82 249.5q0 76 -16 135t-44.5 97t-68.5 64.5t-88 38.5t-102 19.5t-111.5 6.5t-116.5 0h-21.5h-19h-21.5v110q11 0 60.5 -0.5t74 0t72.5 2.5t78.5 8.5t67.5 16.5t65 27t47 40q51 60 51 129q0 54 -29 96.5t-72.5 67.5t-101 41t-107 21.5t-97.5 5.5 q-80 0 -150.5 -10.5t-146 -47.5t-109.5 -98q-37 -65 -37 -184v-1022h-129z" />
<glyph unicode="&#xe0;" horiz-adv-x="1366" d="M84 303q0 90 45 161.5t125 113.5q32 16 79 29t92.5 21t114 14.5t113.5 10t122 5.5t109.5 2.5t105.5 1t83 0.5q-1 47 -3 67.5t-14 52.5t-36 56q-46 46 -153.5 63t-211.5 17q-54 0 -90 -2t-83.5 -8t-80.5 -20t-66.5 -36t-57 -58.5t-37.5 -84.5l-144 6q9 67 56 137 q121 188 497 188q402 0 506 -168q43 -71 43 -186v-463q0 -73 45 -101.5t121 -17.5v-104q-14 -1 -56 -4.5t-65 -3.5q-83 0 -119 36.5t-49 118.5q-88 -61 -98 -67q-91 -53 -207 -80t-231 -27q-123 0 -219.5 26.5t-159.5 100.5q-76 88 -76 203zM229 301q0 -48 21.5 -85.5 t54 -60t77 -37t86 -19.5t85.5 -5q78 0 165.5 17t175 59.5t128.5 101.5q25 36 37.5 85t14 82t1.5 93v17q-600 0 -733 -78q-113 -67 -113 -170zM381 1432h223l154 -297h-88z" />
<glyph unicode="&#xe1;" horiz-adv-x="1366" d="M84 303q0 90 45 161.5t125 113.5q32 16 79 29t92.5 21t114 14.5t113.5 10t122 5.5t109.5 2.5t105.5 1t83 0.5q-1 47 -3 67.5t-14 52.5t-36 56q-46 46 -153.5 63t-211.5 17q-54 0 -90 -2t-83.5 -8t-80.5 -20t-66.5 -36t-57 -58.5t-37.5 -84.5l-144 6q9 67 56 137 q121 188 497 188q402 0 506 -168q43 -71 43 -186v-463q0 -73 45 -101.5t121 -17.5v-104q-14 -1 -56 -4.5t-65 -3.5q-83 0 -119 36.5t-49 118.5q-88 -61 -98 -67q-91 -53 -207 -80t-231 -27q-123 0 -219.5 26.5t-159.5 100.5q-76 88 -76 203zM229 301q0 -48 21.5 -85.5 t54 -60t77 -37t86 -19.5t85.5 -5q78 0 165.5 17t175 59.5t128.5 101.5q25 36 37.5 85t14 82t1.5 93v17q-600 0 -733 -78q-113 -67 -113 -170zM606 1137l160 297h223l-295 -297h-88z" />
<glyph unicode="&#xe2;" horiz-adv-x="1366" d="M84 303q0 90 45 161.5t125 113.5q32 16 79 29t92.5 21t114 14.5t113.5 10t122 5.5t109.5 2.5t105.5 1t83 0.5q-1 47 -3 67.5t-14 52.5t-36 56q-46 46 -153.5 63t-211.5 17q-54 0 -90 -2t-83.5 -8t-80.5 -20t-66.5 -36t-57 -58.5t-37.5 -84.5l-144 6q9 67 56 137 q121 188 497 188q402 0 506 -168q43 -71 43 -186v-463q0 -73 45 -101.5t121 -17.5v-104q-14 -1 -56 -4.5t-65 -3.5q-83 0 -119 36.5t-49 118.5q-88 -61 -98 -67q-91 -53 -207 -80t-231 -27q-123 0 -219.5 26.5t-159.5 100.5q-76 88 -76 203zM229 301q0 -48 21.5 -85.5 t54 -60t77 -37t86 -19.5t85.5 -5q78 0 165.5 17t175 59.5t128.5 101.5q25 36 37.5 85t14 82t1.5 93v17q-600 0 -733 -78q-113 -67 -113 -170zM403 1124l222 271h120l211 -271h-104l-168 174l-170 -174h-111z" />
<glyph unicode="&#xe3;" horiz-adv-x="1366" d="M84 303q0 90 45 161.5t125 113.5q32 16 79 29t92.5 21t114 14.5t113.5 10t122 5.5t109.5 2.5t105.5 1t83 0.5q-1 47 -3 67.5t-14 52.5t-36 56q-46 46 -153.5 63t-211.5 17q-54 0 -90 -2t-83.5 -8t-80.5 -20t-66.5 -36t-57 -58.5t-37.5 -84.5l-144 6q9 67 56 137 q121 188 497 188q402 0 506 -168q43 -71 43 -186v-463q0 -73 45 -101.5t121 -17.5v-104q-14 -1 -56 -4.5t-65 -3.5q-83 0 -119 36.5t-49 118.5q-88 -61 -98 -67q-91 -53 -207 -80t-231 -27q-123 0 -219.5 26.5t-159.5 100.5q-76 88 -76 203zM229 301q0 -48 21.5 -85.5 t54 -60t77 -37t86 -19.5t85.5 -5q78 0 165.5 17t175 59.5t128.5 101.5q25 36 37.5 85t14 82t1.5 93v17q-600 0 -733 -78q-113 -67 -113 -170zM260 1260q64 75 122.5 113t139.5 38q30 0 69 -6.5t59.5 -11.5t73 -20t60.5 -17q92 -27 127 -27q81 0 136 84l63 -24 q-103 -168 -256 -168q-69 0 -197.5 43t-187.5 43q-49 0 -82.5 -20.5t-69.5 -63.5z" />
<glyph unicode="&#xe4;" horiz-adv-x="1366" d="M84 303q0 90 45 161.5t125 113.5q32 16 79 29t92.5 21t114 14.5t113.5 10t122 5.5t109.5 2.5t105.5 1t83 0.5q-1 47 -3 67.5t-14 52.5t-36 56q-46 46 -153.5 63t-211.5 17q-54 0 -90 -2t-83.5 -8t-80.5 -20t-66.5 -36t-57 -58.5t-37.5 -84.5l-144 6q9 67 56 137 q121 188 497 188q402 0 506 -168q43 -71 43 -186v-463q0 -73 45 -101.5t121 -17.5v-104q-14 -1 -56 -4.5t-65 -3.5q-83 0 -119 36.5t-49 118.5q-88 -61 -98 -67q-91 -53 -207 -80t-231 -27q-123 0 -219.5 26.5t-159.5 100.5q-76 88 -76 203zM229 301q0 -48 21.5 -85.5 t54 -60t77 -37t86 -19.5t85.5 -5q78 0 165.5 17t175 59.5t128.5 101.5q25 36 37.5 85t14 82t1.5 93v17q-600 0 -733 -78q-113 -67 -113 -170zM332 1155v195h143v-195h-143zM877 1155v195h141v-195h-141z" />
<glyph unicode="&#xe5;" horiz-adv-x="1366" d="M84 303q0 90 45 161.5t125 113.5q32 16 79 29t92.5 21t114 14.5t113.5 10t122 5.5t109.5 2.5t105.5 1t83 0.5q-1 47 -3 67.5t-14 52.5t-36 56q-46 46 -153.5 63t-211.5 17q-54 0 -90 -2t-83.5 -8t-80.5 -20t-66.5 -36t-57 -58.5t-37.5 -84.5l-144 6q9 67 56 137 q121 188 497 188q402 0 506 -168q43 -71 43 -186v-463q0 -73 45 -101.5t121 -17.5v-104q-14 -1 -56 -4.5t-65 -3.5q-83 0 -119 36.5t-49 118.5q-88 -61 -98 -67q-91 -53 -207 -80t-231 -27q-123 0 -219.5 26.5t-159.5 100.5q-76 88 -76 203zM229 301q0 -48 21.5 -85.5 t54 -60t77 -37t86 -19.5t85.5 -5q78 0 165.5 17t175 59.5t128.5 101.5q25 36 37.5 85t14 82t1.5 93v17q-600 0 -733 -78q-113 -67 -113 -170zM442 1288q0 59 37.5 101t88.5 59.5t108 17.5q59 0 109.5 -16t87 -57t36.5 -101q0 -85 -71.5 -131.5t-161.5 -46.5q-56 0 -107 17 t-89 58t-38 99zM549 1290q0 -45 38.5 -65.5t86.5 -20.5q50 0 88.5 21t38.5 67q0 45 -40.5 66.5t-88.5 21.5q-46 0 -84.5 -23.5t-38.5 -66.5z" />
<glyph unicode="&#xe6;" horiz-adv-x="2347" d="M82 309q0 60 19.5 108t49 79t76.5 54t91 35t103 19t101.5 8.5t98.5 1.5h485q0 143 -43 199q-33 43 -108 70.5t-142.5 36t-134.5 8.5q-58 0 -103 -3.5t-99 -16t-92 -35t-70 -62.5t-46 -96l-145 14q12 42 29 84q106 229 534 229q368 0 483 -137q17 -22 41 -67 q78 105 202 154.5t267 49.5q174 0 319.5 -76.5t211.5 -226.5q38 -88 49 -237h-1018v-21q0 -99 38.5 -176t105 -123t149.5 -69t178 -23q94 0 178.5 26t156 86t105.5 146l107 -69q-33 -71 -68 -111q-84 -98 -215 -147.5t-272 -49.5q-132 0 -263 43t-212 127q-33 36 -60 88 q-29 -76 -95 -129.5t-152.5 -80t-167 -37.5t-164.5 -11q-60 0 -115 6t-114.5 19.5t-108 39t-87.5 61.5t-61 90.5t-22 121.5zM236 307q0 -221 374 -221q64 0 127.5 10.5t127 32.5t116.5 63t82 95q39 74 43 215h-541q-329 0 -329 -195zM1247 614h858q-19 89 -47 134 q-54 88 -155 133t-213 45q-115 0 -217.5 -39.5t-163.5 -122.5q-41 -56 -62 -150z" />
<glyph unicode="&#xe7;" horiz-adv-x="1366" d="M82 512q0 128 53 232.5t141.5 171t201 102t235.5 35.5q185 0 346.5 -84t247.5 -240l-136 -57q-83 136 -192.5 200t-267.5 64q-149 0 -265.5 -60.5t-173.5 -187.5q-39 -86 -39 -176q0 -129 66.5 -225.5t172.5 -143.5t233 -47q109 0 217.5 40t177.5 114q14 16 28 36t22 33 t22 39t20 37l135 -51q-66 -109 -131.5 -178t-157 -115.5t-213.5 -64.5q-15 -2 -46 -4.5t-46 -4.5v-100q199 -9 199 -145q0 -44 -23.5 -76t-62.5 -47.5t-77.5 -22t-80.5 -6.5q-54 0 -160 12v68q82 -8 125 -8q148 0 148 72q0 16 -6.5 28.5t-15 20.5t-24 14t-27 8.5t-31 4 t-28 1.5h-26.5v176q-118 9 -218.5 47t-177.5 103t-121 164t-44 221z" />
<glyph unicode="&#xe8;" horiz-adv-x="1366" d="M96 528q0 121 46.5 220t126 163t183.5 98.5t222 34.5q196 0 353.5 -95.5t221.5 -272.5q23 -59 35 -184h-1046q17 -190 152 -295t329 -105q305 0 459 260l106 -76q-112 -153 -253 -228t-326 -75q-122 0 -232 39t-194 109.5t-133.5 176t-49.5 230.5zM242 606h878 q-19 105 -89.5 180.5t-164.5 109.5t-200 34q-159 0 -276.5 -86t-147.5 -238zM381 1432h223l154 -297h-88z" />
<glyph unicode="&#xe9;" horiz-adv-x="1366" d="M96 528q0 121 46.5 220t126 163t183.5 98.5t222 34.5q196 0 353.5 -95.5t221.5 -272.5q23 -59 35 -184h-1046q17 -190 152 -295t329 -105q305 0 459 260l106 -76q-112 -153 -253 -228t-326 -75q-122 0 -232 39t-194 109.5t-133.5 176t-49.5 230.5zM242 606h878 q-19 105 -89.5 180.5t-164.5 109.5t-200 34q-159 0 -276.5 -86t-147.5 -238zM606 1137l160 297h223l-295 -297h-88z" />
<glyph unicode="&#xea;" horiz-adv-x="1366" d="M96 528q0 121 46.5 220t126 163t183.5 98.5t222 34.5q196 0 353.5 -95.5t221.5 -272.5q23 -59 35 -184h-1046q17 -190 152 -295t329 -105q305 0 459 260l106 -76q-112 -153 -253 -228t-326 -75q-122 0 -232 39t-194 109.5t-133.5 176t-49.5 230.5zM242 606h878 q-19 105 -89.5 180.5t-164.5 109.5t-200 34q-159 0 -276.5 -86t-147.5 -238zM403 1124l222 271h120l211 -271h-104l-168 174l-170 -174h-111z" />
<glyph unicode="&#xeb;" horiz-adv-x="1366" d="M96 528q0 121 46.5 220t126 163t183.5 98.5t222 34.5q196 0 353.5 -95.5t221.5 -272.5q23 -59 35 -184h-1046q17 -190 152 -295t329 -105q305 0 459 260l106 -76q-112 -153 -253 -228t-326 -75q-122 0 -232 39t-194 109.5t-133.5 176t-49.5 230.5zM242 606h878 q-19 105 -89.5 180.5t-164.5 109.5t-200 34q-159 0 -276.5 -86t-147.5 -238zM342 1165v197h143v-197h-143zM887 1165v197h141v-197h-141z" />
<glyph unicode="&#xec;" horiz-adv-x="425" d="M-90 1432h225l154 -297h-88zM145 0v1012h136v-1012h-136z" />
<glyph unicode="&#xed;" horiz-adv-x="425" d="M137 1137l160 297h223l-295 -297h-88zM145 0v1012h136v-1012h-136z" />
<glyph unicode="&#xee;" horiz-adv-x="425" d="M-66 1124l222 271h120l211 -271h-104l-168 174l-170 -174h-111zM145 0v1012h136v-1012h-136z" />
<glyph unicode="&#xef;" horiz-adv-x="425" d="M-127 1165v197h143v-197h-143zM145 0v1012h136v-1012h-136zM416 1165v197h143v-197h-143z" />
<glyph unicode="&#xf0;" d="M90 512q0 101 35 188t95.5 149t141 107t171.5 66.5t186 21.5q267 0 428 -161q-50 111 -110 187t-158 151l-457 -97l-49 95l403 90q-81 59 -180 114l172 50q28 -17 58 -38.5t67 -50t55 -41.5l283 62l51 -96l-235 -52q30 -23 94 -96q110 -128 170.5 -280t60.5 -314 q0 -187 -87.5 -323.5t-233 -203.5t-330.5 -67q-176 0 -315 56q-149 61 -232.5 190.5t-83.5 292.5zM242 506q0 -137 65 -233.5t171.5 -141.5t242.5 -45q98 0 185 26.5t155 76.5t107.5 131.5t39.5 183.5t-38 184.5t-104 135.5t-153 81.5t-186 28.5q-98 0 -185 -28t-154 -80.5 t-106.5 -135t-39.5 -184.5z" />
<glyph unicode="&#xf1;" d="M145 0v1012h136v-142q63 58 88 76q71 47 178.5 70.5t208.5 23.5q73 0 142.5 -11t139 -34.5t126.5 -68.5t91 -107q52 -95 52 -260v-559h-136v588q0 323 -432 323q-67 0 -128.5 -9.5t-122.5 -32.5t-106 -59t-73 -93t-28 -129v-588h-136zM303 1260q64 75 122.5 113t139.5 38 q30 0 69 -6.5t59.5 -11.5t73 -20t60.5 -17q11 -3 38 -11t47.5 -12t39.5 -4q78 0 138 84l63 -24q-52 -80 -112 -124t-144 -44q-69 0 -197.5 43t-189.5 43q-86 0 -150 -84z" />
<glyph unicode="&#xf2;" d="M88 504q0 105 34.5 194t94.5 152t141 107.5t173 65.5t192 21q140 0 233 -28q185 -53 294.5 -190.5t109.5 -327.5q0 -101 -36.5 -188t-98.5 -148.5t-144 -105t-173.5 -64.5t-186.5 -21q-123 0 -229 28t-200 97t-147 174q-57 111 -57 234zM242 504q0 -103 37.5 -184 t103.5 -131.5t151.5 -76.5t184.5 -26t185.5 26t155 76t108.5 131.5t40 184.5q0 134 -66.5 233t-174.5 148t-240 49q-98 0 -185.5 -28.5t-154.5 -81.5t-106 -135.5t-39 -184.5zM422 1432h225l154 -297h-88z" />
<glyph unicode="&#xf3;" d="M88 504q0 105 34.5 194t94.5 152t141 107.5t173 65.5t192 21q140 0 233 -28q185 -53 294.5 -190.5t109.5 -327.5q0 -101 -36.5 -188t-98.5 -148.5t-144 -105t-173.5 -64.5t-186.5 -21q-123 0 -229 28t-200 97t-147 174q-57 111 -57 234zM242 504q0 -103 37.5 -184 t103.5 -131.5t151.5 -76.5t184.5 -26t185.5 26t155 76t108.5 131.5t40 184.5q0 134 -66.5 233t-174.5 148t-240 49q-98 0 -185.5 -28.5t-154.5 -81.5t-106 -135.5t-39 -184.5zM649 1137l160 297h223l-295 -297h-88z" />
<glyph unicode="&#xf4;" d="M88 504q0 105 34.5 194t94.5 152t141 107.5t173 65.5t192 21q140 0 233 -28q185 -53 294.5 -190.5t109.5 -327.5q0 -101 -36.5 -188t-98.5 -148.5t-144 -105t-173.5 -64.5t-186.5 -21q-123 0 -229 28t-200 97t-147 174q-57 111 -57 234zM242 504q0 -103 37.5 -184 t103.5 -131.5t151.5 -76.5t184.5 -26t185.5 26t155 76t108.5 131.5t40 184.5q0 134 -66.5 233t-174.5 148t-240 49q-98 0 -185.5 -28.5t-154.5 -81.5t-106 -135.5t-39 -184.5zM446 1124l222 271h120l211 -271h-104l-168 174l-170 -174h-111z" />
<glyph unicode="&#xf5;" d="M88 504q0 105 34.5 194t94.5 152t141 107.5t173 65.5t192 21q140 0 233 -28q185 -53 294.5 -190.5t109.5 -327.5q0 -101 -36.5 -188t-98.5 -148.5t-144 -105t-173.5 -64.5t-186.5 -21q-123 0 -229 28t-200 97t-147 174q-57 111 -57 234zM242 504q0 -103 37.5 -184 t103.5 -131.5t151.5 -76.5t184.5 -26t185.5 26t155 76t108.5 131.5t40 184.5q0 134 -66.5 233t-174.5 148t-240 49q-98 0 -185.5 -28.5t-154.5 -81.5t-106 -135.5t-39 -184.5zM303 1260q64 75 122.5 113t139.5 38q30 0 69 -6.5t59.5 -11.5t73 -20t60.5 -17q11 -3 38 -11 t47.5 -12t39.5 -4q78 0 138 84l63 -24q-52 -80 -112 -124t-144 -44q-69 0 -197.5 43t-189.5 43q-86 0 -150 -84z" />
<glyph unicode="&#xf6;" d="M88 504q0 105 34.5 194t94.5 152t141 107.5t173 65.5t192 21q140 0 233 -28q185 -53 294.5 -190.5t109.5 -327.5q0 -101 -36.5 -188t-98.5 -148.5t-144 -105t-173.5 -64.5t-186.5 -21q-123 0 -229 28t-200 97t-147 174q-57 111 -57 234zM242 504q0 -103 37.5 -184 t103.5 -131.5t151.5 -76.5t184.5 -26t185.5 26t155 76t108.5 131.5t40 184.5q0 134 -66.5 233t-174.5 148t-240 49q-98 0 -185.5 -28.5t-154.5 -81.5t-106 -135.5t-39 -184.5zM379 1153v197h143v-197h-143zM924 1153v197h141v-197h-141z" />
<glyph unicode="&#xf7;" horiz-adv-x="1581" d="M135 539v123h1311v-123h-1311zM705 809v168h169v-168h-169zM707 217v168h170v-168h-170z" />
<glyph unicode="&#xf8;" d="M68 53l145 121q-65 91 -96 167.5t-31 172.5q0 84 28.5 166.5t80.5 148.5q89 111 227.5 164.5t294.5 53.5q238 0 405 -115l146 121l71 -80l-133 -113q67 -67 106.5 -163t39.5 -191q0 -100 -35.5 -187t-97 -149.5t-142.5 -107.5t-172 -67t-186 -22q-120 0 -220.5 30.5 t-203.5 96.5l-158 -129zM223 506q0 -150 88 -248l717 594q-60 39 -141 59.5t-160 20.5q-96 0 -185.5 -28.5t-161 -80.5t-114.5 -134.5t-43 -182.5zM393 182q65 -45 152 -68.5t174 -23.5q96 0 184 29t156.5 82t109.5 135t41 182q0 145 -98 264z" />
<glyph unicode="&#xf9;" d="M145 446v566h136v-553q0 -52 2 -84t13.5 -74.5t33.5 -75.5q49 -69 144 -98t200 -29q84 0 170.5 15t174.5 58t124 108q28 50 28 131v602h134v-1012h-134v147q-188 -174 -497 -174q-411 0 -502 263q-27 73 -27 210zM422 1432h225l154 -297h-88z" />
<glyph unicode="&#xfa;" d="M145 446v566h136v-553q0 -52 2 -84t13.5 -74.5t33.5 -75.5q49 -69 144 -98t200 -29q84 0 170.5 15t174.5 58t124 108q28 50 28 131v602h134v-1012h-134v147q-188 -174 -497 -174q-411 0 -502 263q-27 73 -27 210zM649 1137l160 297h223l-295 -297h-88z" />
<glyph unicode="&#xfb;" d="M145 446v566h136v-553q0 -52 2 -84t13.5 -74.5t33.5 -75.5q49 -69 144 -98t200 -29q84 0 170.5 15t174.5 58t124 108q28 50 28 131v602h134v-1012h-134v147q-188 -174 -497 -174q-411 0 -502 263q-27 73 -27 210zM446 1124l222 271h120l211 -271h-104l-168 174l-170 -174 h-111z" />
<glyph unicode="&#xfc;" d="M145 446v566h136v-553q0 -52 2 -84t13.5 -74.5t33.5 -75.5q49 -69 144 -98t200 -29q84 0 170.5 15t174.5 58t124 108q28 50 28 131v602h134v-1012h-134v147q-188 -174 -497 -174q-411 0 -502 263q-27 73 -27 210zM383 1153v197h141v-197h-141zM926 1153v197h141v-197 h-141z" />
<glyph unicode="&#xfd;" horiz-adv-x="1150" d="M0 1012h162l452 -918l387 918h146l-477 -1090q-22 -50 -37.5 -82.5t-35.5 -67.5t-37.5 -56t-42.5 -42.5t-51.5 -33t-62 -21t-77.5 -13t-95 -3.5q-103 0 -208 24v127q107 -37 206 -37q133 0 200 51t114 177zM500 1137l159 297h224l-295 -297h-88z" />
<glyph unicode="&#xfe;" d="M152 -383v1829h131v-594q82 99 212 143.5t277 44.5q164 0 294.5 -61.5t208 -182t77.5 -282.5v-6q0 -123 -51.5 -226t-137 -169t-195 -102t-227.5 -36q-143 0 -255.5 41.5t-202.5 139.5v-539h-131zM285 506q0 -136 43 -211q56 -99 168 -147t239 -48t231 46t169 141t65 223 q0 87 -35 168q-55 123 -165.5 182.5t-254.5 59.5h-6q-206 0 -330 -107t-124 -307z" />
<glyph unicode="&#xff;" horiz-adv-x="1150" d="M0 1012h162l452 -918l387 918h146l-477 -1090q-22 -50 -37.5 -82.5t-35.5 -67.5t-37.5 -56t-42.5 -42.5t-51.5 -33t-62 -21t-77.5 -13t-95 -3.5q-103 0 -208 24v127q107 -37 206 -37q133 0 200 51t114 177zM236 1165v197h143v-197h-143zM778 1165v197h144v-197h-144z" />
<glyph unicode="&#x152;" horiz-adv-x="2347" d="M80 729q0 141 51 277.5t145 236.5q220 234 568 234q108 0 187 -19t190 -65v53h1024v-119h-883v-516h821v-121h-821v-569h913v-121h-1054v47q-176 -80 -363 -80q-220 0 -397.5 96t-279 270.5t-101.5 395.5zM233 727q0 -96 33 -205q66 -211 230 -320.5t391 -109.5 q94 0 163.5 17.5t170.5 60.5v1094q-167 92 -365 92q-215 0 -370 -114.5t-220 -319.5q-33 -104 -33 -195z" />
<glyph unicode="&#x153;" horiz-adv-x="2433" d="M82 512q0 125 51.5 228t138 169t196.5 102t230 36q116 0 234 -39.5t194 -112.5q37 -35 95 -121q76 138 212 204t304 66q183 0 334.5 -84t222.5 -243q34 -79 53 -223h-1047q8 -127 77.5 -219t174.5 -136.5t232 -44.5q146 0 264.5 67t189.5 193l109 -78q-49 -67 -86 -104 q-96 -98 -223.5 -147.5t-270.5 -49.5q-166 0 -311.5 74.5t-224.5 212.5q-80 -137 -229 -211t-316 -74q-120 0 -228.5 36t-192.5 102.5t-133.5 169.5t-49.5 227zM236 508q0 -130 61 -226t162.5 -143t230.5 -47q192 0 323.5 114.5t131.5 303.5q0 187 -131.5 304.5 t-321.5 117.5q-193 0 -324.5 -117t-131.5 -307zM1303 606h880q-35 159 -159.5 242.5t-294.5 83.5q-163 0 -277 -85t-149 -241z" />
<glyph unicode="&#x178;" horiz-adv-x="1492" d="M12 1446h172l576 -744l557 744h164l-656 -860v-586h-131v586zM346 1647v196h150v-196h-150zM1008 1647v196h149v-196h-149z" />
<glyph unicode="&#x2c6;" horiz-adv-x="768" d="M106 1124l222 271h121l213 -271h-105l-168 174l-170 -174h-113z" />
<glyph unicode="&#x2dc;" horiz-adv-x="768" d="M-43 1260q63 73 123.5 112t140.5 39q30 0 69 -6.5t59.5 -11.5t73 -20t60.5 -17q11 -3 38 -11t47.5 -12t39.5 -4q77 0 137 84l66 -24q-52 -80 -112 -124t-144 -44q-69 0 -197.5 43t-189.5 43q-49 0 -83 -21t-69 -63z" />
<glyph unicode="&#x2000;" horiz-adv-x="935" />
<glyph unicode="&#x2001;" horiz-adv-x="1870" />
<glyph unicode="&#x2002;" horiz-adv-x="935" />
<glyph unicode="&#x2003;" horiz-adv-x="1870" />
<glyph unicode="&#x2004;" horiz-adv-x="623" />
<glyph unicode="&#x2005;" horiz-adv-x="467" />
<glyph unicode="&#x2006;" horiz-adv-x="311" />
<glyph unicode="&#x2007;" horiz-adv-x="311" />
<glyph unicode="&#x2008;" horiz-adv-x="233" />
<glyph unicode="&#x2009;" horiz-adv-x="374" />
<glyph unicode="&#x200a;" horiz-adv-x="103" />
<glyph unicode="&#x2010;" horiz-adv-x="747" d="M78 541v123h590v-123h-590z" />
<glyph unicode="&#x2011;" horiz-adv-x="747" d="M78 541v123h590v-123h-590z" />
<glyph unicode="&#x2012;" horiz-adv-x="747" d="M78 541v123h590v-123h-590z" />
<glyph unicode="&#x2013;" horiz-adv-x="1249" d="M78 541v123h1093v-123h-1093z" />
<glyph unicode="&#x2014;" horiz-adv-x="1865" d="M78 541v123h1710v-123h-1710z" />
<glyph unicode="&#x2018;" horiz-adv-x="555" d="M197 1006v260q0 90 36.5 138t124.5 54v-76q-43 -4 -64.5 -34.5t-21.5 -75.5v-51h97v-215h-172z" />
<glyph unicode="&#x2019;" horiz-adv-x="555" d="M188 1233v213h174v-258q0 -90 -37 -137.5t-124 -53.5v74q43 4 64.5 35t21.5 76v51h-99z" />
<glyph unicode="&#x201a;" horiz-adv-x="555" d="M188 0v213h174v-258q0 -90 -36.5 -138.5t-124.5 -54.5v76q43 4 64.5 35t21.5 76v51h-99z" />
<glyph unicode="&#x201c;" horiz-adv-x="854" d="M199 1012v243q0 96 35 151.5t126 55.5v-82q-19 0 -33 -6t-22 -18.5t-13 -23.5t-6.5 -30t-2 -29t-0.5 -30v-18h90v-213h-174zM483 1012v243q0 96 36.5 151.5t127.5 55.5v-82q-19 0 -33.5 -6t-23 -19.5t-13.5 -25.5t-7 -32.5t-2.5 -32t-0.5 -31.5v-8h90v-213h-174z" />
<glyph unicode="&#x201d;" horiz-adv-x="854" d="M195 1233v213h174v-242q0 -96 -35.5 -151.5t-126.5 -55.5v80q28 1 45 13.5t23.5 37.5t8 42t1.5 47v16h-90zM481 1233v213h174v-242q0 -96 -36 -151.5t-127 -55.5v80q19 0 33 6.5t22 19t13 24t6.5 31t2 29.5t0.5 30v16h-88z" />
<glyph unicode="&#x201e;" horiz-adv-x="854" d="M195 0v213h174v-242q0 -46 -7 -81t-24.5 -65.5t-50.5 -46.5t-80 -16v82q27 1 44 13.5t23.5 36.5t8.5 42t2 46v18h-90zM481 0v213h174v-242q0 -96 -36 -152.5t-127 -56.5v82q18 0 32 6t22 18t13 24t7 30.5t2.5 30t0.5 29.5v18h-88z" />
<glyph unicode="&#x2022;" horiz-adv-x="684" d="M115 500v446h454v-446h-454z" />
<glyph unicode="&#x2026;" horiz-adv-x="2048" d="M262 0v164h158v-164h-158zM944 0v164h158v-164h-158zM1626 0l2 164h158l-2 -164h-158z" />
<glyph unicode="&#x202f;" horiz-adv-x="374" />
<glyph unicode="&#x2039;" horiz-adv-x="512" d="M47 584v112l414 355v-115l-281 -297l281 -297v-117z" />
<glyph unicode="&#x203a;" horiz-adv-x="512" d="M49 231v119l277 289l-277 291v119l410 -355v-108z" />
<glyph unicode="&#x205f;" horiz-adv-x="467" />
<glyph unicode="&#x20ac;" horiz-adv-x="1720" d="M61 555l60 109h94v49q0 2 1 27t1 44h-156l58 109h110q56 274 268 431t527 157q394 0 608 -240l-76 -141q-83 123 -219 188.5t-309 65.5q-264 0 -431 -120.5t-208 -340.5h1067l-53 -109h-1032q-2 -31 -2 -71v-49h972l-53 -109h-905q53 -223 221 -344t426 -121 q167 0 316.5 60t240.5 163v-178q-122 -90 -257.5 -131t-313.5 -41q-207 0 -357 57.5t-260 180.5q-70 78 -110 160.5t-60 193.5h-168z" />
<glyph unicode="&#x2122;" horiz-adv-x="1406" d="M39 1362v84h536v-84h-217v-596h-98v596h-221zM633 766v680h137l176 -557l174 557h140v-680h-91l5 584l-183 -584h-86l-182 582l8 -582h-98z" />
<glyph unicode="&#xe000;" horiz-adv-x="1013" d="M0 0v1014h1014v-1014h-1014z" />
<glyph unicode="&#xfb01;" horiz-adv-x="1150" d="M20 907v105h201q0 8 -1 66.5t-0.5 95t5 84.5t13.5 73q31 83 98.5 116.5t165.5 33.5q97 0 196 -21v-119q-103 21 -174 21q-96 0 -132 -43t-36 -141v-166h342v-105h-342v-907h-135v907h-201zM870 0v1012h136v-1012h-136zM870 1192v197h136v-197h-136z" />
<glyph unicode="&#xfb02;" horiz-adv-x="1150" d="M20 907v105h201q0 8 -1 66.5t-0.5 95t5 84.5t13.5 73q31 83 98.5 116.5t165.5 33.5q97 0 196 -21v-119q-103 21 -174 21q-96 0 -132 -43t-36 -141v-166h342v-105h-342v-907h-135v907h-201zM872 0v1446h136v-1446h-136z" />
</font>
</defs>
</svg>
